<svg xmlns="http://www.w3.org/2000/svg" xmlns:xlink="http://www.w3.org/1999/xlink" width="940" zoomAndPan="magnify" viewBox="0 0 705 591.000005" height="788" preserveAspectRatio="xMidYMid meet" version="1.0"><path fill="#f9f9f9" d="M 129.714844 233.574219 L 322.769531 233.574219 L 322.769531 335.398438 L 129.714844 335.398438 Z M 129.714844 233.574219 " fill-opacity="1" fill-rule="evenodd"/><path fill="#cccccc" d="M 147.414062 256.816406 L 145.757812 256.816406 L 145.757812 323.222656 L 147.414062 323.222656 L 147.414062 314.921875 L 160.136719 314.921875 L 160.136719 323.222656 L 161.246094 323.222656 L 161.246094 314.921875 L 174.519531 314.921875 L 174.519531 323.222656 L 175.628906 323.222656 L 175.628906 314.921875 L 188.902344 314.921875 L 188.902344 323.222656 L 190.011719 323.222656 L 190.011719 314.921875 L 203.285156 314.921875 L 203.285156 323.222656 L 204.390625 323.222656 L 204.390625 314.921875 L 217.667969 314.921875 L 217.667969 323.222656 L 218.773438 323.222656 L 218.773438 314.921875 L 232.050781 314.921875 L 232.050781 323.222656 L 233.15625 323.222656 L 233.15625 314.921875 L 245.878906 314.921875 L 245.878906 323.222656 L 247.539062 323.222656 L 247.539062 314.921875 L 260.261719 314.921875 L 260.261719 323.222656 L 261.921875 323.222656 L 261.921875 314.921875 L 274.644531 314.921875 L 274.644531 323.222656 L 275.75 323.222656 L 275.75 314.921875 L 289.027344 314.921875 L 289.027344 323.222656 L 290.132812 323.222656 L 290.132812 314.921875 L 303.410156 314.921875 L 303.410156 323.222656 L 304.515625 323.222656 L 304.515625 256.816406 L 303.410156 256.816406 L 303.410156 262.351562 L 290.132812 262.351562 L 290.132812 256.816406 L 289.027344 256.816406 L 289.027344 262.351562 L 275.75 262.351562 L 275.75 256.816406 L 274.644531 256.816406 L 274.644531 262.351562 L 261.921875 262.351562 L 261.921875 256.816406 L 260.261719 256.816406 L 260.261719 262.351562 L 247.539062 262.351562 L 247.539062 256.816406 L 245.878906 256.816406 L 245.878906 262.351562 L 233.15625 262.351562 L 233.15625 256.816406 L 232.050781 256.816406 L 232.050781 262.351562 L 218.773438 262.351562 L 218.773438 256.816406 L 217.667969 256.816406 L 217.667969 262.351562 L 204.390625 262.351562 L 204.390625 256.816406 L 203.285156 256.816406 L 203.285156 262.351562 L 190.011719 262.351562 L 190.011719 256.816406 L 188.902344 256.816406 L 188.902344 262.351562 L 175.628906 262.351562 L 175.628906 256.816406 L 174.519531 256.816406 L 174.519531 262.351562 L 161.246094 262.351562 L 161.246094 256.816406 L 160.136719 256.816406 L 160.136719 262.351562 L 147.414062 262.351562 Z M 147.414062 313.816406 L 147.414062 304.410156 L 160.136719 304.410156 L 160.136719 313.816406 Z M 161.246094 313.816406 L 161.246094 304.410156 L 174.519531 304.410156 L 174.519531 313.816406 Z M 175.628906 313.816406 L 175.628906 304.410156 L 188.902344 304.410156 L 188.902344 313.816406 Z M 190.011719 313.816406 L 190.011719 304.410156 L 203.285156 304.410156 L 203.285156 313.816406 Z M 204.390625 313.816406 L 204.390625 304.410156 L 217.667969 304.410156 L 217.667969 313.816406 Z M 218.773438 313.816406 L 218.773438 304.410156 L 232.050781 304.410156 L 232.050781 313.816406 Z M 233.15625 313.816406 L 233.15625 304.410156 L 245.878906 304.410156 L 245.878906 313.816406 Z M 247.539062 313.816406 L 247.539062 304.410156 L 260.261719 304.410156 L 260.261719 313.816406 Z M 261.921875 313.816406 L 261.921875 304.410156 L 274.644531 304.410156 L 274.644531 313.816406 Z M 275.75 313.816406 L 275.75 304.410156 L 289.027344 304.410156 L 289.027344 313.816406 Z M 290.132812 313.816406 L 290.132812 304.410156 L 303.410156 304.410156 L 303.410156 313.816406 Z M 147.414062 303.300781 L 147.414062 294.449219 L 160.136719 294.449219 L 160.136719 303.300781 Z M 161.246094 303.300781 L 161.246094 294.449219 L 174.519531 294.449219 L 174.519531 303.300781 Z M 175.628906 303.300781 L 175.628906 294.449219 L 188.902344 294.449219 L 188.902344 303.300781 Z M 190.011719 303.300781 L 190.011719 294.449219 L 203.285156 294.449219 L 203.285156 303.300781 Z M 204.390625 303.300781 L 204.390625 294.449219 L 217.667969 294.449219 L 217.667969 303.300781 Z M 218.773438 303.300781 L 218.773438 294.449219 L 232.050781 294.449219 L 232.050781 303.300781 Z M 233.15625 303.300781 L 233.15625 294.449219 L 245.878906 294.449219 L 245.878906 303.300781 Z M 247.539062 303.300781 L 247.539062 294.449219 L 260.261719 294.449219 L 260.261719 303.300781 Z M 261.921875 303.300781 L 261.921875 294.449219 L 274.644531 294.449219 L 274.644531 303.300781 Z M 275.75 303.300781 L 275.75 294.449219 L 289.027344 294.449219 L 289.027344 303.300781 Z M 290.132812 303.300781 L 290.132812 294.449219 L 303.410156 294.449219 L 303.410156 303.300781 Z M 147.414062 292.789062 L 147.414062 283.933594 L 160.136719 283.933594 L 160.136719 292.789062 Z M 161.246094 292.789062 L 161.246094 283.933594 L 174.519531 283.933594 L 174.519531 292.789062 Z M 175.628906 292.789062 L 175.628906 283.933594 L 188.902344 283.933594 L 188.902344 292.789062 Z M 190.011719 292.789062 L 190.011719 283.933594 L 203.285156 283.933594 L 203.285156 292.789062 Z M 204.390625 292.789062 L 204.390625 283.933594 L 217.667969 283.933594 L 217.667969 292.789062 Z M 218.773438 292.789062 L 218.773438 283.933594 L 232.050781 283.933594 L 232.050781 292.789062 Z M 233.15625 292.789062 L 233.15625 283.933594 L 245.878906 283.933594 L 245.878906 292.789062 Z M 247.539062 292.789062 L 247.539062 283.933594 L 260.261719 283.933594 L 260.261719 292.789062 Z M 261.921875 292.789062 L 261.921875 283.933594 L 274.644531 283.933594 L 274.644531 292.789062 Z M 275.75 292.789062 L 275.75 283.933594 L 289.027344 283.933594 L 289.027344 292.789062 Z M 290.132812 292.789062 L 290.132812 283.933594 L 303.410156 283.933594 L 303.410156 292.789062 Z M 147.414062 282.828125 L 147.414062 273.417969 L 160.136719 273.417969 L 160.136719 282.828125 Z M 161.246094 282.828125 L 161.246094 273.417969 L 174.519531 273.417969 L 174.519531 282.828125 Z M 175.628906 282.828125 L 175.628906 273.417969 L 188.902344 273.417969 L 188.902344 282.828125 Z M 190.011719 282.828125 L 190.011719 273.417969 L 203.285156 273.417969 L 203.285156 282.828125 Z M 204.390625 282.828125 L 204.390625 273.417969 L 217.667969 273.417969 L 217.667969 282.828125 Z M 218.773438 282.828125 L 218.773438 273.417969 L 232.050781 273.417969 L 232.050781 282.828125 Z M 233.15625 282.828125 L 233.15625 273.417969 L 245.878906 273.417969 L 245.878906 282.828125 Z M 247.539062 282.828125 L 247.539062 273.417969 L 260.261719 273.417969 L 260.261719 282.828125 Z M 261.921875 282.828125 L 261.921875 273.417969 L 274.644531 273.417969 L 274.644531 282.828125 Z M 275.75 282.828125 L 275.75 273.417969 L 289.027344 273.417969 L 289.027344 282.828125 Z M 290.132812 282.828125 L 290.132812 273.417969 L 303.410156 273.417969 L 303.410156 282.828125 Z M 147.414062 272.3125 L 147.414062 263.457031 L 160.136719 263.457031 L 160.136719 272.3125 Z M 161.246094 272.3125 L 161.246094 263.457031 L 174.519531 263.457031 L 174.519531 272.3125 Z M 175.628906 272.3125 L 175.628906 263.457031 L 188.902344 263.457031 L 188.902344 272.3125 Z M 190.007812 272.3125 L 190.007812 263.457031 L 203.285156 263.457031 L 203.285156 272.3125 Z M 204.390625 272.3125 L 204.390625 263.457031 L 217.667969 263.457031 L 217.667969 272.3125 Z M 218.773438 272.3125 L 218.773438 263.457031 L 232.050781 263.457031 L 232.050781 272.3125 Z M 233.15625 272.3125 L 233.15625 263.457031 L 245.878906 263.457031 L 245.878906 272.3125 Z M 247.539062 272.3125 L 247.539062 263.457031 L 260.261719 263.457031 L 260.261719 272.3125 Z M 261.921875 272.3125 L 261.921875 263.457031 L 274.644531 263.457031 L 274.644531 272.3125 Z M 275.75 272.3125 L 275.75 263.457031 L 289.027344 263.457031 L 289.027344 272.3125 Z M 290.132812 272.3125 L 290.132812 263.457031 L 303.410156 263.457031 L 303.410156 272.3125 Z M 290.132812 272.3125 " fill-opacity="1" fill-rule="evenodd"/><path fill="#86a140" d="M 146.308594 292.789062 C 154.054688 292.234375 157.371094 278.953125 166.222656 296.660156 C 168.988281 302.75 177.839844 294.449219 178.945312 288.914062 C 180.605469 280.613281 195.542969 280.613281 201.625 290.019531 C 203.839844 293.894531 213.242188 298.875 212.691406 290.574219 C 212.691406 275.078125 227.074219 259.03125 244.222656 287.808594 C 246.988281 292.789062 255.835938 291.128906 255.285156 285.039062 C 255.285156 283.933594 261.921875 279.507812 267.453125 287.253906 C 269.667969 290.019531 274.644531 292.234375 276.859375 286.699219 C 279.625 281.167969 281.835938 277.292969 289.027344 280.058594 C 294.558594 282.828125 289.582031 286.148438 301.199219 276.1875 C 305.070312 272.867188 303.410156 280.058594 303.410156 285.039062 C 303.410156 287.808594 303.410156 321.5625 303.410156 322.117188 C 285.15625 323.777344 246.433594 322.117188 225.964844 322.117188 C 216.5625 322.117188 146.308594 323.222656 146.308594 322.671875 C 146.308594 315.476562 146.308594 306.070312 146.308594 292.789062 Z M 146.308594 292.789062 " fill-opacity="1" fill-rule="evenodd"/><path fill="#a0bb5a" d="M 146.308594 295.554688 C 154.054688 295 157.371094 281.71875 166.222656 299.429688 C 168.988281 305.515625 177.839844 297.214844 178.945312 291.679688 C 180.605469 283.378906 195.542969 283.378906 201.625 292.789062 C 203.839844 296.660156 213.242188 301.640625 212.691406 293.339844 C 212.691406 277.847656 227.074219 261.796875 244.222656 290.574219 C 246.988281 295.554688 255.835938 293.894531 255.285156 287.808594 C 255.285156 286.699219 261.921875 282.273438 267.453125 290.019531 C 269.667969 292.789062 274.644531 295 276.859375 289.46875 C 279.625 283.933594 281.285156 280.058594 288.476562 282.828125 C 294.558594 285.59375 289.582031 288.914062 301.199219 278.953125 C 305.070312 275.632812 303.410156 282.828125 303.410156 287.808594 C 303.410156 290.574219 303.410156 324.332031 303.410156 324.882812 C 285.15625 326.542969 246.433594 324.882812 225.964844 324.882812 C 216.5625 324.882812 146.308594 325.992188 146.308594 325.4375 C 146.308594 318.242188 146.308594 308.835938 146.308594 295.554688 Z M 146.308594 295.554688 " fill-opacity="1" fill-rule="evenodd"/><path fill="#a0bb5a" d="M 292.898438 30.484375 L 295.664062 36.019531 L 300.644531 32.699219 L 305.070312 36.570312 L 304.515625 42.660156 L 310.046875 42.660156 L 311.707031 48.746094 L 307.835938 53.171875 L 312.261719 57.046875 L 310.046875 62.582031 L 303.964844 63.6875 L 305.625 69.222656 L 300.089844 72.542969 L 294.558594 70.328125 L 292.898438 75.308594 L 286.261719 75.308594 L 283.496094 69.773438 L 278.519531 73.09375 L 274.09375 69.222656 L 274.644531 63.132812 L 269.113281 62.582031 L 267.453125 57.046875 L 271.328125 52.066406 L 266.902344 48.746094 L 269.113281 43.210938 L 275.199219 41.550781 L 273.539062 36.570312 L 279.070312 33.25 L 284.601562 35.464844 L 286.261719 29.929688 Z M 289.582031 44.320312 C 294.007812 44.320312 297.878906 48.191406 297.878906 52.621094 C 297.878906 57.601562 294.007812 61.472656 289.582031 61.472656 C 285.15625 61.472656 281.285156 57.601562 281.285156 52.621094 C 281.285156 48.191406 285.15625 44.320312 289.582031 44.320312 Z M 289.582031 44.320312 " fill-opacity="1" fill-rule="evenodd"/><path fill="#a0bb5a" d="M 230.390625 479.277344 L 233.15625 484.8125 L 238.136719 481.492188 L 243.113281 485.363281 L 242.007812 491.453125 L 248.09375 492.003906 L 249.199219 498.09375 L 245.328125 502.519531 L 249.753906 505.839844 L 247.539062 511.375 L 241.453125 513.035156 L 243.113281 518.566406 L 238.136719 521.335938 L 232.605469 519.121094 L 230.390625 524.65625 L 224.304688 524.101562 L 221.539062 518.566406 L 216.5625 521.886719 L 211.582031 518.015625 L 212.691406 511.925781 L 206.605469 511.925781 L 205.5 505.839844 L 209.371094 501.414062 L 204.945312 497.539062 L 207.160156 492.003906 L 213.242188 490.898438 L 211.582031 485.363281 L 216.5625 482.042969 L 222.09375 484.257812 L 224.308594 479.277344 Z M 227.074219 493.664062 C 232.050781 493.664062 235.921875 496.984375 235.921875 501.964844 C 235.921875 506.394531 232.050781 510.265625 227.074219 510.265625 C 222.648438 510.265625 218.773438 506.394531 218.773438 501.964844 C 218.773438 496.984375 222.648438 493.664062 227.074219 493.664062 Z M 227.074219 493.664062 " fill-opacity="1" fill-rule="evenodd"/><path fill="#f9f9f9" d="M 459.40625 140.054688 L 589.402344 140.054688 L 589.402344 233.023438 L 459.40625 233.023438 Z M 459.40625 140.054688 " fill-opacity="1" fill-rule="evenodd"/><path fill="#cccccc" d="M 459.40625 140.054688 L 589.402344 140.054688 L 589.402344 152.226562 L 459.40625 152.226562 Z M 459.40625 140.054688 " fill-opacity="1" fill-rule="evenodd"/><path fill="#e6e6e6" d="M 582.761719 146.695312 C 582.761719 146.914062 582.71875 147.125 582.636719 147.328125 C 582.550781 147.53125 582.433594 147.710938 582.277344 147.867188 C 582.121094 148.023438 581.941406 148.144531 581.738281 148.226562 C 581.535156 148.3125 581.324219 148.355469 581.101562 148.355469 C 580.882812 148.355469 580.671875 148.3125 580.46875 148.226562 C 580.265625 148.144531 580.085938 148.023438 579.929688 147.867188 C 579.773438 147.710938 579.652344 147.53125 579.570312 147.328125 C 579.484375 147.125 579.445312 146.914062 579.445312 146.695312 C 579.445312 146.472656 579.484375 146.261719 579.570312 146.058594 C 579.652344 145.855469 579.773438 145.675781 579.929688 145.519531 C 580.085938 145.363281 580.265625 145.246094 580.46875 145.160156 C 580.671875 145.078125 580.882812 145.035156 581.101562 145.035156 C 581.324219 145.035156 581.535156 145.078125 581.738281 145.160156 C 581.941406 145.246094 582.121094 145.363281 582.277344 145.519531 C 582.433594 145.675781 582.550781 145.855469 582.636719 146.058594 C 582.71875 146.261719 582.761719 146.472656 582.761719 146.695312 Z M 582.761719 146.695312 " fill-opacity="1" fill-rule="nonzero"/><path fill="#e6e6e6" d="M 577.785156 146.695312 C 577.785156 146.914062 577.742188 147.125 577.65625 147.328125 C 577.574219 147.53125 577.453125 147.710938 577.296875 147.867188 C 577.140625 148.023438 576.964844 148.144531 576.757812 148.226562 C 576.554688 148.3125 576.34375 148.355469 576.125 148.355469 C 575.90625 148.355469 575.691406 148.3125 575.488281 148.226562 C 575.285156 148.144531 575.105469 148.023438 574.949219 147.867188 C 574.796875 147.710938 574.675781 147.53125 574.589844 147.328125 C 574.507812 147.125 574.464844 146.914062 574.464844 146.695312 C 574.464844 146.472656 574.507812 146.261719 574.589844 146.058594 C 574.675781 145.855469 574.796875 145.675781 574.949219 145.519531 C 575.105469 145.363281 575.285156 145.246094 575.488281 145.160156 C 575.691406 145.078125 575.90625 145.035156 576.125 145.035156 C 576.34375 145.035156 576.554688 145.078125 576.757812 145.160156 C 576.964844 145.246094 577.140625 145.363281 577.296875 145.519531 C 577.453125 145.675781 577.574219 145.855469 577.65625 146.058594 C 577.742188 146.261719 577.785156 146.472656 577.785156 146.695312 Z M 577.785156 146.695312 " fill-opacity="1" fill-rule="nonzero"/><path fill="#e6e6e6" d="M 572.253906 146.695312 C 572.253906 146.914062 572.210938 147.125 572.125 147.328125 C 572.042969 147.53125 571.921875 147.710938 571.765625 147.867188 C 571.609375 148.023438 571.429688 148.144531 571.226562 148.226562 C 571.023438 148.3125 570.8125 148.355469 570.59375 148.355469 C 570.371094 148.355469 570.160156 148.3125 569.957031 148.226562 C 569.753906 148.144531 569.574219 148.023438 569.417969 147.867188 C 569.265625 147.710938 569.144531 147.53125 569.058594 147.328125 C 568.976562 147.125 568.933594 146.914062 568.933594 146.695312 C 568.933594 146.472656 568.976562 146.261719 569.058594 146.058594 C 569.144531 145.855469 569.265625 145.675781 569.417969 145.519531 C 569.574219 145.363281 569.753906 145.246094 569.957031 145.160156 C 570.160156 145.078125 570.371094 145.035156 570.59375 145.035156 C 570.8125 145.035156 571.023438 145.078125 571.226562 145.160156 C 571.429688 145.246094 571.609375 145.363281 571.765625 145.519531 C 571.921875 145.675781 572.042969 145.855469 572.125 146.058594 C 572.210938 146.261719 572.253906 146.472656 572.253906 146.695312 Z M 572.253906 146.695312 " fill-opacity="1" fill-rule="nonzero"/><path fill="#f68853" d="M 560.636719 194.285156 C 560.082031 200.925781 559.53125 204.246094 559.53125 204.246094 C 570.039062 204.246094 578.890625 195.945312 579.445312 185.429688 C 579.996094 174.917969 572.804688 166.0625 562.296875 164.402344 C 562.296875 171.597656 562.296875 175.46875 562.296875 175.46875 C 566.722656 176.578125 569.488281 181.003906 568.933594 185.429688 C 568.378906 189.859375 565.0625 193.730469 560.636719 194.285156 Z M 560.636719 194.285156 " fill-opacity="1" fill-rule="evenodd"/><path fill="#a0bb5a" d="M 560.636719 194.285156 C 560.082031 200.925781 559.53125 204.246094 559.53125 204.246094 C 549.574219 203.691406 540.722656 195.390625 539.617188 185.429688 C 541.273438 185.429688 541.828125 185.984375 550.125 185.984375 C 551.230469 190.410156 555.65625 194.285156 560.636719 194.285156 Z M 560.636719 194.285156 " fill-opacity="1" fill-rule="evenodd"/><path fill="#b3b3b3" d="M 551.785156 185.984375 C 550.679688 183.21875 551.785156 179.898438 554.550781 178.238281 C 556.761719 176.578125 560.082031 176.578125 562.847656 178.238281 C 562.847656 178.238281 562.847656 172.703125 562.296875 161.636719 C 555.65625 161.082031 549.574219 163.296875 544.59375 168.277344 C 539.617188 172.703125 537.402344 179.34375 538.507812 185.984375 C 547.359375 185.984375 551.785156 185.984375 551.785156 185.984375 Z M 551.785156 185.984375 " fill-opacity="1" fill-rule="evenodd"/><path fill="#808080" d="M 540.167969 169.9375 C 540.167969 169.9375 540.722656 169.9375 540.722656 169.9375 C 541.273438 169.9375 541.273438 169.382812 541.273438 168.828125 L 537.957031 165.507812 C 537.957031 165.507812 537.957031 165.507812 537.402344 165.507812 L 528 165.507812 C 527.445312 165.507812 527.445312 165.507812 527.445312 166.0625 C 527.445312 166.617188 527.445312 166.617188 528 166.617188 L 537.402344 166.617188 Z M 540.167969 169.9375 " fill-opacity="1" fill-rule="nonzero"/><path fill="#808080" d="M 538.507812 197.050781 C 539.0625 197.050781 539.613281 197.050781 539.613281 196.5 C 539.613281 195.945312 539.0625 195.945312 538.507812 195.945312 L 528.550781 195.945312 C 528 195.945312 528 195.945312 528 196.5 C 528 197.050781 528 197.050781 528.550781 197.050781 Z M 538.507812 197.050781 " fill-opacity="1" fill-rule="nonzero"/><path fill="#808080" d="M 513.617188 160.527344 L 483.191406 160.527344 C 480.980469 160.527344 478.765625 161.082031 477.105469 162.742188 C 476 164.402344 474.894531 166.0625 474.894531 168.277344 L 474.894531 173.808594 C 474.894531 176.023438 476 177.683594 477.105469 179.34375 C 478.765625 181.003906 480.980469 181.558594 483.191406 181.558594 L 513.617188 181.558594 C 515.828125 181.558594 517.488281 181.003906 519.148438 179.34375 C 520.808594 177.683594 521.359375 176.023438 521.359375 173.808594 L 521.359375 168.277344 C 521.359375 166.0625 520.808594 164.402344 519.148438 162.742188 C 517.488281 161.082031 515.828125 160.527344 513.617188 160.527344 Z M 483.191406 161.082031 L 513.617188 161.082031 C 515.277344 161.082031 517.488281 161.636719 518.59375 163.296875 C 520.253906 164.402344 520.808594 166.0625 520.808594 168.277344 L 520.808594 173.808594 C 520.808594 176.023438 520.253906 177.683594 518.59375 178.789062 C 517.488281 180.449219 515.277344 181.003906 513.617188 181.003906 L 483.191406 181.003906 C 480.980469 181.003906 479.320312 180.449219 477.660156 178.789062 C 476.554688 177.683594 475.445312 176.023438 475.445312 173.808594 L 475.445312 168.277344 C 475.445312 166.0625 476.554688 164.402344 477.660156 163.296875 C 479.320312 161.636719 480.980469 161.082031 483.191406 161.082031 Z M 483.191406 161.082031 " fill-opacity="1" fill-rule="nonzero"/><path fill="#808080" d="M 513.617188 187.644531 L 483.746094 187.644531 C 481.53125 187.644531 479.320312 188.199219 477.660156 189.859375 C 476.554688 191.519531 475.445312 193.179688 475.445312 195.390625 L 475.445312 200.925781 C 475.445312 203.140625 476.554688 205.351562 477.660156 206.460938 C 479.320312 208.121094 481.53125 209.226562 483.746094 209.226562 L 513.617188 209.226562 C 515.828125 209.226562 518.042969 208.121094 519.699219 206.460938 C 520.808594 205.351562 521.914062 203.140625 521.914062 200.925781 L 521.914062 195.390625 C 521.914062 193.179688 520.808594 191.519531 519.699219 189.859375 C 518.042969 188.199219 515.828125 187.644531 513.617188 187.644531 Z M 483.746094 188.199219 L 513.617188 188.199219 C 515.828125 188.199219 518.042969 188.75 519.148438 190.410156 C 520.253906 191.519531 521.359375 193.730469 521.359375 195.390625 L 521.359375 200.925781 C 521.359375 203.140625 520.253906 204.800781 519.148438 206.460938 C 518.042969 207.566406 515.828125 208.671875 513.617188 208.671875 L 483.746094 208.671875 C 481.53125 208.671875 479.320312 207.566406 478.214844 206.460938 C 476.554688 204.800781 476 203.140625 476 200.925781 L 476 195.390625 C 476 193.730469 476.554688 191.519531 478.214844 190.410156 C 479.320312 188.75 481.53125 188.199219 483.746094 188.199219 Z M 483.746094 188.199219 " fill-opacity="1" fill-rule="nonzero"/><path fill="#808080" d="M 518.59375 214.207031 L 477.105469 214.207031 C 476.554688 214.207031 475.445312 214.761719 474.894531 215.3125 C 474.339844 215.867188 473.789062 216.972656 473.789062 218.082031 C 473.789062 218.632812 474.339844 219.742188 474.894531 220.292969 C 475.445312 220.847656 476.554688 221.402344 477.105469 221.402344 L 518.59375 221.402344 C 519.699219 221.402344 520.253906 220.847656 521.359375 220.292969 C 521.914062 219.742188 522.46875 218.632812 522.46875 218.082031 C 522.46875 216.972656 521.914062 215.867188 521.359375 215.3125 C 520.253906 214.761719 519.699219 214.207031 518.59375 214.207031 Z M 477.105469 214.761719 L 518.59375 214.761719 C 519.699219 214.761719 520.253906 215.3125 520.808594 215.867188 C 521.359375 216.421875 521.914062 216.972656 521.914062 218.082031 C 521.914062 218.632812 521.359375 219.742188 520.808594 220.292969 C 520.253906 220.847656 519.699219 220.847656 518.59375 220.847656 L 477.105469 220.847656 C 476.554688 220.847656 475.445312 220.847656 474.894531 220.292969 C 474.339844 219.742188 474.339844 218.632812 474.339844 218.082031 C 474.339844 216.972656 474.339844 216.421875 474.894531 215.867188 C 475.445312 215.3125 476.554688 214.761719 477.105469 214.761719 Z M 477.105469 214.761719 " fill-opacity="1" fill-rule="nonzero"/><path fill="#a0bb5a" d="M 569.488281 218.632812 L 572.804688 218.632812 L 572.804688 221.953125 L 569.488281 221.953125 Z M 569.488281 218.632812 " fill-opacity="1" fill-rule="evenodd"/><path fill="#f68853" d="M 558.421875 218.632812 L 561.742188 218.632812 L 561.742188 221.953125 L 558.421875 221.953125 Z M 558.421875 218.632812 " fill-opacity="1" fill-rule="evenodd"/><path fill="#cccccc" d="M 546.804688 218.632812 L 550.125 218.632812 L 550.125 221.953125 L 546.804688 221.953125 Z M 546.804688 218.632812 " fill-opacity="1" fill-rule="evenodd"/><path fill="#808080" d="M 531.316406 165.507812 C 531.316406 165.875 531.246094 166.230469 531.105469 166.566406 C 530.964844 166.90625 530.765625 167.207031 530.507812 167.464844 C 530.25 167.726562 529.949219 167.925781 529.609375 168.066406 C 529.269531 168.207031 528.917969 168.277344 528.550781 168.277344 C 528.183594 168.277344 527.832031 168.207031 527.492188 168.066406 C 527.15625 167.925781 526.855469 167.726562 526.597656 167.464844 C 526.335938 167.207031 526.136719 166.90625 525.996094 166.566406 C 525.855469 166.230469 525.785156 165.875 525.785156 165.507812 C 525.785156 165.140625 525.855469 164.789062 525.996094 164.449219 C 526.136719 164.113281 526.335938 163.8125 526.597656 163.554688 C 526.855469 163.292969 527.15625 163.09375 527.492188 162.953125 C 527.832031 162.8125 528.183594 162.742188 528.550781 162.742188 C 528.917969 162.742188 529.269531 162.8125 529.609375 162.953125 C 529.949219 163.09375 530.25 163.292969 530.507812 163.554688 C 530.765625 163.8125 530.964844 164.113281 531.105469 164.449219 C 531.246094 164.789062 531.316406 165.140625 531.316406 165.507812 Z M 531.316406 165.507812 " fill-opacity="1" fill-rule="nonzero"/><path fill="#808080" d="M 478.765625 164.402344 L 515.277344 164.402344 L 515.277344 164.957031 L 478.765625 164.957031 Z M 478.765625 164.402344 " fill-opacity="1" fill-rule="evenodd"/><path fill="#808080" d="M 478.765625 169.9375 L 515.277344 169.9375 L 515.277344 170.488281 L 478.765625 170.488281 Z M 478.765625 169.9375 " fill-opacity="1" fill-rule="evenodd"/><path fill="#808080" d="M 478.765625 175.46875 L 515.277344 175.46875 L 515.277344 176.023438 L 478.765625 176.023438 Z M 478.765625 175.46875 " fill-opacity="1" fill-rule="evenodd"/><path fill="#808080" d="M 479.320312 192.625 L 515.828125 192.625 L 515.828125 193.179688 L 479.320312 193.179688 Z M 479.320312 192.625 " fill-opacity="1" fill-rule="evenodd"/><path fill="#808080" d="M 479.320312 197.050781 L 515.828125 197.050781 L 515.828125 197.605469 L 479.320312 197.605469 Z M 479.320312 197.050781 " fill-opacity="1" fill-rule="evenodd"/><path fill="#808080" d="M 493.703125 202.03125 L 515.828125 202.03125 L 515.828125 202.585938 L 493.703125 202.585938 Z M 493.703125 202.03125 " fill-opacity="1" fill-rule="evenodd"/><path fill="#808080" d="M 487.617188 218.082031 L 509.742188 218.082031 L 509.742188 218.632812 L 487.617188 218.632812 Z M 487.617188 218.082031 " fill-opacity="1" fill-rule="evenodd"/><path fill="#f9f9f9" d="M 165.671875 38.230469 L 379.195312 38.230469 L 379.195312 190.964844 L 165.671875 190.964844 Z M 165.671875 38.230469 " fill-opacity="1" fill-rule="evenodd"/><path fill="#cccccc" d="M 165.671875 38.230469 L 379.195312 38.230469 L 379.195312 58.152344 L 165.671875 58.152344 Z M 165.671875 38.230469 " fill-opacity="1" fill-rule="evenodd"/><path fill="#e6e6e6" d="M 181.160156 48.746094 C 181.160156 49.113281 181.089844 49.464844 180.949219 49.804688 C 180.808594 50.144531 180.609375 50.441406 180.347656 50.703125 C 180.089844 50.960938 179.789062 51.160156 179.453125 51.300781 C 179.113281 51.441406 178.761719 51.511719 178.394531 51.511719 C 178.027344 51.511719 177.671875 51.441406 177.335938 51.300781 C 176.996094 51.160156 176.695312 50.960938 176.4375 50.703125 C 176.179688 50.441406 175.976562 50.144531 175.839844 49.804688 C 175.699219 49.464844 175.628906 49.113281 175.628906 48.746094 C 175.628906 48.378906 175.699219 48.027344 175.839844 47.6875 C 175.976562 47.347656 176.179688 47.046875 176.4375 46.789062 C 176.695312 46.53125 176.996094 46.328125 177.335938 46.1875 C 177.671875 46.050781 178.027344 45.980469 178.394531 45.980469 C 178.761719 45.980469 179.113281 46.050781 179.453125 46.1875 C 179.789062 46.328125 180.089844 46.53125 180.347656 46.789062 C 180.609375 47.046875 180.808594 47.347656 180.949219 47.6875 C 181.089844 48.027344 181.160156 48.378906 181.160156 48.746094 Z M 181.160156 48.746094 " fill-opacity="1" fill-rule="nonzero"/><path fill="#e6e6e6" d="M 190.011719 48.746094 C 190.011719 49.113281 189.941406 49.464844 189.800781 49.804688 C 189.660156 50.144531 189.460938 50.441406 189.199219 50.703125 C 188.941406 50.960938 188.640625 51.160156 188.300781 51.300781 C 187.964844 51.441406 187.609375 51.511719 187.242188 51.511719 C 186.878906 51.511719 186.523438 51.441406 186.1875 51.300781 C 185.847656 51.160156 185.546875 50.960938 185.289062 50.703125 C 185.027344 50.441406 184.828125 50.144531 184.6875 49.804688 C 184.546875 49.464844 184.476562 49.113281 184.476562 48.746094 C 184.476562 48.378906 184.546875 48.027344 184.6875 47.6875 C 184.828125 47.347656 185.027344 47.046875 185.289062 46.789062 C 185.546875 46.53125 185.847656 46.328125 186.1875 46.1875 C 186.523438 46.050781 186.878906 45.980469 187.242188 45.980469 C 187.609375 45.980469 187.964844 46.050781 188.300781 46.1875 C 188.640625 46.328125 188.941406 46.53125 189.199219 46.789062 C 189.460938 47.046875 189.660156 47.347656 189.800781 47.6875 C 189.941406 48.027344 190.011719 48.378906 190.011719 48.746094 Z M 190.011719 48.746094 " fill-opacity="1" fill-rule="nonzero"/><path fill="#e6e6e6" d="M 198.859375 48.746094 C 198.859375 49.113281 198.789062 49.464844 198.648438 49.804688 C 198.507812 50.144531 198.308594 50.441406 198.050781 50.703125 C 197.792969 50.960938 197.492188 51.160156 197.152344 51.300781 C 196.8125 51.441406 196.460938 51.511719 196.09375 51.511719 C 195.726562 51.511719 195.375 51.441406 195.035156 51.300781 C 194.699219 51.160156 194.398438 50.960938 194.140625 50.703125 C 193.878906 50.441406 193.679688 50.144531 193.539062 49.804688 C 193.398438 49.464844 193.328125 49.113281 193.328125 48.746094 C 193.328125 48.378906 193.398438 48.027344 193.539062 47.6875 C 193.679688 47.347656 193.878906 47.046875 194.140625 46.789062 C 194.398438 46.53125 194.699219 46.328125 195.035156 46.1875 C 195.375 46.050781 195.726562 45.980469 196.09375 45.980469 C 196.460938 45.980469 196.8125 46.050781 197.152344 46.1875 C 197.492188 46.328125 197.792969 46.53125 198.050781 46.789062 C 198.308594 47.046875 198.507812 47.347656 198.648438 47.6875 C 198.789062 48.027344 198.859375 48.378906 198.859375 48.746094 Z M 198.859375 48.746094 " fill-opacity="1" fill-rule="nonzero"/><path fill="#cccccc" d="M 213.242188 126.773438 C 213.796875 137.839844 214.347656 143.375 214.347656 143.375 C 197.199219 143.375 182.820312 130.09375 181.710938 112.9375 C 180.054688 95.78125 192.777344 80.289062 209.925781 78.074219 C 209.925781 90.25 209.925781 96.335938 209.925781 96.335938 C 202.734375 98.550781 198.308594 105.191406 198.859375 112.9375 C 199.414062 120.132812 205.5 126.21875 213.242188 126.773438 Z M 213.242188 126.773438 " fill-opacity="1" fill-rule="evenodd"/><path fill="#a0bb5a" d="M 213.242188 126.773438 C 213.796875 137.839844 214.347656 143.375 214.347656 143.375 C 230.945312 142.820312 244.773438 129.539062 246.988281 112.9375 C 244.222656 112.9375 243.667969 112.9375 229.839844 112.9375 C 228.179688 120.683594 220.988281 126.773438 213.242188 126.773438 Z M 213.242188 126.773438 " fill-opacity="1" fill-rule="evenodd"/><path fill="#f68853" d="M 227.625 114.042969 C 228.730469 109.0625 227.074219 103.53125 223.199219 100.761719 C 218.773438 97.996094 213.242188 97.996094 209.371094 100.761719 C 209.371094 100.761719 209.371094 91.355469 209.371094 73.648438 C 220.433594 72.542969 230.945312 76.414062 238.6875 84.164062 C 246.433594 91.910156 250.304688 102.976562 249.199219 113.492188 C 234.816406 114.042969 227.625 114.042969 227.625 114.042969 Z M 227.625 114.042969 " fill-opacity="1" fill-rule="evenodd"/><path fill="#808080" d="M 246.433594 86.929688 C 246.433594 87.484375 245.328125 87.484375 244.773438 86.929688 C 244.222656 86.929688 244.222656 85.824219 244.773438 85.269531 L 249.753906 79.734375 C 249.753906 79.734375 250.304688 79.183594 250.304688 79.183594 L 266.347656 79.183594 C 266.902344 79.183594 267.453125 79.734375 267.453125 80.84375 C 267.453125 81.394531 266.902344 81.949219 266.347656 81.949219 L 250.859375 81.949219 Z M 246.433594 86.929688 " fill-opacity="1" fill-rule="nonzero"/><path fill="#808080" d="M 248.644531 132.304688 C 248.09375 132.304688 247.539062 131.753906 247.539062 131.199219 C 247.539062 130.09375 248.09375 129.539062 248.644531 129.539062 L 265.242188 129.539062 C 265.792969 129.539062 266.347656 130.09375 266.347656 131.199219 C 266.347656 131.753906 265.792969 132.304688 265.242188 132.304688 Z M 248.644531 132.304688 " fill-opacity="1" fill-rule="nonzero"/><path fill="#808080" d="M 290.132812 71.433594 L 339.917969 71.433594 C 343.792969 71.433594 347.109375 72.542969 349.324219 75.308594 C 352.089844 77.523438 353.195312 80.84375 353.195312 84.714844 L 353.195312 93.015625 C 353.195312 96.890625 352.089844 100.210938 349.324219 102.421875 C 347.109375 105.191406 343.792969 106.851562 339.917969 106.851562 L 290.132812 106.851562 C 286.261719 106.851562 282.941406 105.191406 280.730469 102.421875 C 278.519531 100.210938 276.859375 96.890625 276.859375 93.015625 L 276.859375 84.714844 C 276.859375 80.84375 278.519531 77.523438 280.730469 75.308594 C 282.941406 72.542969 286.261719 71.433594 290.132812 71.433594 Z M 339.917969 71.988281 L 290.132812 71.988281 C 286.816406 71.988281 283.496094 73.648438 281.285156 75.863281 C 279.070312 78.074219 277.964844 81.394531 277.964844 84.714844 L 277.964844 93.015625 C 277.964844 96.890625 279.070312 99.65625 281.285156 101.871094 C 283.496094 104.082031 286.816406 105.742188 290.132812 105.742188 L 339.917969 105.742188 C 343.238281 105.742188 346.558594 104.082031 348.769531 101.871094 C 350.984375 99.65625 352.644531 96.890625 352.644531 93.015625 L 352.644531 84.714844 C 352.644531 81.394531 350.984375 78.074219 348.769531 75.863281 C 346.558594 73.648438 343.238281 71.988281 339.917969 71.988281 Z M 339.917969 71.988281 " fill-opacity="1" fill-rule="nonzero"/><path fill="#808080" d="M 289.582031 115.703125 L 339.367188 115.703125 C 343.238281 115.703125 346.558594 117.363281 348.769531 120.132812 C 350.984375 122.34375 352.644531 125.664062 352.644531 129.539062 L 352.644531 137.839844 C 352.644531 141.714844 350.984375 145.035156 348.769531 147.246094 C 346.558594 150.015625 343.238281 151.121094 339.367188 151.121094 L 289.582031 151.121094 C 285.707031 151.121094 282.390625 150.015625 280.175781 147.246094 C 277.410156 145.035156 276.304688 141.714844 276.304688 137.839844 L 276.304688 129.539062 C 276.304688 125.664062 277.410156 122.34375 280.175781 120.132812 C 282.390625 117.363281 285.707031 115.703125 289.582031 115.703125 Z M 339.367188 116.8125 L 289.582031 116.8125 C 286.261719 116.8125 282.941406 118.472656 280.730469 120.683594 C 278.519531 122.898438 276.859375 125.664062 276.859375 129.539062 L 276.859375 137.839844 C 276.859375 141.160156 278.519531 144.480469 280.730469 146.695312 C 282.941406 148.90625 286.261719 150.566406 289.582031 150.566406 L 339.367188 150.566406 C 342.6875 150.566406 346.003906 148.90625 348.21875 146.695312 C 350.429688 144.480469 351.535156 141.160156 351.535156 137.839844 L 351.535156 129.539062 C 351.535156 125.664062 350.429688 122.898438 348.21875 120.683594 C 346.003906 118.472656 342.6875 116.8125 339.367188 116.8125 Z M 339.367188 116.8125 " fill-opacity="1" fill-rule="nonzero"/><path fill="#808080" d="M 281.835938 159.976562 L 349.324219 159.976562 C 350.984375 159.976562 352.644531 160.527344 353.75 161.636719 C 354.855469 162.742188 355.410156 164.402344 355.410156 166.0625 C 355.410156 167.722656 354.855469 168.828125 353.75 169.9375 C 352.644531 171.042969 350.984375 172.148438 349.324219 172.148438 L 281.835938 172.148438 C 280.175781 172.148438 278.519531 171.042969 277.410156 169.9375 C 276.304688 168.828125 275.75 167.722656 275.75 166.0625 C 275.75 164.402344 276.304688 162.742188 277.410156 161.636719 C 278.519531 160.527344 280.175781 159.976562 281.835938 159.976562 Z M 349.324219 161.082031 L 281.835938 161.082031 C 280.175781 161.082031 279.070312 161.636719 277.964844 162.1875 C 277.410156 163.296875 276.859375 164.402344 276.859375 166.0625 C 276.859375 167.167969 277.410156 168.828125 277.964844 169.382812 C 279.070312 170.488281 280.175781 171.042969 281.835938 171.042969 L 349.324219 171.042969 C 350.984375 171.042969 352.089844 170.488281 353.195312 169.382812 C 353.75 168.828125 354.300781 167.167969 354.300781 166.0625 C 354.300781 164.402344 353.75 163.296875 353.195312 162.1875 C 352.089844 161.636719 350.984375 161.082031 349.324219 161.082031 Z M 349.324219 161.082031 " fill-opacity="1" fill-rule="nonzero"/><path fill="#a0bb5a" d="M 191.667969 167.722656 L 197.753906 167.722656 L 197.753906 173.808594 L 191.667969 173.808594 Z M 191.667969 167.722656 " fill-opacity="1" fill-rule="evenodd"/><path fill="#f68853" d="M 210.476562 167.722656 L 216.5625 167.722656 L 216.5625 173.808594 L 210.476562 173.808594 Z M 210.476562 167.722656 " fill-opacity="1" fill-rule="evenodd"/><path fill="#cccccc" d="M 229.285156 167.722656 L 235.371094 167.722656 L 235.371094 173.808594 L 229.285156 173.808594 Z M 229.285156 167.722656 " fill-opacity="1" fill-rule="evenodd"/><path fill="#808080" d="M 269.667969 80.289062 C 269.667969 80.578125 269.636719 80.867188 269.582031 81.152344 C 269.523438 81.4375 269.441406 81.714844 269.328125 81.984375 C 269.21875 82.25 269.082031 82.507812 268.921875 82.746094 C 268.757812 82.988281 268.574219 83.214844 268.371094 83.417969 C 268.164062 83.625 267.941406 83.808594 267.699219 83.96875 C 267.457031 84.132812 267.203125 84.265625 266.933594 84.378906 C 266.667969 84.488281 266.390625 84.574219 266.105469 84.628906 C 265.820312 84.6875 265.53125 84.714844 265.242188 84.714844 C 264.949219 84.714844 264.664062 84.6875 264.378906 84.628906 C 264.09375 84.574219 263.816406 84.488281 263.546875 84.378906 C 263.28125 84.265625 263.023438 84.132812 262.78125 83.96875 C 262.542969 83.808594 262.316406 83.625 262.113281 83.417969 C 261.90625 83.214844 261.722656 82.988281 261.5625 82.746094 C 261.402344 82.507812 261.265625 82.25 261.152344 81.984375 C 261.042969 81.714844 260.957031 81.4375 260.902344 81.152344 C 260.84375 80.867188 260.816406 80.578125 260.816406 80.289062 C 260.816406 79.996094 260.84375 79.710938 260.902344 79.425781 C 260.957031 79.140625 261.042969 78.863281 261.152344 78.59375 C 261.265625 78.324219 261.402344 78.070312 261.5625 77.828125 C 261.722656 77.585938 261.90625 77.363281 262.113281 77.15625 C 262.316406 76.953125 262.542969 76.769531 262.78125 76.609375 C 263.023438 76.445312 263.28125 76.308594 263.546875 76.199219 C 263.816406 76.085938 264.09375 76.003906 264.378906 75.945312 C 264.664062 75.890625 264.949219 75.863281 265.242188 75.863281 C 265.53125 75.863281 265.820312 75.890625 266.105469 75.945312 C 266.390625 76.003906 266.667969 76.085938 266.933594 76.199219 C 267.203125 76.308594 267.457031 76.445312 267.699219 76.609375 C 267.941406 76.769531 268.164062 76.953125 268.371094 77.15625 C 268.574219 77.363281 268.757812 77.585938 268.921875 77.828125 C 269.082031 78.070312 269.21875 78.324219 269.328125 78.59375 C 269.441406 78.863281 269.523438 79.140625 269.582031 79.425781 C 269.636719 79.710938 269.667969 79.996094 269.667969 80.289062 Z M 269.667969 80.289062 " fill-opacity="1" fill-rule="nonzero"/><path fill="#808080" d="M 286.816406 78.074219 L 347.109375 78.074219 L 347.109375 79.183594 L 286.816406 79.183594 Z M 286.816406 78.074219 " fill-opacity="1" fill-rule="evenodd"/><path fill="#808080" d="M 286.816406 86.929688 L 347.109375 86.929688 L 347.109375 88.035156 L 286.816406 88.035156 Z M 286.816406 86.929688 " fill-opacity="1" fill-rule="evenodd"/><path fill="#808080" d="M 286.816406 96.335938 L 347.109375 96.335938 L 347.109375 97.441406 L 286.816406 97.441406 Z M 286.816406 96.335938 " fill-opacity="1" fill-rule="evenodd"/><path fill="#808080" d="M 285.707031 124.003906 L 346.003906 124.003906 L 346.003906 125.113281 L 285.707031 125.113281 Z M 285.707031 124.003906 " fill-opacity="1" fill-rule="evenodd"/><path fill="#808080" d="M 285.707031 131.199219 L 346.003906 131.199219 L 346.003906 132.304688 L 285.707031 132.304688 Z M 285.707031 131.199219 " fill-opacity="1" fill-rule="evenodd"/><path fill="#808080" d="M 285.707031 140.054688 L 322.21875 140.054688 L 322.21875 141.160156 L 285.707031 141.160156 Z M 285.707031 140.054688 " fill-opacity="1" fill-rule="evenodd"/><path fill="#808080" d="M 295.664062 166.0625 L 332.175781 166.0625 L 332.175781 167.167969 L 295.664062 167.167969 Z M 295.664062 166.0625 " fill-opacity="1" fill-rule="evenodd"/><path fill="#cccccc" d="M 149.628906 318.796875 L 156.820312 330.972656 L 167.328125 323.777344 L 178.394531 332.632812 L 176.734375 346.464844 L 190.011719 347.019531 L 193.328125 360.851562 L 183.925781 370.8125 L 194.433594 379.113281 L 188.902344 392.394531 L 175.628906 395.164062 L 178.945312 407.890625 L 166.777344 415.085938 L 154.605469 409.550781 L 149.628906 421.726562 L 135.800781 420.617188 L 128.609375 408.996094 L 118.097656 416.191406 L 107.035156 406.785156 L 108.695312 392.949219 L 95.417969 392.394531 L 92.097656 379.113281 L 101.503906 368.601562 L 90.992188 360.300781 L 96.523438 347.570312 L 109.800781 344.253906 L 106.480469 332.078125 L 118.652344 324.332031 L 130.820312 329.863281 L 135.800781 317.691406 Z M 142.4375 350.890625 C 153.5 350.890625 161.796875 359.191406 161.796875 369.707031 C 161.796875 380.222656 153.5 389.074219 142.4375 389.074219 C 131.925781 389.074219 123.628906 380.222656 123.628906 369.707031 C 123.628906 359.191406 131.925781 350.890625 142.4375 350.890625 Z M 142.4375 350.890625 " fill-opacity="1" fill-rule="evenodd"/><path fill="#f68853" d="M 596.039062 248.515625 C 596.59375 251.835938 597.144531 255.710938 596.59375 259.03125 C 591.613281 256.816406 585.527344 258.476562 578.335938 262.90625 C 572.253906 264.566406 570.59375 264.011719 572.804688 260.136719 C 574.464844 258.476562 574.464844 257.371094 572.804688 256.265625 C 562.847656 257.925781 556.761719 257.925781 553.445312 257.371094 C 559.53125 248.515625 573.359375 245.75 596.039062 248.515625 Z M 596.039062 248.515625 " fill-opacity="1" fill-rule="evenodd"/><path fill="#1a1a1a" d="M 577.230469 276.1875 L 580.550781 276.1875 L 580.550781 545.128906 L 577.230469 545.128906 Z M 577.230469 276.1875 " fill-opacity="1" fill-rule="evenodd"/><path fill="#f68853" d="M 683.992188 537.382812 C 680.675781 541.257812 676.25 541.808594 671.824219 538.488281 C 671.824219 538.488281 671.269531 534.0625 670.71875 526.316406 C 670.71875 526.316406 675.144531 526.316406 683.992188 526.316406 C 683.992188 533.507812 683.992188 537.382812 683.992188 537.382812 Z M 683.992188 537.382812 " fill-opacity="1" fill-rule="evenodd"/><path fill="#f68853" d="M 601.570312 538.488281 C 598.804688 542.917969 594.933594 543.46875 591.058594 539.042969 C 591.058594 539.042969 591.058594 534.617188 591.613281 525.207031 C 591.613281 525.207031 594.933594 525.761719 602.125 527.421875 C 601.570312 534.617188 601.570312 538.488281 601.570312 538.488281 Z M 601.570312 538.488281 " fill-opacity="1" fill-rule="evenodd"/><path fill="#b3b3b3" d="M 653.015625 140.054688 C 645.824219 145.585938 637.527344 147.800781 628.675781 147.246094 C 623.144531 145.585938 621.484375 148.355469 623.699219 154.996094 C 607.65625 171.042969 601.570312 206.460938 605.441406 261.246094 C 603.230469 278.398438 604.890625 290.019531 610.421875 297.214844 C 608.207031 303.855469 604.335938 337.609375 598.804688 397.929688 C 598.25 413.425781 596.039062 455.480469 591.058594 524.101562 C 591.613281 527.421875 595.484375 529.636719 603.230469 530.1875 C 617.058594 502.519531 629.230469 450.5 639.738281 373.582031 C 648.589844 418.40625 659.101562 468.761719 670.164062 524.101562 C 671.269531 529.636719 675.140625 531.296875 682.332031 528.527344 C 690.078125 530.742188 690.632812 495.878906 683.992188 423.9375 C 682.332031 396.824219 681.78125 369.707031 681.226562 342.59375 C 684.546875 330.972656 684.546875 315.476562 681.226562 296.109375 C 687.3125 291.128906 688.972656 284.488281 687.3125 277.292969 C 684.546875 272.3125 682.886719 267.332031 682.332031 263.457031 C 684.546875 259.03125 685.652344 254.050781 685.101562 247.964844 C 691.738281 231.363281 692.289062 207.011719 687.3125 175.46875 C 683.441406 159.976562 676.25 151.121094 665.738281 148.90625 C 665.738281 148.90625 663.527344 148.90625 659.101562 148.355469 C 660.761719 141.714844 658.546875 138.945312 653.015625 140.054688 Z M 653.015625 140.054688 " fill-opacity="1" fill-rule="evenodd"/><path fill="#000000" d="M 610.421875 298.875 C 607.65625 308.835938 604.335938 342.039062 598.804688 397.929688 C 598.25 413.425781 596.039062 455.480469 591.058594 524.101562 C 591.613281 527.421875 595.484375 529.636719 603.230469 530.1875 C 617.058594 502.519531 629.230469 450.5 639.738281 373.582031 C 648.589844 418.40625 659.101562 468.761719 670.164062 524.101562 C 671.269531 529.636719 675.144531 531.296875 682.332031 528.527344 C 690.078125 530.742188 690.632812 495.878906 683.992188 423.9375 C 682.332031 396.824219 681.78125 369.707031 681.226562 342.589844 C 684.546875 330.96875 684.546875 315.476562 681.226562 296.109375 C 634.207031 296.660156 610.421875 297.214844 610.421875 297.214844 Z M 610.421875 298.875 " fill-opacity="1" fill-rule="evenodd"/><path fill="#999999" d="M 688.417969 181.558594 C 692.289062 208.671875 691.183594 230.808594 685.101562 247.964844 C 682.332031 260.136719 671.824219 266.226562 653.015625 266.777344 C 635.3125 266.777344 616.507812 265.117188 595.484375 260.691406 C 596.039062 256.265625 595.484375 250.730469 594.378906 244.644531 C 606.550781 244.089844 622.039062 242.429688 640.292969 239.109375 C 650.804688 237.449219 656.335938 234.683594 656.335938 229.703125 C 655.78125 210.886719 654.675781 194.285156 653.570312 179.898438 C 651.910156 163.296875 655.78125 153.335938 665.738281 148.90625 C 678.460938 153.335938 686.207031 163.847656 688.417969 181.558594 Z M 688.417969 181.558594 " fill-opacity="1" fill-rule="evenodd"/><path fill="#999999" d="M 606.550781 198.160156 C 604.890625 209.226562 604.335938 220.292969 604.335938 231.363281 C 597.699219 235.789062 590.507812 239.109375 582.210938 240.769531 C 574.464844 244.089844 570.039062 242.429688 568.378906 236.894531 C 566.71875 231.363281 572.253906 225.828125 584.421875 220.847656 C 595.484375 216.972656 603.230469 209.226562 606.550781 198.160156 Z M 606.550781 198.160156 " fill-opacity="1" fill-rule="evenodd"/><path fill="#f68853" d="M 571.699219 241.875 C 568.933594 238.554688 567.828125 235.789062 568.378906 234.128906 C 542.382812 238.554688 527.445312 245.75 523.574219 255.710938 C 523.019531 260.136719 528.550781 257.925781 539.0625 250.175781 C 543.488281 248.515625 545.148438 249.625 544.039062 252.945312 C 539.0625 259.03125 540.722656 259.03125 548.464844 254.050781 C 553.996094 248.515625 564.507812 245.195312 571.699219 241.875 Z M 571.699219 241.875 " fill-opacity="1" fill-rule="evenodd"/><path fill="#000000" d="M 649.695312 131.199219 C 623.144531 110.722656 609.867188 100.761719 609.867188 100.761719 C 604.335938 79.734375 612.632812 69.222656 634.207031 69.222656 C 630.335938 57.046875 634.207031 51.511719 645.824219 53.726562 C 649.695312 55.386719 653.015625 55.386719 654.675781 54.28125 C 661.867188 52.621094 664.078125 55.941406 662.417969 64.242188 C 665.738281 68.667969 665.183594 72.542969 660.761719 76.96875 C 670.164062 84.164062 674.589844 96.335938 672.375 107.957031 C 669.609375 119.578125 660.761719 128.433594 649.695312 131.199219 Z M 649.695312 131.199219 " fill-opacity="1" fill-rule="evenodd"/><path fill="#f68853" d="M 653.015625 140.054688 C 647.484375 148.90625 636.972656 149.460938 627.570312 148.355469 C 629.230469 145.585938 630.335938 141.160156 629.78125 136.734375 C 619.273438 138.394531 613.742188 133.414062 613.1875 122.34375 C 613.1875 122.34375 611.527344 121.792969 607.65625 121.238281 C 608.761719 118.472656 609.316406 115.152344 608.761719 112.382812 C 608.207031 104.082031 609.316406 99.101562 612.082031 96.890625 C 612.082031 96.890625 611.527344 95.78125 611.527344 93.570312 C 611.527344 93.570312 612.082031 93.015625 613.742188 91.910156 C 613.742188 91.910156 614.292969 93.015625 614.292969 95.230469 C 619.824219 93.015625 626.464844 92.460938 634.207031 93.570312 C 634.207031 93.570312 634.207031 90.804688 633.65625 85.269531 C 633.65625 85.269531 634.761719 88.035156 636.972656 93.570312 C 636.972656 93.570312 640.292969 93.570312 646.929688 93.570312 C 648.589844 93.570312 650.804688 94.675781 652.460938 97.996094 C 661.3125 101.316406 661.867188 105.742188 653.570312 111.277344 C 654.121094 116.257812 652.460938 121.792969 649.144531 128.433594 C 649.144531 132.859375 650.25 136.734375 653.015625 140.054688 Z M 653.015625 140.054688 " fill-opacity="1" fill-rule="evenodd"/><path fill="#1a1a1a" d="M 687.3125 553.429688 C 655.78125 552.878906 640.292969 552.878906 640.292969 552.878906 C 633.101562 547.898438 641.398438 542.363281 665.738281 535.167969 C 665.738281 535.167969 672.929688 535.167969 687.3125 535.722656 C 690.632812 546.789062 690.632812 552.878906 687.3125 553.429688 Z M 687.3125 553.429688 " fill-opacity="1" fill-rule="evenodd"/><path fill="#1a1a1a" d="M 562.296875 544.023438 C 577.785156 537.382812 591.058594 534.617188 601.570312 536.277344 C 604.890625 535.722656 606.550781 537.382812 607.101562 540.703125 C 609.867188 550.109375 609.316406 554.539062 604.890625 553.984375 C 573.910156 553.984375 558.976562 554.539062 558.976562 554.539062 C 555.105469 552.324219 556.210938 549.003906 562.296875 544.023438 Z M 562.296875 544.023438 " fill-opacity="1" fill-rule="evenodd"/><path fill="#000000" d="M 518.59375 265.671875 L 578.890625 265.671875 L 578.890625 270.652344 L 518.59375 270.652344 Z M 518.59375 265.671875 " fill-opacity="1" fill-rule="evenodd"/><path fill="#000000" d="M 522.527344 268.339844 L 496.742188 214.015625 L 493.554688 215.53125 L 519.339844 269.851562 Z M 522.527344 268.339844 " fill-opacity="1" fill-rule="evenodd"/><path fill="#a0bb5a" d="M 492.042969 272.3125 L 589.953125 272.3125 C 590.246094 272.3125 590.53125 272.339844 590.816406 272.398438 C 591.101562 272.453125 591.378906 272.539062 591.648438 272.648438 C 591.914062 272.761719 592.171875 272.898438 592.414062 273.058594 C 592.652344 273.21875 592.878906 273.402344 593.082031 273.609375 C 593.289062 273.8125 593.472656 274.039062 593.632812 274.28125 C 593.792969 274.519531 593.929688 274.777344 594.042969 275.046875 C 594.152344 275.3125 594.238281 275.589844 594.292969 275.875 C 594.351562 276.160156 594.378906 276.449219 594.378906 276.738281 C 594.378906 277.03125 594.351562 277.316406 594.292969 277.601562 C 594.238281 277.886719 594.152344 278.164062 594.042969 278.433594 C 593.929688 278.703125 593.796875 278.957031 593.632812 279.199219 C 593.472656 279.441406 593.289062 279.664062 593.082031 279.871094 C 592.878906 280.074219 592.652344 280.257812 592.414062 280.421875 C 592.171875 280.582031 591.914062 280.71875 591.648438 280.828125 C 591.378906 280.941406 591.101562 281.023438 590.816406 281.082031 C 590.53125 281.136719 590.246094 281.167969 589.953125 281.167969 L 492.042969 281.167969 C 491.75 281.167969 491.464844 281.136719 491.179688 281.082031 C 490.894531 281.023438 490.617188 280.941406 490.347656 280.828125 C 490.082031 280.71875 489.824219 280.582031 489.582031 280.421875 C 489.34375 280.257812 489.117188 280.074219 488.914062 279.871094 C 488.707031 279.664062 488.523438 279.441406 488.363281 279.199219 C 488.203125 278.957031 488.066406 278.703125 487.953125 278.433594 C 487.84375 278.164062 487.757812 277.886719 487.703125 277.601562 C 487.644531 277.316406 487.617188 277.03125 487.617188 276.738281 C 487.617188 276.449219 487.644531 276.160156 487.703125 275.875 C 487.757812 275.589844 487.84375 275.3125 487.953125 275.046875 C 488.066406 274.777344 488.203125 274.519531 488.363281 274.28125 C 488.523438 274.039062 488.707031 273.8125 488.914062 273.609375 C 489.117188 273.402344 489.34375 273.21875 489.582031 273.058594 C 489.824219 272.898438 490.082031 272.761719 490.347656 272.648438 C 490.617188 272.539062 490.894531 272.453125 491.179688 272.398438 C 491.464844 272.339844 491.75 272.3125 492.042969 272.3125 Z M 492.042969 272.3125 " fill-opacity="1" fill-rule="evenodd"/><path fill="#1a1a1a" d="M 498.128906 281.167969 L 501.445312 281.167969 L 501.445312 550.109375 L 498.128906 550.109375 Z M 498.128906 281.167969 " fill-opacity="1" fill-rule="evenodd"/><path fill="#f9f9f9" d="M 416.8125 44.320312 L 554.550781 44.320312 L 554.550781 126.773438 L 416.8125 126.773438 Z M 416.8125 44.320312 " fill-opacity="1" fill-rule="evenodd"/><path fill="#cccccc" d="M 416.8125 44.320312 L 554.550781 44.320312 L 554.550781 58.152344 L 416.8125 58.152344 Z M 416.8125 44.320312 " fill-opacity="1" fill-rule="evenodd"/><path fill="#ffa67a" d="M 424.003906 106.296875 L 430.640625 106.296875 L 430.640625 118.472656 L 424.003906 118.472656 Z M 424.003906 106.296875 " fill-opacity="1" fill-rule="evenodd"/><path fill="#f68853" d="M 434.511719 95.78125 L 441.152344 95.78125 L 441.152344 118.472656 L 434.511719 118.472656 Z M 434.511719 95.78125 " fill-opacity="1" fill-rule="evenodd"/><path fill="#ffa67a" d="M 445.023438 88.589844 L 451.660156 88.589844 L 451.660156 118.472656 L 445.023438 118.472656 Z M 445.023438 88.589844 " fill-opacity="1" fill-rule="evenodd"/><path fill="#f68853" d="M 456.085938 73.648438 L 462.722656 73.648438 L 462.722656 118.472656 L 456.085938 118.472656 Z M 456.085938 73.648438 " fill-opacity="1" fill-rule="evenodd"/><path fill="#ffa67a" d="M 466.597656 107.402344 L 473.234375 107.402344 L 473.234375 118.472656 L 466.597656 118.472656 Z M 466.597656 107.402344 " fill-opacity="1" fill-rule="evenodd"/><path fill="#f68853" d="M 477.105469 95.78125 L 483.746094 95.78125 L 483.746094 118.472656 L 477.105469 118.472656 Z M 477.105469 95.78125 " fill-opacity="1" fill-rule="evenodd"/><path fill="#ffa67a" d="M 488.171875 79.734375 L 494.808594 79.734375 L 494.808594 118.472656 L 488.171875 118.472656 Z M 488.171875 79.734375 " fill-opacity="1" fill-rule="evenodd"/><path fill="#f68853" d="M 498.679688 73.648438 L 505.320312 73.648438 L 505.320312 118.472656 L 498.679688 118.472656 Z M 498.679688 73.648438 " fill-opacity="1" fill-rule="evenodd"/><path fill="#ffa67a" d="M 509.191406 89.695312 L 515.828125 89.695312 L 515.828125 117.917969 L 509.191406 117.917969 Z M 509.191406 89.695312 " fill-opacity="1" fill-rule="evenodd"/><path fill="#f68853" d="M 519.699219 102.976562 L 526.339844 102.976562 L 526.339844 118.472656 L 519.699219 118.472656 Z M 519.699219 102.976562 " fill-opacity="1" fill-rule="evenodd"/><path fill="#ffa67a" d="M 530.765625 80.84375 L 537.402344 80.84375 L 537.402344 117.917969 L 530.765625 117.917969 Z M 530.765625 80.84375 " fill-opacity="1" fill-rule="evenodd"/><path fill="#f68853" d="M 541.273438 95.78125 L 547.914062 95.78125 L 547.914062 118.472656 L 541.273438 118.472656 Z M 541.273438 95.78125 " fill-opacity="1" fill-rule="evenodd"/><path fill="#f9f9f9" d="M 426.769531 50.960938 C 426.769531 51.253906 426.710938 51.535156 426.597656 51.804688 C 426.488281 52.078125 426.328125 52.316406 426.121094 52.523438 C 425.914062 52.730469 425.671875 52.890625 425.402344 53.003906 C 425.132812 53.117188 424.847656 53.171875 424.554688 53.171875 C 424.261719 53.171875 423.980469 53.117188 423.707031 53.003906 C 423.4375 52.890625 423.199219 52.730469 422.992188 52.523438 C 422.78125 52.316406 422.625 52.078125 422.511719 51.804688 C 422.398438 51.535156 422.34375 51.253906 422.34375 50.960938 C 422.34375 50.664062 422.398438 50.382812 422.511719 50.113281 C 422.625 49.839844 422.78125 49.601562 422.992188 49.394531 C 423.199219 49.1875 423.4375 49.027344 423.707031 48.914062 C 423.980469 48.800781 424.261719 48.746094 424.554688 48.746094 C 424.847656 48.746094 425.132812 48.800781 425.402344 48.914062 C 425.671875 49.027344 425.914062 49.1875 426.121094 49.394531 C 426.328125 49.601562 426.488281 49.839844 426.597656 50.113281 C 426.710938 50.382812 426.769531 50.664062 426.769531 50.960938 Z M 426.769531 50.960938 " fill-opacity="1" fill-rule="nonzero"/><path fill="#f9f9f9" d="M 432.851562 50.960938 C 432.851562 51.253906 432.796875 51.535156 432.683594 51.804688 C 432.570312 52.078125 432.414062 52.316406 432.203125 52.523438 C 431.996094 52.730469 431.757812 52.890625 431.488281 53.003906 C 431.214844 53.117188 430.933594 53.171875 430.640625 53.171875 C 430.347656 53.171875 430.0625 53.117188 429.792969 53.003906 C 429.523438 52.890625 429.28125 52.730469 429.074219 52.523438 C 428.867188 52.316406 428.707031 52.078125 428.597656 51.804688 C 428.484375 51.535156 428.425781 51.253906 428.425781 50.960938 C 428.425781 50.664062 428.484375 50.382812 428.597656 50.113281 C 428.707031 49.839844 428.867188 49.601562 429.074219 49.394531 C 429.28125 49.1875 429.523438 49.027344 429.792969 48.914062 C 430.0625 48.800781 430.347656 48.746094 430.640625 48.746094 C 430.933594 48.746094 431.214844 48.800781 431.488281 48.914062 C 431.757812 49.027344 431.996094 49.1875 432.203125 49.394531 C 432.414062 49.601562 432.570312 49.839844 432.683594 50.113281 C 432.796875 50.382812 432.851562 50.664062 432.851562 50.960938 Z M 432.851562 50.960938 " fill-opacity="1" fill-rule="nonzero"/><path fill="#f9f9f9" d="M 439.492188 50.960938 C 439.492188 51.253906 439.433594 51.535156 439.324219 51.804688 C 439.210938 52.078125 439.050781 52.316406 438.84375 52.523438 C 438.636719 52.730469 438.394531 52.890625 438.125 53.003906 C 437.855469 53.117188 437.570312 53.171875 437.277344 53.171875 C 436.984375 53.171875 436.703125 53.117188 436.429688 53.003906 C 436.160156 52.890625 435.921875 52.730469 435.714844 52.523438 C 435.507812 52.316406 435.347656 52.078125 435.234375 51.804688 C 435.121094 51.535156 435.066406 51.253906 435.066406 50.960938 C 435.066406 50.664062 435.121094 50.382812 435.234375 50.113281 C 435.347656 49.839844 435.507812 49.601562 435.714844 49.394531 C 435.921875 49.1875 436.160156 49.027344 436.429688 48.914062 C 436.703125 48.800781 436.984375 48.746094 437.277344 48.746094 C 437.570312 48.746094 437.855469 48.800781 438.125 48.914062 C 438.394531 49.027344 438.636719 49.1875 438.84375 49.394531 C 439.050781 49.601562 439.210938 49.839844 439.324219 50.113281 C 439.433594 50.382812 439.492188 50.664062 439.492188 50.960938 Z M 439.492188 50.960938 " fill-opacity="1" fill-rule="nonzero"/><path fill="#f68853" d="M 456.640625 204.800781 L 459.40625 210.332031 L 464.382812 207.011719 L 468.808594 210.886719 L 468.257812 216.972656 L 473.789062 216.972656 L 475.445312 223.0625 L 471.574219 227.488281 L 476 231.363281 L 473.789062 236.894531 L 467.703125 238.003906 L 469.363281 243.535156 L 463.832031 246.855469 L 458.300781 244.644531 L 456.640625 249.625 L 450.554688 249.625 L 447.234375 244.089844 L 442.808594 247.410156 L 437.832031 243.535156 L 438.382812 237.449219 L 432.851562 236.894531 L 431.195312 231.363281 L 435.066406 226.382812 L 430.640625 223.0625 L 433.40625 217.527344 L 438.9375 215.867188 L 437.832031 210.332031 L 442.808594 207.566406 L 448.339844 209.78125 L 450.554688 204.246094 Z M 453.320312 218.632812 C 458.296875 218.632812 461.617188 222.507812 461.617188 226.933594 C 461.617188 231.914062 458.296875 235.234375 453.320312 235.234375 C 448.894531 235.234375 445.023438 231.914062 445.023438 226.933594 C 445.023438 222.507812 448.894531 218.632812 453.320312 218.632812 Z M 453.320312 218.632812 " fill-opacity="1" fill-rule="evenodd"/><path fill="#f68853" d="M 401.320312 255.15625 L 404.640625 260.136719 L 409.066406 257.371094 L 414.046875 261.246094 L 413.492188 267.332031 L 419.023438 267.332031 L 420.683594 273.417969 L 416.257812 277.847656 L 420.683594 281.167969 L 418.46875 287.253906 L 412.386719 288.359375 L 414.046875 293.894531 L 409.066406 297.214844 L 403.535156 294.449219 L 401.320312 299.980469 L 395.238281 299.429688 L 392.472656 294.449219 L 387.492188 297.214844 L 382.515625 293.339844 L 383.621094 287.253906 L 377.535156 287.253906 L 376.429688 281.167969 L 380.300781 276.738281 L 375.875 273.417969 L 378.089844 267.332031 L 384.171875 266.226562 L 382.515625 260.691406 L 387.492188 257.371094 L 393.023438 260.136719 L 395.238281 254.605469 Z M 398.554688 268.992188 C 402.980469 268.992188 406.855469 272.867188 406.855469 277.292969 C 406.855469 281.71875 402.980469 285.59375 398.554688 285.59375 C 393.578125 285.59375 389.707031 281.71875 389.707031 277.292969 C 389.707031 272.867188 393.578125 268.992188 398.554688 268.992188 Z M 398.554688 268.992188 " fill-opacity="1" fill-rule="evenodd"/><path fill="#000000" d="M 75.503906 62.027344 C 108.140625 42.660156 124.183594 33.25 124.183594 33.25 C 131.375 0.046875 79.375 0.601562 69.972656 10.007812 C 62.78125 18.308594 66.097656 39.339844 75.503906 62.027344 Z M 75.503906 62.027344 " fill-opacity="1" fill-rule="evenodd"/><path fill="#1a1a1a" d="M 118.097656 539.042969 C 110.351562 545.683594 102.054688 548.449219 92.097656 546.789062 C 92.652344 342.039062 93.203125 239.664062 93.203125 239.664062 C 134.140625 240.214844 154.605469 240.214844 154.605469 240.214844 C 154.605469 280.613281 153.5 312.15625 147.96875 343.144531 C 144.648438 363.066406 137.457031 381.328125 135.246094 405.125 C 131.925781 449.949219 117.542969 493.664062 118.097656 539.042969 Z M 118.097656 539.042969 " fill-opacity="1" fill-rule="evenodd"/><path fill="#333333" d="M 60.015625 239.109375 C 56.695312 270.097656 54.484375 286.148438 54.484375 286.148438 C 51.714844 306.621094 53.375 333.183594 58.355469 364.726562 C 60.566406 380.773438 60.015625 397.375 56.695312 414.53125 C 52.269531 434.453125 51.714844 462.675781 54.484375 498.09375 C 56.695312 515.800781 58.355469 534.0625 59.460938 552.878906 C 66.097656 554.539062 73.84375 554.539062 82.140625 551.769531 C 82.695312 539.042969 89.886719 487.023438 103.714844 396.269531 C 108.695312 375.242188 115.332031 351.445312 124.183594 326.542969 C 135.800781 305.515625 140.777344 276.738281 140.222656 240.769531 C 140.222656 240.769531 113.671875 240.214844 60.015625 239.109375 Z M 60.015625 239.109375 " fill-opacity="1" fill-rule="evenodd"/><path fill="#f9f9f9" d="M 140.222656 240.769531 C 140.222656 240.769531 135.800781 240.769531 126.949219 241.324219 C 92.097656 127.324219 74.949219 70.328125 74.949219 70.328125 C 76.054688 69.773438 76.054688 69.222656 76.054688 69.222656 C 85.460938 75.863281 91.546875 81.394531 94.3125 84.714844 C 100.394531 84.714844 103.714844 84.164062 103.714844 84.164062 C 106.480469 80.84375 107.585938 79.734375 107.585938 79.734375 C 130.820312 125.664062 141.332031 189.859375 140.222656 240.769531 Z M 140.222656 240.769531 " fill-opacity="1" fill-rule="evenodd"/><path fill="#505050" d="M 108.140625 79.183594 C 115.332031 107.957031 121.96875 131.753906 126.949219 151.121094 C 132.480469 186.539062 136.90625 223.0625 139.117188 260.136719 C 138.011719 278.953125 142.4375 289.46875 152.394531 292.234375 C 155.714844 262.351562 155.160156 233.023438 151.839844 204.246094 C 151.839844 204.246094 155.160156 208.121094 162.351562 216.421875 C 166.777344 221.953125 171.753906 221.402344 176.179688 215.3125 C 186.136719 199.265625 193.328125 171.042969 198.308594 131.753906 C 195.542969 126.773438 190.5625 125.113281 183.371094 126.773438 C 175.074219 156.101562 169.542969 171.597656 166.222656 172.703125 C 161.246094 156.65625 155.714844 136.734375 149.074219 112.382812 C 149.074219 102.976562 146.863281 96.890625 143.542969 93.570312 C 125.289062 88.035156 113.671875 83.054688 108.140625 79.183594 Z M 108.140625 79.183594 " fill-opacity="1" fill-rule="evenodd"/><path fill="#f68853" d="M 75.503906 62.027344 C 75.503906 59.8125 75.503906 62.027344 75.503906 68.113281 C 86.566406 76.96875 92.652344 82.503906 94.3125 84.714844 C 100.394531 84.714844 103.714844 84.164062 103.714844 84.164062 C 106.480469 80.84375 108.140625 79.183594 108.140625 79.183594 C 107.035156 76.96875 107.035156 74.203125 107.585938 70.882812 C 118.652344 68.113281 124.183594 55.941406 124.183594 33.25 C 102.054688 14.4375 86.566406 12.777344 78.269531 27.164062 C 78.269531 32.699219 78.820312 36.570312 79.375 38.785156 C 73.84375 41 72.183594 48.746094 75.503906 62.027344 Z M 75.503906 62.027344 " fill-opacity="1" fill-rule="evenodd"/><path fill="#505050" d="M 75.503906 68.113281 C 82.140625 79.734375 90.4375 95.78125 99.289062 116.8125 C 110.90625 145.585938 119.203125 175.46875 124.734375 207.566406 C 128.054688 221.402344 129.160156 247.964844 128.054688 286.148438 C 127.5 290.019531 124.734375 291.679688 120.863281 291.679688 C 120.863281 291.679688 108.695312 291.679688 84.355469 291.679688 C 84.355469 291.679688 82.140625 290.019531 77.714844 287.253906 C 74.949219 288.914062 71.078125 291.679688 65.546875 294.449219 C 65.546875 294.449219 62.226562 291.679688 54.484375 286.148438 C 50.609375 284.488281 49.503906 281.167969 50.609375 275.632812 C 50.609375 275.632812 41.207031 263.457031 22.398438 239.664062 C 15.207031 231.363281 12.441406 223.0625 14.101562 214.207031 C 14.101562 214.207031 17.421875 179.898438 24.609375 111.277344 C 23.503906 103.53125 25.71875 97.996094 32.910156 95.230469 C 40.652344 94.675781 52.824219 91.355469 69.972656 84.714844 C 72.738281 80.289062 74.949219 74.753906 75.503906 68.113281 Z M 50.058594 224.167969 C 51.164062 226.933594 53.929688 234.128906 58.90625 244.089844 C 62.226562 225.273438 60.015625 206.460938 52.269531 187.644531 C 52.269531 187.644531 51.164062 195.390625 48.949219 210.886719 C 47.84375 215.3125 48.398438 219.742188 50.058594 224.167969 Z M 50.058594 224.167969 " fill-opacity="1" fill-rule="evenodd"/><path fill="#808080" d="M 111.460938 151.675781 C 115.882812 166.0625 119.757812 180.449219 122.523438 194.839844 C 113.117188 186.539062 104.820312 170.488281 97.628906 148.355469 C 89.886719 121.792969 80.480469 100.761719 69.972656 84.714844 C 73.289062 79.734375 74.949219 74.203125 75.503906 68.113281 C 88.777344 90.804688 100.949219 118.472656 111.460938 151.675781 Z M 111.460938 151.675781 " fill-opacity="1" fill-rule="evenodd"/><path fill="#000000" d="M 127.5 156.65625 C 133.03125 173.257812 135.800781 197.050781 136.90625 228.59375 C 136.90625 228.59375 135.246094 230.253906 132.480469 234.128906 C 132.480469 234.128906 130.820312 232.46875 127.5 228.59375 C 124.734375 204.246094 120.863281 184.324219 115.882812 167.167969 C 115.882812 167.167969 111.460938 143.925781 102.054688 96.335938 C 113.117188 117.363281 121.417969 137.839844 127.5 156.65625 Z M 127.5 156.65625 " fill-opacity="1" fill-rule="evenodd"/><path fill="#f68853" d="M 186.691406 126.21875 C 191.117188 125.664062 194.988281 127.324219 197.199219 130.09375 C 205.5 127.878906 209.925781 122.898438 211.582031 115.703125 C 213.242188 110.722656 212.691406 108.511719 209.371094 109.617188 C 203.839844 114.597656 199.414062 116.8125 196.09375 117.363281 C 191.667969 117.917969 188.351562 119.578125 185.585938 121.792969 C 184.476562 122.898438 185.03125 124.558594 186.691406 126.21875 Z M 186.691406 126.21875 " fill-opacity="1" fill-rule="evenodd"/><path fill="#000000" d="M 60.566406 553.429688 C 74.949219 552.324219 82.140625 551.769531 82.140625 551.769531 C 84.355469 557.304688 89.332031 565.050781 97.078125 575.011719 C 98.738281 580.546875 95.96875 584.417969 87.671875 587.1875 C 71.632812 589.953125 62.78125 587.738281 61.671875 579.4375 C 62.226562 573.351562 61.671875 565.050781 60.566406 553.429688 Z M 60.566406 553.429688 " fill-opacity="1" fill-rule="evenodd"/><path fill="#000000" d="M 91.546875 557.859375 C 92.097656 550.664062 92.097656 546.789062 92.097656 546.789062 C 109.246094 541.257812 118.097656 537.9375 118.097656 537.9375 C 122.523438 544.578125 129.160156 549.558594 139.117188 553.429688 C 146.863281 555.644531 149.628906 560.070312 146.863281 566.160156 C 110.90625 566.160156 92.652344 566.160156 92.652344 566.160156 C 90.992188 564.5 90.992188 561.730469 91.546875 557.859375 Z M 91.546875 557.859375 " fill-opacity="1" fill-rule="evenodd"/><path fill="#808080" d="M 121.96875 148.355469 C 124.183594 158.867188 130.820312 181.558594 134.691406 192.070312 C 137.457031 183.21875 133.03125 157.761719 129.160156 140.605469 C 124.183594 120.683594 119.203125 99.65625 120.308594 85.269531 C 116.4375 83.609375 114.226562 83.054688 109.246094 79.734375 C 108.695312 99.101562 116.4375 122.898438 121.96875 148.355469 Z M 121.96875 148.355469 " fill-opacity="1" fill-rule="evenodd"/><path fill="#000000" d="M 339.917969 137.839844 C 354.300781 151.675781 373.109375 154.996094 399.664062 141.160156 C 396.34375 122.34375 398.003906 103.53125 400.769531 90.804688 C 403.535156 67.007812 394.683594 49.300781 369.792969 45.980469 C 325.539062 41 324.429688 110.722656 339.917969 137.839844 Z M 339.917969 137.839844 " fill-opacity="1" fill-rule="evenodd"/><path fill="#000000" d="M 333.835938 570.03125 C 349.875 570.03125 358.175781 569.480469 358.175781 569.480469 C 361.492188 566.160156 365.367188 562.839844 369.792969 560.070312 C 372.558594 560.625 374.769531 560.625 376.980469 559.519531 L 376.980469 570.03125 L 379.195312 570.03125 L 379.195312 558.410156 C 381.960938 555.089844 381.40625 550.109375 377.535156 543.46875 C 375.324219 550.664062 370.898438 556.199219 363.152344 560.070312 C 359.835938 562.285156 356.515625 562.285156 353.195312 560.070312 C 351.535156 556.75 349.324219 555.644531 346.558594 556.75 C 343.792969 558.410156 341.578125 560.070312 339.367188 561.179688 C 336.601562 562.839844 331.070312 563.390625 330.515625 567.265625 C 330.515625 568.371094 331.621094 569.480469 333.835938 570.03125 Z M 333.835938 570.03125 " fill-opacity="1" fill-rule="evenodd"/><path fill="#000000" d="M 408.511719 569.480469 C 392.472656 570.03125 384.171875 570.03125 384.171875 570.03125 C 379.75 569.480469 380.300781 567.265625 384.726562 563.390625 C 388.597656 562.839844 392.472656 560.625 396.34375 556.75 C 398.554688 556.199219 400.214844 556.75 401.320312 558.964844 C 405.746094 562.285156 409.621094 562.839844 412.386719 560.070312 C 420.128906 554.539062 424.554688 549.558594 425.109375 545.128906 C 428.980469 548.449219 429.535156 552.324219 427.875 557.304688 L 427.875 571.140625 L 425.660156 571.140625 L 425.660156 559.519531 C 421.789062 559.519531 419.023438 560.070312 417.363281 561.179688 C 414.597656 563.390625 411.277344 566.160156 408.511719 569.480469 Z M 408.511719 569.480469 " fill-opacity="1" fill-rule="evenodd"/><path fill="#f68853" d="M 365.917969 560.625 C 373.664062 556.75 377.535156 551.21875 377.535156 543.46875 C 375.875 535.167969 375.324219 521.335938 375.875 501.964844 C 379.75 460.460938 374.214844 452.160156 368.683594 414.53125 C 357.066406 412.316406 347.664062 412.316406 341.027344 414.53125 C 344.898438 433.347656 350.429688 464.335938 358.175781 506.394531 C 359.835938 518.015625 359.835938 529.082031 357.621094 540.703125 C 356.515625 546.238281 352.644531 551.769531 346.558594 556.75 C 352.089844 563.945312 358.726562 565.050781 365.917969 560.625 Z M 365.917969 560.625 " fill-opacity="1" fill-rule="evenodd"/><path fill="#f68853" d="M 418.46875 414.53125 C 407.960938 411.210938 399.109375 411.210938 391.363281 414.53125 C 398.554688 445.519531 410.171875 501.414062 408.511719 531.847656 C 407.960938 541.808594 405.195312 550.109375 399.664062 556.75 C 404.085938 562.285156 409.066406 563.390625 414.597656 558.410156 C 421.789062 554.539062 425.660156 550.109375 425.109375 545.128906 C 423.449219 535.722656 423.449219 524.65625 425.109375 511.925781 C 431.191406 464.890625 424.554688 456.035156 418.46875 414.53125 Z M 418.46875 414.53125 " fill-opacity="1" fill-rule="evenodd"/><path fill="#808080" d="M 341.027344 414.53125 C 392.472656 414.53125 418.46875 414.53125 418.46875 414.53125 C 424.554688 360.300781 423.449219 314.921875 415.152344 278.953125 C 406.855469 251.285156 404.085938 223.0625 407.40625 194.839844 C 411.832031 182.664062 431.746094 144.480469 409.621094 140.054688 C 409.621094 140.054688 400.214844 137.839844 381.40625 132.859375 C 374.214844 140.054688 361.492188 141.714844 343.792969 137.839844 C 333.28125 136.734375 326.089844 141.714844 322.21875 152.78125 C 316.132812 167.722656 310.046875 189.859375 303.410156 219.1875 C 300.089844 229.703125 302.304688 236.894531 311.15625 240.214844 C 322.769531 236.894531 328.855469 230.808594 329.410156 220.847656 C 330.515625 215.3125 331.621094 211.992188 333.28125 210.332031 C 335.496094 224.167969 334.941406 241.324219 331.070312 261.246094 C 323.324219 307.175781 326.644531 358.085938 341.027344 414.53125 Z M 341.027344 414.53125 " fill-opacity="1" fill-rule="evenodd"/><path fill="#999999" d="M 409.621094 140.054688 C 423.449219 141.160156 422.894531 159.421875 407.40625 194.839844 C 407.40625 194.839844 401.875 206.460938 391.917969 230.808594 C 389.707031 236.34375 384.171875 240.214844 378.089844 240.214844 C 372.558594 240.214844 367.023438 236.894531 364.8125 231.363281 C 364.8125 231.363281 369.238281 219.1875 378.640625 194.285156 C 378.640625 194.285156 383.066406 182.109375 391.363281 157.761719 C 394.128906 147.800781 400.214844 141.714844 409.621094 140.054688 Z M 409.621094 140.054688 " fill-opacity="1" fill-rule="evenodd"/><path fill="#f68853" d="M 333.835938 240.214844 C 344.898438 240.214844 353.75 239.109375 359.835938 238.003906 C 363.707031 242.984375 368.132812 245.195312 372.558594 246.304688 C 379.195312 247.964844 385.832031 250.175781 392.472656 251.835938 C 395.789062 251.285156 395.238281 249.625 390.8125 247.964844 C 389.152344 246.304688 389.707031 245.75 392.472656 246.855469 C 399.109375 249.625 402.980469 249.625 403.535156 246.855469 C 405.746094 247.410156 405.746094 246.304688 405.195312 244.089844 C 406.300781 244.644531 407.40625 244.089844 407.40625 241.875 C 400.769531 234.683594 386.386719 228.59375 364.257812 224.722656 C 364.257812 224.722656 347.664062 222.507812 315.582031 218.082031 C 310.601562 219.742188 307.28125 224.167969 306.730469 229.148438 C 306.730469 234.128906 309.496094 239.109375 313.921875 241.324219 C 320.003906 241.324219 327.195312 241.324219 334.941406 240.214844 Z M 333.835938 240.214844 " fill-opacity="1" fill-rule="evenodd"/><path fill="#f68853" d="M 343.792969 137.839844 C 347.109375 134.519531 348.21875 130.644531 348.21875 125.664062 C 342.6875 126.21875 338.8125 125.113281 338.261719 121.792969 C 330.515625 101.316406 331.070312 84.164062 339.367188 70.882812 C 343.792969 81.949219 356.515625 88.589844 378.089844 89.695312 C 378.089844 89.695312 378.089844 91.910156 378.089844 95.230469 C 384.726562 90.25 386.941406 93.015625 384.171875 102.421875 C 382.515625 109.0625 380.300781 111.277344 376.980469 109.617188 C 376.980469 109.617188 375.324219 121.792969 381.40625 132.859375 C 374.769531 145.585938 352.089844 145.035156 343.792969 137.839844 Z M 343.792969 137.839844 " fill-opacity="1" fill-rule="evenodd"/><path fill="#ffa67a" d="M 349.875 131.753906 C 347.664062 130.644531 346.558594 131.199219 347.109375 132.859375 C 344.898438 133.414062 344.34375 133.964844 344.898438 135.625 C 345.453125 146.140625 347.109375 152.226562 350.429688 153.335938 C 353.75 156.65625 355.410156 159.421875 354.855469 161.636719 C 364.8125 211.992188 369.792969 236.894531 369.792969 236.894531 C 383.066406 241.875 390.8125 238.554688 392.472656 226.382812 C 377.535156 183.769531 369.792969 162.742188 369.792969 162.742188 C 368.132812 156.65625 367.023438 151.675781 367.578125 147.246094 C 368.132812 140.605469 366.472656 135.625 360.941406 132.859375 C 358.726562 128.984375 357.066406 126.773438 355.410156 126.773438 C 352.644531 126.21875 352.089844 127.324219 353.75 129.539062 C 350.429688 128.433594 349.324219 128.984375 349.875 131.753906 Z M 349.875 131.753906 " fill-opacity="1" fill-rule="evenodd"/><path fill="#f68853" d="M 518.59375 453.269531 C 524.125 455.480469 528 453.269531 529.65625 445.519531 C 532.976562 438.878906 539.0625 437.21875 548.464844 439.433594 C 581.101562 442.753906 575.570312 416.191406 549.019531 413.976562 C 525.234375 412.316406 499.785156 427.8125 518.59375 453.269531 Z M 518.59375 453.269531 " fill-opacity="1" fill-rule="evenodd"/><path fill="#f68853" d="M 524.125 294.449219 C 537.402344 298.875 541.828125 315.476562 536.847656 343.699219 C 531.316406 371.921875 523.019531 384.648438 510.296875 381.882812 C 496.46875 376.347656 492.59375 359.191406 499.234375 328.757812 C 505.320312 303.855469 514.167969 292.234375 524.125 294.449219 Z M 524.125 294.449219 " fill-opacity="1" fill-rule="evenodd"/><path fill="#f68853" d="M 423.449219 341.484375 C 420.128906 334.292969 419.578125 328.757812 422.34375 324.882812 C 433.960938 308.835938 506.425781 339.824219 485.957031 387.96875 C 474.894531 392.394531 465.488281 392.394531 456.640625 386.863281 C 448.339844 381.882812 428.425781 351.445312 423.449219 341.484375 Z M 423.449219 341.484375 " fill-opacity="1" fill-rule="evenodd"/><path fill="#000000" d="M 500.894531 495.324219 C 501.445312 468.761719 502.550781 442.199219 505.871094 414.53125 C 506.425781 405.125 514.722656 348.125 520.253906 329.863281 C 514.722656 358.640625 510.296875 386.863281 507.53125 414.53125 C 504.765625 442.199219 503.105469 468.761719 503.105469 495.324219 Z M 500.894531 495.324219 " fill-opacity="1" fill-rule="nonzero"/><path fill="#000000" d="M 501.445312 479.832031 C 504.765625 462.675781 509.742188 449.394531 516.933594 440.539062 C 523.574219 431.6875 532.425781 427.257812 542.382812 427.257812 C 524.125 428.367188 510.296875 445.519531 503.105469 480.382812 Z M 501.445312 479.832031 " fill-opacity="1" fill-rule="nonzero"/><path fill="#000000" d="M 503.105469 447.179688 C 494.253906 402.910156 482.085938 370.261719 450.554688 337.609375 C 463.277344 348.125 474.339844 361.960938 483.191406 380.222656 C 492.59375 398.484375 499.234375 420.617188 504.765625 446.628906 Z M 503.105469 447.179688 " fill-opacity="1" fill-rule="nonzero"/><path fill="#b3b3b3" d="M 462.171875 501.414062 L 541.828125 500.859375 L 537.957031 558.410156 L 467.703125 558.410156 Z M 462.171875 501.414062 " fill-opacity="1" fill-rule="evenodd"/><path fill="#e6e6e6" d="M 540.167969 522.441406 L 540.167969 525.761719 L 533.53125 534.617188 L 524.679688 520.226562 L 515.277344 534.0625 L 503.660156 519.121094 L 491.488281 534.617188 L 481.53125 519.121094 L 471.023438 534.0625 L 464.382812 527.976562 L 464.382812 525.207031 L 465.488281 524.101562 L 470.46875 529.636719 L 482.085938 513.585938 L 492.042969 529.636719 L 503.660156 514.140625 L 515.277344 529.082031 L 525.234375 514.695312 L 534.082031 529.082031 L 539.0625 521.886719 Z M 540.167969 522.441406 " fill-opacity="1" fill-rule="evenodd"/><path fill="#808080" d="M 454.980469 480.9375 L 551.785156 480.9375 L 551.785156 505.839844 L 454.980469 505.839844 Z M 454.980469 480.9375 " fill-opacity="1" fill-rule="evenodd"/></svg>