<svg xmlns="http://www.w3.org/2000/svg" height="1200" width="1600" version="1.1" xmlns:xlink="http://www.w3.org/1999/xlink" xmlns:svgjs="http://svgjs.com/svgjs"><rect fill="#000000" fill-opacity="0" width="1600" height="1200"></rect><g><path d="M608.46 672.59C602.9 657.59 589.26 638.58 577.17 621.68 575.26 618.96 573.28 616.31 571.43 613.65L571.31 613.53 627.28 600.02 629.81 601.25C632.28 604.71 634.19 607.67 636.16 610.82 641.53 619.46 646.34 628.4 650.48 637.72 652.52 642.35 654.43 646.92 656.28 651.79L651.9 685.98 608.46 672.59Z" fill="#c65a42" opacity="1" stroke-width="4" stroke="none"></path><path d="M584.88 632.48C582.29 628.83 579.7 625.19 577.17 621.61 575.26 618.9 574.39 617.73 572.48 615.07L571.37 613.47 621.41 598.91 621.54 599.15C611.05 604.83 601.61 612.3 593.65 621.12 587.84 627.6 585.19 632.41 585.13 632.48L585.01 632.66 584.88 632.48Z" fill="#222020" opacity="0.3" stroke-width="4" stroke="none"></path><path d="M499.85 347.26C497.93 347.87 495.9 348.18 493.86 348.12 488.31 348.12 483.62 346.21 481.33 343 477.57 337.88 477.51 331.89 480.96 321.03 480.59 320.54 477.94 317.14 478.43 314.98 478.74 313.75 480.59 312.82 483.86 312.39L484.17 311.34C485.9 306.16 487.51 301.59 489.42 297.83 492.13 292.52 500.03 293.88 506.2 291.53 510.28 289.93 510.03 289.74 514.35 289.81 522.68 289.81 525.95 288.26 531.44 293.2 540.21 301.1 538.97 314.3 537.43 322.39L536.01 323.44C535.27 328.19 536.69 343.62 534.77 353.12V353.24L500.4 355.16 499.17 351.45 499.85 347.26Z" fill="#c65a42" opacity="1" stroke-width="4" stroke="none"></path><path d="M499.85 347.26L504.6 345.34C504.78 345.28 504.91 345.22 505.09 345.22 505.46 345.22 505.83 345.41 506.02 345.71 506.2 346.02 506.27 346.39 506.08 346.76L502.93 353.92 499.17 351.45 499.85 347.26Z" fill="#222020" opacity="0.3" stroke-width="4" stroke="none"></path><path d="M495.9 675.98C495.71 671.23 495.16 667.28 494.91 665.55 493.74 657.28 492.32 647.16 490.47 634.76L502.32 533.56 543.23 617.85C544.28 622.54 545.88 630.69 546.5 634.94 548.04 645 548.84 655.12 548.97 665.3 548.97 668.76 549.03 672.28 548.91 675.86L528.91 711.28 495.9 675.98Z" fill="#c65a42" opacity="1" stroke-width="4" stroke="none"></path><path d="M498 601.62L502.01 539.54C502.13 537.94 504.29 537.51 504.97 538.92L543.17 617.73C543.23 617.85 543.29 617.97 543.29 618.1 543.54 619.21 543.78 620.5 544.03 621.92 544.52 624.27 545.02 626.92 545.45 629.27 545.57 629.82 545.33 630.38 544.9 630.75L532.49 640.93C531.81 641.49 530.83 641.36 530.27 640.74L498.24 602.79C498.06 602.42 497.93 601.99 498 601.62Z" fill="#222020" opacity="0.3" stroke-width="4" stroke="none"></path><path d="M469.24 720.84L468.93 720.23C470.1 718.56 471.4 717.14 472.94 715.91 473.74 715.29 474.67 714.49 475.78 713.62 479.98 710.29 485.72 705.72 489.6 701.65 494.23 696.71 496.39 687.82 495.9 675.97V675.85H507.38C512 675.85 516.26 678.38 518.48 682.39L528.17 700.11C528.23 700.17 528.3 700.17 528.3 700.11L530.83 686.28C531.94 680.29 537.18 675.91 543.29 675.91H548.84V676.04C548.41 690.97 546.87 705.66 544.03 720.29 544.03 720.29 544.03 720.29 544.03 720.35L543.6 720.84H543.54 469.24Z" fill="#61baff" opacity="1" stroke-width="4" stroke="none"></path><path d="M400.31 394.77C397.66 389.47 396.3 385.76 396.05 385.21 395.31 385.02 388.83 383.42 383.22 375.21 382.91 375.83 381.74 377.68 379.64 377.68 378.16 377.68 376.55 376.82 374.76 375.03 370.51 370.77 369.95 367.74 370.26 365.95 370.44 364.66 371.18 363.61 372.3 362.99 371.49 361.02 371.43 359.29 372.11 357.81 372.6 356.7 373.53 355.77 374.7 355.22 372.67 351.02 375.69 348.18 376.43 347.57 375.32 347.01 374.33 346.45 373.34 345.9 367.36 342.75 363.47 340.72 363.47 338 363.47 336.77 364.27 335.29 368.1 335.29 372.23 335.29 378.9 337.14 385.93 340.22 393.34 343.43 400.31 347.69 406.54 352.81 412.04 357.5 418.76 364.04 426.91 372.56L426.85 373.79 401.67 395.2 400.31 394.77Z" fill="#c65a42" opacity="1" stroke-width="4" stroke="none"></path><path d="M559.21 471.97C552.36 461.73 544.96 456.42 544.4 455.99L486.7 455.56 486.52 455.06 479.61 422.73C477.76 424.15 460.42 437.54 446.41 437.54 445.98 437.54 445.54 437.54 445.11 437.48 435.98 436.92 418.02 430.69 400.37 394.83L400.31 394.77 426.91 372.56 426.97 372.62C436.53 382.68 444.68 392 445.67 393.11 468.62 362.99 487.38 358.49 496.52 358.49 496.76 358.49 497.01 358.49 497.19 358.49H497.56C497.63 358.49 497.69 358.49 497.75 358.49L499.17 351.45H535.76C535.76 351.45 534.96 355.46 534.77 356.33 536.13 356.51 547.49 358.49 555.32 367.13 558.78 370.83 570.81 375.7 575.56 387.92 578.46 395.2 574.08 407.61 576 414.4 577.54 419.89 578.71 425.07 579.39 429.58 582.41 448.83 571.55 465.43 559.34 471.91L559.21 471.97Z" fill="#57b46a" opacity="1" stroke-width="4" stroke="none"></path><path d="M544.4 455.99L544.46 455.06 550.57 420.01C555.57 421.8 556.5 428.1 557.48 434.82 558.29 440.07 559.09 445.44 561.74 449.69 566.62 457.53 572.36 460 572.36 460 568.78 465.12 564.21 469.32 559.4 471.85 559.4 471.85 544.52 456.05 544.4 455.99Z" fill="#000000" opacity="0.3" stroke-width="4" stroke="none"></path><path d="M577.72 414.52C576.8 414.52 576.06 414.4 576.06 414.4 576.06 414.4 574.7 410.01 574.33 408.97 570.63 398.85 569.46 394.71 562.98 380.52 558.16 382.86 551.07 383.97 545.7 383.91 538.48 383.85 531.32 382.49 525.27 378.6 520.15 375.4 513.67 368.79 512 355.22 511.39 350.22 511.51 345.16 512.25 340.22L512.31 340.16C512.31 340.16 528.85 332.69 525.21 321.77 524.28 318.93 521.82 317.45 517.99 317.45 512.37 317.45 505.52 320.6 505.52 320.6 505.46 320.54 498.61 312.33 503.74 304 503.86 303.81 503.67 303.57 503.49 303.63 501.88 304 500.34 304.25 498.68 304.25 490.84 304.25 489.42 297.89 489.42 297.89V297.83C492.38 292.03 496.08 288.57 501.7 286.47 505.77 284.87 510.09 284.07 514.41 284.13 522.74 284.13 530.7 286.91 536.26 291.84 544.59 299.37 542.98 313.32 541.13 323.01L541.07 323.19C544.15 322.76 547.24 322.51 550.33 322.51 561.06 322.51 580.19 325.23 587.78 343.31 591.67 352.69 592.78 366.63 584.14 377.86 585.62 378.36 596.55 382.31 598.27 390.89 599.51 396.38 598.09 402.12 594.51 406.44 590.44 411.25 583.71 414.52 577.72 414.52Z" fill="#30242a" opacity="1" stroke-width="4" stroke="none"></path><path d="M490.47 634.76C489.67 629.33 488.86 623.96 488.06 618.78 486.33 607.05 484.73 596.19 483.93 590.39 475.53 529.48 482.94 469.13 486.52 455.19V455.06H544.46 544.52C566 473.33 573.53 495.48 584.51 526.58 589.94 541.89 594.94 551.45 604.14 567.06 608.15 573.85 612.84 579.53 617.4 585.02 619.87 587.98 622.15 590.76 624.25 593.6 626.35 596.38 628.2 598.84 629.87 601.25L530.76 625.13C530.7 625.13 530.7 625.13 530.7 625.07L505.9 553.61C505.9 553.55 505.77 553.55 505.77 553.61L506.08 630.99C506.08 631.06 506.08 631.06 506.02 631.06L490.47 634.76Z" fill="#30ff5a" opacity="1" stroke-width="4" stroke="none"></path><path d="M505.65 553.61L498.06 455.06" stroke="#19321e" stroke-width="4" stroke-linecap="round" stroke-linejoin="round" opacity="1" fill="none"></path><path d="M465.72 730.53V730.41C465.66 726.77 466.77 723.25 468.87 720.29L468.93 720.23H544.09V720.35C543.48 723.74 542.61 727.14 541.62 730.41L465.72 730.53Z" fill="#3d3f41" opacity="1" stroke-width="4" stroke="none"></path><path d="M599.75 730.47C598.27 727.14 597.84 723.37 598.64 719.73L599.01 719.36 667.14 689.74 667.63 689.98C668.37 693.38 668.99 696.9 669.42 700.42V700.48L599.75 730.47Z" fill="#3d3f41" opacity="1" stroke-width="4" stroke="none"></path><path d="M598.89 719.61C598.77 719.67 598.64 719.55 598.71 719.42 599.14 717.63 599.75 715.84 600.62 714.18 600.99 713.44 601.48 712.51 601.98 711.52 604.38 706.9 608.09 699.92 610.24 694.43 612.4 688.82 611.85 681.72 608.52 672.65 608.52 672.59 608.52 672.52 608.58 672.46L619.56 667.59C623.64 665.8 628.39 666.35 632.03 668.95L647.02 679.68C647.15 679.74 647.27 679.68 647.27 679.56L645.17 667.22C644.18 661.42 647.27 655.68 652.7 653.33L656.34 651.73 656.4 651.85C661.09 664.19 664.86 676.91 667.7 689.8 667.7 689.87 667.7 689.93 667.63 689.99L598.89 719.61Z" fill="#61baff" opacity="1" stroke-width="4" stroke="none"></path><path d="M494.66 691.41L506.14 693.81" stroke="#353739" stroke-width="4" stroke-linecap="round" stroke-linejoin="round" opacity="1" fill="none"></path><path d="M491.39 699.37L501.21 706.46" stroke="#353739" stroke-width="4" stroke-linecap="round" stroke-linejoin="round" opacity="1" fill="none"></path><path d="M528.36 700.05L525.4 720.23" stroke="#353739" stroke-width="4" stroke-linecap="round" stroke-linejoin="round" opacity="1" fill="none"></path><path d="M647.21 679.5L651.47 697.09" stroke="#353739" stroke-width="4" stroke-linecap="round" stroke-linejoin="round" opacity="1" fill="none"></path><path d="M611.54 686.78L620.92 687.64" stroke="#353739" stroke-width="4" stroke-linecap="round" stroke-linejoin="round" opacity="1" fill="none"></path><path d="M610.24 694.49L619.81 698.13" stroke="#353739" stroke-width="4" stroke-linecap="round" stroke-linejoin="round" opacity="1" fill="none"></path><path d="M550.57 420.01L544.46 455.06H486.52" stroke="#000000" stroke-width="4" stroke-linecap="round" stroke-linejoin="round" opacity="1" fill="none"></path><path d="M558.59 439.57L547.43 437.6" stroke="#000000" stroke-width="4" stroke-linecap="round" stroke-linejoin="round" opacity="1" fill="none"></path><path d="M445.67 393.11L439.5 401.31" stroke="#000000" stroke-width="4" stroke-linecap="round" stroke-linejoin="round" opacity="1" fill="none"></path><path d="M479.61 422.73L492.57 410.57" stroke="#000000" stroke-width="4" stroke-linecap="round" stroke-linejoin="round" opacity="1" fill="none"></path><path d="M376.43 347.56C381.49 347.93 386.73 349.23 391.36 351.32" stroke="#222020" stroke-width="4" stroke-linecap="round" stroke-linejoin="round" opacity="1" fill="none"></path><path d="M374.7 355.22C380.69 355.59 388.28 358.12 388.28 358.12" stroke="#222020" stroke-width="4" stroke-linecap="round" stroke-linejoin="round" opacity="1" fill="none"></path><path d="M372.3 362.99C375.69 362.38 383.4 364.47 384.58 365.52" stroke="#222020" stroke-width="4" stroke-linecap="round" stroke-linejoin="round" opacity="1" fill="none"></path><path d="M499.85 347.26C502.93 345.96 504.6 345.34 504.6 345.34" stroke="#222020" stroke-width="4" stroke-linecap="round" stroke-linejoin="round" opacity="1" fill="none"></path><path d="M513.55 327.26L509.23 329.73" stroke="#222020" stroke-width="4" stroke-linecap="round" stroke-linejoin="round" opacity="1" fill="none"></path><path d="M562.98 380.52C569.15 378.05 569.7 375.4 569.7 375.4" stroke="#231f21" stroke-width="4" stroke-linecap="round" stroke-linejoin="round" opacity="1" fill="none"></path><path d="M584.14 377.86C582.66 379.65 580.75 381.32 578.96 382.8" stroke="#231f21" stroke-width="4" stroke-linecap="round" stroke-linejoin="round" opacity="1" fill="none"></path><path d="M541.07 323.18L538.85 332.81" stroke="#231f21" stroke-width="4" stroke-linecap="round" stroke-linejoin="round" opacity="1" fill="none"></path><path d="M490.1 324.18C488.25 326.65 484.54 326.65 484.54 326.65" stroke="#222020" stroke-width="4" stroke-linecap="round" stroke-linejoin="round" opacity="1" fill="none"></path><path d="M490.41 316.16C491.26 316.16 491.95 315.46 491.95 314.61 491.95 313.76 491.26 313.07 490.41 313.07 489.55 313.07 488.86 313.76 488.86 314.61 488.86 315.46 489.55 316.16 490.41 316.16Z" fill="#231f20" opacity="1" stroke-width="4" stroke="none"></path><path d="M479.61 422.73L487.57 415.26C488.06 414.89 489.73 414.7 490.34 414.7 491.21 414.7 491.95 415.63 492.5 416.31 493.06 416.93 493.24 417.79 493.06 418.65 491.15 428.16 484.11 441.86 484.05 442.04L483.8 442.54 479.61 422.73Z" fill="#000000" opacity="0.3" stroke-width="4" stroke="none"></path></g><g><path d="M1009.17 658.4C1006.89 658.4 1006.49 656.99 1006.35 656.45 1006.02 656.59 1005.61 656.65 1005.21 656.65 1004.07 656.65 1002.73 656.05 1002.33 654.98 1001.06 651.23 1003.4 635.69 1003.81 632.87 1002 634.61 1000.52 635.49 999.12 635.62 999.05 635.62 998.98 635.62 998.92 635.62 998.38 635.62 997.91 635.35 997.64 634.95 995.1 631.26 1001.46 612.64 1005.41 601.86 1005.55 601.52 1005.61 601.32 1005.61 601.25 1008.03 593.95 1010.17 587.79 1011.98 582.36 1015.33 572.58 1017.94 564.81 1021.02 555.03 1022.7 549.54 1024.1 543.98 1025.18 538.35L1025.38 537.54 1053.38 540.22V540.36C1053.45 543.17 1053.58 551.48 1053.38 553.76 1051.84 573.45 1044.54 593.15 1039.18 607.48 1037.37 612.31 1035.83 616.53 1034.62 620.14 1034.22 621.35 1033.82 622.76 1033.35 624.23 1031 631.93 1027.79 642.59 1022.56 652.97 1021.02 656.12 1018.61 656.45 1017.61 656.45 1017.41 656.45 1017.27 656.45 1017.07 656.45 1016.4 657.26 1015.46 657.73 1014.39 657.79 1013.72 657.79 1013.05 657.53 1012.51 656.99 1011.84 657.93 1010.51 658.46 1009.17 658.4Z" fill="#f9b298" opacity="1" stroke-width="4" stroke="none"></path><path d="M1064.63 458.49C1062.49 458.83 1060.35 459.03 1058.2 459.03 1053.11 459.03 1046.35 457.96 1042.93 453 1038.78 446.9 1040.12 439.33 1041.46 432.03L1041.59 431.16C1042.19 427.81 1042.53 424.53 1042.86 421.31 1043.6 414.35 1044.58 407.71 1047.48 402.82 1052.98 394.25 1062.16 399.47 1074.75 399.47 1076.29 399.47 1077.16 399.34 1078.84 399.47 1095.58 400.81 1105.9 403.49 1105.7 422.18 1105.63 430.69 1104.16 460.64 1103.69 470.02V470.08L1064.63 487.64V458.49 458.49Z" fill="#f9b298" opacity="1" stroke-width="4" stroke="none"></path><path d="M1081.52 439.2L1085.27 436.45" stroke="#000000" stroke-width="4" stroke-linecap="round" stroke-linejoin="round" opacity="1" fill="none"></path><path d="M1064.57 458.49C1067.18 457.89 1068.59 457.76 1072.81 455.95" stroke="#000000" stroke-width="4" stroke-linecap="round" stroke-linejoin="round" opacity="1" fill="none"></path><path d="M1053.31 430.22L1052.78 431.7C1052.51 432.5 1052.64 433.44 1053.25 434.11L1053.38 434.31" stroke="#000000" stroke-width="4" stroke-linecap="round" stroke-linejoin="round" opacity="1" fill="none"></path><path d="M1051.1 441.28C1052.04 442.01 1055.12 442.35 1057.06 440.27" stroke="#000000" stroke-width="4" stroke-linecap="round" stroke-linejoin="round" opacity="1" fill="none"></path><path d="M1061.49 430.89C1062.45 430.89 1063.23 430.11 1063.23 429.15 1063.23 428.19 1062.45 427.41 1061.49 427.41 1060.52 427.41 1059.74 428.19 1059.74 429.15 1059.74 430.11 1060.52 430.89 1061.49 430.89Z" fill="#000000" opacity="1" stroke-width="4" stroke="none"></path><path d="M1047.62 429.62C1048.58 429.62 1049.36 428.84 1049.36 427.88 1049.36 426.91 1048.58 426.14 1047.62 426.14 1046.65 426.14 1045.88 426.91 1045.88 427.88 1045.88 428.84 1046.65 429.62 1047.62 429.62Z" fill="#000000" opacity="1" stroke-width="4" stroke="none"></path><path d="M1044.54 569.57L1043.2 541.16 1025.24 538.48V538.35C1026.18 533.79 1027.05 529.04 1027.92 524.41 1031.07 507.6 1034.29 490.25 1040.38 481.14 1046.28 473.97 1051.97 469.28 1064.63 466.6 1064.63 466.6 1064.84 471.89 1070.19 474.37 1072.74 475.31 1075.35 475.78 1078.03 475.78 1085.87 475.78 1094.45 472.23 1103.56 465.26H1103.62 1103.69C1113.4 466.67 1122.51 470.89 1129.88 477.32 1137.92 484.42 1147.77 500.9 1153.33 513.56L1154.07 515.37 1123.85 529.1C1123.39 533.99 1124.26 538.62 1125.06 543.1 1126.67 551.68 1128.14 559.79 1121.17 569.57L1121.11 569.63 1044.54 569.57Z" fill="#30ff5a" opacity="1" stroke-width="4" stroke="none"></path><path d="M1032.08 621.48C1031.47 621.48 1030.94 621.22 1030.47 620.81 1022.76 614.25 1025.38 601.79 1029.46 582.96 1030 580.49 1030.54 577.87 1031.14 575.13 1034.22 559.99 1037.57 541.09 1039.18 530.24 1040.18 523.61 1042.39 523.41 1042.66 523.41H1042.79V523.54L1044.54 568.63C1044.34 570.84 1039.98 621.48 1032.08 621.48Z" fill="#000000" opacity="0.3" stroke-width="4" stroke="none"></path><path d="M1090.49 569.57L1090.83 569.3C1090.96 569.23 1101.55 560.92 1104.16 549.74 1105.63 543.57 1105.7 536.74 1105.77 531.25 1105.83 526.36 1105.9 522.47 1106.84 520.93 1107.98 518.99 1109.38 518.59 1110.32 518.59 1110.79 518.59 1111.26 518.65 1111.66 518.85H1111.73L1117.76 530.98C1117.83 531.05 1130.75 540.83 1132.5 548.4 1133.43 552.55 1126.94 561.46 1122.58 567.42 1122.05 568.16 1121.51 568.9 1121.04 569.5L1120.97 569.57H1090.49Z" fill="#000000" opacity="0.3" stroke-width="4" stroke="none"></path><path d="M1195.27 476.72C1191.98 471.16 1186.83 467 1180.66 464.99 1177.85 464.05 1174.9 463.59 1171.95 463.59 1169.61 463.59 1167.4 463.92 1165.26 464.46 1165.86 448.65 1159.36 433.84 1147.97 425.74 1141.14 420.84 1132.56 418.37 1122.31 418.37 1117.49 418.37 1112.6 418.9 1107.84 420.04 1107.91 403.09 1097.06 391.7 1079.37 390.3 1077.7 390.16 1076.02 390.1 1074.48 390.1 1061.89 390.1 1053.11 394.32 1047.43 402.76 1046.21 405.1 1045.01 407.36 1044.67 409.99V410.06L1044.74 410.13C1044.8 410.13 1046.01 410.93 1048.56 410.93 1051.77 410.93 1055.59 409.72 1059.88 407.31 1060.03 407.25 1059.21 413.34 1060.55 415.15 1061.89 416.96 1064.37 417.9 1067.85 417.9 1069.73 417.83 1071.53 417.7 1073.34 417.29 1073.7 417 1071.94 427.61 1078.1 431.3L1078.17 431.35 1078.23 431.3C1078.3 431.23 1084.4 426.54 1089.96 426.54 1093.44 426.54 1095.92 428.35 1097.46 431.9 1101.41 441.01 1085.6 450.39 1085.47 450.45 1085.47 450.45 1082.12 471.49 1095.45 487.5 1102.75 496.21 1116.28 502.11 1129.21 502.11 1135.51 502.24 1141.74 500.7 1147.3 497.68 1148.84 496.81 1150.25 495.81 1151.66 494.67 1154.6 500.16 1159.83 504.79 1166.6 507.06 1169.41 508 1172.36 508.47 1175.3 508.47 1185.49 508.47 1194.33 502.57 1197.21 493.93 1199.09 488.17 1198.35 481.87 1195.27 476.72Z" fill="#000000" opacity="1" stroke-width="4" stroke="none"></path><path d="M1165.19 464.39C1165.19 464.59 1165.19 464.79 1165.19 464.99 1164.52 477.32 1159.56 487.97 1151.59 494.54" stroke="#000000" stroke-width="4" stroke-linecap="round" stroke-linejoin="round" opacity="1" fill="none"></path><path d="M1007.76 833.78L1010.57 821.12C1011.24 818.1 1009.37 815.16 1006.35 814.49 1005.95 814.42 1003.6 819.31 1003.2 819.31L983.44 814.15C983.44 814.02 983.11 813.82 983.11 813.62 983.84 810.2 984.24 807.52 984.45 805.84 985.12 800.82 985.72 795.66 985.85 794.19L987.13 792.58 986.99 792.71C986.44 793.36 996.37 790.5 999.32 785.68L999.45 785.48 999.59 785.68C1004.54 793.85 1015.13 796.47 1023.3 791.51 1025.71 790.03 1027.72 788.02 1029.13 785.68L1029.26 785.48 1029.4 785.68C1032.34 790.57 1035.83 792.55 1041.52 792.98L1042.93 793.12 1043.24 794.3C1041.99 807.65 1039.38 821.25 1035.83 834.18L1007.76 833.78Z" fill="#f9b298" opacity="1" stroke-width="4" stroke="none"></path><path d="M1120.3 833.78L1123.12 821.12C1123.79 818.1 1121.91 815.16 1118.9 814.49 1118.5 814.42 1118.09 814.35 1117.69 814.35H1096.66V814.22C1096.72 809.06 1095.92 802.76 1093.91 793.45L1094.18 792.71 1094.24 792.31C1098 790.97 1101.01 789.16 1103.09 785.75L1103.22 785.55 1103.36 785.75C1108.31 793.92 1118.9 796.53 1127.07 791.58 1129.48 790.1 1131.49 788.09 1132.9 785.75L1133.03 785.55 1133.17 785.75C1135.91 790.3 1139.6 792.11 1144.89 792.71L1144.76 792.38 1146.16 794.12C1146.23 796.53 1146.1 799.08 1146.1 801.69 1146.1 813.48 1144.15 828.09 1143.42 833.78L1143.22 834.99C1143.22 835.12 1143.08 835.19 1143.01 835.19L1120.3 833.78Z" fill="#f9b298" opacity="1" stroke-width="4" stroke="none"></path><path d="M1118.03 794.39C1112.2 794.39 1106.84 791.58 1103.62 786.75 1103.42 786.42 1102.95 786.42 1102.75 786.75 1100.61 789.83 1097.66 792.11 1094.11 793.38L1093.91 793.45C1093.64 792.31 1093.51 791.11 1093.24 789.9 1092.17 785.08 1090.89 779.92 1089.55 774.43 1088.42 769.74 1087.21 764.85 1086.07 759.69V759.62C1085.2 755.8 1084.2 752.05 1083.12 747.96 1078.37 730.41 1074.68 712.53 1072.07 694.44 1071.07 686.73 1070.13 677.96 1069.19 668.31 1069.12 667.78 1068.45 667.64 1068.18 668.11 1066.17 671.86 1064.03 675.68 1061.82 679.36 1050.9 697.99 1046.01 712.46 1044.8 729.21 1044.47 733.49 1044.6 738.79 1044.67 745.42 1044.74 749.5 1044.8 754.19 1044.8 759.35V759.55C1044.8 769.8 1044.4 779.72 1043.67 789.77L1043.6 790.57C1043.53 791.78 1043.4 792.98 1043.26 794.12V794.39C1037.84 794.05 1032.81 791.11 1029.73 786.69 1029.53 786.35 1029.06 786.35 1028.86 786.69 1023.64 794.39 1013.12 796.67 1005.15 791.64 1003.07 790.37 1001.33 788.69 999.99 786.69 999.79 786.35 999.32 786.42 999.12 786.69 996.1 791.04 991.28 793.85 985.99 794.26H985.85V794.12C985.99 792.71 986.05 791.31 986.19 789.77 986.46 786.55 986.66 783.13 986.92 779.52 987.33 773.62 987.79 766.86 988.4 759.75V759.55L988.6 755.47C989.4 737.18 990.01 725.05 993.29 702.88 999.79 658.6 1036.36 585.71 1036.83 584.77L1048.09 570.24 1121.44 568.49 1121.51 568.56C1136.45 600.45 1134.57 635.28 1132.9 665.97 1132.03 682.25 1131.16 697.59 1132.9 711.05 1134.44 723.45 1136.45 732.96 1138.59 743.07 1139.66 748.23 1140.8 753.59 1141.88 759.49L1142.28 761.76C1143.82 770.14 1145.36 778.11 1145.96 789.77 1146.03 791.17 1146.1 792.58 1146.16 793.99V794.12H1146.03C1141.07 793.52 1136.58 790.77 1133.77 786.62 1133.57 786.28 1133.1 786.28 1132.9 786.62 1129.28 791.58 1123.85 794.39 1118.03 794.39Z" fill="#616161" opacity="1" stroke-width="4" stroke="none"></path><path d="M1033.68 790.84L1033.55 790.7C1033.55 790.7 1035.16 769.54 1031.21 723.91 1028.32 690.62 1052.84 638.83 1060.48 623.69 1063.23 618.87 1066.91 621.48 1066.91 621.48L1068.99 666.57C1066.71 670.79 1064.3 675.14 1061.82 679.36 1050.9 697.99 1046.01 712.46 1044.8 729.21 1044.47 733.49 1044.6 738.79 1044.67 745.42 1044.74 749.5 1044.8 754.13 1044.8 759.35V759.55C1044.8 769.8 1044.4 779.72 1043.67 789.61L1043.6 790.6C1043.55 791.81 1043.2 792.73 1043.14 793.67 1043.16 794.29 1038.35 794.44 1033.68 790.84Z" fill="#292929" opacity="0.3" stroke-width="4" stroke="none"></path><path d="M1066.84 621.48C1067.78 635.02 1067.92 655.52 1069.26 669.78" stroke="#292929" stroke-width="4" stroke-linecap="round" stroke-linejoin="round" opacity="1" fill="none"></path><path d="M1036.83 584.77C1041.39 575.13 1044.47 568.63 1044.47 568.63H1121.11L1121.17 568.69C1123.59 573.85 1125.6 579.15 1127.2 584.57L1127.27 584.77H1036.83Z" fill="#000000" opacity="1" stroke-width="4" stroke="none"></path><path d="M1121.04 569.16L1044.54 568.63 1042.79 523.54" stroke="#000000" stroke-width="4" stroke-linecap="round" stroke-linejoin="round" opacity="1" fill="none"></path><path d="M1084.13 612.24C1083.93 612.24 1083.66 612.17 1083.46 612.11 1083.19 612.04 1083.06 611.84 1082.99 611.57 1082.59 610.63 1082.52 608.02 1086.41 600.52 1084.26 602.46 1076.22 609.22 1070.06 609.22 1068.32 609.29 1066.64 608.62 1065.44 607.42 1065.37 607.42 1065.17 607.42 1064.97 607.42 1064.03 607.42 1061.69 607.28 1060.61 605.67 1059.88 604.6 1059.94 603.13 1060.68 601.25 1060.28 600.78 1058.2 598.24 1061.42 593.75 1066.64 586.45 1070.4 582.16 1080.18 574.32 1089.82 566.62 1122.85 546.86 1124.99 545.58L1117.62 530.84 1152.73 512.22 1153.2 513.29C1161.84 534.6 1164.05 546.32 1160.83 557.71 1157.08 571.17 1132.3 582.7 1117.56 589.6 1113.81 591.34 1110.59 592.81 1108.51 594.02 1102.69 597.23 1097.66 601.92 1093.57 605.67 1089.42 609.36 1086.27 612.24 1084.13 612.24Z" fill="#f9b298" opacity="1" stroke-width="4" stroke="none"></path><path d="M1125.06 545.72L1138.46 547.06" stroke="#000000" stroke-width="4" stroke-linecap="round" stroke-linejoin="round" opacity="1" fill="none"></path><path d="M1003.81 632.87L1009.84 624.77" stroke="#000000" stroke-width="4" stroke-linecap="round" stroke-linejoin="round" opacity="1" fill="none"></path><path d="M1060.75 601.32C1068.12 593.95 1080.85 582.56 1080.85 582.56" stroke="#000000" stroke-width="4" stroke-linecap="round" stroke-linejoin="round" opacity="1" fill="none"></path><path d="M1065.44 607.35C1065.44 607.35 1076.83 596.63 1086.88 589.26" stroke="#000000" stroke-width="4" stroke-linecap="round" stroke-linejoin="round" opacity="1" fill="none"></path><path d="M1086.41 600.52L1092.23 595.29" stroke="#000000" stroke-width="4" stroke-linecap="round" stroke-linejoin="round" opacity="1" fill="none"></path><path d="M1065.51 458.29C1068.92 457.56 1071.53 456.48 1072.98 455.85L1064.63 465.19V458.49L1065.51 458.29Z" fill="#000000" opacity="0.3" stroke-width="4" stroke="none"></path><path d="M1068.05 851.6L1068.12 851.4C1070.26 846.31 1074.28 843.36 1078.97 839.88 1083.46 836.53 1088.48 832.78 1093.24 826.34 1095.38 823.46 1096.52 819.51 1096.66 814.22V813.88L1117.62 814.08C1120.84 814.08 1123.45 816.7 1123.45 819.91 1123.45 820.31 1123.39 820.78 1123.32 821.19L1120.57 833.51H1143.42V833.65C1142.61 839.68 1141.34 847.51 1140.13 853.27L1068.05 851.6Z" fill="#61baff" opacity="1" stroke-width="4" stroke="none"></path><path d="M955.1 857.16L952.42 851.06C952.56 850.66 952.69 850.26 952.83 849.92 955.1 845.24 958.99 843.29 963.54 839.94 968.1 836.59 973.26 832.84 978.08 826.41 980.16 823.6 981.9 819.18 983.11 813.68L1005.01 814.15C1008.23 814.15 1010.84 816.76 1010.84 819.98 1010.84 820.38 1010.77 820.85 1010.71 821.25L1007.96 833.58 1035.96 833.78C1034.29 839.94 1032.55 845.44 1030.54 851.06L955.1 857.16Z" fill="#61baff" opacity="1" stroke-width="4" stroke="none"></path><path d="M1066.38 860.58C1066.31 857.36 1066.51 855.02 1067.72 852L1068.39 850.8 1140.54 851 1140.33 852.07C1139.13 857.9 1138.32 860.58 1138.32 860.58H1066.38Z" fill="#000000" opacity="1" stroke-width="4" stroke="none"></path><path d="M950.75 860.71V860.58C950.68 857.36 951.22 854.08 952.42 851.06H1030.54L1030.47 851.26C1028.32 857.16 1026.72 860.71 1026.72 860.71H950.75Z" fill="#000000" opacity="1" stroke-width="4" stroke="none"></path><path d="M978.28 826.41L988.13 832.84" stroke="#182f40" stroke-width="4" stroke-linecap="round" stroke-linejoin="round" opacity="1" fill="none"></path><path d="M973.26 832.11L980.29 840.55" stroke="#182f40" stroke-width="4" stroke-linecap="round" stroke-linejoin="round" opacity="1" fill="none"></path><path d="M1093.11 826.54L1102.69 832.84" stroke="#182f40" stroke-width="4" stroke-linecap="round" stroke-linejoin="round" opacity="1" fill="none"></path><path d="M1088.01 832.37L1094.78 840.55" stroke="#182f40" stroke-width="4" stroke-linecap="round" stroke-linejoin="round" opacity="1" fill="none"></path><path d="M1120.57 833.51L1115.82 850.06" stroke="#182f40" stroke-width="4" stroke-linecap="round" stroke-linejoin="round" opacity="1" fill="none"></path><path d="M1008.03 833.51L1002.73 850.19" stroke="#182f40" stroke-width="4" stroke-linecap="round" stroke-linejoin="round" opacity="1" fill="none"></path><path d="M1107.78 420.04L1106.91 431.5" stroke="#000000" stroke-width="4" stroke-linecap="round" stroke-linejoin="round" opacity="1" fill="none"></path><path d="M1117.62 530.84L1111.66 518.85" stroke="#000000" stroke-width="4" stroke-linecap="round" opacity="1" fill="none"></path></g><g><path d="M354.05 1036.57H382.11L701.55 944.24C716.89 944.24 774.89 1024.13 773.3 1008.88L746.92 757.54C745.33 742.2 666.85 795.7 651.6 795.7L349.84 729.85H321.78C306.44 729.85 295.4 742.29 296.99 757.54L323.37 1008.88C324.96 1024.13 338.71 1036.57 354.05 1036.57Z" fill="#000000" opacity="1" stroke-width="4" stroke="none"></path><path d="M382.11 1036.57H776.57C791.91 1036.57 802.95 1024.13 801.36 1008.88L774.98 757.54C773.39 742.2 759.64 729.85 744.39 729.85H349.84C334.5 729.85 323.47 742.29 325.06 757.54L351.43 1008.88C353.02 1024.13 366.77 1036.57 382.11 1036.57Z" fill="#616161" opacity="1" stroke-width="4" stroke="none"></path></g><g><path d="M888.72 716.6C886.5 713.08 881.73 707.4 878.94 704.36L918.49 673.38C924.76 681.67 931.07 691.88 936.08 700.89L914.11 731.29 888.72 716.6Z" fill="#e5bb98" opacity="1" stroke-width="4" stroke="none"></path><path d="M919.7 674.92C922.25 678.53 924.76 682.2 927.12 685.91L890.11 699.25 919.7 674.92Z" fill="#151414" opacity="0.2" stroke-width="4" stroke="none"></path><path d="M892.28 728.98C892.76 725.13 891.37 721.03 888.72 716.6L896.76 709.76C899.56 707.4 903.75 707.73 906.11 710.53 906.45 710.91 906.69 711.3 906.93 711.73L911.94 721.37 936.08 700.89C939.07 706.19 941.62 711.39 943.36 715.01L887.32 762.08C885.59 753.65 890.4 745.07 892.28 728.98Z" fill="#57b46a" opacity="1" stroke-width="4" stroke="none"></path><path d="M943.11 714.48C945.57 719.59 946.82 722.62 946.82 722.62L891.08 769.65C889.01 766.85 887.46 764.39 887.27 761.7L943.11 714.48Z" fill="#000000" opacity="1" stroke-width="4" stroke="none"></path><path d="M899.32 732.74L890.89 731.58" stroke="#000000" stroke-width="4" stroke-linecap="round" stroke-linejoin="round" opacity="1" fill="none"></path><path d="M897.44 740.21L889.49 738.38" stroke="#000000" stroke-width="4" stroke-linecap="round" stroke-linejoin="round" opacity="1" fill="none"></path><path d="M739.02 727.82C739.6 723.73 739.93 717.9 739.79 713.76L789.75 713.18C789.13 723.68 787.44 736.26 785.42 746.52L751.88 753.79 739.02 727.82Z" fill="#e5bb98" opacity="1" stroke-width="4" stroke="none"></path><path d="M756.07 715.44H789.66C789.27 720.36 788.74 725.27 788.07 730.19L756.07 715.44Z" fill="#151414" opacity="0.2" stroke-width="4" stroke="none"></path><path d="M734.25 618.65C737.52 556.92 773.03 487.3 773.03 487.3H776.74 823.53 824.73C824.97 488.22 825.17 489.08 825.41 490L825.45 490.1C849.74 519.05 840.05 559.82 859.09 606.02 866.36 623.66 891.37 623.37 918.45 648.57 923.7 653.34 928.42 658.64 932.47 664.47L881.1 706.72C866.17 689.91 839.14 668.71 817.89 640.62 809.17 629.1 802.28 614.6 796.88 599.08 793.75 605.68 790.72 612.48 788.02 619.61 780.98 638.3 797.85 668.22 802.52 690.19 804.5 699.45 805.41 708.7 804.88 715.44H739.69C739.21 692.6 732.18 657.67 734.25 618.65Z" fill="#61baff" opacity="1" stroke-width="4" stroke="none"></path><path d="M818.81 553.79C811.19 603.71 806.57 622.26 806.57 622.26 804.54 618.16 802.57 613.73 800.64 609.06 799.24 605.64 797.99 602.31 796.83 599.13 804.16 584 811.48 568.87 818.81 553.79Z" fill="#292d30" opacity="0.2" stroke-width="4" stroke="none"></path><path d="M782.14 761.07C780.79 766.42 779.78 769.69 779.78 769.69H706.83C706.93 766.76 707.75 763.19 709.19 760.78L782.14 761.07Z" fill="#000000" opacity="1" stroke-width="4" stroke="none"></path><path d="M733.81 739.29C736.56 736.69 738.15 732.84 739.02 727.82H749.86C753.52 727.82 756.51 730.81 756.51 734.47 756.51 734.96 756.46 735.44 756.36 735.92L754 746.52H785.42C784.26 752.4 783.06 757.41 782.09 761.26L708.95 761.26C712.81 753.6 721.91 750.47 733.81 739.29Z" fill="#57b46a" opacity="1" stroke-width="4" stroke="none"></path><path d="M823.77 539.63C817.79 559.91 807.1 578.17 796.88 599.08" stroke="#181818" stroke-width="4" stroke-linecap="round" stroke-linejoin="round" opacity="1" fill="none"></path><path d="M730.01 741.6L736.13 747.24" stroke="#000000" stroke-width="4" stroke-linecap="round" stroke-linejoin="round" opacity="1" fill="none"></path><path d="M724.9 745.84L729.81 752.64" stroke="#000000" stroke-width="4" stroke-linecap="round" stroke-linejoin="round" opacity="1" fill="none"></path><path d="M816.54 329.7C813.45 329.7 810.95 327.2 810.95 324.11 810.95 321.02 813.45 318.52 816.54 318.52 819.63 318.52 822.13 321.02 822.13 324.11 822.13 327.2 819.63 329.7 816.54 329.7Z" fill="#57b46a" opacity="1" stroke-width="4" stroke="none"></path><path d="M790.67 384.34C783.34 385.74 774.38 382.56 771.54 376.48 768.75 370.46 771.68 362.03 774.24 355.96 774.24 355.96 770.77 352.1 771.49 349.89 772.12 348.01 776.98 347.29 776.98 347.29 779.25 340.01 781.27 334.9 784.74 331.15 790.91 324.45 799.53 325.17 812.4 327.82 827.24 330.86 834.85 339.14 832.39 352.83 831.28 359.09 827.29 377.16 824.15 389.97H789.22L790.67 384.34Z" fill="#e5bb98" opacity="1" stroke-width="4" stroke="none"></path><path d="M790.67 384.34C790.67 384.34 795.05 383.9 802.81 380.48L791.05 391.13 789.56 388.67 790.67 384.34Z" fill="#151414" opacity="0.2" stroke-width="4" stroke="none"></path><path d="M789.75 332.83C795.92 326.13 798.91 329.7 811.77 332.35 826.61 335.39 834.9 339.19 832.44 352.88 831.53 357.98 829.16 369.74 826.26 381.14 821.7 379.09 817.6 375.81 814.57 371.71 817.84 368.97 825.7 361.31 821.21 354.51 816.44 347.33 803 356.39 803 356.39 803 356.39 799.73 350.32 798.81 339.58 786.19 339.58 783.92 334.52 783.92 334.52 784.6 333.12 788.74 333.99 789.75 332.83Z" fill="#171314" opacity="1" stroke-width="4" stroke="none"></path><path d="M785.08 329.17C791.25 322.47 800.3 320.06 813.17 322.71 828.01 325.75 835.67 338.18 833.21 351.86 832.78 354.22 832.1 357.93 830.59 362.79L822.56 358.66C822.56 358.66 822.61 355.43 819.34 353.07 816.06 350.71 810.81 352.54 810.81 352.54L780.65 336.83C781.13 333.8 783.39 331.05 785.08 329.17Z" fill="#61baff" opacity="1" stroke-width="4" stroke="none"></path><path d="M794.79 344.18L769.34 330.91" stroke="#181818" stroke-width="4" stroke-linecap="round" stroke-linejoin="round" opacity="1" fill="none"></path><path d="M813.26 361.02L808.59 364.78" stroke="#000000" stroke-width="4" stroke-linecap="round" stroke-linejoin="round" opacity="1" fill="none"></path><path d="M782.43 361.02C781.51 361.93 778.67 362.9 777.27 362.42" stroke="#000000" stroke-width="4" stroke-linecap="round" stroke-linejoin="round" opacity="1" fill="none"></path><path d="M782.91 349.89C782.09 349.89 781.42 349.22 781.42 348.39 781.42 347.57 782.09 346.9 782.91 346.9 783.73 346.9 784.4 347.57 784.4 348.39 784.4 349.22 783.73 349.89 782.91 349.89Z" fill="#171314" opacity="1" stroke-width="4" stroke="none"></path><path d="M789.95 384.45C792.84 384 795.82 383.13 799.05 382.03" stroke="#000000" stroke-width="4" stroke-linecap="round" stroke-linejoin="round" opacity="1" fill="none"></path><path d="M689.34 536.3C687.08 532.35 703.51 510.38 716.9 492.79L742.82 513.85C739.74 517.13 735.64 521.32 735.64 521.32 735.64 521.32 721.14 561.98 716.95 561.98 712.76 561.98 715.07 554.03 715.07 554.03 715.07 554.03 707.12 570.85 701.05 565.26 701.05 565.26 695.89 569.02 693.58 562.47 693.58 562.47 687.03 561.98 690.79 550.76 694.64 539.24 697.34 534.86 697.34 534.86 697.34 534.86 691.22 539.58 689.34 536.3Z" fill="#e5bb98" opacity="1" stroke-width="4" stroke="none"></path><path d="M892.91 534.57C893.68 535.15 897.73 538.57 900.71 546.52 900.76 546.57 900.76 546.66 900.86 546.66 902.11 547.53 916.66 557.98 916.18 561.12 915.8 563.77 904.67 558.47 900.47 556.35 900.14 556.15 899.8 556.59 900.04 556.88 903.03 560.54 910.64 570.75 907.36 576.49 907.32 576.53 907.32 576.58 907.32 576.68 907.36 577.4 907.32 581.93 902.02 580.82 901.87 580.77 901.68 580.87 901.63 581.02 901.2 581.88 899.51 584.53 894.69 582.17 889.63 579.67 881.92 570.27 880.43 568.44 880.29 568.3 880.09 568.25 879.9 568.39 879.18 569.02 877.15 570.37 874.6 568.1 872.82 566.56 865.73 545.41 859.62 526.28 859.57 526.09 859.66 525.9 859.86 525.85L891.08 517.99C891.27 517.95 891.51 518.09 891.51 518.28 892.28 526.04 892.72 533.07 892.76 534.23 892.76 534.42 892.81 534.52 892.91 534.57Z" fill="#e5bb98" opacity="1" stroke-width="4" stroke="none"></path><path d="M729.43 476.12L756.07 498.67C755.78 499.01 754.63 500.46 754.34 500.79 749.76 506.38 744.61 512.02 740.85 515.97L715.41 494.77C720.27 488.31 725.86 480.99 729.43 476.12Z" fill="#57b46a" opacity="1" stroke-width="4" stroke="none"></path><path d="M891.61 519.82L860 527.73C857.88 521.03 855.28 512.55 853.45 506.77L888.91 498.58C890.02 505.76 891.03 514.04 891.61 519.82Z" fill="#57b46a" opacity="1" stroke-width="4" stroke="none"></path><path d="M733.33 470.44C741.76 456.9 762.34 401.73 787.58 396.58L789.56 388.63H824.5C824.06 390.65 823.62 392.53 823.19 394.21 847.04 392.34 875.08 451.26 883.03 474.15 885.68 481.76 887.66 490.96 889.1 499.88L854.03 508.65C851.62 500.89 849.74 494.72 848.87 491.93 845.59 481.18 832.49 463.4 832.49 463.4L825.45 490.05H771.68L769.32 477.42C769.32 477.42 766.05 486.24 755.25 499.73L728.56 477.33C730.54 474.63 732.22 472.22 733.33 470.44Z" fill="#a0a0a0" opacity="1" stroke-width="4" stroke="none"></path><path d="M769.28 477.42C769.28 477.42 767.44 482.39 761.95 490.58L767.16 452.51C766.29 458.68 769.28 477.42 769.28 477.42Z" fill="#000000" opacity="0.2" stroke-width="4" stroke="none"></path><path d="M832.39 463.4L828.59 477.95 822.52 450.25 832.39 463.4Z" fill="#000000" opacity="0.2" stroke-width="4" stroke="none"></path><path d="M832.44 463.35C832.44 463.45 828.69 458.11 824.73 451.94" stroke="#000000" stroke-width="4" stroke-linecap="round" stroke-linejoin="round" opacity="1" fill="none"></path><path d="M823.19 394.21C819.48 394.79 815.87 395.8 812.83 397.97" stroke="#000000" stroke-width="4" stroke-linecap="round" stroke-linejoin="round" opacity="1" fill="none"></path><path d="M825.45 490.1L771.68 490.05" stroke="#181818" stroke-width="4" stroke-linecap="round" stroke-linejoin="round" opacity="1" fill="none"></path><path d="M769.32 477.42C766.96 463.89 766.48 446.64 769.76 436.81" stroke="#000000" stroke-width="4" stroke-linecap="round" stroke-linejoin="round" opacity="1" fill="none"></path><path d="M697.29 534.91C701.05 531.63 705.24 526.47 705.24 526.47 705.24 526.47 714.59 527.39 719.26 519.92" stroke="#000000" stroke-width="4" stroke-linecap="round" stroke-linejoin="round" opacity="1" fill="none"></path><path d="M693.53 562.51C695.41 556.92 705.24 537.75 705.24 537.75" stroke="#000000" stroke-width="4" stroke-linecap="round" stroke-linejoin="round" opacity="1" fill="none"></path><path d="M701 565.31C701.92 562.51 712.23 541.46 712.23 541.46" stroke="#000000" stroke-width="4" stroke-linecap="round" stroke-linejoin="round" opacity="1" fill="none"></path><path d="M715.02 554.08L718.78 544.73" stroke="#000000" stroke-width="4" stroke-linecap="round" stroke-linejoin="round" opacity="1" fill="none"></path><path d="M901.6 580.74C894.64 575.14 883.9 562.51 883.9 562.51" stroke="#000000" stroke-width="4" stroke-linecap="round" stroke-linejoin="round" opacity="1" fill="none"></path><path d="M906.73 576C903.03 572.29 892.76 560.15 891.37 558.27" stroke="#000000" stroke-width="4" stroke-linecap="round" stroke-linejoin="round" opacity="1" fill="none"></path><path d="M880.24 568.15C878.98 566.37 874.21 560.2 874.07 560.15" stroke="#000000" stroke-width="4" stroke-linecap="round" stroke-linejoin="round" opacity="1" fill="none"></path></g><g><path d="M651.06 770.59H940.37C955.71 770.59 968.19 783.02 968.19 798.41V1008.75C968.19 1024.09 955.75 1036.57 940.37 1036.57H651.06C635.73 1036.57 623.25 1024.13 623.25 1008.75V798.41C623.25 783.02 635.68 770.59 651.06 770.59Z" fill="#cecece" opacity="1" stroke-width="4" stroke="none"></path></g><g><path d="M951.92 271.39L981.23 249.72 955.8 228.81C955.36 228.42 955.23 227.79 955.48 227.28 955.74 226.77 956.37 226.45 956.94 226.65L987.65 234.21 992.03 202.81C992.09 202.24 992.6 201.73 993.18 201.73 993.81 201.67 994.32 202.05 994.51 202.68L1003.6 235.23 1044.09 224.74C1044.72 224.61 1045.3 224.87 1045.55 225.44 1045.8 226.01 1045.61 226.71 1045.11 227.03L1012.43 248.07 1045.93 275.52C1046.44 275.91 1046.57 276.6 1046.25 277.18 1045.93 277.69 1045.3 277.94 1044.66 277.69L1005.38 261.86 999.91 291.03C999.79 291.61 999.28 292.05 998.71 292.05 998.71 292.05 998.71 292.05 998.64 292.05 998.07 292.05 997.56 291.67 997.43 291.1L990.06 262.62 953.13 273.68C952.56 273.87 951.92 273.55 951.61 273.05 951.29 272.41 951.42 271.77 951.92 271.39Z" fill="#ffffff" opacity="1" stroke-width="4" stroke="none"></path><path d="M1022.16 200.33L1028.71 189.21" stroke="#000000" stroke-width="4" stroke-linecap="round" stroke-linejoin="round" opacity="1" fill="none"></path><path d="M972.33 212.15L968.45 206.24" stroke="#000000" stroke-width="4" stroke-linecap="round" stroke-linejoin="round" opacity="1" fill="none"></path><path d="M959.93 294.02L953.39 300.57" stroke="#000000" stroke-width="4" stroke-linecap="round" stroke-linejoin="round" opacity="1" fill="none"></path><path d="M1047.65 248.83H1061.44" stroke="#000000" stroke-width="4" stroke-linecap="round" stroke-linejoin="round" opacity="1" fill="none"></path></g><g><path d="M405.25 591.12L370.82 565.66 400.69 541.08C401.21 540.64 401.36 539.89 401.06 539.29 400.76 538.7 400.02 538.32 399.35 538.55L363.27 547.43 358.12 510.54C358.05 509.87 357.45 509.27 356.78 509.27 356.03 509.2 355.43 509.64 355.21 510.39L344.53 548.63 296.96 536.31C296.21 536.16 295.54 536.45 295.24 537.13 294.94 537.8 295.16 538.62 295.76 538.99L334.15 563.71 294.79 595.98C294.19 596.42 294.04 597.25 294.42 597.92 294.79 598.52 295.54 598.81 296.28 598.52L342.44 579.92 348.86 614.2C349.01 614.87 349.61 615.39 350.28 615.39 350.28 615.39 350.28 615.39 350.35 615.39 351.03 615.39 351.62 614.95 351.77 614.27L360.44 580.82 403.83 593.81C404.5 594.03 405.25 593.66 405.62 593.06 405.99 592.32 405.84 591.57 405.25 591.12Z" fill="#ffffff" opacity="1" stroke-width="4" stroke="none"></path><path d="M322.72 507.63L315.03 494.56" stroke="#000000" stroke-width="4" stroke-linecap="round" stroke-linejoin="round" opacity="1" fill="none"></path><path d="M381.27 521.52L385.83 514.57" stroke="#000000" stroke-width="4" stroke-linecap="round" stroke-linejoin="round" opacity="1" fill="none"></path><path d="M395.84 617.71L403.53 625.4" stroke="#000000" stroke-width="4" stroke-linecap="round" stroke-linejoin="round" opacity="1" fill="none"></path><path d="M292.77 564.61H276.57" stroke="#000000" stroke-width="4" stroke-linecap="round" stroke-linejoin="round" opacity="1" fill="none"></path></g><g><path d="M968.15 1023.31L968.15 873.29C968.15 866.45 973.68 860.91 980.53 860.91L1202.18 860.91C1209.02 860.91 1214.56 866.45 1214.56 873.29L1214.56 1023.31C1214.56 1030.16 1209.02 1035.69 1202.18 1035.69L980.53 1035.69C973.68 1035.69 968.15 1030.16 968.15 1023.31Z" fill="#a0a0a0" opacity="1" stroke-width="4" stroke="none"></path><path d="M968.15 965.76L1214.56 965.76" stroke="#292929" stroke-width="4" stroke-linecap="round" stroke-linejoin="round" opacity="1" fill="none"></path><path d="M968.15 1000.73L1214.56 1000.73" stroke="#292929" stroke-width="4" stroke-linecap="round" stroke-linejoin="round" opacity="1" fill="none"></path><path d="M968.15 930.84L1214.56 930.84" stroke="#292929" stroke-width="4" stroke-linecap="round" stroke-linejoin="round" opacity="1" fill="none"></path><path d="M968.15 895.87L1214.56 895.87" stroke="#292929" stroke-width="4" stroke-linecap="round" stroke-linejoin="round" opacity="1" fill="none"></path><path d="M1144.24 1035.69L1144.24 860.91" stroke="#292929" stroke-width="4" stroke-linecap="round" stroke-linejoin="round" opacity="1" fill="none"></path><path d="M1179.44 1035.69L1179.6 860.91" stroke="#292929" stroke-width="4" stroke-linecap="round" stroke-linejoin="round" opacity="1" fill="none"></path><path d="M1073.71 1035.69L1073.79 860.91" stroke="#292929" stroke-width="4" stroke-linecap="round" stroke-linejoin="round" opacity="1" fill="none"></path><path d="M1109.03 1035.58L1109.03 860.91" stroke="#292929" stroke-width="4" stroke-linecap="round" stroke-linejoin="round" opacity="1" fill="none"></path><path d="M1038.55 1035.69L1038.59 860.91" stroke="#292929" stroke-width="4" stroke-linecap="round" stroke-linejoin="round" opacity="1" fill="none"></path><path d="M1003.35 1035.69L1003.35 860.91" stroke="#292929" stroke-width="4" stroke-linecap="round" stroke-linejoin="round" opacity="1" fill="none"></path></g><g><path d="M649 59.48C593.73 59.48 548.91 104.3 548.91 159.57L548.91 245.19C548.91 253.25 555.44 259.66 563.38 259.66L649 259.66C704.27 259.66 749.09 214.84 749.09 159.57 749.09 104.19 704.27 59.48 649 59.48Z" fill="#ffffff" opacity="1" stroke-width="4" stroke="none"></path></g><g><path d="M696.03 151.63C681.36 148.67 679.16 144.44 670.5 134.53 661.85 124.61 650.64 118.67 636.38 121.67L618.77 155.84C618.77 155.84 634.22 153.63 646.75 168.77 659.31 183.96 665.84 186.93 676.39 188.65L696.03 151.63Z" fill="#30ff5a" opacity="1" stroke-width="4" stroke="none"></path><path d="M594.9 202.65C595.06 202.69 595.24 202.62 595.32 202.44L637.86 119.55C637.95 119.36 637.89 119.15 637.7 119.04 637.52 118.94 637.3 119.02 637.2 119.2L594.65 202.1C594.57 202.29 594.63 202.5 594.82 202.61 594.85 202.63 594.88 202.64 594.9 202.65Z" fill="#1f2320" opacity="1" stroke-width="4" stroke="none"></path></g></svg>