<svg xmlns="http://www.w3.org/2000/svg" xmlns:xlink="http://www.w3.org/1999/xlink" width="200" zoomAndPan="magnify" viewBox="0 0 150 74.999997" height="100" preserveAspectRatio="xMidYMid meet" version="1.0"><defs><clipPath id="3b8de6d33b"><path d="M 0 12.136719 L 38 12.136719 L 38 51 L 0 51 Z M 0 12.136719 " clip-rule="nonzero"/></clipPath></defs><path fill="#ea4335" d="M 63.835938 38.289062 C 63.835938 45.371094 58.328125 50.585938 51.570312 50.585938 C 44.8125 50.585938 39.304688 45.371094 39.304688 38.289062 C 39.304688 31.160156 44.8125 25.996094 51.570312 25.996094 C 58.328125 25.996094 63.835938 31.160156 63.835938 38.289062 Z M 58.464844 38.289062 C 58.464844 33.867188 55.273438 30.839844 51.570312 30.839844 C 47.867188 30.839844 44.671875 33.867188 44.671875 38.289062 C 44.671875 42.667969 47.867188 45.742188 51.570312 45.742188 C 55.273438 45.742188 58.464844 42.664062 58.464844 38.289062 Z M 58.464844 38.289062 " fill-opacity="1" fill-rule="nonzero"/><path fill="#fbbc05" d="M 90.296875 38.289062 C 90.296875 45.371094 84.789062 50.585938 78.03125 50.585938 C 71.273438 50.585938 65.765625 45.371094 65.765625 38.289062 C 65.765625 31.167969 71.273438 25.996094 78.03125 25.996094 C 84.789062 25.996094 90.296875 31.160156 90.296875 38.289062 Z M 84.929688 38.289062 C 84.929688 33.867188 81.738281 30.839844 78.03125 30.839844 C 74.328125 30.839844 71.136719 33.867188 71.136719 38.289062 C 71.136719 42.667969 74.328125 45.742188 78.03125 45.742188 C 81.738281 45.742188 84.929688 42.664062 84.929688 38.289062 Z M 84.929688 38.289062 " fill-opacity="1" fill-rule="nonzero"/><path fill="#4285f4" d="M 115.65625 26.738281 L 115.65625 48.8125 C 115.65625 57.890625 110.332031 61.601562 104.035156 61.601562 C 98.109375 61.601562 94.542969 57.613281 93.199219 54.355469 L 97.875 52.398438 C 98.707031 54.398438 100.746094 56.761719 104.03125 56.761719 C 108.0625 56.761719 110.558594 54.261719 110.558594 49.554688 L 110.558594 47.785156 L 110.371094 47.785156 C 109.167969 49.277344 106.855469 50.582031 103.933594 50.582031 C 97.816406 50.582031 92.21875 45.226562 92.21875 38.335938 C 92.21875 31.394531 97.816406 25.996094 103.933594 25.996094 C 106.847656 25.996094 109.164062 27.296875 110.371094 28.746094 L 110.558594 28.746094 L 110.558594 26.742188 L 115.65625 26.742188 Z M 110.9375 38.335938 C 110.9375 34.003906 108.066406 30.839844 104.410156 30.839844 C 100.707031 30.839844 97.601562 34.003906 97.601562 38.335938 C 97.601562 42.621094 100.707031 45.742188 104.410156 45.742188 C 108.066406 45.742188 110.9375 42.621094 110.9375 38.335938 Z M 110.9375 38.335938 " fill-opacity="1" fill-rule="nonzero"/><path fill="#34a853" d="M 118.828125 13.800781 L 124.066406 13.800781 L 124.066406 49.832031 L 118.828125 49.832031 Z M 118.828125 13.800781 " fill-opacity="1" fill-rule="nonzero"/><path fill="#ea4335" d="M 144.472656 42.335938 L 148.640625 45.132812 C 147.296875 47.132812 144.054688 50.582031 138.453125 50.582031 C 131.507812 50.582031 126.320312 45.179688 126.320312 38.285156 C 126.320312 30.972656 131.550781 25.988281 137.851562 25.988281 C 144.199219 25.988281 147.300781 31.066406 148.316406 33.8125 L 148.871094 35.207031 L 132.527344 42.015625 C 133.777344 44.484375 135.726562 45.742188 138.453125 45.742188 C 141.1875 45.742188 143.085938 44.386719 144.472656 42.335938 Z M 131.644531 37.914062 L 142.570312 33.351562 C 141.972656 31.816406 140.164062 30.746094 138.035156 30.746094 C 135.304688 30.746094 131.507812 33.167969 131.644531 37.914062 Z M 131.644531 37.914062 " fill-opacity="1" fill-rule="nonzero"/><g clip-path="url(#3b8de6d33b)"><path fill="#4285f4" d="M 19.480469 35.09375 L 19.480469 29.875 L 36.960938 29.875 C 37.132812 30.785156 37.21875 31.859375 37.21875 33.023438 C 37.21875 36.9375 36.15625 41.777344 32.726562 45.226562 C 29.390625 48.71875 25.128906 50.582031 19.484375 50.582031 C 9.023438 50.582031 0.222656 42.011719 0.222656 31.488281 C 0.222656 20.96875 9.023438 12.398438 19.484375 12.398438 C 25.273438 12.398438 29.398438 14.679688 32.496094 17.65625 L 28.835938 21.339844 C 26.613281 19.242188 23.601562 17.613281 19.480469 17.613281 C 11.839844 17.613281 5.863281 23.804688 5.863281 31.488281 C 5.863281 39.171875 11.839844 45.363281 19.480469 45.363281 C 24.4375 45.363281 27.257812 43.363281 29.066406 41.542969 C 30.53125 40.070312 31.496094 37.964844 31.878906 35.085938 Z M 19.480469 35.09375 " fill-opacity="1" fill-rule="nonzero"/></g></svg>