<svg xmlns="http://www.w3.org/2000/svg" xmlns:xlink="http://www.w3.org/1999/xlink" width="200" zoomAndPan="magnify" viewBox="0 0 150 74.999997" height="100" preserveAspectRatio="xMidYMid meet" version="1.0"><path fill="#434343" d="M 77.359375 35.957031 C 78.6875 35.789062 80.011719 36.292969 81.058594 37.089844 C 81.066406 36.058594 81.050781 35.027344 81.066406 33.996094 C 80.777344 33.828125 80.464844 33.703125 80.144531 33.613281 C 78.578125 33.171875 76.890625 33.152344 75.328125 33.597656 C 73.890625 34.011719 72.574219 34.890625 71.730469 36.132812 C 70.726562 37.589844 70.371094 39.40625 70.449219 41.152344 C 70.527344 42.828125 71.191406 44.503906 72.410156 45.675781 C 73.535156 46.765625 75.082031 47.351562 76.632812 47.433594 C 78.152344 47.507812 79.738281 47.304688 81.066406 46.519531 C 81.054688 45.542969 81.066406 44.566406 81.058594 43.589844 C 80.203125 44.210938 79.207031 44.660156 78.148438 44.78125 C 77.078125 44.859375 75.933594 44.605469 75.117188 43.878906 C 74.328125 43.210938 73.910156 42.203125 73.804688 41.191406 C 73.667969 39.902344 73.855469 38.5 74.664062 37.445312 C 75.296875 36.597656 76.304688 36.050781 77.359375 35.957031 Z M 66.40625 27.867188 C 65.503906 27.96875 64.738281 28.785156 64.761719 29.703125 C 64.722656 30.574219 65.425781 31.351562 66.265625 31.503906 C 67.078125 31.679688 68.007812 31.339844 68.425781 30.601562 C 68.800781 29.949219 68.707031 29.058594 68.199219 28.5 C 67.765625 27.992188 67.058594 27.769531 66.40625 27.867188 Z M 57.484375 28.277344 C 55.613281 32.929688 53.695312 37.5625 51.808594 42.210938 C 51.414062 41.285156 51.0625 40.347656 50.6875 39.417969 C 49.21875 35.699219 47.742188 31.984375 46.273438 28.269531 L 41.558594 28.269531 C 41.558594 34.554688 41.558594 40.84375 41.558594 47.128906 C 42.585938 47.128906 43.617188 47.132812 44.644531 47.128906 C 44.644531 44.3125 44.644531 41.5 44.644531 38.683594 C 44.65625 36.652344 44.621094 34.617188 44.660156 32.585938 C 44.71875 32.675781 44.773438 32.773438 44.824219 32.871094 C 46.746094 37.625 48.65625 42.382812 50.589844 47.132812 C 51.367188 47.121094 52.144531 47.144531 52.917969 47.117188 C 54.78125 42.363281 56.691406 37.628906 58.566406 32.882812 C 58.617188 32.777344 58.671875 32.675781 58.734375 32.578125 C 58.75 32.789062 58.757812 32.996094 58.757812 33.203125 C 58.75 37.84375 58.761719 42.484375 58.75 47.121094 C 59.839844 47.136719 60.929688 47.125 62.023438 47.128906 C 62.023438 40.84375 62.019531 34.554688 62.023438 28.269531 C 60.511719 28.273438 58.996094 28.253906 57.484375 28.277344 Z M 88.316406 33.820312 C 87.503906 34.277344 86.988281 35.09375 86.640625 35.9375 C 86.644531 35.164062 86.640625 34.390625 86.644531 33.617188 C 85.578125 33.609375 84.511719 33.605469 83.445312 33.617188 C 83.449219 38.121094 83.445312 42.625 83.445312 47.128906 L 86.644531 47.128906 C 86.644531 44.976562 86.644531 42.820312 86.644531 40.664062 C 86.617188 39.730469 86.695312 38.761719 87.105469 37.90625 C 87.484375 37.097656 88.210938 36.390625 89.132812 36.289062 C 89.886719 36.210938 90.683594 36.386719 91.324219 36.800781 C 91.328125 35.722656 91.320312 34.644531 91.328125 33.566406 C 90.351562 33.238281 89.210938 33.28125 88.316406 33.820312 Z M 65.054688 33.617188 C 65.058594 38.121094 65.054688 42.625 65.058594 47.128906 L 68.277344 47.128906 C 68.28125 42.628906 68.269531 38.125 68.28125 33.621094 C 67.207031 33.601562 66.128906 33.609375 65.054688 33.617188 Z M 113.714844 39.761719 C 112.761719 39.210938 111.667969 38.953125 110.746094 38.335938 C 110.210938 37.996094 110.058594 37.25 110.277344 36.683594 C 110.554688 36.109375 111.21875 35.851562 111.824219 35.828125 C 113.027344 35.785156 114.238281 36.152344 115.230469 36.832031 C 115.230469 35.839844 115.230469 34.851562 115.230469 33.859375 C 113.8125 33.324219 112.242188 33.128906 110.742188 33.394531 C 109.476562 33.617188 108.234375 34.273438 107.515625 35.371094 C 106.890625 36.308594 106.808594 37.519531 107.070312 38.597656 C 107.242188 39.324219 107.691406 39.972656 108.28125 40.429688 C 109.117188 41.074219 110.121094 41.433594 111.078125 41.859375 C 111.585938 42.097656 112.125 42.34375 112.492188 42.785156 C 112.886719 43.359375 112.765625 44.292969 112.105469 44.621094 C 111.414062 44.953125 110.609375 44.945312 109.867188 44.828125 C 108.804688 44.644531 107.796875 44.191406 106.925781 43.558594 C 106.914062 44.601562 106.925781 45.644531 106.921875 46.6875 C 107.957031 47.148438 109.089844 47.367188 110.21875 47.441406 C 111.804688 47.5 113.53125 47.191406 114.730469 46.074219 C 115.984375 44.96875 116.285156 43.007812 115.574219 41.523438 C 115.195312 40.730469 114.464844 40.179688 113.714844 39.761719 Z M 127.945312 34.015625 C 126.46875 33.269531 124.753906 33.160156 123.136719 33.363281 C 121.832031 33.527344 120.546875 34.023438 119.550781 34.894531 C 118.335938 35.941406 117.625 37.476562 117.414062 39.046875 C 117.214844 40.617188 117.28125 42.273438 117.921875 43.742188 C 118.539062 45.183594 119.753906 46.355469 121.21875 46.929688 C 122.660156 47.496094 124.265625 47.558594 125.785156 47.316406 C 127.335938 47.058594 128.808594 46.246094 129.769531 44.992188 C 130.796875 43.695312 131.238281 42.019531 131.234375 40.386719 C 131.257812 39.292969 131.121094 38.183594 130.730469 37.15625 C 130.234375 35.816406 129.234375 34.65625 127.945312 34.015625 Z M 127.808594 41.742188 C 127.683594 42.453125 127.4375 43.160156 126.96875 43.726562 C 126.5 44.289062 125.796875 44.636719 125.074219 44.742188 C 124.296875 44.859375 123.480469 44.800781 122.753906 44.488281 C 121.972656 44.160156 121.367188 43.484375 121.046875 42.707031 C 120.660156 41.777344 120.585938 40.75 120.660156 39.761719 C 120.734375 38.800781 121.007812 37.816406 121.644531 37.070312 C 122.222656 36.371094 123.113281 35.988281 124.011719 35.9375 C 124.925781 35.871094 125.902344 36.082031 126.609375 36.699219 C 127.257812 37.238281 127.617188 38.042969 127.78125 38.851562 C 127.964844 39.800781 127.964844 40.785156 127.808594 41.742188 Z M 101.933594 33.910156 C 100.492188 33.257812 98.851562 33.167969 97.292969 33.367188 C 95.660156 33.570312 94.070312 34.339844 93.03125 35.636719 C 92.085938 36.796875 91.625 38.289062 91.535156 39.769531 C 91.40625 41.511719 91.695312 43.363281 92.722656 44.816406 C 93.597656 46.074219 94.976562 46.9375 96.46875 47.253906 C 97.714844 47.515625 99.019531 47.515625 100.265625 47.257812 C 101.722656 46.960938 103.082031 46.15625 103.984375 44.96875 C 104.867188 43.847656 105.3125 42.4375 105.410156 41.03125 C 105.511719 39.589844 105.367188 38.097656 104.765625 36.765625 C 104.203125 35.519531 103.1875 34.476562 101.933594 33.910156 Z M 101.636719 42.972656 C 101.324219 43.667969 100.757812 44.253906 100.042969 44.53125 C 99.207031 44.855469 98.265625 44.871094 97.398438 44.648438 C 96.519531 44.417969 95.773438 43.785156 95.367188 42.976562 C 94.84375 41.9375 94.765625 40.734375 94.875 39.59375 C 94.972656 38.554688 95.335938 37.488281 96.128906 36.773438 C 96.703125 36.238281 97.484375 35.976562 98.261719 35.933594 C 99.234375 35.871094 100.273438 36.144531 100.972656 36.851562 C 101.722656 37.585938 102.011719 38.652344 102.089844 39.667969 C 102.148438 40.78125 102.101562 41.941406 101.636719 42.972656 Z M 148.203125 36.238281 L 148.203125 33.609375 C 147.136719 33.613281 146.066406 33.601562 144.996094 33.617188 C 144.972656 32.269531 144.992188 30.917969 144.984375 29.570312 C 143.914062 29.890625 142.851562 30.234375 141.777344 30.539062 C 141.75 31.5625 141.773438 32.585938 141.761719 33.609375 C 140.183594 33.609375 138.601562 33.613281 137.019531 33.609375 C 137.039062 32.800781 136.964844 31.988281 137.082031 31.1875 C 137.175781 30.554688 137.542969 29.921875 138.164062 29.679688 C 138.941406 29.359375 139.8125 29.570312 140.550781 29.898438 C 140.546875 28.972656 140.558594 28.046875 140.546875 27.125 C 138.988281 26.699219 137.203125 26.78125 135.820312 27.679688 C 134.929688 28.246094 134.28125 29.160156 133.992188 30.167969 C 133.648438 31.285156 133.824219 32.46875 133.769531 33.617188 C 133.019531 33.609375 132.269531 33.601562 131.519531 33.621094 C 131.527344 34.484375 131.527344 35.347656 131.523438 36.210938 C 132.273438 36.226562 133.027344 36.207031 133.777344 36.222656 C 133.773438 39.859375 133.777344 43.492188 133.777344 47.128906 L 137.019531 47.128906 C 137.019531 43.492188 137.019531 39.855469 137.019531 36.21875 C 138.601562 36.214844 140.183594 36.21875 141.765625 36.21875 C 141.769531 38.535156 141.761719 40.855469 141.769531 43.171875 C 141.78125 44.25 141.96875 45.40625 142.683594 46.257812 C 143.304688 47.011719 144.289062 47.355469 145.242188 47.425781 C 146.242188 47.496094 147.277344 47.375 148.203125 46.972656 L 148.203125 44.320312 C 147.492188 44.796875 146.511719 44.984375 145.738281 44.550781 C 145.277344 44.296875 145.097656 43.753906 145.039062 43.261719 C 144.941406 42.429688 145.003906 41.589844 144.984375 40.75 C 144.984375 39.242188 144.988281 37.730469 144.984375 36.222656 C 146.058594 36.226562 147.132812 36.195312 148.203125 36.238281 Z M 148.203125 36.238281 " fill-opacity="1" fill-rule="evenodd"/><path fill="#f25022" d="M 0.636719 21.980469 L 0.636719 36.933594 L 15.628906 36.933594 C 15.628906 31.949219 15.628906 26.964844 15.628906 21.980469 Z M 0.636719 21.980469 " fill-opacity="1" fill-rule="evenodd"/><path fill="#02a4ef" d="M 0.636719 38.460938 L 0.636719 53.417969 L 15.628906 53.417969 C 15.628906 48.433594 15.628906 43.449219 15.628906 38.464844 C 10.632812 38.460938 5.636719 38.464844 0.636719 38.460938 Z M 0.636719 38.460938 " fill-opacity="1" fill-rule="evenodd"/><path fill="#ffb902" d="M 17.160156 38.464844 C 17.160156 43.445312 17.160156 48.433594 17.160156 53.417969 L 32.148438 53.417969 L 32.148438 38.460938 C 27.152344 38.460938 22.15625 38.460938 17.160156 38.464844 Z M 17.160156 38.464844 " fill-opacity="1" fill-rule="evenodd"/><path fill="#80ba01" d="M 17.160156 21.980469 C 17.160156 26.964844 17.160156 31.949219 17.160156 36.933594 C 22.15625 36.933594 27.152344 36.933594 32.148438 36.933594 C 32.152344 31.949219 32.148438 26.964844 32.148438 21.980469 Z M 17.160156 21.980469 " fill-opacity="1" fill-rule="evenodd"/></svg>