<svg xmlns="http://www.w3.org/2000/svg" height="1200" width="1600" version="1.1" xmlns:xlink="http://www.w3.org/1999/xlink" xmlns:svgjs="http://svgjs.com/svgjs"><rect fill="#000000" width="1600" height="1200"></rect><g><path d="M957.1 546.91C923.88 588.44 867.31 603.35 812.53 628.33 757.35 653.14 703.96 688.02 660.24 677.79 616.23 667.67 581.9 612.44 566.17 556.73 550.83 501.2 554.09 445.19 570.29 386.96 586.09 328.55 614.95 268.21 662.59 245.12 710.23 222.03 776.65 236.19 837.95 262.9 899.08 290.02 954.98 329.39 977.86 383.2 1000.74 437.01 990.6 505.27 957.1 546.91Z" fill="#57b46a" opacity="1" stroke-width="4" stroke="none"></path></g><g><path d="M502.67 872.76C502.3 871.65 501.19 870.91 500.08 871.03L451.7 875.35 457.13 829.69C457.26 828.58 456.52 827.47 455.41 827.1 454.29 826.73 453.06 827.22 452.44 828.21L428.87 869.92 381.61 846.35C380.5 845.86 379.26 846.1 378.52 847.09 377.78 848.08 377.91 849.43 378.65 850.3L412.09 886.09 364.58 905.58C363.47 906.08 362.85 907.19 363.1 908.42 363.34 909.53 364.46 910.4 365.57 910.4L418.75 908.42 412.71 960.99C412.58 962.23 413.32 963.34 414.43 963.58 414.68 963.71 414.93 963.71 415.18 963.71 416.04 963.71 416.9 963.21 417.4 962.35L441.71 913.85 490.58 932.98C491.69 933.35 492.92 932.98 493.54 931.99 494.15 931.01 494.03 929.65 493.04 928.91L458.37 897.44 501.44 875.72C502.55 875.1 503.04 873.87 502.67 872.76Z" fill="#ffffff" opacity="1" stroke-width="4" stroke="none"></path></g><g><path d="M1342.42 448.44L1298.8 439.8 1318.17 399.82C1318.58 398.88 1318.37 397.84 1317.54 397.22 1316.71 396.59 1315.56 396.69 1314.83 397.42L1281.94 429.7 1249.35 390.14C1248.73 389.41 1247.58 389.2 1246.75 389.62 1245.92 390.14 1245.5 391.18 1245.81 392.11L1262.05 439.07 1214.16 445.21C1213.12 445.31 1212.39 446.15 1212.39 447.19 1212.39 448.23 1213.12 449.06 1214.06 449.27L1263.93 458.64 1242.69 499.87C1242.27 500.8 1242.48 501.84 1243.31 502.47 1244.15 503.09 1245.29 502.99 1246.02 502.26L1281 468.53 1318.06 507.57C1318.48 507.99 1319 508.19 1319.62 508.19 1320.04 508.19 1320.46 508.09 1320.77 507.78 1321.6 507.15 1321.91 506.11 1321.39 505.17L1298.49 459.16 1342.32 452.29C1343.36 452.18 1344.09 451.25 1344.09 450.31 1344.09 449.58 1343.36 448.64 1342.42 448.44Z" fill="#61baff" opacity="1" stroke-width="4" stroke="none"></path></g><g><path d="M1166.06 280.19C1184.05 207.77 1182.06 144.93 1161.62 139.86 1141.17 134.78 1110.01 189.37 1092.03 261.79 1074.03 334.22 1076.02 397.04 1096.46 402.12 1116.91 407.2 1148.06 352.61 1166.06 280.19Z" stroke="#857a7a" stroke-width="4" stroke-linecap="round" stroke-linejoin="round" opacity="1" fill="none"></path><path d="M1225.75 364.62C1240.37 349.45 1208.67 295.18 1154.95 243.39 1101.23 191.6 1045.82 161.91 1031.21 177.07 1016.59 192.24 1048.29 246.51 1102.01 298.31 1155.73 350.1 1211.13 379.78 1225.75 364.62Z" stroke="#857a7a" stroke-width="4" stroke-linecap="round" stroke-linejoin="round" opacity="1" fill="none"></path><path d="M1139.57 307.59C1211.28 286.96 1264.7 253.82 1258.87 233.58 1253.05 213.33 1190.2 213.65 1118.48 234.28 1046.77 254.92 993.36 288.06 999.18 308.29 1005 328.54 1067.86 328.22 1139.57 307.59Z" stroke="#857a7a" stroke-width="4" stroke-linecap="round" stroke-linejoin="round" opacity="1" fill="none"></path><path d="M1129.04 292.19C1140.76 292.19 1150.28 282.68 1150.28 270.95 1150.28 259.22 1140.76 249.71 1129.04 249.71 1117.3 249.71 1107.8 259.22 1107.8 270.95 1107.8 282.68 1117.3 292.19 1129.04 292.19Z" fill="#ffffff" opacity="1" stroke-width="4" stroke="none"></path><path d="M1040.65 233.62C1046.73 233.62 1051.67 228.69 1051.67 222.6 1051.67 216.51 1046.73 211.57 1040.65 211.57 1034.55 211.57 1029.62 216.51 1029.62 222.6 1029.62 228.69 1034.55 233.62 1040.65 233.62Z" fill="#61baff" opacity="1" stroke-width="4" stroke="none"></path><path d="M1232.43 279.27C1238.51 279.27 1243.46 274.33 1243.46 268.24 1243.46 262.15 1238.51 257.21 1232.43 257.21 1226.34 257.21 1221.4 262.15 1221.4 268.24 1221.4 274.33 1226.34 279.27 1232.43 279.27Z" fill="#61baff" opacity="1" stroke-width="4" stroke="none"></path><path d="M1079.69 375.16C1085.77 375.16 1090.72 370.22 1090.72 364.13 1090.72 358.04 1085.77 353.1 1079.69 353.1 1073.6 353.1 1068.66 358.04 1068.66 364.13 1068.66 370.22 1073.6 375.16 1079.69 375.16Z" fill="#61baff" opacity="1" stroke-width="4" stroke="none"></path></g><g><path d="M910.67 299.82L864.57 265.72 904.57 232.82C905.27 232.22 905.47 231.22 905.07 230.42 904.67 229.62 903.67 229.12 902.77 229.42L854.47 241.32 847.57 191.92C847.47 191.02 846.67 190.22 845.77 190.22 844.77 190.12 843.97 190.72 843.67 191.72L829.37 242.92 765.67 226.42C764.67 226.22 763.77 226.62 763.37 227.52 762.97 228.42 763.27 229.52 764.07 230.02L815.47 263.12 762.77 306.32C761.97 306.92 761.77 308.02 762.27 308.92 762.77 309.72 763.77 310.12 764.77 309.72L826.57 284.82 835.17 330.72C835.37 331.62 836.17 332.32 837.07 332.32 837.07 332.32 837.07 332.32 837.17 332.32 838.07 332.32 838.87 331.72 839.07 330.82L850.67 286.02 908.77 303.42C909.67 303.72 910.67 303.22 911.17 302.42 911.67 301.42 911.47 300.42 910.67 299.82Z" fill="#57b46a" opacity="1" stroke-width="4" stroke="none"></path><path d="M800.17 188.02L789.87 170.52" stroke="#857a7a" stroke-width="4" stroke-linecap="round" stroke-linejoin="round" opacity="1" fill="none"></path><path d="M878.57 206.62L884.67 197.32" stroke="#857a7a" stroke-width="4" stroke-linecap="round" stroke-linejoin="round" opacity="1" fill="none"></path><path d="M898.07 335.42L908.37 345.72" stroke="#857a7a" stroke-width="4" stroke-linecap="round" stroke-linejoin="round" opacity="1" fill="none"></path><path d="M760.07 264.32H738.37" stroke="#857a7a" stroke-width="4" stroke-linecap="round" stroke-linejoin="round" opacity="1" fill="none"></path></g><g><path d="M370.46 174.94H654.33C662.12 174.94 668.48 181.25 668.48 189.09V385.85C668.48 393.64 662.17 400 654.33 400H370.46C362.67 400 356.31 393.69 356.31 385.85V189.09C356.31 181.25 362.62 174.94 370.46 174.94Z" fill="#61baff" opacity="1" stroke-width="4" stroke="none"></path><path d="M528.89 331.53L458.48 209.71 384.82 331.53 458.48 369.66 528.89 331.53Z" stroke="#000000" stroke-width="4" stroke-linecap="round" stroke-linejoin="round" opacity="1" fill="none"></path><path d="M528.89 331.53L445.2 305.01 384.82 331.53" stroke="#000000" stroke-width="4" stroke-linecap="round" stroke-linejoin="round" opacity="1" fill="none"></path><path d="M458.48 209.71V369.66" stroke="#000000" stroke-width="4" stroke-linecap="round" stroke-linejoin="round" opacity="1" fill="none"></path><path d="M445.55 303.79L456.85 213.73" stroke="#000000" stroke-width="4" stroke-linecap="round" stroke-linejoin="round" opacity="1" fill="none"></path><path d="M519.37 222.33L528.64 243.51 537.95 222.33" stroke="#000000" stroke-width="4" stroke-linecap="round" stroke-linejoin="round" opacity="1" fill="none"></path><path d="M563.61 213.32L569.77 209.05 568.85 226.61" stroke="#000000" stroke-width="4" stroke-linecap="round" stroke-linejoin="round" opacity="1" fill="none"></path><path d="M562.64 256.03C570.74 259.39 575.47 250.74 571.09 247.13 568.29 244.84 564.37 246.67 564.37 246.67L572.93 239.03C567.38 241.58 563.41 239.03 563.41 239.03" stroke="#000000" stroke-width="4" stroke-linecap="round" stroke-linejoin="round" opacity="1" fill="none"></path><path d="M557.45 232.82H577.86" stroke="#000000" stroke-width="4" stroke-linecap="round" stroke-linejoin="round" opacity="1" fill="none"></path><path d="M543.2 230.53H549.81" stroke="#000000" stroke-width="4" stroke-linecap="round" stroke-linejoin="round" opacity="1" fill="none"></path><path d="M542.69 235.32H549.36" stroke="#000000" stroke-width="4" stroke-linecap="round" stroke-linejoin="round" opacity="1" fill="none"></path><path d="M592.22 221.72C587.13 221.72 584.58 225.29 585.96 228.19 587.64 231.85 593.75 230.84 594.77 236.44 595.89 242.49 588.3 247.02 583.57 241.73" stroke="#000000" stroke-width="4" stroke-linecap="round" stroke-linejoin="round" opacity="1" fill="none"></path><path d="M613.04 221.72L610.19 244.07C610.19 244.07 613.5 230.78 618.29 232.21 622.61 233.48 617.06 242.9 620.68 244.07 622.1 244.53 624.95 242.19 624.95 242.19" stroke="#000000" stroke-width="4" stroke-linecap="round" stroke-linejoin="round" opacity="1" fill="none"></path><path d="M602.55 234.3C603.34 234.3 603.98 233.66 603.98 232.87 603.98 232.08 603.34 231.45 602.55 231.45 601.77 231.45 601.13 232.08 601.13 232.87 601.13 233.66 601.77 234.3 602.55 234.3Z" fill="#ffffff" opacity="1" stroke-width="4" stroke="none"></path></g><g><path d="M751.35 875.06C757.5 875.06 762.56 880.03 762.56 886.18L762.47 915.29V1035.71C762.47 1041.86 757.5 1046.83 751.35 1046.83 745.2 1046.83 740.23 1041.86 740.23 1035.71V886.18C740.14 880.03 745.11 875.06 751.35 875.06Z" fill="#57b46a" opacity="1" stroke-width="4" stroke="none"></path><path d="M751.35 875.06C745.11 875.06 740.14 880.03 740.23 886.18V925.42L762.47 915.29 762.56 886.18C762.47 880.03 757.5 875.06 751.35 875.06Z" fill="#000000" opacity="0.2" stroke-width="4" stroke="none"></path><path d="M829.37 1061.75C827.83 1060.39 751.98 994.12 751.98 994.12H750.62C750.62 994.12 674.77 1060.39 673.24 1061.75 671.34 1062.83 669.26 1068.17 672.24 1071.6 674.59 1074.49 678.75 1075.22 681.92 1073.14 682.1 1073.05 723.59 1044.57 748.45 1027.48 750.17 1026.31 752.34 1026.31 754.06 1027.48 778.92 1044.57 820.51 1073.05 820.6 1073.14 823.85 1075.22 828.1 1074.4 830.27 1071.6 833.35 1068.08 831.27 1062.83 829.37 1061.75Z" fill="#57b46a" opacity="1" stroke-width="4" stroke="none"></path><path d="M733.27 989.78H769.34C771.51 989.78 773.23 991.5 773.23 993.67V1013.02H729.29V993.67C729.38 991.5 731.1 989.78 733.27 989.78Z" fill="#857a7a" opacity="1" stroke-width="4" stroke="none"></path><path d="M729.38 868.01H773.32V898.11C773.32 899.65 772.05 901.01 770.42 901.01H732.18C730.65 901.01 729.38 899.74 729.38 898.11V868.01Z" fill="#857a7a" opacity="1" stroke-width="4" stroke="none"></path><path d="M686.35 850.11H816.26C824.94 850.11 831.9 857.16 831.9 865.75 831.9 874.43 824.85 881.39 816.26 881.39H686.35C677.67 881.39 670.71 874.34 670.71 865.75 670.71 857.16 677.76 850.11 686.35 850.11Z" fill="#57b46a" opacity="1" stroke-width="4" stroke="none"></path></g><g><path d="M924.29 965.54L1010.79 920.88 1013.51 931.23C1015.71 942.64 1017.7 951.95 1018.95 954.87L1013.51 1011.68H944.06L934.75 1007.07C930.77 996.09 927.22 985.31 924.39 974.65L924.29 965.54Z" fill="#a66241" opacity="1" stroke-width="4" stroke="none"></path><path d="M791.13 1005.71L788.51 1000.17C789.87 988.87 791.44 977.78 793.53 967.32L798.34 952.89 894.58 954.35 892.28 967.22C889.77 975.59 888.09 983.33 887.36 989.19L861.94 1038.87 791.13 1005.71Z" fill="#a66241" opacity="1" stroke-width="4" stroke="none"></path><path d="M720.52 752.47L727.11 721.71 837.26 727.67 843.85 731.13C843.85 731.13 932.76 738.24 966.23 772.55 992.59 799.64 995.73 836.99 1005.88 890.65 1008.6 905.08 1011.21 919.52 1013.51 931.23L924.29 974.75C908.81 916.17 907.34 886.99 907.45 849.22L799.28 849.54C748.03 849.85 709.74 802.57 720.52 752.47Z" fill="#ffffff" opacity="1" stroke-width="4" stroke="none"></path><path d="M907.45 849.33L926.38 801.84C956.92 826.32 950.86 878.93 918.11 949.96 908.39 907.18 907.34 881.23 907.45 849.33Z" fill="#ffffff" opacity="0.15" stroke-width="4" stroke="none"></path><path d="M675.96 770.46C682.76 740.75 693.63 722.13 693.63 722.13L754.83 726.11C754.83 726.11 881.71 740.23 920.73 786.57 952.53 824.22 907.86 915.96 892.17 967.43H793.32C801.9 922.97 816.13 883.74 833.07 850.06H752.42C690.7 850.06 666.65 811.25 675.96 770.46Z" fill="#ffffff" opacity="1" stroke-width="4" stroke="none"></path><path d="M849.6 819.62L833.39 849.96C833.39 849.96 742.48 849.96 769.05 849.96 803.99 850.06 836.94 815.86 849.6 819.62Z" fill="#4f4f4f" opacity="0.15" stroke-width="4" stroke="none"></path><path d="M869.68 753.83C890.71 762.3 909.43 772.97 920.94 786.57 943.22 813.03 927.84 866.17 911.21 913.35" stroke="#4f4f4f" stroke-width="4" stroke-linecap="round" stroke-linejoin="round" opacity="1" fill="none"></path><path d="M892.38 967.32H793.53" stroke="#4f4f4f" stroke-width="4" stroke-linecap="round" stroke-linejoin="round" opacity="1" fill="none"></path><path d="M1013.51 931.23L924.29 974.85" stroke="#4f4f4f" stroke-width="4" stroke-linecap="round" stroke-linejoin="round" opacity="1" fill="none"></path><path d="M837.15 476.41C836.11 463.13 835.16 444.41 825.12 431.33 815.08 418.15 785.06 414.18 759.64 425.26 736.94 434.99 735.48 455.39 735.48 476.41V542.73L737.67 573.59 801.69 583.53V527.15C801.69 527.15 821.15 532.38 831.4 522.75 844.89 510.62 838.3 489.7 837.15 476.41Z" fill="#a66241" opacity="1" stroke-width="4" stroke="none"></path><path d="M782.55 519.09L801.79 536.56V527.15C801.79 527.15 792.59 524.95 782.55 519.09Z" fill="#171717" opacity="0.2" stroke-width="4" stroke="none"></path><path d="M828.26 427.46C818.32 414.18 784.12 405.28 758.7 416.37 736 426.1 735.48 454.97 735.48 476L735.37 518.47C744.26 517.84 752.63 513.65 758.7 507.17 758.7 507.17 738.4 481.64 753.47 469.09 766.75 458 782.97 479.87 782.97 479.87L791.86 459.57 836.31 454.87C835.58 445.03 833.8 434.89 828.26 427.46Z" fill="#17151c" opacity="1" stroke-width="4" stroke="none"></path><path d="M888.93 609.89C878.78 597.02 861.84 577.25 848.34 563.65 828.16 543.47 805.35 539.18 801.69 538.65 801.69 538.65 801.27 564.7 775.23 564.7 750.22 564.7 735.58 538.65 735.58 538.65 720.83 542.63 707.02 549.43 694.89 558.42 682.23 567.63 658.28 593.36 639.14 626.94L691.65 652.25 688.82 731.75H843.95L837.88 675.37C840.6 679.24 845 684.05 848.34 687.61L888.93 609.89Z" fill="#61baff" opacity="1" stroke-width="4" stroke="none"></path><path d="M704.83 667.21L688.82 731.75H723.13L719.89 648.07 704.83 667.21Z" fill="#2f2f2f" opacity="0.2" stroke-width="4" stroke="none"></path><path d="M1032.03 524.95C1032.03 513.44 980.88 535.41 980.88 535.41 980.88 535.41 984.02 523.9 979.83 522.86 975.65 521.81 964.14 530.18 948.55 549.95 933.39 569.09 898.45 622.02 898.45 622.02 898.45 622.02 894.37 616.9 888.2 609.16L847.19 686.15C857.86 696.92 877.42 711.77 904.83 711.77 952.01 711.77 978.99 606.33 978.99 606.33 986.32 605.29 991.55 599.01 991.55 599.01 996.05 600.16 1000.86 599.85 1005.15 597.96 1016.44 593.15 1013.51 585.41 1013.51 585.41 1022.93 574.95 1011.42 567.73 1011.42 567.73 1011.42 567.73 1017.7 563.55 1014.56 555.18 1012.36 549.22 1000.96 544.72 1000.96 544.72 1000.96 544.72 1032.03 532.27 1032.03 524.95Z" fill="#a66241" opacity="1" stroke-width="4" stroke="none"></path><path d="M889.56 635.41L898.45 622.02C898.45 622.02 895.73 618.78 891.55 613.45L889.56 635.41Z" fill="#171717" opacity="0.2" stroke-width="4" stroke="none"></path><path d="M833.7 634.68L837.88 675.37C840.6 679.24 843.74 682.9 847.09 686.36 851.06 690.44 856.4 695.04 862.78 699.22L833.7 634.68Z" fill="#2f2f2f" opacity="0.2" stroke-width="4" stroke="none"></path><path d="M897.4 621.08L889.03 634.68" stroke="#171717" stroke-width="4" stroke-linecap="round" stroke-linejoin="round" opacity="1" fill="none"></path><path d="M833.7 627.88L837.88 675.37" stroke="#2f2f2f" stroke-width="4" stroke-linecap="round" stroke-linejoin="round" opacity="1" fill="none"></path><path d="M762.78 482.38L770.62 490.12" stroke="#171717" stroke-width="4" stroke-linecap="round" stroke-linejoin="round" opacity="1" fill="none"></path><path d="M801.9 529.14C792.59 526.83 787.46 522.75 787.46 522.75" stroke="#171717" stroke-width="4" stroke-linecap="round" stroke-linejoin="round" opacity="1" fill="none"></path><path d="M878.16 771.82H755.87C747.82 771.82 744.05 765.33 747.19 757.38L779.41 677.88C782.65 669.83 791.75 663.45 799.91 663.45H922.09C930.14 663.45 933.91 669.93 930.77 677.88L898.55 757.38C895.31 765.44 886.11 771.82 878.16 771.82Z" fill="#57b46a" opacity="1" stroke-width="4" stroke="none"></path><path d="M904.91 693.34C908.74 690.09 909.93 685.2 907.57 682.43 905.22 679.66 900.21 680.05 896.38 683.3 892.55 686.56 891.36 691.45 893.71 694.22 896.07 696.99 901.09 696.61 904.91 693.34Z" fill="#84df97" opacity="1" stroke-width="4" stroke="none"></path><path d="M811.94 500.16C813.62 502.57 816.33 504.13 819.26 504.34" stroke="#171717" stroke-width="4" stroke-linecap="round" stroke-linejoin="round" opacity="1" fill="none"></path><path d="M838.93 718.16C839.45 713.87 809.74 703.51 782.55 697.34 754.1 690.75 701.17 683.74 701.17 683.74 701.17 683.74 706.29 674.33 712.15 661.88L639.34 626.63C630.03 642.94 618.53 664.7 613.3 683.74 597.61 742.21 639.34 745.35 660.27 746.4 681.19 747.44 736.52 743.26 736.52 743.26 736.52 743.26 782.44 756.86 796.04 756.86 809.64 756.86 808.59 750.58 808.59 750.58 808.59 750.58 823.24 751.63 822.19 742.21 822.19 742.21 840.08 739.39 830.56 731.75 825.33 727.57 798.24 717.11 796.15 716.06 807.65 717.11 837.88 726.52 838.93 718.16Z" fill="#a66241" opacity="1" stroke-width="4" stroke="none"></path><path d="M702.21 681.54L673.97 677.36" stroke="#171717" stroke-width="4" stroke-linecap="round" stroke-linejoin="round" opacity="1" fill="none"></path><path d="M711.63 661.77L722.3 643.15" stroke="#2f2f2f" stroke-width="4" stroke-linecap="round" stroke-linejoin="round" opacity="1" fill="none"></path><path d="M808.7 750.48L775.23 739.08" stroke="#171717" stroke-width="4" stroke-linecap="round" stroke-linejoin="round" opacity="1" fill="none"></path><path d="M822.19 741.06L781.5 724.43" stroke="#171717" stroke-width="4" stroke-linecap="round" stroke-linejoin="round" opacity="1" fill="none"></path><path d="M799.28 715.02L787.78 710.83" stroke="#171717" stroke-width="4" stroke-linecap="round" stroke-linejoin="round" opacity="1" fill="none"></path><path d="M980.88 535.41L974.6 550.06C974.6 550.06 976.69 570.87 968.32 582.38" stroke="#171717" stroke-width="4" stroke-linecap="round" stroke-linejoin="round" opacity="1" fill="none"></path><path d="M1011.11 569.93C999.6 577.25 989.35 574.32 987.15 572.02 984.02 568.88 985.06 561.56 995.52 557.38" stroke="#171717" stroke-width="4" stroke-linecap="round" stroke-linejoin="round" opacity="1" fill="none"></path><path d="M1012.15 586.56C1005.88 589.7 993.43 591.79 989.25 586.56 985.06 581.33 991.34 575.06 991.34 575.06" stroke="#171717" stroke-width="4" stroke-linecap="round" stroke-linejoin="round" opacity="1" fill="none"></path><path d="M989.25 600.16C985.79 597.55 985.06 592.63 987.68 589.18 988.1 588.55 988.62 588.03 989.25 587.61" stroke="#171717" stroke-width="4" stroke-linecap="round" stroke-linejoin="round" opacity="1" fill="none"></path><path d="M821.98 485.62C822.61 487.19 823.45 489.7 823.03 491.06 822.61 491.9 821.88 492.63 820.94 492.94" stroke="#171717" stroke-width="4" stroke-linecap="round" stroke-linejoin="round" opacity="1" fill="none"></path><path d="M807.02 481.85C808.75 481.85 810.16 480.44 810.16 478.72 810.16 476.98 808.75 475.58 807.02 475.58 805.29 475.58 803.89 476.98 803.89 478.72 803.89 480.44 805.29 481.85 807.02 481.85Z" fill="#17151c" opacity="1" stroke-width="4" stroke="none"></path><path d="M829.51 480.28C831.24 480.28 832.65 478.87 832.65 477.15 832.65 475.41 831.24 474.01 829.51 474.01 827.78 474.01 826.38 475.41 826.38 477.15 826.38 478.87 827.78 480.28 829.51 480.28Z" fill="#17151c" opacity="1" stroke-width="4" stroke="none"></path><path d="M987.15 592.42C987.15 591.37 987.57 590.22 988.41 588.97 988.41 588.97 981.19 581.75 989.04 574.53 989.04 574.53 980.46 567.73 987.26 558.74 987.26 558.74 978.37 555.39 977.32 548.49 977.32 548.49 975.02 557.8 974.39 560.2 974.39 560.2 979.83 574.85 970.42 593.05 970.52 592.94 979.52 590.22 987.15 592.42Z" fill="#171717" opacity="0.2" stroke-width="4" stroke="none"></path><path d="M920.31 1053.83C910.06 1036.78 887.15 1032.28 886.94 997.66 886.94 995.78 886.94 993.68 887.15 991.59 887.26 990.75 887.36 989.81 887.47 988.87H864.66C856.5 988.87 850.33 996.09 851.69 1004.14L855.25 1026.53C855.25 1026.53 830.14 1001.74 788.61 999.96 787.78 1007.39 787.05 1014.92 786.52 1022.76 786.31 1025.69 786.21 1028.62 786 1031.45 785.69 1038.66 785.27 1046.3 785.27 1053.94V1054.48L914.79 1058.24 920.31 1053.83Z" fill="#857a7a" opacity="1" stroke-width="4" stroke="none"></path><path d="M920.31 1053.83H785.25C785.06 1060.11 785.16 1066.59 785.37 1073.08H925.33C925.33 1067.85 924.5 1063.45 923.24 1059.69 922.3 1057.6 921.36 1055.61 920.31 1053.83Z" fill="#61baff" opacity="1" stroke-width="4" stroke="none"></path><path d="M890.19 1016.07L874.7 1022.45" stroke="#000000" stroke-width="4" stroke-linecap="round" stroke-linejoin="round" opacity="1" fill="none"></path><path d="M897.3 1027.89L884.22 1037.72" stroke="#000000" stroke-width="4" stroke-linecap="round" stroke-linejoin="round" opacity="1" fill="none"></path><path d="M855.14 1026.53L860.79 1053.83" stroke="#000000" stroke-width="4" stroke-linecap="round" stroke-linejoin="round" opacity="1" fill="none"></path><path d="M1076.8 995.88C1059.96 985.11 1037.05 990.96 1021.36 960.11 1020.52 958.33 1019.58 956.55 1018.74 954.56 1018.74 954.46 1018.64 954.46 1018.64 954.35L1002.43 962.2C994.06 966.17 991.23 976.74 996.57 984.48L1008.28 1001.21C1008.28 1001.21 973.56 989.39 934.43 1007.28 936.84 1013.98 939.56 1020.67 942.38 1027.47 943.53 1030.19 944.68 1032.91 945.83 1035.63 948.76 1042.22 952.22 1049.54 955.56 1056.34 955.67 1056.55 957.11 1057.39 957.55 1057.64L1076.87 997.91C1077.16 997.39 1077.11 996.09 1076.8 995.88Z" fill="#857a7a" opacity="1" stroke-width="4" stroke="none"></path><path d="M1081.09 999.23C1079.73 997.87 1078.26 996.82 1076.8 995.88L955.55 1056.35C958.39 1061.89 961.21 1067.43 964.25 1073.08L1089.46 1010.63C1086.95 1005.61 1084.12 1001.95 1081.09 999.23Z" fill="#61baff" opacity="1" stroke-width="4" stroke="none"></path><path d="M1034.12 976L1023.45 988.87" stroke="#000000" stroke-width="4" stroke-linecap="round" stroke-linejoin="round" opacity="1" fill="none"></path><path d="M1046.46 982.49L1039.46 997.14" stroke="#000000" stroke-width="4" stroke-linecap="round" stroke-linejoin="round" opacity="1" fill="none"></path><path d="M1008.39 1001.21L1025.75 1022.45" stroke="#000000" stroke-width="4" stroke-linecap="round" stroke-linejoin="round" opacity="1" fill="none"></path><path d="M677 766.27H706.08L701.48 793.37C699.6 804.14 690.18 812.09 679.2 812.09" stroke="#636363" stroke-width="4" stroke-linecap="round" stroke-linejoin="round" opacity="1" fill="none"></path><path d="M833.28 850.06C833.28 850.06 841.65 834.37 845.62 827.05" stroke="#5a5a5a" stroke-width="4" stroke-linecap="round" stroke-linejoin="round" opacity="1" fill="none"></path></g><g><path d="M536.89 663.65C536.89 663.65 542.87 647.38 540.28 641.41 530.32 645.01 519.35 644.9 509.39 641.29 507.21 648.88 516.83 668.01 516.83 668.01L536.89 663.65Z" fill="#152e1a" opacity="1" stroke-width="4" stroke="none"></path><path d="M553.8 640.24C543.85 637.61 533.1 642.53 524.76 652.27 516.42 642.57 505.67 637.65 495.71 640.24 479.25 644.56 471.1 667.9 477.52 692.28 483.95 716.67 502.51 732.98 518.97 728.62 521 728.09 522.95 727.23 524.76 726.14 526.56 727.27 528.51 728.09 530.54 728.62 547 732.94 565.56 716.67 571.99 692.25 578.41 667.82 570.26 644.6 553.8 640.24Z" fill="#57b46a" opacity="1" stroke-width="4" stroke="none"></path><path d="M536.37 686.48C538.72 683.47 539.47 680.13 538.04 679.02 536.62 677.91 533.56 679.45 531.22 682.47 528.87 685.48 528.12 688.82 529.54 689.93 530.97 691.04 534.03 689.5 536.37 686.48Z" fill="#000000" opacity="1" stroke-width="4" stroke="none"></path><path d="M520.03 689.93C521.45 688.82 520.7 685.48 518.35 682.47 516.01 679.45 512.95 677.91 511.53 679.02 510.1 680.13 510.85 683.47 513.2 686.48 515.54 689.5 518.6 691.04 520.03 689.93Z" fill="#000000" opacity="1" stroke-width="4" stroke="none"></path><path d="M519.01 622.47C525.47 626.57 527.39 635.13 527.54 635.73 527.54 635.77 527.54 635.77 527.5 635.77 526.9 635.92 518.33 637.76 511.87 633.63 505.41 629.5 503.49 620.93 503.34 620.37 503.34 620.33 503.34 620.33 503.38 620.33 503.94 620.18 512.58 618.34 519.01 622.47Z" fill="#515151" opacity="1" stroke-width="4" stroke="none"></path><path d="M519.01 622.47C525.32 626.49 527.31 634.76 527.54 635.7 527.54 635.73 527.5 635.73 527.46 635.73L503.41 620.4C503.38 620.4 503.38 620.33 503.41 620.33 504.35 620.1 512.73 618.45 519.01 622.47Z" fill="#857a7a" opacity="1" stroke-width="4" stroke="none"></path><path d="M524.61 652C524.61 652 524.61 638.21 532.87 626.83" stroke="#161616" stroke-width="4" stroke-linecap="round" stroke-linejoin="round" opacity="1" fill="none"></path><path d="M573.27 665.42C573.27 665.38 573.19 665.38 573.19 665.42 569.4 683.9 554.44 701.68 532.5 710.81 517.54 717.05 502.02 718.14 488.65 714.94 488.61 714.94 488.57 714.98 488.61 715.02 497.14 725.8 508.49 731.4 518.97 728.62 521 728.09 522.95 727.23 524.76 726.14 526.56 727.27 528.51 728.09 530.54 728.62 547 732.94 565.56 716.67 571.99 692.25 574.51 682.78 574.77 673.46 573.27 665.42Z" fill="#152e1a" opacity="0.2" stroke-width="4" stroke="none"></path></g><g><path d="M1157.74 718.28L1117.71 650.78V610.31H1121.79C1125.54 609.87 1128.51 606.89 1128.51 603.25V602.81C1128.51 599.17 1125.54 596.2 1121.9 596.2H1088.48C1084.84 596.2 1081.86 599.17 1081.86 602.81V603.25C1081.86 606.89 1084.84 609.87 1088.37 610.31H1092.56V650.78L1052.64 718.28C1050.54 721.91 1051.76 726.33 1055.18 728.53 1056.28 729.19 1057.6 729.52 1058.93 729.52H1151.12C1155.31 729.52 1158.62 726.11 1158.62 722.03 1158.73 720.7 1158.4 719.38 1157.74 718.28Z" fill="#57b46a" opacity="1" stroke-width="4" stroke="none"></path><path d="M1157.52 718.28L1139.21 687.18C1092.89 726 1107.78 669.09 1074.7 681L1052.64 718.28C1050.54 721.91 1051.76 726.33 1055.18 728.53 1056.28 729.19 1057.6 729.52 1058.93 729.52H1151.12C1155.31 729.52 1158.62 726.11 1158.62 722.03 1158.62 720.7 1158.29 719.38 1157.52 718.28Z" fill="#57b46a" opacity="1" stroke-width="4" stroke="none"></path></g><g><path d="M1200.25 726.8H450V753.6H1200.25V726.8Z" fill="#857a7a" opacity="1" stroke-width="4" stroke="none"></path></g></svg>