<svg xmlns="http://www.w3.org/2000/svg" xmlns:xlink="http://www.w3.org/1999/xlink" width="940" zoomAndPan="magnify" viewBox="0 0 705 591.000005" height="788" preserveAspectRatio="xMidYMid meet" version="1.0"><defs><clipPath id="f33985aad6"><path d="M 59.59375 0 L 646.601562 0 L 646.601562 586 L 59.59375 586 Z M 59.59375 0 " clip-rule="nonzero"/></clipPath><clipPath id="93dfbe2727"><path d="M 255.441406 92.816406 L 266 92.816406 L 266 98.898438 L 255.441406 98.898438 Z M 255.441406 92.816406 " clip-rule="nonzero"/></clipPath><clipPath id="9e528e2d52"><path d="M 250.910156 96.578125 C 250.910156 96.578125 253.953125 93.398438 258.050781 92.996094 C 262.152344 92.601562 265.75 95.136719 265.75 95.136719 C 265.75 95.136719 262.707031 98.320312 258.609375 98.714844 C 254.507812 99.117188 250.910156 96.578125 250.910156 96.578125 Z M 250.910156 96.578125 " clip-rule="nonzero"/></clipPath><clipPath id="0f86df9323"><path d="M 444.0625 340.226562 L 456 340.226562 L 456 350.789062 L 444.0625 350.789062 Z M 444.0625 340.226562 " clip-rule="nonzero"/></clipPath><clipPath id="bb91b9619c"><path d="M 459.617188 340.179688 C 459.617188 340.179688 454.167969 339.480469 449.882812 342.304688 C 445.597656 345.128906 444.097656 350.410156 444.097656 350.410156 C 444.097656 350.410156 449.542969 351.109375 453.828125 348.285156 C 458.113281 345.460938 459.617188 340.179688 459.617188 340.179688 Z M 459.617188 340.179688 " clip-rule="nonzero"/></clipPath></defs><g clip-path="url(#f33985aad6)"><path fill="#f2e6dc" d="M 646.605469 293.09375 C 646.605469 454.960938 515.679688 585.710938 353.585938 585.710938 C 191.496094 585.710938 59.625 454.960938 59.625 293.09375 C 59.625 131.222656 191.023438 0.00390625 353.113281 0.00390625 C 515.207031 0.00390625 646.605469 131.222656 646.605469 293.09375 " fill-opacity="1" fill-rule="nonzero"/></g><path fill="#ffffff" d="M 462.292969 229.765625 C 453.300781 229.765625 444.148438 231.328125 435.1875 234.527344 C 415.394531 241.601562 399.984375 257.003906 392.90625 276.785156 C 382.683594 305.371094 389.171875 335.960938 409.847656 356.625 C 430.523438 377.285156 461.132812 383.773438 489.734375 373.558594 C 509.519531 366.484375 524.929688 351.082031 532.007812 331.304688 L 532.3125 331.414062 L 532.007812 331.304688 C 542.234375 302.71875 535.746094 272.128906 515.070312 251.464844 C 500.871094 237.269531 481.988281 229.765625 462.292969 229.765625 Z M 462.402344 379.03125 C 456.597656 379.03125 450.855469 378.378906 445.261719 377.070312 C 431.703125 373.890625 419.300781 366.976562 409.390625 357.078125 C 399.488281 347.179688 392.574219 334.78125 389.390625 321.226562 C 386.007812 306.796875 387.011719 291.355469 392.304688 276.570312 C 395.785156 266.839844 401.507812 257.816406 408.859375 250.46875 C 416.203125 243.125 425.238281 237.40625 434.972656 233.929688 C 449.765625 228.644531 465.214844 227.640625 479.652344 231.019531 C 493.214844 234.195312 505.617188 241.113281 515.523438 251.007812 C 525.429688 260.914062 532.347656 273.308594 535.523438 286.859375 C 538.90625 301.292969 537.898438 316.734375 532.613281 331.519531 C 529.128906 341.25 523.40625 350.273438 516.0625 357.613281 C 508.710938 364.960938 499.683594 370.679688 489.945312 374.160156 C 480.882812 377.398438 471.574219 379.03125 462.402344 379.03125 Z M 445.820312 405.414062 L 479.097656 405.414062 L 479.097656 395.71875 C 479.097656 395.566406 479.210938 395.429688 479.359375 395.402344 C 484.15625 394.523438 488.925781 393.25 493.535156 391.617188 C 493.675781 391.5625 493.839844 391.621094 493.917969 391.757812 L 498.761719 400.148438 L 527.578125 383.519531 L 522.722656 375.105469 C 522.644531 374.976562 522.675781 374.804688 522.792969 374.703125 C 526.503906 371.535156 529.992188 368.050781 533.160156 364.34375 C 533.257812 364.226562 533.425781 364.195312 533.5625 364.273438 L 541.980469 369.128906 L 558.617188 340.328125 L 550.21875 335.484375 C 550.085938 335.40625 550.023438 335.246094 550.082031 335.097656 C 551.714844 330.492188 552.984375 325.726562 553.867188 320.933594 C 553.898438 320.78125 554.03125 320.671875 554.1875 320.671875 L 563.882812 320.671875 L 563.882812 287.414062 L 554.1875 287.414062 C 554.03125 287.414062 553.898438 287.304688 553.867188 287.152344 C 552.984375 282.359375 551.714844 277.59375 550.082031 272.988281 C 550.023438 272.839844 550.085938 272.683594 550.21875 272.605469 L 558.617188 267.757812 L 541.980469 238.953125 L 533.5625 243.816406 C 533.429688 243.890625 533.261719 243.859375 533.160156 243.746094 C 529.992188 240.039062 526.503906 236.550781 522.792969 233.386719 C 522.675781 233.28125 522.644531 233.109375 522.722656 232.980469 L 527.578125 224.570312 L 498.765625 207.941406 L 493.917969 216.332031 C 493.839844 216.464844 493.675781 216.523438 493.535156 216.472656 C 488.925781 214.835938 484.15625 213.566406 479.359375 212.683594 C 479.210938 212.65625 479.097656 212.523438 479.097656 212.371094 L 479.097656 202.675781 L 445.820312 202.675781 L 445.820312 212.371094 C 445.820312 212.523438 445.710938 212.65625 445.558594 212.683594 C 440.761719 213.566406 435.992188 214.835938 431.386719 216.472656 C 431.242188 216.523438 431.078125 216.464844 431 216.332031 L 426.15625 207.941406 L 397.335938 224.570312 L 402.195312 232.980469 C 402.273438 233.109375 402.242188 233.28125 402.125 233.386719 C 398.414062 236.550781 394.929688 240.035156 391.757812 243.746094 C 391.660156 243.859375 391.484375 243.890625 391.351562 243.816406 L 382.9375 238.953125 L 366.300781 267.757812 L 374.695312 272.605469 C 374.832031 272.683594 374.890625 272.839844 374.839844 272.988281 C 373.207031 277.597656 371.925781 282.359375 371.046875 287.152344 C 371.023438 287.304688 370.886719 287.414062 370.734375 287.414062 L 361.027344 287.414062 L 361.027344 320.671875 L 370.734375 320.671875 C 370.886719 320.671875 371.023438 320.78125 371.046875 320.933594 C 371.925781 325.726562 373.207031 330.492188 374.839844 335.097656 C 374.890625 335.246094 374.832031 335.40625 374.695312 335.484375 L 366.300781 340.328125 L 382.9375 369.128906 L 391.351562 364.273438 C 391.484375 364.195312 391.660156 364.226562 391.757812 364.34375 C 394.929688 368.050781 398.414062 371.539062 402.125 374.703125 C 402.242188 374.804688 402.273438 374.976562 402.195312 375.105469 L 397.335938 383.519531 L 426.15625 400.148438 L 431 391.757812 C 431.078125 391.621094 431.242188 391.5625 431.386719 391.617188 C 435.992188 393.25 440.761719 394.523438 445.558594 395.402344 C 445.710938 395.429688 445.820312 395.566406 445.820312 395.71875 Z M 479.417969 406.054688 L 445.5 406.054688 C 445.324219 406.054688 445.179688 405.914062 445.179688 405.734375 L 445.179688 395.984375 C 440.527344 395.117188 435.898438 393.878906 431.421875 392.308594 L 426.550781 400.742188 C 426.503906 400.816406 426.4375 400.871094 426.351562 400.894531 C 426.273438 400.914062 426.1875 400.902344 426.109375 400.863281 L 396.742188 383.914062 C 396.585938 383.824219 396.53125 383.628906 396.621094 383.476562 L 401.507812 375.015625 C 397.917969 371.933594 394.53125 368.550781 391.441406 364.960938 L 382.980469 369.84375 C 382.90625 369.886719 382.816406 369.894531 382.738281 369.878906 C 382.65625 369.855469 382.589844 369.800781 382.542969 369.726562 L 365.589844 340.371094 C 365.496094 340.21875 365.550781 340.023438 365.699219 339.933594 L 374.148438 335.0625 C 372.570312 330.585938 371.332031 325.960938 370.464844 321.3125 L 360.710938 321.3125 C 360.53125 321.3125 360.390625 321.171875 360.390625 320.992188 L 360.390625 287.097656 C 360.390625 286.917969 360.53125 286.777344 360.710938 286.777344 L 370.464844 286.777344 C 371.332031 282.125 372.570312 277.503906 374.148438 273.023438 L 365.699219 268.152344 C 365.550781 268.066406 365.496094 267.871094 365.589844 267.714844 L 382.542969 238.363281 C 382.589844 238.289062 382.65625 238.230469 382.738281 238.207031 C 382.816406 238.1875 382.90625 238.199219 382.980469 238.242188 L 391.441406 243.125 C 394.53125 239.535156 397.917969 236.152344 401.507812 233.070312 L 396.621094 224.613281 C 396.53125 224.457031 396.585938 224.261719 396.742188 224.171875 L 426.109375 207.222656 C 426.1875 207.183594 426.273438 207.171875 426.351562 207.195312 C 426.4375 207.214844 426.503906 207.269531 426.550781 207.34375 L 431.421875 215.777344 C 435.898438 214.207031 440.527344 212.96875 445.179688 212.101562 L 445.179688 202.351562 C 445.179688 202.175781 445.324219 202.03125 445.5 202.03125 L 479.417969 202.03125 C 479.59375 202.03125 479.734375 202.175781 479.734375 202.351562 L 479.734375 212.101562 C 484.390625 212.96875 489.015625 214.207031 493.492188 215.777344 L 498.367188 207.34375 C 498.410156 207.269531 498.480469 207.214844 498.5625 207.195312 C 498.640625 207.171875 498.730469 207.183594 498.808594 207.222656 L 528.179688 224.171875 C 528.332031 224.261719 528.382812 224.457031 528.292969 224.613281 L 523.410156 233.070312 C 527.003906 236.15625 530.390625 239.535156 533.472656 243.125 L 541.9375 238.242188 C 542.007812 238.199219 542.09375 238.1875 542.179688 238.207031 C 542.261719 238.230469 542.332031 238.289062 542.375 238.363281 L 559.332031 267.714844 C 559.417969 267.871094 559.367188 268.066406 559.210938 268.152344 L 550.773438 273.023438 C 552.34375 277.5 553.578125 282.125 554.449219 286.777344 L 564.207031 286.777344 C 564.382812 286.777344 564.527344 286.917969 564.527344 287.097656 L 564.527344 320.992188 C 564.527344 321.171875 564.382812 321.3125 564.207031 321.3125 L 554.449219 321.3125 C 553.578125 325.964844 552.34375 330.585938 550.773438 335.0625 L 559.210938 339.933594 C 559.367188 340.023438 559.417969 340.21875 559.332031 340.371094 L 542.375 369.726562 C 542.332031 369.800781 542.261719 369.855469 542.179688 369.878906 C 542.09375 369.894531 542.007812 369.886719 541.9375 369.84375 L 533.472656 364.960938 C 530.390625 368.550781 527.003906 371.933594 523.410156 375.015625 L 528.292969 383.476562 C 528.382812 383.628906 528.332031 383.824219 528.179688 383.914062 L 498.808594 400.863281 C 498.730469 400.902344 498.640625 400.914062 498.5625 400.894531 C 498.480469 400.871094 498.414062 400.816406 498.367188 400.742188 L 493.492188 392.308594 C 489.015625 393.878906 484.390625 395.117188 479.734375 395.984375 L 479.734375 405.734375 C 479.734375 405.914062 479.59375 406.054688 479.417969 406.054688 " fill-opacity="1" fill-rule="nonzero"/><path fill="#e6d0be" d="M 378.699219 552.933594 L 105.1875 552.933594 L 105.1875 37.21875 L 378.699219 37.21875 L 378.699219 552.933594 " fill-opacity="1" fill-rule="nonzero"/><path fill="#363e44" d="M 109.832031 2.183594 C 96.484375 2.183594 85.628906 13.035156 85.628906 26.375 L 85.628906 558.875 C 85.628906 572.214844 96.484375 583.066406 109.832031 583.066406 L 374.058594 583.066406 C 387.40625 583.066406 398.261719 572.214844 398.261719 558.875 L 398.261719 26.375 C 398.261719 13.035156 387.40625 2.183594 374.058594 2.183594 Z M 374.058594 583.707031 L 109.832031 583.707031 C 96.132812 583.707031 84.988281 572.566406 84.988281 558.875 L 84.988281 26.375 C 84.988281 12.683594 96.132812 1.546875 109.832031 1.546875 L 374.058594 1.546875 C 387.757812 1.546875 398.898438 12.683594 398.898438 26.375 L 398.898438 558.875 C 398.898438 572.566406 387.757812 583.707031 374.058594 583.707031 " fill-opacity="1" fill-rule="nonzero"/><path fill="#d3bba3" d="M 273.070312 19.375 L 210.816406 19.375 C 210.640625 19.375 210.496094 19.230469 210.496094 19.054688 C 210.496094 18.878906 210.640625 18.734375 210.816406 18.734375 L 273.070312 18.734375 C 273.246094 18.734375 273.390625 18.878906 273.390625 19.054688 C 273.390625 19.230469 273.246094 19.375 273.070312 19.375 " fill-opacity="1" fill-rule="nonzero"/><path fill="#d3bba3" d="M 112.984375 542.75 L 235.398438 542.75 L 235.398438 426.058594 L 112.984375 426.058594 Z M 235.71875 543.386719 L 112.664062 543.386719 C 112.488281 543.386719 112.34375 543.242188 112.34375 543.070312 L 112.34375 425.738281 C 112.34375 425.5625 112.488281 425.417969 112.664062 425.417969 L 235.71875 425.417969 C 235.894531 425.417969 236.039062 425.5625 236.039062 425.738281 L 236.039062 543.070312 C 236.039062 543.242188 235.894531 543.386719 235.71875 543.386719 " fill-opacity="1" fill-rule="nonzero"/><path fill="#d3bba3" d="M 246.644531 542.039062 L 369.058594 542.039062 L 369.058594 425.347656 L 246.644531 425.347656 Z M 369.378906 542.679688 L 246.324219 542.679688 C 246.148438 542.679688 246.003906 542.535156 246.003906 542.359375 L 246.003906 425.03125 C 246.003906 424.851562 246.148438 424.710938 246.324219 424.710938 L 369.378906 424.710938 C 369.554688 424.710938 369.699219 424.851562 369.699219 425.03125 L 369.699219 542.359375 C 369.699219 542.535156 369.554688 542.679688 369.378906 542.679688 " fill-opacity="1" fill-rule="nonzero"/><path fill="#f2e6dc" d="M 349.964844 73.683594 L 136.746094 73.683594 L 136.746094 55.660156 L 349.964844 55.660156 L 349.964844 73.683594 " fill-opacity="1" fill-rule="nonzero"/><path fill="#40484c" d="M 466.027344 106.121094 L 466.03125 106.121094 Z M 431.695312 73.457031 L 454.273438 104.109375 C 456.976562 107.777344 462.160156 108.570312 465.835938 105.863281 C 467.617188 104.554688 468.777344 102.632812 469.113281 100.445312 C 469.441406 98.265625 468.902344 96.082031 467.597656 94.304688 L 445.019531 63.652344 Z M 460.945312 108.113281 C 458.207031 108.113281 455.5 106.855469 453.757812 104.488281 L 430.988281 73.574219 C 430.886719 73.4375 430.914062 73.234375 431.058594 73.125 L 444.898438 62.945312 C 444.96875 62.894531 445.054688 62.875 445.136719 62.886719 C 445.21875 62.902344 445.296875 62.945312 445.347656 63.015625 L 468.109375 93.925781 C 469.523438 95.839844 470.101562 98.195312 469.746094 100.542969 C 469.386719 102.898438 468.136719 104.96875 466.21875 106.378906 C 464.628906 107.546875 462.777344 108.109375 460.945312 108.113281 " fill-opacity="1" fill-rule="nonzero"/><path fill="#363e44" d="M 516.128906 42.40625 C 517.808594 49.269531 513.605469 56.195312 506.742188 57.878906 C 499.875 59.558594 492.949219 55.355469 491.265625 48.492188 C 489.585938 41.628906 493.789062 34.707031 500.65625 33.023438 C 507.519531 31.34375 514.449219 35.546875 516.128906 42.40625 " fill-opacity="1" fill-rule="nonzero"/><path fill="#d87355" d="M 440.550781 45.75 L 447.558594 74.347656 L 513.226562 80.546875 L 495.824219 9.523438 L 440.550781 45.75 " fill-opacity="1" fill-rule="nonzero"/><path fill="#efbc73" d="M 429.144531 78.816406 L 447.542969 74.3125 L 440.558594 45.789062 L 422.15625 50.292969 L 429.144531 78.816406 " fill-opacity="1" fill-rule="nonzero"/><path fill="#e0aa63" d="M 442.347656 66.03125 L 429.257812 69.234375 L 430.492188 74.257812 L 443.578125 71.054688 Z M 441.878906 66.804688 L 442.804688 70.585938 L 430.960938 73.484375 L 430.039062 69.703125 L 441.878906 66.804688 " fill-opacity="1" fill-rule="nonzero"/><path fill="#e0aa63" d="M 440.445312 58.269531 L 427.359375 61.472656 L 428.589844 66.496094 L 441.675781 63.292969 Z M 439.976562 59.042969 L 440.90625 62.824219 L 429.058594 65.722656 L 428.136719 61.941406 L 439.976562 59.042969 " fill-opacity="1" fill-rule="nonzero"/><path fill="#e0aa63" d="M 438.546875 50.507812 L 425.460938 53.710938 L 426.691406 58.734375 L 439.777344 55.53125 Z M 438.074219 51.277344 L 439.003906 55.0625 L 427.160156 57.957031 L 426.230469 54.179688 L 438.074219 51.277344 " fill-opacity="1" fill-rule="nonzero"/><path fill="#363e44" d="M 527.558594 26.003906 C 527.511719 26.003906 527.460938 25.992188 527.410156 25.964844 C 527.253906 25.886719 527.195312 25.691406 527.273438 25.535156 L 536.703125 7.15625 C 536.78125 7.003906 536.976562 6.9375 537.132812 7.019531 C 537.292969 7.097656 537.355469 7.292969 537.277344 7.453125 L 527.84375 25.828125 C 527.785156 25.9375 527.675781 26.003906 527.558594 26.003906 " fill-opacity="1" fill-rule="nonzero"/><path fill="#363e44" d="M 534.15625 35.898438 C 534.007812 35.898438 533.878906 35.789062 533.84375 35.640625 C 533.808594 35.46875 533.921875 35.300781 534.097656 35.261719 L 551.773438 31.730469 C 551.953125 31.695312 552.117188 31.808594 552.152344 31.980469 C 552.1875 32.15625 552.074219 32.324219 551.902344 32.359375 L 534.222656 35.890625 L 534.15625 35.898438 " fill-opacity="1" fill-rule="nonzero"/><path fill="#363e44" d="M 556.082031 57.101562 L 556.023438 57.097656 L 534.804688 52.855469 C 534.628906 52.820312 534.515625 52.652344 534.550781 52.480469 C 534.585938 52.304688 534.753906 52.191406 534.929688 52.226562 L 556.144531 56.46875 C 556.316406 56.503906 556.429688 56.671875 556.394531 56.847656 C 556.367188 57 556.230469 57.101562 556.082031 57.101562 " fill-opacity="1" fill-rule="nonzero"/><path fill="#8b865c" d="M 368.148438 414.34375 L 114.472656 414.34375 L 114.472656 199.257812 L 368.148438 199.257812 L 368.148438 414.34375 " fill-opacity="1" fill-rule="nonzero"/><path fill="#363e44" d="M 159.601562 414.34375 C 159.601562 414.34375 193.585938 310.457031 205.390625 260.988281 C 205.390625 260.988281 254.230469 243.570312 306.902344 254.78125 C 306.902344 254.78125 324.074219 345.144531 315.085938 414.34375 L 252.722656 414.34375 L 260.640625 296.238281 L 236.941406 414.34375 L 159.601562 414.34375 " fill-opacity="1" fill-rule="nonzero"/><path fill="#e2a18d" d="M 241.402344 134.328125 L 259.171875 134.328125 L 259.171875 97.996094 L 241.402344 97.996094 L 241.402344 134.328125 " fill-opacity="1" fill-rule="nonzero"/><path fill="#363e44" d="M 264.242188 85.402344 C 267.796875 96.335938 261.8125 108.082031 250.871094 111.632812 C 239.929688 115.183594 228.179688 109.199219 224.625 98.265625 C 221.070312 87.332031 227.058594 75.589844 238 72.035156 C 248.9375 68.484375 260.6875 74.46875 264.242188 85.402344 " fill-opacity="1" fill-rule="nonzero"/><path fill="#e2a18d" d="M 268.515625 110.832031 C 265.148438 115.355469 250.042969 110.933594 250.042969 110.933594 L 238.160156 98.445312 C 235.707031 90.894531 239.839844 82.789062 247.390625 80.339844 C 254.945312 77.886719 263.054688 82.015625 265.507812 89.5625 C 265.507812 89.5625 271.945312 106.214844 268.515625 110.832031 " fill-opacity="1" fill-rule="nonzero"/><path fill="#e2a18d" d="M 265.105469 93.667969 C 265.105469 93.667969 270.246094 96.441406 270.386719 97.566406 C 270.554688 98.910156 266.535156 101.066406 266.535156 101.066406 C 266.535156 101.066406 265.210938 93.644531 265.105469 93.667969 " fill-opacity="1" fill-rule="nonzero"/><path fill="#363e44" d="M 262.148438 113.425781 C 256.753906 113.425781 250.339844 111.570312 250.027344 111.480469 C 249.859375 111.429688 249.761719 111.25 249.8125 111.082031 C 249.859375 110.910156 250.039062 110.816406 250.210938 110.863281 C 250.296875 110.890625 258.988281 113.40625 264.519531 112.636719 C 264.695312 112.613281 264.855469 112.738281 264.882812 112.910156 C 264.90625 113.085938 264.785156 113.246094 264.609375 113.273438 C 263.832031 113.378906 263.003906 113.425781 262.148438 113.425781 " fill-opacity="1" fill-rule="nonzero"/><path fill="#ffffff" d="M 250.910156 96.578125 C 250.910156 96.578125 252.980469 94.414062 256.003906 93.433594 C 256.644531 93.222656 257.105469 98.765625 256.398438 98.671875 C 253.296875 98.261719 250.910156 96.578125 250.910156 96.578125 " fill-opacity="1" fill-rule="nonzero"/><g clip-path="url(#93dfbe2727)"><g clip-path="url(#9e528e2d52)"><path fill="#363e44" d="M 256.089844 93.257812 C 257.4375 90.609375 260.683594 89.554688 263.332031 90.90625 C 265.980469 92.257812 267.035156 95.496094 265.683594 98.148438 C 264.335938 100.792969 261.09375 101.851562 258.441406 100.5 C 255.789062 99.148438 254.738281 95.90625 256.089844 93.257812 " fill-opacity="1" fill-rule="nonzero"/></g></g><path fill="#363e44" d="M 262.042969 105.238281 L 261.960938 105.226562 C 261.789062 105.183594 261.6875 105.007812 261.734375 104.835938 C 261.988281 103.875 262.789062 103.144531 263.765625 102.984375 C 264.703125 102.828125 265.679688 103.230469 266.238281 104.011719 C 266.339844 104.15625 266.308594 104.355469 266.164062 104.457031 C 266.019531 104.5625 265.820312 104.527344 265.71875 104.382812 C 265.300781 103.800781 264.574219 103.5 263.871094 103.617188 C 263.140625 103.734375 262.542969 104.28125 262.351562 105.003906 C 262.3125 105.144531 262.183594 105.238281 262.042969 105.238281 " fill-opacity="1" fill-rule="nonzero"/><path fill="#363e44" d="M 236 103.121094 C 236 103.121094 239.789062 99.957031 245.792969 103.113281 L 248.191406 100.566406 C 248.191406 100.566406 240.457031 82.515625 263.226562 83.207031 C 263.226562 83.207031 251.15625 69.859375 239.375 80.027344 C 227.597656 90.195312 236 103.121094 236 103.121094 " fill-opacity="1" fill-rule="nonzero"/><path fill="#e2a18d" d="M 236.890625 106.441406 C 238.554688 108.855469 241.609375 109.636719 243.707031 108.1875 C 245.804688 106.738281 246.152344 103.609375 244.488281 101.199219 C 242.820312 98.789062 239.769531 98.007812 237.671875 99.457031 C 235.574219 100.902344 235.222656 104.027344 236.890625 106.441406 " fill-opacity="1" fill-rule="nonzero"/><path fill="#363e44" d="M 237.882812 103.90625 C 237.714844 103.90625 237.574219 103.777344 237.5625 103.609375 C 237.484375 102.527344 237.925781 101.546875 238.742188 100.980469 C 239.398438 100.53125 240.21875 100.398438 241.042969 100.605469 C 241.855469 100.8125 242.582031 101.335938 243.085938 102.0625 C 243.183594 102.207031 243.148438 102.40625 243.003906 102.507812 C 242.855469 102.605469 242.660156 102.570312 242.558594 102.429688 C 242.140625 101.820312 241.546875 101.394531 240.886719 101.230469 C 240.242188 101.0625 239.609375 101.164062 239.105469 101.507812 C 238.480469 101.941406 238.140625 102.710938 238.203125 103.5625 C 238.214844 103.742188 238.082031 103.894531 237.90625 103.90625 L 237.882812 103.90625 " fill-opacity="1" fill-rule="nonzero"/><path fill="#efbc73" d="M 243.3125 107.273438 C 242.90625 107.273438 242.496094 107.335938 242.089844 107.46875 C 241.082031 107.796875 240.261719 108.496094 239.78125 109.441406 C 239.300781 110.382812 239.214844 111.457031 239.542969 112.464844 C 239.871094 113.46875 240.570312 114.289062 241.515625 114.769531 C 242.457031 115.25 243.53125 115.332031 244.539062 115.007812 C 245.546875 114.683594 246.367188 113.980469 246.847656 113.039062 C 247.328125 112.09375 247.414062 111.019531 247.085938 110.011719 C 246.542969 108.339844 244.984375 107.273438 243.3125 107.273438 Z M 243.308594 115.84375 C 242.59375 115.84375 241.882812 115.675781 241.222656 115.339844 C 240.128906 114.785156 239.316406 113.828125 238.933594 112.660156 C 238.554688 111.492188 238.652344 110.242188 239.210938 109.148438 C 239.769531 108.050781 240.722656 107.238281 241.890625 106.859375 C 243.0625 106.480469 244.3125 106.578125 245.40625 107.136719 C 246.503906 107.695312 247.316406 108.644531 247.695312 109.816406 C 248.074219 110.984375 247.976562 112.234375 247.417969 113.328125 C 246.859375 114.421875 245.910156 115.238281 244.738281 115.617188 C 244.269531 115.769531 243.789062 115.84375 243.308594 115.84375 " fill-opacity="1" fill-rule="nonzero"/><path fill="#363e44" d="M 249.316406 81.011719 C 249.316406 81.011719 241.914062 45.484375 230.851562 49.074219 C 219.792969 52.664062 241.277344 84.507812 249.316406 81.011719 " fill-opacity="1" fill-rule="nonzero"/><path fill="#363e44" d="M 242.0625 84.269531 C 242.0625 84.269531 226.195312 42.441406 212.742188 48.945312 C 199.289062 55.445312 232.441406 90.078125 242.0625 84.269531 " fill-opacity="1" fill-rule="nonzero"/><path fill="#363e44" d="M 238.949219 84.210938 C 238.949219 84.210938 203.285156 46.179688 192.410156 58.851562 C 181.535156 71.515625 231.707031 94.507812 238.949219 84.210938 " fill-opacity="1" fill-rule="nonzero"/><path fill="#363e44" d="M 232.566406 89.273438 C 232.566406 89.273438 200.664062 64.488281 193.355469 75.820312 C 186.046875 87.152344 227.882812 98.265625 232.566406 89.273438 " fill-opacity="1" fill-rule="nonzero"/><path fill="#363e44" d="M 204.851562 76.4375 C 201.902344 76.4375 199.289062 76.832031 197.339844 77.8125 C 195.625 78.671875 194.519531 79.953125 194.046875 81.625 C 193.53125 83.429688 193.96875 85.019531 195.347656 86.351562 C 200.5 91.332031 217.269531 91.65625 227.378906 88.425781 C 231.621094 87.070312 234.238281 85.203125 234.796875 83.148438 C 232.539062 82.3125 216.21875 76.4375 204.851562 76.4375 Z M 212.332031 91.152344 C 204.976562 91.152344 197.96875 89.773438 194.902344 86.8125 C 193.34375 85.300781 192.847656 83.5 193.429688 81.449219 C 193.953125 79.597656 195.171875 78.183594 197.054688 77.238281 C 207.308594 72.09375 234.148438 82.214844 235.285156 82.648438 L 235.535156 82.742188 L 235.484375 83.003906 C 235.035156 85.441406 232.296875 87.527344 227.574219 89.035156 C 223.242188 90.417969 217.691406 91.152344 212.332031 91.152344 " fill-opacity="1" fill-rule="nonzero"/><path fill="#363e44" d="M 218.152344 45.59375 C 217.605469 45.59375 217.054688 45.671875 216.511719 45.832031 C 214.703125 46.363281 213.589844 47.578125 213.195312 49.449219 C 211.71875 56.464844 220.367188 70.824219 228.484375 77.660156 C 231.890625 80.527344 234.863281 81.75 236.902344 81.128906 C 236.28125 78.164062 230.566406 52.082031 221.492188 46.589844 C 220.390625 45.925781 219.273438 45.59375 218.152344 45.59375 Z M 235.761719 81.933594 C 233.660156 81.933594 231.039062 80.652344 228.070312 78.148438 C 219.824219 71.203125 211.046875 56.535156 212.566406 49.320312 C 213.015625 47.199219 214.28125 45.820312 216.328125 45.21875 C 218.175781 44.679688 220.023438 44.957031 221.824219 46.046875 C 231.640625 51.984375 237.347656 80.082031 237.585938 81.277344 L 237.636719 81.539062 L 237.390625 81.632812 C 236.890625 81.832031 236.347656 81.933594 235.761719 81.933594 " fill-opacity="1" fill-rule="nonzero"/><path fill="#363e44" d="M 245.539062 76.648438 C 245.539062 76.648438 239.875 60.015625 248.160156 60.605469 C 256.449219 61.195312 245.539062 76.648438 245.539062 76.648438 " fill-opacity="1" fill-rule="nonzero"/><path fill="#363e44" d="M 226.992188 89.175781 C 226.992188 89.175781 204.402344 84.144531 206.9375 95.859375 C 209.476562 107.570312 226.992188 89.175781 226.992188 89.175781 " fill-opacity="1" fill-rule="nonzero"/><path fill="#ffffff" d="M 198.550781 252.902344 L 188.460938 306.957031 C 188.460938 306.957031 243.445312 302.121094 259.765625 254.628906 L 198.550781 252.902344 " fill-opacity="1" fill-rule="nonzero"/><path fill="#ffffff" d="M 251.175781 250.851562 C 251.804688 254.375 278.75 294.460938 319.152344 299.488281 L 307.917969 245.449219 L 251.175781 250.851562 " fill-opacity="1" fill-rule="nonzero"/><path fill="#ffffff" d="M 189.816406 131.042969 L 171.070312 263.652344 C 171.070312 263.652344 256.820312 277.101562 323.082031 256.457031 L 318.058594 154.953125 C 317.25 146.742188 311.03125 140.101562 302.886719 138.753906 C 283.582031 135.5625 240.070312 128.921875 189.816406 131.042969 " fill-opacity="1" fill-rule="nonzero"/><path fill="#ffffff" d="M 398.546875 161.425781 L 375.523438 147.148438 C 371.375 144.578125 366.070312 145.042969 362.34375 148.195312 C 337.984375 168.808594 308.59375 140.707031 308.59375 140.707031 L 294.273438 144.414062 L 314.128906 213.875 C 373.074219 243.171875 396.800781 198.90625 404.234375 177.378906 C 406.300781 171.390625 403.9375 164.765625 398.546875 161.425781 " fill-opacity="1" fill-rule="nonzero"/><path fill="#ffffff" d="M 187.859375 250.851562 C 187.859375 250.851562 121.191406 268.816406 130.96875 208.765625 C 138.429688 162.929688 164.738281 144.207031 176.738281 135.226562 C 182.894531 130.617188 189.820312 131.042969 189.820312 131.042969 L 187.859375 250.851562 " fill-opacity="1" fill-rule="nonzero"/><path fill="#363e44" d="M 184.863281 199.144531 L 184.804688 199.144531 C 184.632812 199.109375 184.515625 198.945312 184.546875 198.773438 L 190.214844 167.226562 C 190.246094 167.050781 190.410156 166.933594 190.585938 166.964844 C 190.761719 166.996094 190.878906 167.164062 190.84375 167.335938 L 185.175781 198.882812 C 185.148438 199.039062 185.015625 199.144531 184.863281 199.144531 " fill-opacity="1" fill-rule="nonzero"/><path fill="#363e44" d="M 317.691406 212.464844 C 317.542969 212.464844 317.40625 212.355469 317.375 212.203125 L 313.992188 195.03125 C 313.957031 194.859375 314.070312 194.691406 314.246094 194.65625 C 314.414062 194.621094 314.585938 194.734375 314.617188 194.90625 L 318.007812 212.082031 C 318.039062 212.257812 317.925781 212.421875 317.753906 212.457031 L 317.691406 212.464844 " fill-opacity="1" fill-rule="nonzero"/><path fill="#e2a18d" d="M 439.917969 112.621094 C 439.414062 111.34375 437.898438 111.382812 433.449219 114.273438 C 438.347656 108.722656 440.304688 104.71875 438.929688 102.78125 C 438.058594 101.546875 434.875 102.792969 431.34375 107.132812 C 434.265625 103.550781 438.789062 97.40625 436.597656 95.304688 C 434.609375 93.59375 430.195312 98.304688 427.105469 101.914062 C 430.585938 96.761719 431.246094 93.75 429.78125 92.792969 C 427.671875 91.417969 423.964844 98.359375 414.523438 101.195312 C 406.203125 103.695312 400.34375 101.113281 394.695312 106.066406 C 393.171875 107.40625 392.320312 108.714844 391.835938 109.453125 C 388.367188 114.742188 379.585938 129.210938 366.675781 149.78125 C 369.582031 155.902344 375.039062 160.257812 380.972656 163.828125 C 384.617188 166.023438 388.464844 167.988281 392.527344 169.296875 C 394.308594 169.875 396.207031 170.363281 398.117188 170.523438 C 404.273438 157.828125 411.097656 145.464844 419.480469 128.773438 C 422.675781 128.015625 427.707031 126.691406 432.484375 122.851562 C 436.730469 119.441406 440.839844 114.949219 439.917969 112.621094 " fill-opacity="1" fill-rule="nonzero"/><path fill="#e2a18d" d="M 407.429688 105.265625 C 412.144531 96.730469 412.03125 92.652344 410.65625 91.949219 C 408.339844 90.765625 401.332031 96.40625 392.871094 108.011719 C 396.996094 107.609375 403.304688 105.664062 407.429688 105.265625 " fill-opacity="1" fill-rule="nonzero"/><path fill="#363e44" d="M 405.585938 121.722656 C 405.539062 121.722656 405.480469 121.707031 405.433594 121.683594 C 405.277344 121.597656 405.222656 121.402344 405.308594 121.246094 C 406.164062 119.691406 407.769531 117.53125 410.558594 116.058594 C 414.507812 113.980469 418.371094 114.640625 419.847656 115.027344 C 420.019531 115.070312 420.121094 115.242188 420.078125 115.414062 C 420.035156 115.585938 419.855469 115.691406 419.6875 115.644531 C 418.285156 115.28125 414.609375 114.652344 410.859375 116.628906 C 408.210938 118.019531 406.679688 120.078125 405.867188 121.554688 C 405.8125 121.660156 405.695312 121.722656 405.585938 121.722656 " fill-opacity="1" fill-rule="nonzero"/><path fill="#363e44" d="M 399.148438 104.175781 C 399.011719 104.175781 398.886719 104.089844 398.84375 103.953125 C 398.789062 103.785156 398.882812 103.605469 399.054688 103.550781 C 401.121094 102.894531 403.296875 102.75 405.597656 102.59375 C 406.671875 102.523438 407.78125 102.449219 408.9375 102.320312 C 409.113281 102.300781 409.269531 102.425781 409.289062 102.601562 C 409.308594 102.777344 409.183594 102.933594 409.007812 102.957031 C 407.835938 103.085938 406.722656 103.160156 405.644531 103.234375 C 403.378906 103.386719 401.242188 103.527344 399.246094 104.164062 C 399.210938 104.171875 399.179688 104.175781 399.148438 104.175781 " fill-opacity="1" fill-rule="nonzero"/><path fill="#363e44" d="M 419.488281 106.789062 C 419.355469 106.789062 419.230469 106.703125 419.183594 106.574219 C 419.128906 106.40625 419.21875 106.222656 419.382812 106.164062 C 420.488281 105.78125 421.5625 105.300781 422.574219 104.722656 C 424.042969 103.890625 425.398438 102.859375 426.597656 101.65625 C 426.726562 101.535156 426.925781 101.535156 427.050781 101.660156 C 427.175781 101.785156 427.175781 101.988281 427.050781 102.109375 C 425.808594 103.351562 424.410156 104.417969 422.890625 105.28125 C 421.839844 105.875 420.734375 106.378906 419.59375 106.769531 C 419.558594 106.785156 419.527344 106.789062 419.488281 106.789062 " fill-opacity="1" fill-rule="nonzero"/><path fill="#363e44" d="M 424.164062 111.433594 C 424.03125 111.433594 423.90625 111.351562 423.863281 111.214844 C 423.804688 111.046875 423.894531 110.867188 424.058594 110.808594 C 425.164062 110.429688 426.234375 109.941406 427.246094 109.367188 C 428.714844 108.535156 430.070312 107.503906 431.269531 106.304688 C 431.394531 106.175781 431.601562 106.175781 431.722656 106.304688 C 431.851562 106.429688 431.851562 106.628906 431.722656 106.757812 C 430.480469 107.996094 429.082031 109.058594 427.5625 109.921875 C 426.519531 110.519531 425.40625 111.019531 424.269531 111.414062 C 424.230469 111.425781 424.195312 111.433594 424.164062 111.433594 " fill-opacity="1" fill-rule="nonzero"/><path fill="#363e44" d="M 425.984375 119.230469 C 425.847656 119.230469 425.722656 119.148438 425.683594 119.015625 C 425.621094 118.847656 425.714844 118.664062 425.878906 118.609375 C 426.980469 118.226562 428.054688 117.742188 429.066406 117.167969 C 430.535156 116.332031 431.890625 115.300781 433.09375 114.101562 C 433.21875 113.976562 433.421875 113.976562 433.546875 114.101562 C 433.671875 114.226562 433.671875 114.429688 433.546875 114.554688 C 432.300781 115.792969 430.898438 116.859375 429.382812 117.722656 C 428.339844 118.316406 427.230469 118.820312 426.085938 119.210938 C 426.054688 119.226562 426.019531 119.230469 425.984375 119.230469 " fill-opacity="1" fill-rule="nonzero"/><path fill="#efbc73" d="M 359.574219 152.75 L 372.097656 139.753906 L 405.589844 157.964844 L 399.152344 174.820312 C 399.152344 174.820312 381.417969 177.488281 372.4375 159.503906 C 372.4375 159.503906 361.332031 157.546875 359.574219 152.75 " fill-opacity="1" fill-rule="nonzero"/><path fill="#d87355" d="M 214.542969 238.824219 C 214.507812 238.824219 214.472656 238.820312 214.4375 238.808594 C 214.269531 238.75 214.183594 238.566406 214.242188 238.398438 L 238.59375 170.0625 L 292.042969 170.0625 C 292.21875 170.0625 292.363281 170.210938 292.363281 170.386719 C 292.363281 170.5625 292.21875 170.707031 292.042969 170.707031 L 239.046875 170.707031 L 214.84375 238.613281 C 214.796875 238.746094 214.675781 238.824219 214.542969 238.824219 " fill-opacity="1" fill-rule="nonzero"/><path fill="#d87355" d="M 270.328125 241.796875 L 217.105469 241.796875 L 241.382812 173.675781 L 294.605469 173.675781 L 270.328125 241.796875 " fill-opacity="1" fill-rule="nonzero"/><path fill="#efbc73" d="M 230.863281 134.324219 L 240.351562 125.664062 L 250.304688 131.085938 L 247.460938 152.414062 L 230.863281 134.324219 " fill-opacity="1" fill-rule="nonzero"/><path fill="#efbc73" d="M 269.792969 134.324219 L 260.496094 125.664062 L 249.746094 131.367188 L 253.195312 151.84375 L 269.792969 134.324219 " fill-opacity="1" fill-rule="nonzero"/><path fill="#e2a18d" d="M 253.792969 216.027344 C 253.640625 209.914062 211.601562 206.414062 203.757812 205.964844 C 201.945312 205.863281 192.894531 205.664062 181.734375 205.378906 C 181.699219 205.421875 181.664062 205.46875 181.632812 205.511719 C 180.414062 207.148438 179.195312 208.75 178.183594 210.53125 C 174.359375 217.265625 173.371094 224.761719 172.796875 232.355469 C 172.511719 236.117188 172.324219 239.957031 172.476562 243.769531 C 199.726562 244.277344 230.382812 244.4375 234.542969 244.675781 C 238.425781 245.027344 247.367188 245.863281 247.804688 243.097656 C 248.398438 239.324219 239 237.039062 238.753906 236.597656 C 241.660156 237 251.410156 237.90625 252.042969 234.765625 C 252.527344 232.355469 243.175781 228.585938 240.871094 227.546875 C 241.074219 227.484375 252.207031 230.503906 253.113281 226.765625 C 253.886719 223.574219 245.136719 219.703125 242.992188 218.460938 C 245.738281 218.644531 253.867188 218.953125 253.792969 216.027344 " fill-opacity="1" fill-rule="nonzero"/><path fill="#363e44" d="M 243.105469 218.496094 C 243.0625 218.496094 243.019531 218.488281 242.980469 218.472656 C 241.484375 217.828125 239.929688 217.28125 238.359375 216.847656 C 235.542969 216.074219 232.621094 215.648438 229.671875 215.585938 C 229.496094 215.582031 229.355469 215.433594 229.359375 215.257812 C 229.363281 215.082031 229.5 214.9375 229.6875 214.945312 C 232.6875 215.011719 235.660156 215.441406 238.527344 216.234375 C 240.128906 216.671875 241.710938 217.226562 243.234375 217.882812 C 243.394531 217.953125 243.46875 218.140625 243.398438 218.304688 C 243.347656 218.421875 243.230469 218.496094 243.105469 218.496094 " fill-opacity="1" fill-rule="nonzero"/><path fill="#363e44" d="M 241.039062 227.671875 C 241.007812 227.671875 240.976562 227.667969 240.945312 227.660156 C 240.621094 227.558594 240.285156 227.460938 239.945312 227.367188 C 237.125 226.59375 234.203125 226.167969 231.257812 226.101562 C 231.082031 226.097656 230.941406 225.949219 230.945312 225.773438 C 230.949219 225.597656 231.082031 225.449219 231.273438 225.460938 C 234.269531 225.527344 237.246094 225.964844 240.113281 226.75 C 240.460938 226.847656 240.800781 226.945312 241.132812 227.046875 C 241.304688 227.101562 241.398438 227.277344 241.347656 227.449219 C 241.304688 227.585938 241.175781 227.671875 241.039062 227.671875 " fill-opacity="1" fill-rule="nonzero"/><path fill="#363e44" d="M 238.570312 236.824219 L 238.511719 236.820312 C 236.632812 236.46875 234.707031 236.273438 232.78125 236.230469 C 232.605469 236.226562 232.464844 236.082031 232.46875 235.902344 C 232.472656 235.730469 232.617188 235.589844 232.789062 235.589844 L 232.796875 235.589844 C 234.753906 235.636719 236.714844 235.835938 238.625 236.1875 C 238.800781 236.222656 238.914062 236.386719 238.882812 236.5625 C 238.855469 236.714844 238.71875 236.824219 238.570312 236.824219 " fill-opacity="1" fill-rule="nonzero"/><path fill="#efbc73" d="M 165.542969 201.300781 C 166.0625 200.378906 189.03125 204.351562 189.03125 204.351562 C 189.03125 204.351562 182.066406 230.710938 181.136719 246.578125 L 161.511719 246.578125 C 161.511719 246.578125 154.148438 228.613281 166.828125 211.855469 C 166.828125 211.855469 162.84375 206.113281 165.542969 201.300781 " fill-opacity="1" fill-rule="nonzero"/><path fill="#efbc73" d="M 362.320312 546.167969 L 362.320312 314.410156 L 645.957031 314.410156 L 645.957031 546.167969 L 362.320312 546.167969 " fill-opacity="1" fill-rule="nonzero"/><path fill="#8b865c" d="M 645.957031 546.167969 L 645.957031 525.765625 C 645.957031 525.765625 628.921875 403.21875 511.488281 381.117188 C 511.488281 381.117188 493.726562 367.460938 485.691406 366.914062 C 472.710938 366.03125 447.097656 383.453125 447.097656 383.453125 C 421.21875 390.558594 398.292969 402.84375 394.941406 409.023438 L 366.054688 466.234375 L 354.40625 546.167969 L 645.957031 546.167969 " fill-opacity="1" fill-rule="nonzero"/><path fill="#363e44" d="M 477.285156 409.546875 L 468.378906 397.09375 L 460.332031 407.84375 L 468.59375 417.824219 L 477.285156 409.546875 " fill-opacity="1" fill-rule="nonzero"/><path fill="#363e44" d="M 464.710938 407.839844 L 472.722656 407.839844 L 481.570312 520.121094 L 468.714844 533.128906 L 455.863281 520.121094 L 464.710938 407.839844 " fill-opacity="1" fill-rule="nonzero"/><path fill="#363e44" d="M 485.78125 421.566406 C 485.675781 421.566406 485.582031 421.515625 485.519531 421.433594 L 468.367188 397.617188 L 452.148438 417.394531 C 452.070312 417.496094 451.941406 417.535156 451.816406 417.5 C 451.695312 417.464844 451.605469 417.363281 451.585938 417.238281 L 446.78125 383.496094 C 446.757812 383.320312 446.875 383.160156 447.050781 383.136719 C 447.226562 383.109375 447.390625 383.230469 447.414062 383.40625 L 452.117188 416.425781 L 468.136719 396.890625 C 468.195312 396.8125 468.292969 396.769531 468.390625 396.769531 C 468.492188 396.773438 468.582031 396.824219 468.640625 396.90625 L 485.761719 420.675781 L 511.21875 380.945312 C 511.3125 380.792969 511.507812 380.75 511.660156 380.84375 C 511.808594 380.941406 511.851562 381.136719 511.757812 381.285156 L 486.046875 421.417969 C 485.988281 421.507812 485.894531 421.5625 485.785156 421.566406 L 485.78125 421.566406 " fill-opacity="1" fill-rule="nonzero"/><path fill="#84524d" d="M 385.746094 475.785156 C 385.746094 475.785156 404.054688 523.691406 409.390625 540.527344 C 417.253906 565.332031 406.4375 580.230469 397.007812 584.023438 C 382.101562 590.015625 354.839844 575.867188 353.25 552.722656 C 352.023438 534.855469 353.796875 481.097656 353.796875 481.097656 L 385.746094 475.785156 " fill-opacity="1" fill-rule="nonzero"/><path fill="#363e44" d="M 369.804688 524 L 450.578125 524 L 414.054688 413.609375 L 333.28125 413.609375 L 369.804688 524 " fill-opacity="1" fill-rule="nonzero"/><path fill="#84524d" d="M 431.65625 467.507812 L 426.664062 452.414062 L 515.519531 501.304688 L 528.601562 481.992188 L 581.78125 521.160156 C 581.78125 521.160156 543.296875 573.785156 526.339844 575.679688 C 500.183594 578.59375 443.90625 518.402344 443.90625 518.402344 C 439.917969 514.023438 434.421875 511.300781 428.523438 510.808594 C 419.292969 510.035156 406.199219 508.417969 405.535156 505.394531 C 404.507812 500.703125 428.945312 499.527344 428.945312 499.527344 C 428.945312 499.527344 399.796875 499.191406 399.738281 494.269531 C 399.683594 489.34375 426.082031 488.429688 426.082031 488.429688 C 426.082031 488.429688 397.28125 487.304688 397.007812 482.988281 C 396.734375 478.675781 424.289062 477.429688 424.289062 477.429688 C 424.289062 477.429688 398.671875 476.460938 398.714844 470.753906 C 398.757812 465.054688 431.65625 467.507812 431.65625 467.507812 " fill-opacity="1" fill-rule="nonzero"/><path fill="#84524d" d="M 353.359375 482.648438 C 347.308594 484.355469 345.613281 487.417969 346.34375 490.40625 C 347.070312 493.386719 349.945312 495.160156 355.992188 493.457031 C 362.042969 491.75 368.976562 487.207031 368.246094 484.222656 C 367.519531 481.238281 359.40625 480.945312 353.359375 482.648438 " fill-opacity="1" fill-rule="nonzero"/><path fill="#84524d" d="M 352.167969 471.953125 C 345.152344 473.929688 343.191406 477.484375 344.03125 480.945312 C 344.878906 484.402344 348.207031 486.457031 355.222656 484.480469 C 362.230469 482.503906 370.265625 477.242188 369.421875 473.78125 C 368.578125 470.320312 359.175781 469.976562 352.167969 471.953125 " fill-opacity="1" fill-rule="nonzero"/><path fill="#84524d" d="M 349.132812 465.335938 C 343.085938 467.046875 340.210938 465.269531 339.480469 462.289062 C 338.753906 459.300781 340.449219 456.238281 346.5 454.53125 C 352.546875 452.824219 360.660156 453.121094 361.390625 456.105469 C 362.117188 459.089844 355.183594 463.632812 349.132812 465.335938 " fill-opacity="1" fill-rule="nonzero"/><path fill="#84524d" d="M 352.976562 475.285156 C 345.96875 477.261719 342.632812 475.207031 341.792969 471.75 C 340.945312 468.289062 342.914062 464.734375 349.921875 462.757812 C 356.933594 460.78125 366.335938 461.125 367.179688 464.585938 C 368.023438 468.046875 359.988281 473.308594 352.976562 475.285156 " fill-opacity="1" fill-rule="nonzero"/><path fill="#363e44" d="M 546.914062 525.085938 C 546.84375 525.085938 546.777344 525.070312 546.71875 525.023438 L 515.324219 501.5625 C 515.183594 501.457031 515.15625 501.253906 515.261719 501.117188 C 515.367188 500.972656 515.566406 500.941406 515.710938 501.050781 L 547.101562 524.511719 C 547.246094 524.617188 547.273438 524.820312 547.167969 524.957031 C 547.105469 525.046875 547.007812 525.085938 546.914062 525.085938 " fill-opacity="1" fill-rule="nonzero"/><path fill="#363e44" d="M 587.058594 525.085938 C 586.992188 525.085938 586.925781 525.070312 586.871094 525.027344 L 518.285156 474.601562 C 518.152344 474.5 518.113281 474.3125 518.207031 474.171875 L 543.96875 433.816406 C 544.066406 433.664062 544.261719 433.625 544.40625 433.714844 C 544.558594 433.8125 544.601562 434.011719 544.507812 434.160156 L 518.90625 474.261719 L 586.992188 524.324219 L 610.816406 492.46875 C 610.921875 492.328125 611.121094 492.300781 611.265625 492.40625 C 611.40625 492.511719 611.4375 492.714844 611.328125 492.855469 L 587.316406 524.960938 C 587.25 525.046875 587.152344 525.085938 587.058594 525.085938 " fill-opacity="1" fill-rule="nonzero"/><path fill="#363e44" d="M 594.785156 514.761719 C 594.714844 514.761719 594.648438 514.742188 594.589844 514.699219 L 525.445312 463.382812 C 525.304688 463.277344 525.277344 463.074219 525.378906 462.933594 C 525.488281 462.792969 525.6875 462.765625 525.828125 462.867188 L 594.972656 514.183594 C 595.117188 514.292969 595.148438 514.488281 595.039062 514.632812 C 594.976562 514.714844 594.882812 514.761719 594.785156 514.761719 " fill-opacity="1" fill-rule="nonzero"/><path fill="#84524d" d="M 468.382812 397.089844 L 498.394531 379.128906 L 481.035156 330.53125 C 480.40625 324.34375 447.933594 334.847656 448.5625 341.035156 L 468.382812 397.089844 " fill-opacity="1" fill-rule="nonzero"/><path fill="#84524d" d="M 449.734375 374.832031 C 457.691406 378.640625 473.769531 359.410156 473.769531 359.410156 L 482.648438 335.574219 C 480.527344 323.351562 468.894531 315.160156 456.664062 317.28125 C 444.433594 319.398438 436.234375 331.027344 438.359375 343.25 C 438.359375 343.25 441.625 370.960938 449.734375 374.832031 " fill-opacity="1" fill-rule="nonzero"/><path fill="#84524d" d="M 441.910156 348.632812 C 441.910156 348.632812 436.828125 356.210938 437.457031 357.871094 C 438.207031 359.851562 445.34375 359.902344 445.34375 359.902344 C 445.34375 359.902344 441.746094 348.671875 441.910156 348.632812 " fill-opacity="1" fill-rule="nonzero"/><path fill="#ffffff" d="M 459.617188 340.179688 C 459.617188 340.179688 455.914062 339.703125 452.210938 341.121094 C 451.421875 341.421875 455.320312 347.15625 455.929688 346.511719 C 458.617188 343.683594 459.617188 340.179688 459.617188 340.179688 " fill-opacity="1" fill-rule="nonzero"/><g clip-path="url(#0f86df9323)"><g clip-path="url(#bb91b9619c)"><path fill="#363e44" d="M 451.992188 341.019531 C 448.609375 339.507812 444.636719 341.027344 443.125 344.410156 C 441.609375 347.792969 443.132812 351.761719 446.515625 353.273438 C 449.902344 354.785156 453.871094 353.265625 455.382812 349.882812 C 456.894531 346.5 455.375 342.53125 451.992188 341.019531 " fill-opacity="1" fill-rule="nonzero"/></g></g><path fill="#363e44" d="M 481.480469 310.800781 C 481.480469 310.800781 496.105469 332.359375 482.195312 344.277344 L 477.21875 341.730469 L 468.519531 348.136719 L 469.640625 335.601562 C 469.574219 330.882812 465.203125 327.398438 460.582031 328.382812 L 440.410156 332.699219 L 438.738281 321.789062 C 450.609375 310.890625 464.523438 306.199219 481.480469 310.800781 " fill-opacity="1" fill-rule="nonzero"/><path fill="#363e44" d="M 458.40625 312.152344 C 460.769531 312.238281 462.757812 310.390625 462.84375 308.027344 C 462.929688 305.664062 461.125 302.441406 458.757812 302.355469 C 456.394531 302.273438 454.367188 305.355469 454.277344 307.71875 C 454.191406 310.082031 456.042969 312.066406 458.40625 312.152344 " fill-opacity="1" fill-rule="nonzero"/><path fill="#363e44" d="M 455.488281 313.957031 C 457.597656 312.886719 458.433594 310.304688 457.359375 308.199219 C 456.289062 306.089844 453.140625 304.152344 451.035156 305.226562 C 448.929688 306.300781 448.652344 309.984375 449.726562 312.089844 C 450.800781 314.195312 453.382812 315.035156 455.488281 313.957031 " fill-opacity="1" fill-rule="nonzero"/><path fill="#363e44" d="M 449.261719 317.902344 C 451.820312 315.972656 452.328125 312.332031 450.398438 309.773438 C 448.460938 307.214844 443.8125 305.367188 441.25 307.300781 C 438.691406 309.230469 439.195312 314.210938 441.125 316.769531 C 443.0625 319.324219 446.703125 319.835938 449.261719 317.902344 " fill-opacity="1" fill-rule="nonzero"/><path fill="#363e44" d="M 465.152344 311.308594 C 467.515625 311.46875 469.558594 309.683594 469.722656 307.328125 C 469.882812 304.96875 468.183594 301.691406 465.824219 301.527344 C 463.460938 301.367188 461.332031 304.382812 461.171875 306.742188 C 461.011719 309.101562 462.792969 311.144531 465.152344 311.308594 " fill-opacity="1" fill-rule="nonzero"/><path fill="#363e44" d="M 444.234375 319.996094 C 444.875 317.214844 443.140625 314.441406 440.363281 313.796875 C 437.578125 313.15625 433.347656 314.558594 432.707031 317.335938 C 432.0625 320.117188 435.253906 323.222656 438.035156 323.867188 C 440.820312 324.507812 443.59375 322.773438 444.234375 319.996094 " fill-opacity="1" fill-rule="nonzero"/><path fill="#363e44" d="M 470.75 311.796875 C 473.601562 312.535156 476.515625 310.824219 477.253906 307.96875 C 477.988281 305.117188 476.664062 300.714844 473.808594 299.972656 C 470.953125 299.238281 467.65625 302.441406 466.917969 305.296875 C 466.179688 308.148438 467.890625 311.058594 470.75 311.796875 " fill-opacity="1" fill-rule="nonzero"/><path fill="#363e44" d="M 476.117188 311.539062 C 477.855469 313.042969 480.492188 312.847656 481.992188 311.105469 C 483.496094 309.367188 484.09375 305.824219 482.351562 304.324219 C 480.609375 302.820312 477.191406 303.925781 475.6875 305.664062 C 474.179688 307.40625 474.375 310.035156 476.117188 311.539062 " fill-opacity="1" fill-rule="nonzero"/><path fill="#363e44" d="M 444.203125 326.554688 C 443.882812 323.09375 440.8125 320.546875 437.347656 320.867188 C 433.882812 321.1875 429.519531 324.421875 429.839844 327.886719 C 430.160156 331.351562 435.046875 333.730469 438.511719 333.40625 C 441.976562 333.089844 444.523438 330.019531 444.203125 326.554688 " fill-opacity="1" fill-rule="nonzero"/><path fill="#84524d" d="M 487.65625 334.464844 C 490.230469 338.441406 489.085938 343.753906 485.109375 346.324219 C 481.128906 348.898438 475.8125 347.753906 473.242188 343.777344 C 470.667969 339.796875 471.808594 334.488281 475.789062 331.917969 C 479.773438 329.34375 485.085938 330.488281 487.65625 334.464844 " fill-opacity="1" fill-rule="nonzero"/><path fill="#363e44" d="M 482.324219 343.953125 C 482.222656 343.953125 482.113281 343.898438 482.054688 343.804688 C 481.957031 343.660156 482.003906 343.457031 482.152344 343.363281 C 483.152344 342.722656 483.835938 341.722656 484.085938 340.5625 C 484.335938 339.398438 484.117188 338.214844 483.472656 337.214844 C 482.828125 336.214844 481.835938 335.53125 480.671875 335.28125 C 479.511719 335.03125 478.316406 335.25 477.324219 335.890625 C 477.171875 335.988281 476.976562 335.945312 476.878906 335.800781 C 476.785156 335.648438 476.828125 335.449219 476.972656 335.359375 C 479.328125 333.832031 482.488281 334.511719 484.011719 336.867188 C 485.53125 339.226562 484.855469 342.378906 482.5 343.898438 C 482.445312 343.9375 482.386719 343.953125 482.324219 343.953125 " fill-opacity="1" fill-rule="nonzero"/><path fill="#363e44" d="M 441.527344 359.605469 C 441.527344 359.605469 441.371094 382.085938 455.054688 379.871094 C 468.046875 377.765625 484.503906 364.28125 472.128906 341.25 L 469.472656 342.371094 C 469.472656 342.371094 468.632812 352.917969 465 354.371094 C 461.371094 355.828125 453.8125 354.097656 441.527344 359.605469 " fill-opacity="1" fill-rule="nonzero"/><path fill="#84524d" d="M 449.390625 364.3125 C 449.226562 364.3125 449.089844 364.1875 449.074219 364.019531 C 448.964844 362.707031 449.621094 361.421875 450.746094 360.75 C 451.914062 360.050781 453.394531 360.101562 454.519531 360.882812 C 454.664062 360.980469 454.699219 361.183594 454.597656 361.328125 C 454.496094 361.472656 454.296875 361.507812 454.15625 361.40625 C 453.234375 360.769531 452.023438 360.726562 451.074219 361.296875 C 450.15625 361.847656 449.621094 362.894531 449.710938 363.96875 C 449.726562 364.144531 449.597656 364.296875 449.417969 364.3125 L 449.390625 364.3125 " fill-opacity="1" fill-rule="nonzero"/><path fill="#84524d" d="M 466.160156 328.269531 C 466.085938 328.269531 466.011719 328.246094 465.953125 328.191406 C 465.816406 328.074219 465.800781 327.875 465.914062 327.738281 L 473.320312 319.113281 C 473.433594 318.976562 473.636719 318.964844 473.773438 319.078125 C 473.902344 319.195312 473.917969 319.398438 473.804688 319.53125 L 466.402344 328.160156 C 466.339844 328.234375 466.25 328.269531 466.160156 328.269531 " fill-opacity="1" fill-rule="nonzero"/><path fill="#d87355" d="M 412.84375 375.835938 L 283.003906 375.835938 L 283.003906 261.335938 L 412.84375 261.335938 L 412.84375 375.835938 " fill-opacity="1" fill-rule="nonzero"/><path fill="#ffffff" d="M 353.867188 335.054688 L 339.890625 335.054688 L 337.90625 276.316406 L 355.847656 276.316406 Z M 346.875 344.25 C 349.710938 344.25 351.992188 345.085938 353.71875 346.757812 C 355.449219 348.425781 356.3125 350.558594 356.3125 353.160156 C 356.3125 355.722656 355.449219 357.835938 353.71875 359.503906 C 351.992188 361.171875 349.710938 362.007812 346.875 362.007812 C 344.082031 362.007812 341.820312 361.171875 340.09375 359.503906 C 338.363281 357.835938 337.5 355.722656 337.5 353.160156 C 337.5 350.59375 338.363281 348.472656 340.09375 346.78125 C 341.820312 345.097656 344.082031 344.25 346.875 344.25 " fill-opacity="1" fill-rule="nonzero"/><path fill="#d87355" d="M 307.605469 374.980469 L 320.589844 393.417969 L 332.886719 372.246094 Z M 307.605469 374.980469 " fill-opacity="1" fill-rule="nonzero"/><path fill="#d3bba3" d="M 645.195312 179.90625 L 450.710938 179.90625 L 450.710938 117.351562 L 645.195312 117.351562 L 645.195312 179.90625 " fill-opacity="1" fill-rule="nonzero"/><path fill="#ffffff" d="M 635.863281 137.296875 L 460.042969 137.296875 L 460.042969 130.070312 L 635.863281 130.070312 L 635.863281 137.296875 " fill-opacity="1" fill-rule="nonzero"/><path fill="#f2e6dc" d="M 597.882812 146.21875 L 460.042969 146.21875 L 460.042969 140.644531 L 597.882812 140.644531 L 597.882812 146.21875 " fill-opacity="1" fill-rule="nonzero"/><path fill="#f2e6dc" d="M 635.863281 154.617188 L 460.042969 154.617188 L 460.042969 149.042969 L 635.863281 149.042969 L 635.863281 154.617188 " fill-opacity="1" fill-rule="nonzero"/><path fill="#f2e6dc" d="M 618.84375 163.011719 L 460.039062 163.011719 L 460.039062 157.4375 L 618.84375 157.4375 L 618.84375 163.011719 " fill-opacity="1" fill-rule="nonzero"/><path fill="#f2e6dc" d="M 573.25 171.40625 L 460.042969 171.40625 L 460.042969 165.832031 L 573.25 165.832031 L 573.25 171.40625 " fill-opacity="1" fill-rule="nonzero"/></svg>