<svg xmlns="http://www.w3.org/2000/svg" xmlns:xlink="http://www.w3.org/1999/xlink" width="940" zoomAndPan="magnify" viewBox="0 0 705 591.000005" height="788" preserveAspectRatio="xMidYMid meet" version="1.0"><defs><clipPath id="27c82644e4"><path d="M 696 335 L 704.402344 335 L 704.402344 478 L 696 478 Z M 696 335 " clip-rule="nonzero"/></clipPath><clipPath id="3bc9d33499"><path d="M 138 95.882812 L 583 95.882812 L 583 407 L 138 407 Z M 138 95.882812 " clip-rule="nonzero"/></clipPath><clipPath id="568ecc107d"><path d="M 138 95.882812 L 583 95.882812 L 583 116 L 138 116 Z M 138 95.882812 " clip-rule="nonzero"/></clipPath><clipPath id="5ae70c71a5"><path d="M 0.59375 469 L 32 469 L 32 483 L 0.59375 483 Z M 0.59375 469 " clip-rule="nonzero"/></clipPath></defs><path fill="#e2e2e2" d="M 261.410156 432.683594 L 269.195312 432.683594 L 269.195312 476.683594 L 261.410156 476.683594 Z M 261.410156 432.683594 " fill-opacity="1" fill-rule="evenodd"/><path fill="#e2e2e2" d="M 276.589844 427.234375 L 284.375 427.234375 L 284.375 476.683594 L 276.589844 476.683594 Z M 276.589844 427.234375 " fill-opacity="1" fill-rule="evenodd"/><path fill="#e2e2e2" d="M 292.164062 429.570312 L 299.949219 429.570312 L 299.949219 476.683594 L 292.164062 476.683594 Z M 292.164062 429.570312 " fill-opacity="1" fill-rule="evenodd"/><path fill="#e2e2e2" d="M 307.34375 411.269531 L 315.128906 411.269531 L 315.128906 476.683594 L 307.34375 476.683594 Z M 307.34375 411.269531 " fill-opacity="1" fill-rule="evenodd"/><path fill="#e2e2e2" d="M 322.527344 438.136719 L 330.3125 438.136719 L 330.3125 476.683594 L 322.527344 476.683594 Z M 322.527344 438.136719 " fill-opacity="1" fill-rule="evenodd"/><path fill="#e2e2e2" d="M 335.761719 413.21875 L 343.546875 413.21875 L 343.546875 476.683594 L 335.761719 476.683594 Z M 335.761719 413.21875 " fill-opacity="1" fill-rule="evenodd"/><path fill="#e2e2e2" d="M 350.554688 435.410156 L 358.339844 435.410156 L 358.339844 476.683594 L 350.554688 476.683594 Z M 350.554688 435.410156 " fill-opacity="1" fill-rule="evenodd"/><path fill="#e2e2e2" d="M 364.566406 416.722656 L 372.351562 416.722656 L 372.351562 476.683594 L 364.566406 476.683594 Z M 364.566406 416.722656 " fill-opacity="1" fill-rule="evenodd"/><path fill="#e2e2e2" d="M 380.527344 401.925781 L 388.3125 401.925781 L 388.3125 476.683594 L 380.527344 476.683594 Z M 380.527344 401.925781 " fill-opacity="1" fill-rule="evenodd"/><path fill="#e2e2e2" d="M 394.929688 418.277344 L 402.714844 418.277344 L 402.714844 476.683594 L 394.929688 476.683594 Z M 394.929688 418.277344 " fill-opacity="1" fill-rule="evenodd"/><path fill="#e2e2e2" d="M 412.449219 433.074219 L 420.234375 433.074219 L 420.234375 477.074219 L 412.449219 477.074219 Z M 412.449219 433.074219 " fill-opacity="1" fill-rule="evenodd"/><path fill="#e2e2e2" d="M 427.628906 428.011719 L 435.414062 428.011719 L 435.414062 477.460938 L 427.628906 477.460938 Z M 427.628906 428.011719 " fill-opacity="1" fill-rule="evenodd"/><path fill="#e2e2e2" d="M 442.8125 429.960938 L 450.597656 429.960938 L 450.597656 477.074219 L 442.8125 477.074219 Z M 442.8125 429.960938 " fill-opacity="1" fill-rule="evenodd"/><path fill="#e2e2e2" d="M 458.382812 411.660156 L 466.167969 411.660156 L 466.167969 477.074219 L 458.382812 477.074219 Z M 458.382812 411.660156 " fill-opacity="1" fill-rule="evenodd"/><path fill="#e2e2e2" d="M 473.566406 438.527344 L 481.351562 438.527344 L 481.351562 477.074219 L 473.566406 477.074219 Z M 473.566406 438.527344 " fill-opacity="1" fill-rule="evenodd"/><path fill="#e2e2e2" d="M 486.410156 413.996094 L 494.195312 413.996094 L 494.195312 477.460938 L 486.410156 477.460938 Z M 486.410156 413.996094 " fill-opacity="1" fill-rule="evenodd"/><path fill="#e2e2e2" d="M 501.203125 435.800781 L 508.988281 435.800781 L 508.988281 477.074219 L 501.203125 477.074219 Z M 501.203125 435.800781 " fill-opacity="1" fill-rule="evenodd"/><path fill="#e2e2e2" d="M 515.605469 417.5 L 523.390625 417.5 L 523.390625 477.460938 L 515.605469 477.460938 Z M 515.605469 417.5 " fill-opacity="1" fill-rule="evenodd"/><path fill="#e2e2e2" d="M 531.175781 402.703125 L 538.960938 402.703125 L 538.960938 477.460938 L 531.175781 477.460938 Z M 531.175781 402.703125 " fill-opacity="1" fill-rule="evenodd"/><path fill="#e2e2e2" d="M 545.96875 418.667969 L 553.753906 418.667969 L 553.753906 477.074219 L 545.96875 477.074219 Z M 545.96875 418.667969 " fill-opacity="1" fill-rule="evenodd"/><path fill="#e2e2e2" d="M 563.097656 370.777344 L 570.882812 370.777344 L 570.882812 477.851562 L 563.097656 477.851562 Z M 563.097656 370.777344 " fill-opacity="1" fill-rule="evenodd"/><path fill="#e2e2e2" d="M 578.667969 357.925781 L 586.453125 357.925781 L 586.453125 477.851562 L 578.667969 477.851562 Z M 578.667969 357.925781 " fill-opacity="1" fill-rule="evenodd"/><path fill="#e2e2e2" d="M 593.851562 362.988281 L 601.636719 362.988281 L 601.636719 477.460938 L 593.851562 477.460938 Z M 593.851562 362.988281 " fill-opacity="1" fill-rule="evenodd"/><path fill="#e2e2e2" d="M 609.03125 318.601562 L 616.816406 318.601562 L 616.816406 477.851562 L 609.03125 477.851562 Z M 609.03125 318.601562 " fill-opacity="1" fill-rule="evenodd"/><path fill="#e2e2e2" d="M 624.601562 384.015625 L 632.390625 384.015625 L 632.390625 477.851562 L 624.601562 477.851562 Z M 624.601562 384.015625 " fill-opacity="1" fill-rule="evenodd"/><path fill="#e2e2e2" d="M 637.449219 324.050781 L 645.234375 324.050781 L 645.234375 477.851562 L 637.449219 477.851562 Z M 637.449219 324.050781 " fill-opacity="1" fill-rule="evenodd"/><path fill="#e2e2e2" d="M 652.242188 377.007812 L 660.027344 377.007812 L 660.027344 477.851562 L 652.242188 477.851562 Z M 652.242188 377.007812 " fill-opacity="1" fill-rule="evenodd"/><path fill="#e2e2e2" d="M 666.253906 332.230469 L 674.042969 332.230469 L 674.042969 477.851562 L 666.253906 477.851562 Z M 666.253906 332.230469 " fill-opacity="1" fill-rule="evenodd"/><path fill="#e2e2e2" d="M 682.214844 296.40625 L 690 296.40625 L 690 477.851562 L 682.214844 477.851562 Z M 682.214844 296.40625 " fill-opacity="1" fill-rule="evenodd"/><g clip-path="url(#27c82644e4)"><path fill="#e2e2e2" d="M 696.617188 335.734375 L 704.40625 335.734375 L 704.40625 477.851562 L 696.617188 477.851562 Z M 696.617188 335.734375 " fill-opacity="1" fill-rule="evenodd"/></g><path fill="#e2e2e2" d="M 110.371094 431.90625 L 118.15625 431.90625 L 118.15625 475.90625 L 110.371094 475.90625 Z M 110.371094 431.90625 " fill-opacity="1" fill-rule="evenodd"/><path fill="#e2e2e2" d="M 125.941406 426.84375 L 133.726562 426.84375 L 133.726562 476.292969 L 125.941406 476.292969 Z M 125.941406 426.84375 " fill-opacity="1" fill-rule="evenodd"/><path fill="#e2e2e2" d="M 141.125 428.792969 L 148.910156 428.792969 L 148.910156 475.90625 L 141.125 475.90625 Z M 141.125 428.792969 " fill-opacity="1" fill-rule="evenodd"/><path fill="#e2e2e2" d="M 156.304688 410.492188 L 164.089844 410.492188 L 164.089844 475.90625 L 156.304688 475.90625 Z M 156.304688 410.492188 " fill-opacity="1" fill-rule="evenodd"/><path fill="#e2e2e2" d="M 171.875 437.359375 L 179.660156 437.359375 L 179.660156 475.90625 L 171.875 475.90625 Z M 171.875 437.359375 " fill-opacity="1" fill-rule="evenodd"/><path fill="#e2e2e2" d="M 184.722656 412.828125 L 192.507812 412.828125 L 192.507812 476.292969 L 184.722656 476.292969 Z M 184.722656 412.828125 " fill-opacity="1" fill-rule="evenodd"/><path fill="#e2e2e2" d="M 199.515625 434.632812 L 207.300781 434.632812 L 207.300781 475.90625 L 199.515625 475.90625 Z M 199.515625 434.632812 " fill-opacity="1" fill-rule="evenodd"/><path fill="#e2e2e2" d="M 213.527344 416.332031 L 221.3125 416.332031 L 221.3125 476.292969 L 213.527344 476.292969 Z M 213.527344 416.332031 " fill-opacity="1" fill-rule="evenodd"/><path fill="#e2e2e2" d="M 229.488281 401.535156 L 237.273438 401.535156 L 237.273438 476.292969 L 229.488281 476.292969 Z M 229.488281 401.535156 " fill-opacity="1" fill-rule="evenodd"/><path fill="#e2e2e2" d="M 243.890625 417.5 L 251.679688 417.5 L 251.679688 475.90625 L 243.890625 475.90625 Z M 243.890625 417.5 " fill-opacity="1" fill-rule="evenodd"/><path fill="#475d6a" d="M 684.164062 476.683594 L 684.164062 478.242188 L 31.347656 477.460938 Z M 684.164062 476.683594 " fill-opacity="1" fill-rule="nonzero"/><path fill="#206d65" d="M 407.777344 461.5 C 418.675781 457.996094 424.125 456.046875 424.125 456.046875 C 424.125 456.046875 424.125 461.886719 423.738281 473.957031 C 423.738281 473.957031 417.121094 480.1875 403.882812 493.425781 C 398.046875 494.207031 399.214844 487.976562 407.386719 474.347656 C 407.386719 474.347656 407.386719 470.066406 407.777344 461.5 Z M 407.777344 461.5 " fill-opacity="1" fill-rule="evenodd"/><path fill="#206d65" d="M 467.726562 460.71875 C 476.289062 459.550781 480.570312 459.164062 480.570312 459.164062 C 480.570312 459.164062 480.183594 461.886719 479.792969 468.117188 C 488.355469 468.898438 495.363281 471.234375 500.425781 475.515625 C 500.425781 475.515625 489.523438 475.90625 467.335938 475.90625 C 467.335938 475.90625 467.335938 470.84375 467.726562 460.71875 Z M 467.726562 460.71875 " fill-opacity="1" fill-rule="evenodd"/><g clip-path="url(#3bc9d33499)"><path fill="#fafafa" d="M 138.789062 95.882812 L 582.949219 95.882812 L 582.949219 406.207031 L 138.789062 406.207031 Z M 138.789062 95.882812 " fill-opacity="1" fill-rule="evenodd"/></g><path fill="#233036" d="M 449.820312 166.359375 C 433.46875 174.535156 424.90625 168.304688 424.125 148.058594 C 425.292969 142.609375 429.578125 141.441406 436.195312 143.386719 C 447.871094 147.667969 452.542969 155.066406 449.820312 166.359375 Z M 449.820312 166.359375 " fill-opacity="1" fill-rule="evenodd"/><path fill="#475d6a" d="M 391.039062 169.085938 L 527.285156 169.085938 C 527.644531 169.085938 527.992188 169.148438 528.328125 169.277344 C 528.660156 169.40625 528.957031 169.589844 529.210938 169.824219 C 529.464844 170.0625 529.664062 170.335938 529.800781 170.648438 C 529.941406 170.957031 530.007812 171.28125 530.007812 171.617188 C 530.007812 171.949219 529.941406 172.273438 529.800781 172.582031 C 529.664062 172.894531 529.464844 173.167969 529.210938 173.40625 C 528.957031 173.640625 528.660156 173.824219 528.328125 173.953125 C 527.992188 174.082031 527.644531 174.144531 527.285156 174.144531 L 391.039062 174.144531 C 390.675781 174.144531 390.328125 174.082031 389.996094 173.953125 C 389.660156 173.824219 389.367188 173.640625 389.113281 173.40625 C 388.855469 173.167969 388.660156 172.894531 388.519531 172.582031 C 388.382812 172.273438 388.3125 171.949219 388.3125 171.617188 C 388.3125 171.28125 388.382812 170.957031 388.519531 170.648438 C 388.660156 170.335938 388.855469 170.0625 389.113281 169.824219 C 389.367188 169.589844 389.660156 169.40625 389.996094 169.277344 C 390.328125 169.148438 390.675781 169.085938 391.039062 169.085938 Z M 391.039062 169.085938 " fill-opacity="1" fill-rule="evenodd"/><path fill="#475d6a" d="M 389.480469 185.828125 L 525.726562 185.828125 C 526.089844 185.828125 526.4375 185.890625 526.769531 186.019531 C 527.105469 186.148438 527.398438 186.332031 527.652344 186.570312 C 527.910156 186.804688 528.105469 187.078125 528.246094 187.390625 C 528.382812 187.699219 528.453125 188.023438 528.453125 188.359375 C 528.453125 188.695312 528.382812 189.015625 528.246094 189.328125 C 528.105469 189.636719 527.910156 189.910156 527.652344 190.148438 C 527.398438 190.386719 527.105469 190.566406 526.769531 190.695312 C 526.4375 190.824219 526.089844 190.890625 525.726562 190.890625 L 389.480469 190.890625 C 389.121094 190.890625 388.773438 190.824219 388.4375 190.695312 C 388.105469 190.566406 387.808594 190.386719 387.554688 190.148438 C 387.296875 189.910156 387.101562 189.636719 386.964844 189.328125 C 386.824219 189.015625 386.757812 188.695312 386.757812 188.359375 C 386.757812 188.023438 386.824219 187.699219 386.964844 187.390625 C 387.101562 187.078125 387.296875 186.804688 387.554688 186.570312 C 387.808594 186.332031 388.105469 186.148438 388.4375 186.019531 C 388.773438 185.890625 389.121094 185.828125 389.480469 185.828125 Z M 389.480469 185.828125 " fill-opacity="1" fill-rule="evenodd"/><path fill="#475d6a" d="M 387.535156 202.960938 L 523.78125 202.960938 C 524.140625 202.960938 524.488281 203.023438 524.824219 203.152344 C 525.15625 203.28125 525.453125 203.464844 525.707031 203.699219 C 525.964844 203.9375 526.160156 204.210938 526.296875 204.523438 C 526.4375 204.832031 526.503906 205.15625 526.507812 205.492188 C 526.503906 205.824219 526.4375 206.148438 526.296875 206.457031 C 526.160156 206.769531 525.964844 207.042969 525.707031 207.28125 C 525.453125 207.515625 525.15625 207.699219 524.824219 207.828125 C 524.488281 207.957031 524.140625 208.019531 523.78125 208.019531 L 387.535156 208.019531 C 387.171875 208.019531 386.824219 207.957031 386.492188 207.828125 C 386.15625 207.699219 385.863281 207.515625 385.609375 207.28125 C 385.351562 207.042969 385.15625 206.769531 385.015625 206.457031 C 384.878906 206.148438 384.808594 205.824219 384.808594 205.492188 C 384.808594 205.15625 384.878906 204.832031 385.015625 204.523438 C 385.15625 204.210938 385.351562 203.9375 385.609375 203.699219 C 385.863281 203.464844 386.15625 203.28125 386.492188 203.152344 C 386.824219 203.023438 387.171875 202.960938 387.535156 202.960938 Z M 387.535156 202.960938 " fill-opacity="1" fill-rule="evenodd"/><path fill="#475d6a" d="M 385.589844 219.703125 L 521.835938 219.703125 C 522.195312 219.703125 522.542969 219.765625 522.878906 219.894531 C 523.210938 220.023438 523.503906 220.207031 523.761719 220.445312 C 524.015625 220.679688 524.214844 220.953125 524.351562 221.265625 C 524.492188 221.574219 524.558594 221.898438 524.558594 222.234375 C 524.558594 222.570312 524.492188 222.890625 524.351562 223.203125 C 524.214844 223.511719 524.015625 223.785156 523.761719 224.023438 C 523.503906 224.261719 523.210938 224.441406 522.878906 224.570312 C 522.542969 224.699219 522.195312 224.765625 521.835938 224.765625 L 385.589844 224.765625 C 385.226562 224.765625 384.878906 224.699219 384.546875 224.570312 C 384.210938 224.441406 383.917969 224.261719 383.660156 224.023438 C 383.40625 223.785156 383.210938 223.511719 383.070312 223.203125 C 382.933594 222.890625 382.863281 222.570312 382.863281 222.234375 C 382.863281 221.898438 382.933594 221.574219 383.070312 221.265625 C 383.210938 220.953125 383.40625 220.679688 383.660156 220.445312 C 383.917969 220.207031 384.210938 220.023438 384.546875 219.894531 C 384.878906 219.765625 385.226562 219.703125 385.589844 219.703125 Z M 385.589844 219.703125 " fill-opacity="1" fill-rule="evenodd"/><path fill="#278d82" d="M 318.632812 366.882812 C 476.679688 367.660156 555.703125 367.660156 555.703125 367.660156 C 555.703125 367.660156 556.089844 346.636719 556.480469 304.582031 C 551.808594 294.070312 540.519531 308.476562 522.613281 348.582031 C 519.886719 357.539062 512.492188 354.035156 500.035156 338.457031 C 495.753906 331.449219 486.019531 338.457031 471.617188 359.09375 C 463.054688 359.875 454.488281 349.359375 444.757812 326.777344 C 433.859375 308.867188 423.738281 312.761719 415.171875 338.457031 C 411.28125 350.917969 404.664062 347.804688 394.542969 329.894531 C 390.648438 326 386.757812 329.503906 383.253906 340.40625 C 381.695312 345.078125 378.582031 345.078125 374.300781 340.015625 C 374.300781 340.015625 371.183594 336.511719 365.347656 329.113281 C 361.0625 324.832031 354.445312 333.398438 345.492188 354.035156 C 344.324219 360.652344 340.433594 360.652344 334.59375 354.035156 C 329.921875 351.699219 324.863281 356.371094 318.632812 366.882812 Z M 318.632812 366.882812 " fill-opacity="1" fill-rule="evenodd"/><path fill="#475d6a" d="M 555.3125 371.164062 L 555.3125 372.722656 L 320.578125 373.113281 Z M 555.3125 371.164062 " fill-opacity="1" fill-rule="nonzero"/><path fill="#475d6a" d="M 384.421875 219.703125 L 475.121094 219.703125 C 475.328125 219.703125 475.527344 219.765625 475.71875 219.894531 C 475.90625 220.023438 476.078125 220.207031 476.222656 220.445312 C 476.367188 220.679688 476.480469 220.953125 476.558594 221.265625 C 476.640625 221.574219 476.679688 221.898438 476.679688 222.234375 C 476.679688 222.570312 476.640625 222.890625 476.558594 223.203125 C 476.480469 223.511719 476.367188 223.785156 476.222656 224.023438 C 476.078125 224.261719 475.90625 224.441406 475.71875 224.570312 C 475.527344 224.699219 475.328125 224.765625 475.121094 224.765625 L 384.421875 224.765625 C 384.214844 224.765625 384.015625 224.699219 383.824219 224.570312 C 383.632812 224.441406 383.464844 224.261719 383.320312 224.023438 C 383.171875 223.785156 383.0625 223.511719 382.980469 223.203125 C 382.902344 222.890625 382.863281 222.570312 382.863281 222.234375 C 382.863281 221.898438 382.902344 221.574219 382.980469 221.265625 C 383.0625 220.953125 383.171875 220.679688 383.320312 220.445312 C 383.464844 220.207031 383.632812 220.023438 383.824219 219.894531 C 384.015625 219.765625 384.214844 219.703125 384.421875 219.703125 Z M 384.421875 219.703125 " fill-opacity="1" fill-rule="evenodd"/><path fill="#ffbea2" d="M 339.265625 208.800781 C 341.988281 210.355469 343.546875 211.136719 343.546875 211.136719 C 335.371094 214.25 335.371094 218.921875 344.714844 225.152344 C 347.4375 222.425781 348.996094 222.039062 350.164062 224.375 C 350.941406 227.488281 355.613281 229.046875 363.789062 228.65625 C 366.125 221.257812 366.902344 217.753906 366.902344 217.753906 C 361.84375 214.25 355.613281 211.136719 348.605469 208.800781 C 347.4375 207.242188 334.59375 201.792969 333.816406 205.683594 C 333.425781 208.019531 335.371094 209.1875 339.265625 208.800781 Z M 339.265625 208.800781 " fill-opacity="1" fill-rule="evenodd"/><path fill="#233036" d="M 389.871094 169.085938 L 480.570312 169.085938 C 480.777344 169.085938 480.976562 169.148438 481.167969 169.277344 C 481.359375 169.40625 481.527344 169.589844 481.671875 169.824219 C 481.820312 170.0625 481.929688 170.335938 482.011719 170.648438 C 482.089844 170.957031 482.128906 171.28125 482.128906 171.617188 C 482.128906 171.949219 482.089844 172.273438 482.011719 172.582031 C 481.929688 172.894531 481.820312 173.167969 481.671875 173.40625 C 481.527344 173.640625 481.359375 173.824219 481.167969 173.953125 C 480.976562 174.082031 480.777344 174.144531 480.570312 174.144531 L 389.871094 174.144531 C 389.664062 174.144531 389.464844 174.082031 389.273438 173.953125 C 389.082031 173.824219 388.914062 173.640625 388.769531 173.40625 C 388.625 173.167969 388.511719 172.894531 388.433594 172.582031 C 388.351562 172.273438 388.3125 171.949219 388.3125 171.617188 C 388.3125 171.28125 388.351562 170.957031 388.433594 170.648438 C 388.511719 170.335938 388.625 170.0625 388.769531 169.824219 C 388.914062 169.589844 389.082031 169.40625 389.273438 169.277344 C 389.464844 169.148438 389.664062 169.085938 389.871094 169.085938 Z M 389.871094 169.085938 " fill-opacity="1" fill-rule="evenodd"/><path fill="#206d65" d="M 387.925781 185.828125 L 450.988281 185.828125 C 451.140625 185.828125 451.289062 185.890625 451.433594 186.019531 C 451.578125 186.148438 451.703125 186.332031 451.8125 186.570312 C 451.921875 186.804688 452.007812 187.078125 452.066406 187.390625 C 452.125 187.699219 452.15625 188.023438 452.15625 188.359375 C 452.15625 188.695312 452.125 189.015625 452.066406 189.328125 C 452.007812 189.636719 451.921875 189.910156 451.8125 190.148438 C 451.703125 190.386719 451.578125 190.566406 451.433594 190.695312 C 451.289062 190.824219 451.140625 190.890625 450.988281 190.890625 L 387.925781 190.890625 C 387.769531 190.890625 387.621094 190.824219 387.476562 190.695312 C 387.332031 190.566406 387.207031 190.386719 387.097656 190.148438 C 386.988281 189.910156 386.902344 189.636719 386.84375 189.328125 C 386.785156 189.015625 386.757812 188.695312 386.757812 188.359375 C 386.757812 188.023438 386.785156 187.699219 386.84375 187.390625 C 386.902344 187.078125 386.988281 186.804688 387.097656 186.570312 C 387.207031 186.332031 387.332031 186.148438 387.476562 186.019531 C 387.621094 185.890625 387.769531 185.828125 387.925781 185.828125 Z M 387.925781 185.828125 " fill-opacity="1" fill-rule="evenodd"/><path fill="#ffbea2" d="M 418.675781 160.519531 C 416.339844 177.261719 419.066406 185.4375 426.074219 185.046875 C 426.074219 197.117188 426.074219 202.960938 426.074219 202.960938 C 442.035156 198.285156 449.429688 192.058594 447.871094 184.269531 C 447.09375 176.484375 446.703125 172.199219 446.703125 172.199219 C 454.101562 167.917969 455.269531 164.410156 450.597656 161.6875 C 449.039062 165.96875 447.484375 166.75 445.535156 164.410156 C 442.8125 165.191406 442.03125 163.632812 443.199219 159.738281 C 444.367188 150.394531 441.644531 146.5 434.636719 148.058594 C 429.964844 151.171875 426.460938 151.171875 424.125 148.058594 C 420.625 148.835938 418.675781 153.121094 418.675781 160.519531 Z M 418.675781 160.519531 " fill-opacity="1" fill-rule="evenodd"/><path fill="#233036" d="M 386.367188 202.960938 L 477.066406 202.960938 C 477.273438 202.960938 477.472656 203.023438 477.664062 203.152344 C 477.855469 203.28125 478.023438 203.464844 478.167969 203.699219 C 478.316406 203.9375 478.425781 204.210938 478.507812 204.523438 C 478.585938 204.832031 478.625 205.15625 478.625 205.492188 C 478.625 205.824219 478.585938 206.148438 478.507812 206.457031 C 478.425781 206.769531 478.316406 207.042969 478.167969 207.28125 C 478.023438 207.515625 477.855469 207.699219 477.664062 207.828125 C 477.472656 207.957031 477.273438 208.019531 477.066406 208.019531 L 386.367188 208.019531 C 386.160156 208.019531 385.960938 207.957031 385.769531 207.828125 C 385.582031 207.699219 385.410156 207.515625 385.265625 207.28125 C 385.121094 207.042969 385.007812 206.769531 384.929688 206.457031 C 384.847656 206.148438 384.808594 205.824219 384.808594 205.492188 C 384.808594 205.15625 384.847656 204.832031 384.929688 204.523438 C 385.007812 204.210938 385.121094 203.9375 385.265625 203.699219 C 385.410156 203.464844 385.582031 203.28125 385.769531 203.152344 C 385.960938 203.023438 386.160156 202.960938 386.367188 202.960938 Z M 386.367188 202.960938 " fill-opacity="1" fill-rule="evenodd"/><path fill="#233036" d="M 428.019531 466.171875 C 432.300781 368.441406 434.636719 319.378906 434.636719 319.378906 C 434.636719 319.378906 443.980469 368.050781 463.054688 465.003906 C 479.015625 463.054688 487.1875 461.886719 487.1875 461.886719 C 469.28125 343.132812 459.941406 283.949219 459.941406 283.949219 C 424.125 286.285156 406.21875 287.839844 406.21875 287.839844 C 403.882812 405.820312 402.714844 464.613281 402.714844 464.613281 C 419.84375 465.78125 428.019531 466.171875 428.019531 466.171875 Z M 428.019531 466.171875 " fill-opacity="1" fill-rule="evenodd"/><path fill="#fafafa" d="M 446.703125 294.851562 C 453.320312 234.886719 454.878906 205.683594 451.765625 206.851562 C 454.101562 199.066406 452.933594 192.835938 447.484375 188.164062 C 439.308594 190.109375 433.859375 194.003906 431.523438 199.84375 C 431.132812 195.171875 429.1875 192.445312 425.292969 192.058594 C 412.058594 206.074219 407 238.78125 409.722656 290.175781 C 419.066406 296.019531 431.523438 297.574219 446.703125 294.851562 Z M 446.703125 294.851562 " fill-opacity="1" fill-rule="evenodd"/><path fill="#278d82" d="M 405.832031 253.578125 C 406.609375 267.59375 404.664062 282 400.378906 296.796875 C 399.992188 303.027344 404.664062 305.753906 414.394531 305.753906 C 413.617188 293.292969 414.394531 268.761719 417.121094 232.160156 C 417.507812 212.304688 420.625 198.675781 425.292969 192.058594 L 426.074219 192.058594 L 426.074219 189.332031 C 422.570312 190.890625 419.457031 192.445312 417.121094 194.78125 C 408.167969 194.394531 402.328125 200.234375 399.214844 211.914062 C 393.761719 226.320312 391.039062 233.328125 391.039062 233.328125 C 373.910156 221.648438 365.347656 215.808594 365.347656 215.808594 C 359.507812 225.152344 356.78125 229.824219 356.78125 229.824219 C 377.804688 246.957031 388.3125 255.132812 388.3125 255.132812 C 394.929688 259.808594 400.769531 259.417969 405.832031 253.578125 Z M 446.316406 191.667969 L 449.820312 191.667969 C 447.484375 200.234375 442.8125 211.136719 436.972656 223.984375 C 435.414062 226.710938 435.804688 233.328125 437.75 243.453125 C 435.804688 268.371094 436.972656 289.789062 440.867188 307.699219 C 459.941406 302.246094 469.28125 299.132812 469.28125 299.132812 C 463.054688 284.726562 460.71875 275.769531 461.886719 271.878906 C 469.28125 272.65625 473.175781 273.046875 473.175781 273.046875 C 481.738281 271.878906 485.242188 266.035156 484.074219 255.132812 C 479.402344 227.878906 477.457031 214.25 477.457031 214.25 C 474.34375 207.632812 468.894531 202.570312 461.496094 198.675781 C 456.824219 196.339844 452.15625 192.835938 447.871094 188.554688 C 447.484375 189.722656 447.09375 190.5 446.316406 191.667969 Z M 462.277344 255.132812 C 464.222656 255.132812 465 255.132812 465 255.132812 C 465 255.132812 464.609375 251.242188 463.054688 243.84375 C 462.664062 251.628906 462.277344 255.132812 462.277344 255.132812 Z M 462.277344 255.132812 " fill-opacity="1" fill-rule="evenodd"/><path fill="#206d65" d="M 391.039062 233.328125 C 391.816406 231.773438 391.816406 230.605469 391.816406 230.605469 C 396.097656 238.78125 397.265625 243.84375 395.320312 245.398438 C 391.425781 245.789062 389.480469 241.507812 389.480469 232.550781 C 390.648438 233.328125 391.039062 233.328125 391.039062 233.328125 Z M 391.039062 233.328125 " fill-opacity="1" fill-rule="evenodd"/><path fill="#206d65" d="M 406.21875 215.417969 C 407 227.878906 406.609375 240.726562 406.21875 253.578125 L 405.441406 253.578125 C 406.21875 240.726562 406.21875 227.878906 405.832031 215.417969 Z M 406.21875 215.417969 " fill-opacity="1" fill-rule="nonzero"/><path fill="#206d65" d="M 469.671875 259.027344 C 468.503906 256.691406 466.945312 255.132812 465 255.132812 C 466.167969 259.417969 466.558594 263.3125 465.390625 267.203125 C 469.671875 266.035156 471.230469 263.3125 469.671875 259.027344 Z M 469.671875 259.027344 " fill-opacity="1" fill-rule="evenodd"/><path fill="#206d65" d="M 459.941406 215.808594 C 458.773438 219.703125 459.550781 225.152344 461.886719 230.992188 L 460.71875 231.773438 C 458.382812 225.152344 457.605469 219.703125 458.773438 215.417969 C 459.941406 210.746094 463.054688 207.632812 467.726562 204.90625 C 461.496094 209.96875 461.886719 208.800781 459.941406 215.808594 Z M 459.941406 215.808594 " fill-opacity="1" fill-rule="nonzero"/><path fill="#206d65" d="M 414.394531 205.683594 C 413.226562 208.019531 413.226562 211.527344 414.003906 215.03125 L 414.003906 215.417969 C 412.835938 219.3125 412.835938 223.597656 413.226562 227.878906 C 413.226562 230.605469 413.226562 235.667969 415.5625 242.675781 C 413.617188 237.613281 412.449219 232.941406 412.058594 228.269531 C 411.28125 223.597656 411.667969 219.3125 412.835938 215.417969 C 412.058594 211.527344 412.058594 208.019531 413.226562 204.90625 C 414.003906 202.179688 415.953125 199.84375 418.675781 198.285156 C 415.953125 202.570312 415.953125 201.402344 414.394531 205.683594 Z M 414.394531 205.683594 " fill-opacity="1" fill-rule="nonzero"/><path fill="#206d65" d="M 454.488281 199.84375 C 452.933594 205.683594 451.375 210.746094 449.820312 214.25 C 448.261719 217.753906 447.871094 222.039062 445.925781 223.984375 C 447.09375 228.269531 444.367188 229.046875 440.476562 230.605469 L 440.085938 229.046875 C 443.199219 228.269531 443.980469 225.542969 442.8125 222.039062 L 442.421875 221.257812 L 442.8125 220.871094 C 444.757812 219.703125 446.703125 217.367188 448.261719 213.472656 C 449.820312 210.746094 452.933594 205.296875 454.488281 199.84375 Z M 454.488281 199.84375 " fill-opacity="1" fill-rule="nonzero"/><path fill="#ececec" d="M 426.851562 237.222656 C 435.414062 241.507812 442.421875 243.0625 448.261719 242.285156 C 448.261719 242.285156 454.101562 240.726562 466.167969 237.222656 C 466.167969 237.222656 464.609375 235.277344 461.886719 230.992188 C 461.886719 230.992188 450.207031 230.605469 427.628906 229.824219 C 427.242188 234.886719 426.851562 237.222656 426.851562 237.222656 Z M 426.851562 237.222656 " fill-opacity="1" fill-rule="evenodd"/><path fill="#e2e2e2" d="M 428.796875 234.886719 C 427.628906 247.738281 427.242188 276.9375 426.851562 296.019531 L 425.292969 296.019531 C 425.683594 276.9375 426.074219 247.347656 427.242188 234.496094 C 428.410156 221.648438 429.578125 211.914062 431.132812 205.296875 C 428.796875 219.703125 429.1875 230.992188 428.796875 234.886719 Z M 428.796875 234.886719 " fill-opacity="1" fill-rule="nonzero"/><path fill="#475d6a" d="M 426.851562 230.605469 C 430.355469 235.277344 432.300781 237.613281 432.300781 237.613281 C 432.300781 237.613281 443.589844 237.222656 466.167969 237.222656 C 466.167969 237.222656 458.382812 250.074219 443.199219 276.160156 C 443.199219 276.160156 435.027344 276.160156 419.457031 275.769531 C 419.457031 275.769531 417.121094 274.214844 412.058594 270.320312 C 412.058594 270.320312 417.121094 257.082031 426.851562 230.605469 Z M 426.851562 230.605469 " fill-opacity="1" fill-rule="evenodd"/><path fill="#e2e2e2" d="M 435.804688 196.339844 L 436.972656 202.179688 L 448.261719 194.003906 L 436.582031 202.960938 L 435.027344 196.730469 Z M 435.804688 196.339844 " fill-opacity="1" fill-rule="nonzero"/><path fill="#e2e2e2" d="M 429.578125 197.117188 L 429.1875 204.90625 L 426.074219 195.949219 L 428.410156 202.179688 L 428.796875 197.117188 Z M 429.578125 197.117188 " fill-opacity="1" fill-rule="nonzero"/><path fill="#ffbea2" d="M 444.367188 261.363281 C 443.980469 266.425781 442.8125 270.320312 442.8125 270.320312 C 441.253906 274.214844 436.972656 272.265625 422.179688 268.371094 C 422.179688 268.371094 419.84375 266.816406 415.953125 263.3125 C 412.835938 260.195312 412.835938 256.691406 415.5625 252.796875 C 418.675781 255.914062 422.179688 257.859375 426.074219 257.859375 C 428.796875 257.859375 429.964844 257.082031 429.578125 255.132812 C 426.851562 253.964844 425.292969 252.410156 424.515625 250.074219 C 427.628906 248.90625 432.691406 252.410156 440.085938 260.585938 C 440.085938 260.585938 439.699219 260.976562 444.367188 261.363281 Z M 444.367188 261.363281 " fill-opacity="1" fill-rule="evenodd"/><path fill="#206d65" d="M 461.496094 274.214844 C 462.277344 278.886719 462.664062 281.222656 462.664062 281.222656 C 458.382812 280.054688 453.710938 282.78125 448.652344 288.621094 C 448.652344 288.621094 445.535156 287.453125 438.917969 285.503906 C 438.917969 285.503906 438.53125 281.613281 436.972656 274.214844 C 454.101562 274.992188 462.277344 274.992188 461.496094 274.214844 Z M 461.496094 274.214844 " fill-opacity="1" fill-rule="evenodd"/><path fill="#278d82" d="M 213.917969 417.5 C 199.515625 412.4375 185.5 415.164062 171.875 426.066406 C 181.609375 437.746094 196.789062 438.527344 217.03125 428.792969 C 221.703125 425.675781 220.925781 421.785156 213.917969 417.5 Z M 213.917969 417.5 " fill-opacity="1" fill-rule="evenodd"/><path fill="#278d82" d="M 180.828125 373.890625 C 172.65625 380.898438 166.816406 392.191406 163.3125 406.988281 C 174.992188 410.882812 185.113281 407.375 193.285156 397.640625 C 206.132812 384.015625 209.636719 373.890625 203.796875 367.273438 C 195.621094 364.15625 188.226562 366.492188 180.828125 373.890625 Z M 180.828125 373.890625 " fill-opacity="1" fill-rule="evenodd"/><path fill="#278d82" d="M 163.3125 375.449219 C 182.777344 375.058594 185.5 334.566406 174.210938 332.230469 C 156.304688 328.726562 158.640625 364.15625 163.3125 375.449219 Z M 163.3125 375.449219 " fill-opacity="1" fill-rule="evenodd"/><path fill="#278d82" d="M 142.679688 409.714844 C 150.855469 398.421875 153.96875 382.847656 152.023438 362.597656 C 149.6875 345.855469 145.015625 340.015625 138.789062 345.078125 C 134.507812 349.75 132.171875 359.09375 132.171875 373.890625 C 133.339844 387.128906 130.613281 401.148438 142.679688 409.714844 Z M 142.679688 409.714844 " fill-opacity="1" fill-rule="evenodd"/><path fill="#278d82" d="M 132.171875 417.890625 C 115.429688 426.84375 90.519531 398.8125 97.523438 391.414062 C 105.699219 382.847656 129.445312 407.375 132.171875 417.890625 Z M 132.171875 417.890625 " fill-opacity="1" fill-rule="evenodd"/><path fill="#233036" d="M 194.453125 421.785156 C 199.125 421.394531 204.1875 421.394531 210.023438 421.785156 C 210.023438 421.785156 210.414062 422.171875 210.414062 422.171875 C 210.023438 422.5625 210.023438 422.5625 210.023438 422.5625 C 204.574219 422.171875 199.902344 422.171875 195.621094 422.171875 C 197.570312 423.730469 198.738281 424.898438 199.902344 426.457031 C 201.070312 428.011719 201.460938 429.960938 201.460938 431.515625 C 201.460938 431.90625 201.460938 431.90625 201.460938 431.90625 C 201.070312 431.90625 201.070312 431.90625 201.070312 431.515625 C 201.070312 429.960938 200.292969 428.402344 199.125 426.84375 C 198.347656 425.289062 196.402344 423.730469 194.453125 422.5625 C 167.984375 423.730469 154.359375 433.464844 154.359375 451.765625 C 154.359375 452.152344 153.96875 452.152344 153.96875 452.152344 C 153.582031 452.152344 153.582031 452.152344 153.582031 451.765625 C 153.96875 433.074219 167.59375 422.953125 194.453125 421.785156 Z M 117.765625 405.429688 C 125.164062 410.882812 131.390625 416.332031 136.0625 421.785156 C 140.34375 426.84375 143.460938 431.90625 145.40625 436.96875 C 143.070312 421.003906 141.511719 406.988281 140.734375 395.304688 C 140.34375 386.351562 139.957031 378.5625 140.34375 371.945312 L 136.0625 366.105469 C 135.675781 366.105469 135.675781 365.714844 136.0625 365.714844 C 136.0625 365.714844 136.453125 365.714844 136.453125 365.714844 L 140.34375 370.777344 C 140.34375 367.273438 140.734375 364.15625 141.125 361.042969 C 141.125 361.042969 141.125 360.652344 141.511719 361.042969 C 141.511719 361.042969 141.902344 361.042969 141.902344 361.429688 C 140.734375 368.441406 140.734375 377.394531 141.125 388.296875 L 145.40625 378.953125 C 145.40625 378.953125 145.796875 378.953125 145.796875 378.953125 C 145.796875 378.953125 146.183594 379.34375 145.796875 379.34375 L 141.125 389.855469 L 141.511719 395.304688 C 142.292969 408.15625 144.238281 423.730469 146.574219 441.25 C 146.960938 442.808594 146.960938 444.367188 147.351562 445.535156 C 147.351562 445.925781 146.960938 445.925781 146.960938 445.925781 C 146.574219 445.925781 146.574219 445.925781 146.574219 445.925781 L 145.796875 441.25 C 144.628906 435.023438 141.125 428.792969 135.675781 422.171875 C 131.003906 417.109375 124.773438 411.660156 117.378906 406.207031 L 109.203125 405.429688 C 109.203125 405.429688 108.8125 405.039062 109.203125 405.039062 C 109.203125 404.652344 109.203125 404.652344 109.203125 404.652344 L 116.210938 405.429688 C 113.097656 402.703125 109.203125 400.367188 105.308594 398.03125 C 105.308594 398.03125 105.308594 397.640625 105.308594 397.640625 C 105.308594 397.253906 105.699219 397.253906 105.699219 397.253906 C 109.980469 399.980469 114.265625 402.703125 117.765625 405.429688 Z M 150.855469 447.09375 C 150.855469 447.09375 150.464844 447.480469 150.464844 447.480469 C 150.078125 447.480469 150.078125 447.09375 150.078125 447.09375 C 151.246094 433.855469 153.582031 418.277344 157.082031 401.148438 C 160.585938 385.570312 164.871094 368.828125 170.320312 350.140625 L 166.816406 343.132812 C 166.816406 343.132812 166.816406 342.742188 167.207031 342.742188 C 167.207031 342.742188 167.59375 342.742188 167.59375 343.132812 L 170.707031 349.359375 L 172.265625 343.519531 C 172.265625 343.132812 172.65625 343.132812 172.65625 343.132812 C 173.042969 343.132812 173.042969 343.519531 173.042969 343.519531 C 171.097656 349.75 169.539062 355.980469 167.59375 361.820312 L 174.992188 353.644531 C 174.992188 353.644531 174.992188 353.644531 175.378906 353.644531 C 175.378906 353.644531 175.378906 354.035156 175.378906 354.035156 L 167.207031 363.378906 C 163.703125 377.007812 160.199219 389.464844 157.863281 401.148438 C 154.75 414.773438 152.800781 426.84375 151.632812 438.136719 C 153.96875 426.457031 158.25 415.554688 164.089844 405.820312 C 171.488281 393.75 181.609375 383.234375 194.066406 374.28125 C 194.453125 373.890625 194.453125 373.890625 194.453125 374.28125 C 194.84375 374.28125 194.84375 374.667969 194.453125 374.667969 C 185.5 380.898438 177.714844 388.296875 171.488281 396.085938 C 175.378906 394.917969 178.882812 394.136719 181.996094 393.359375 C 185.5 392.582031 188.613281 392.191406 191.339844 391.800781 C 191.339844 391.800781 191.730469 392.191406 191.730469 392.191406 C 191.730469 392.582031 191.339844 392.582031 191.339844 392.582031 C 188.613281 392.96875 185.5 393.359375 182.386719 394.136719 C 178.882812 394.917969 174.992188 395.695312 170.707031 397.253906 C 168.761719 399.980469 166.425781 403.09375 164.871094 406.207031 C 157.472656 418.277344 152.800781 431.90625 150.855469 447.09375 Z M 150.855469 447.09375 " fill-opacity="1" fill-rule="nonzero"/><path fill="#233036" d="M 131.003906 442.808594 L 167.984375 442.808594 C 167.984375 442.808594 166.425781 451.765625 163.3125 470.066406 C 163.3125 473.957031 161.367188 475.90625 158.25 476.683594 C 158.25 476.683594 152.800781 476.683594 142.292969 477.074219 C 139.566406 477.074219 137.621094 475.90625 136.453125 472.789062 Z M 131.003906 442.808594 " fill-opacity="1" fill-rule="evenodd"/><path fill="#e2e2e2" d="M 166.425781 451.765625 L 165.648438 456.4375 L 133.339844 456.4375 L 132.558594 451.765625 Z M 166.425781 451.765625 " fill-opacity="1" fill-rule="evenodd"/><path fill="#e2e2e2" d="M 185.890625 306.921875 C 186.304688 306.921875 186.699219 307 187.082031 307.15625 C 187.464844 307.316406 187.800781 307.539062 188.09375 307.832031 C 188.382812 308.125 188.609375 308.460938 188.765625 308.84375 C 188.925781 309.226562 189.003906 309.621094 189.003906 310.035156 L 189.003906 359.484375 C 189.003906 359.898438 188.925781 360.296875 188.765625 360.675781 C 188.609375 361.058594 188.382812 361.394531 188.09375 361.6875 C 187.800781 361.980469 187.464844 362.203125 187.082031 362.363281 C 186.699219 362.519531 186.304688 362.597656 185.890625 362.597656 C 185.476562 362.597656 185.078125 362.519531 184.699219 362.363281 C 184.316406 362.203125 183.980469 361.980469 183.6875 361.6875 C 183.394531 361.394531 183.171875 361.058594 183.011719 360.675781 C 182.855469 360.296875 182.777344 359.898438 182.777344 359.484375 L 182.777344 310.035156 C 182.777344 309.621094 182.855469 309.226562 183.011719 308.84375 C 183.171875 308.460938 183.394531 308.125 183.6875 307.832031 C 183.980469 307.539062 184.316406 307.316406 184.699219 307.15625 C 185.078125 307 185.476562 306.921875 185.890625 306.921875 Z M 185.890625 306.921875 " fill-opacity="1" fill-rule="evenodd"/><path fill="#e2e2e2" d="M 196.011719 306.921875 C 196.425781 306.921875 196.820312 307 197.203125 307.15625 C 197.585938 307.316406 197.921875 307.539062 198.214844 307.832031 C 198.503906 308.125 198.730469 308.460938 198.886719 308.84375 C 199.046875 309.226562 199.125 309.621094 199.125 310.035156 L 199.125 359.484375 C 199.125 359.898438 199.046875 360.296875 198.886719 360.675781 C 198.730469 361.058594 198.503906 361.394531 198.214844 361.6875 C 197.921875 361.980469 197.585938 362.203125 197.203125 362.363281 C 196.820312 362.519531 196.425781 362.597656 196.011719 362.597656 C 195.597656 362.597656 195.203125 362.519531 194.820312 362.363281 C 194.4375 362.203125 194.101562 361.980469 193.808594 361.6875 C 193.515625 361.394531 193.292969 361.058594 193.132812 360.675781 C 192.976562 360.296875 192.898438 359.898438 192.898438 359.484375 L 192.898438 310.035156 C 192.898438 309.621094 192.976562 309.226562 193.132812 308.84375 C 193.292969 308.460938 193.515625 308.125 193.808594 307.832031 C 194.101562 307.539062 194.4375 307.316406 194.820312 307.15625 C 195.203125 307 195.597656 306.921875 196.011719 306.921875 Z M 196.011719 306.921875 " fill-opacity="1" fill-rule="evenodd"/><path fill="#e2e2e2" d="M 206.523438 306.921875 C 206.933594 306.921875 207.332031 307 207.714844 307.15625 C 208.09375 307.316406 208.433594 307.539062 208.722656 307.832031 C 209.015625 308.125 209.242188 308.460938 209.398438 308.84375 C 209.558594 309.226562 209.636719 309.621094 209.636719 310.035156 L 209.636719 359.484375 C 209.636719 359.898438 209.558594 360.296875 209.398438 360.675781 C 209.242188 361.058594 209.015625 361.394531 208.722656 361.6875 C 208.433594 361.980469 208.09375 362.203125 207.714844 362.363281 C 207.332031 362.519531 206.933594 362.597656 206.523438 362.597656 C 206.109375 362.597656 205.710938 362.519531 205.332031 362.363281 C 204.949219 362.203125 204.613281 361.980469 204.320312 361.6875 C 204.027344 361.394531 203.804688 361.058594 203.644531 360.675781 C 203.488281 360.296875 203.40625 359.898438 203.40625 359.484375 L 203.40625 310.035156 C 203.40625 309.621094 203.488281 309.226562 203.644531 308.84375 C 203.804688 308.460938 204.027344 308.125 204.320312 307.832031 C 204.613281 307.539062 204.949219 307.316406 205.332031 307.15625 C 205.710938 307 206.109375 306.921875 206.523438 306.921875 Z M 206.523438 306.921875 " fill-opacity="1" fill-rule="evenodd"/><path fill="#e2e2e2" d="M 216.644531 306.921875 C 217.054688 306.921875 217.453125 307 217.835938 307.15625 C 218.214844 307.316406 218.554688 307.539062 218.84375 307.832031 C 219.136719 308.125 219.363281 308.460938 219.519531 308.84375 C 219.679688 309.226562 219.757812 309.621094 219.757812 310.035156 L 219.757812 359.484375 C 219.757812 359.898438 219.679688 360.296875 219.519531 360.675781 C 219.363281 361.058594 219.136719 361.394531 218.84375 361.6875 C 218.554688 361.980469 218.214844 362.203125 217.835938 362.363281 C 217.453125 362.519531 217.054688 362.597656 216.644531 362.597656 C 216.230469 362.597656 215.832031 362.519531 215.453125 362.363281 C 215.070312 362.203125 214.734375 361.980469 214.441406 361.6875 C 214.148438 361.394531 213.925781 361.058594 213.765625 360.675781 C 213.609375 360.296875 213.527344 359.898438 213.527344 359.484375 L 213.527344 310.035156 C 213.527344 309.621094 213.609375 309.226562 213.765625 308.84375 C 213.925781 308.460938 214.148438 308.125 214.441406 307.832031 C 214.734375 307.539062 215.070312 307.316406 215.453125 307.15625 C 215.832031 307 216.230469 306.921875 216.644531 306.921875 Z M 216.644531 306.921875 " fill-opacity="1" fill-rule="evenodd"/><path fill="#e2e2e2" d="M 227.152344 306.921875 C 227.566406 306.921875 227.964844 307 228.34375 307.15625 C 228.726562 307.316406 229.0625 307.539062 229.355469 307.832031 C 229.648438 308.125 229.871094 308.460938 230.03125 308.84375 C 230.1875 309.226562 230.269531 309.621094 230.269531 310.035156 L 230.269531 359.484375 C 230.269531 359.898438 230.1875 360.296875 230.03125 360.675781 C 229.871094 361.058594 229.648438 361.394531 229.355469 361.6875 C 229.0625 361.980469 228.726562 362.203125 228.34375 362.363281 C 227.964844 362.519531 227.566406 362.597656 227.152344 362.597656 C 226.742188 362.597656 226.34375 362.519531 225.960938 362.363281 C 225.582031 362.203125 225.242188 361.980469 224.953125 361.6875 C 224.660156 361.394531 224.433594 361.058594 224.277344 360.675781 C 224.117188 360.296875 224.039062 359.898438 224.039062 359.484375 L 224.039062 310.035156 C 224.039062 309.621094 224.117188 309.226562 224.277344 308.84375 C 224.433594 308.460938 224.660156 308.125 224.953125 307.832031 C 225.242188 307.539062 225.582031 307.316406 225.960938 307.15625 C 226.34375 307 226.742188 306.921875 227.152344 306.921875 Z M 227.152344 306.921875 " fill-opacity="1" fill-rule="evenodd"/><path fill="#e2e2e2" d="M 237.273438 306.921875 C 237.6875 306.921875 238.085938 307 238.464844 307.15625 C 238.847656 307.316406 239.183594 307.539062 239.476562 307.832031 C 239.769531 308.125 239.992188 308.460938 240.152344 308.84375 C 240.308594 309.226562 240.390625 309.621094 240.390625 310.035156 L 240.390625 359.484375 C 240.390625 359.898438 240.308594 360.296875 240.152344 360.675781 C 239.992188 361.058594 239.769531 361.394531 239.476562 361.6875 C 239.183594 361.980469 238.847656 362.203125 238.464844 362.363281 C 238.085938 362.519531 237.6875 362.597656 237.273438 362.597656 C 236.863281 362.597656 236.464844 362.519531 236.082031 362.363281 C 235.703125 362.203125 235.363281 361.980469 235.074219 361.6875 C 234.78125 361.394531 234.554688 361.058594 234.398438 360.675781 C 234.238281 360.296875 234.160156 359.898438 234.160156 359.484375 L 234.160156 310.035156 C 234.160156 309.621094 234.238281 309.226562 234.398438 308.84375 C 234.554688 308.460938 234.78125 308.125 235.074219 307.832031 C 235.363281 307.539062 235.703125 307.316406 236.082031 307.15625 C 236.464844 307 236.863281 306.921875 237.273438 306.921875 Z M 237.273438 306.921875 " fill-opacity="1" fill-rule="evenodd"/><path fill="#e2e2e2" d="M 247.785156 306.921875 C 248.199219 306.921875 248.59375 307 248.976562 307.15625 C 249.359375 307.316406 249.695312 307.539062 249.988281 307.832031 C 250.277344 308.125 250.503906 308.460938 250.664062 308.84375 C 250.820312 309.226562 250.898438 309.621094 250.898438 310.035156 L 250.898438 359.484375 C 250.898438 359.898438 250.820312 360.296875 250.664062 360.675781 C 250.503906 361.058594 250.277344 361.394531 249.988281 361.6875 C 249.695312 361.980469 249.359375 362.203125 248.976562 362.363281 C 248.59375 362.519531 248.199219 362.597656 247.785156 362.597656 C 247.371094 362.597656 246.976562 362.519531 246.59375 362.363281 C 246.210938 362.203125 245.875 361.980469 245.582031 361.6875 C 245.289062 361.394531 245.066406 361.058594 244.90625 360.675781 C 244.75 360.296875 244.671875 359.898438 244.671875 359.484375 L 244.671875 310.035156 C 244.671875 309.621094 244.75 309.226562 244.90625 308.84375 C 245.066406 308.460938 245.289062 308.125 245.582031 307.832031 C 245.875 307.539062 246.210938 307.316406 246.59375 307.15625 C 246.976562 307 247.371094 306.921875 247.785156 306.921875 Z M 247.785156 306.921875 " fill-opacity="1" fill-rule="evenodd"/><path fill="#e2e2e2" d="M 257.90625 306.921875 C 258.320312 306.921875 258.714844 307 259.097656 307.15625 C 259.480469 307.316406 259.816406 307.539062 260.109375 307.832031 C 260.398438 308.125 260.625 308.460938 260.785156 308.84375 C 260.941406 309.226562 261.019531 309.621094 261.019531 310.035156 L 261.019531 359.484375 C 261.019531 359.898438 260.941406 360.296875 260.785156 360.675781 C 260.625 361.058594 260.398438 361.394531 260.109375 361.6875 C 259.816406 361.980469 259.480469 362.203125 259.097656 362.363281 C 258.714844 362.519531 258.320312 362.597656 257.90625 362.597656 C 257.492188 362.597656 257.097656 362.519531 256.714844 362.363281 C 256.332031 362.203125 255.996094 361.980469 255.703125 361.6875 C 255.410156 361.394531 255.1875 361.058594 255.027344 360.675781 C 254.871094 360.296875 254.792969 359.898438 254.792969 359.484375 L 254.792969 310.035156 C 254.792969 309.621094 254.871094 309.226562 255.027344 308.84375 C 255.1875 308.460938 255.410156 308.125 255.703125 307.832031 C 255.996094 307.539062 256.332031 307.316406 256.714844 307.15625 C 257.097656 307 257.492188 306.921875 257.90625 306.921875 Z M 257.90625 306.921875 " fill-opacity="1" fill-rule="evenodd"/><path fill="#e2e2e2" d="M 268.417969 306.921875 C 268.828125 306.921875 269.226562 307 269.609375 307.15625 C 269.988281 307.316406 270.328125 307.539062 270.617188 307.832031 C 270.910156 308.125 271.136719 308.460938 271.292969 308.84375 C 271.453125 309.226562 271.53125 309.621094 271.53125 310.035156 L 271.53125 359.484375 C 271.53125 359.898438 271.453125 360.296875 271.292969 360.675781 C 271.136719 361.058594 270.910156 361.394531 270.617188 361.6875 C 270.328125 361.980469 269.988281 362.203125 269.609375 362.363281 C 269.226562 362.519531 268.828125 362.597656 268.417969 362.597656 C 268.003906 362.597656 267.605469 362.519531 267.226562 362.363281 C 266.84375 362.203125 266.507812 361.980469 266.214844 361.6875 C 265.921875 361.394531 265.699219 361.058594 265.539062 360.675781 C 265.382812 360.296875 265.300781 359.898438 265.300781 359.484375 L 265.300781 310.035156 C 265.300781 309.621094 265.382812 309.226562 265.539062 308.84375 C 265.699219 308.460938 265.921875 308.125 266.214844 307.832031 C 266.507812 307.539062 266.84375 307.316406 267.226562 307.15625 C 267.605469 307 268.003906 306.921875 268.417969 306.921875 Z M 268.417969 306.921875 " fill-opacity="1" fill-rule="evenodd"/><path fill="#e2e2e2" d="M 278.539062 306.921875 C 278.949219 306.921875 279.347656 307 279.730469 307.15625 C 280.109375 307.316406 280.449219 307.539062 280.738281 307.832031 C 281.03125 308.125 281.257812 308.460938 281.414062 308.84375 C 281.574219 309.226562 281.652344 309.621094 281.652344 310.035156 L 281.652344 359.484375 C 281.652344 359.898438 281.574219 360.296875 281.414062 360.675781 C 281.257812 361.058594 281.03125 361.394531 280.738281 361.6875 C 280.449219 361.980469 280.109375 362.203125 279.730469 362.363281 C 279.347656 362.519531 278.949219 362.597656 278.539062 362.597656 C 278.125 362.597656 277.726562 362.519531 277.347656 362.363281 C 276.964844 362.203125 276.628906 361.980469 276.335938 361.6875 C 276.042969 361.394531 275.820312 361.058594 275.660156 360.675781 C 275.503906 360.296875 275.421875 359.898438 275.421875 359.484375 L 275.421875 310.035156 C 275.421875 309.621094 275.503906 309.226562 275.660156 308.84375 C 275.820312 308.460938 276.042969 308.125 276.335938 307.832031 C 276.628906 307.539062 276.964844 307.316406 277.347656 307.15625 C 277.726562 307 278.125 306.921875 278.539062 306.921875 Z M 278.539062 306.921875 " fill-opacity="1" fill-rule="evenodd"/><path fill="#206d65" d="M 185.890625 324.441406 C 186.304688 324.441406 186.699219 324.492188 187.082031 324.589844 C 187.464844 324.6875 187.800781 324.828125 188.09375 325.011719 C 188.382812 325.195312 188.609375 325.40625 188.765625 325.644531 C 188.925781 325.882812 189.003906 326.128906 189.003906 326.386719 L 189.003906 360.652344 C 189.003906 360.910156 188.925781 361.160156 188.765625 361.398438 C 188.609375 361.636719 188.382812 361.847656 188.09375 362.03125 C 187.800781 362.210938 187.464844 362.351562 187.082031 362.453125 C 186.699219 362.550781 186.304688 362.597656 185.890625 362.597656 C 185.476562 362.597656 185.078125 362.550781 184.699219 362.453125 C 184.316406 362.351562 183.980469 362.210938 183.6875 362.03125 C 183.394531 361.847656 183.171875 361.636719 183.011719 361.398438 C 182.855469 361.160156 182.777344 360.910156 182.777344 360.652344 L 182.777344 326.386719 C 182.777344 326.128906 182.855469 325.882812 183.011719 325.644531 C 183.171875 325.40625 183.394531 325.195312 183.6875 325.011719 C 183.980469 324.828125 184.316406 324.6875 184.699219 324.589844 C 185.078125 324.492188 185.476562 324.441406 185.890625 324.441406 Z M 185.890625 324.441406 " fill-opacity="1" fill-rule="evenodd"/><path fill="#206d65" d="M 196.011719 315.875 C 196.425781 315.875 196.820312 315.945312 197.203125 316.082031 C 197.585938 316.222656 197.921875 316.417969 198.214844 316.675781 C 198.503906 316.929688 198.730469 317.222656 198.886719 317.558594 C 199.046875 317.890625 199.125 318.238281 199.125 318.601562 L 199.125 359.875 C 199.125 360.234375 199.046875 360.582031 198.886719 360.917969 C 198.730469 361.25 198.503906 361.546875 198.214844 361.800781 C 197.921875 362.058594 197.585938 362.253906 197.203125 362.390625 C 196.820312 362.53125 196.425781 362.597656 196.011719 362.597656 C 195.597656 362.597656 195.203125 362.53125 194.820312 362.390625 C 194.4375 362.253906 194.101562 362.058594 193.808594 361.800781 C 193.515625 361.546875 193.292969 361.25 193.132812 360.917969 C 192.976562 360.582031 192.898438 360.234375 192.898438 359.875 L 192.898438 318.601562 C 192.898438 318.238281 192.976562 317.890625 193.132812 317.558594 C 193.292969 317.222656 193.515625 316.929688 193.808594 316.675781 C 194.101562 316.417969 194.4375 316.222656 194.820312 316.082031 C 195.203125 315.945312 195.597656 315.875 196.011719 315.875 Z M 196.011719 315.875 " fill-opacity="1" fill-rule="evenodd"/><path fill="#206d65" d="M 206.523438 332.230469 C 206.933594 332.230469 207.332031 332.269531 207.714844 332.347656 C 208.09375 332.425781 208.433594 332.539062 208.722656 332.683594 C 209.015625 332.832031 209.242188 333 209.398438 333.191406 C 209.558594 333.382812 209.636719 333.578125 209.636719 333.785156 L 209.636719 361.042969 C 209.636719 361.25 209.558594 361.449219 209.398438 361.636719 C 209.242188 361.828125 209.015625 361.996094 208.722656 362.144531 C 208.433594 362.289062 208.09375 362.402344 207.714844 362.480469 C 207.332031 362.558594 206.933594 362.597656 206.523438 362.597656 C 206.109375 362.597656 205.710938 362.558594 205.332031 362.480469 C 204.949219 362.402344 204.613281 362.289062 204.320312 362.144531 C 204.027344 361.996094 203.804688 361.828125 203.644531 361.636719 C 203.488281 361.449219 203.40625 361.25 203.40625 361.042969 L 203.40625 333.785156 C 203.40625 333.578125 203.488281 333.382812 203.644531 333.191406 C 203.804688 333 204.027344 332.832031 204.320312 332.683594 C 204.613281 332.539062 204.949219 332.425781 205.332031 332.347656 C 205.710938 332.269531 206.109375 332.230469 206.523438 332.230469 Z M 206.523438 332.230469 " fill-opacity="1" fill-rule="evenodd"/><path fill="#206d65" d="M 216.644531 314.316406 C 217.054688 314.316406 217.453125 314.386719 217.835938 314.527344 C 218.214844 314.664062 218.554688 314.859375 218.84375 315.117188 C 219.136719 315.371094 219.363281 315.667969 219.519531 316 C 219.679688 316.335938 219.757812 316.683594 219.757812 317.042969 L 219.757812 360.261719 C 219.757812 360.625 219.679688 360.972656 219.519531 361.304688 C 219.363281 361.640625 219.136719 361.933594 218.84375 362.191406 C 218.554688 362.445312 218.214844 362.644531 217.835938 362.78125 C 217.453125 362.917969 217.054688 362.988281 216.644531 362.988281 C 216.230469 362.988281 215.832031 362.917969 215.453125 362.78125 C 215.070312 362.644531 214.734375 362.445312 214.441406 362.191406 C 214.148438 361.933594 213.925781 361.640625 213.765625 361.304688 C 213.609375 360.972656 213.527344 360.625 213.527344 360.261719 L 213.527344 317.042969 C 213.527344 316.683594 213.609375 316.335938 213.765625 316 C 213.925781 315.667969 214.148438 315.371094 214.441406 315.117188 C 214.734375 314.859375 215.070312 314.664062 215.453125 314.527344 C 215.832031 314.386719 216.230469 314.316406 216.644531 314.316406 Z M 216.644531 314.316406 " fill-opacity="1" fill-rule="evenodd"/><path fill="#206d65" d="M 227.152344 321.328125 C 227.566406 321.328125 227.964844 321.386719 228.34375 321.503906 C 228.726562 321.625 229.0625 321.792969 229.355469 322.011719 C 229.648438 322.230469 229.871094 322.484375 230.03125 322.769531 C 230.1875 323.054688 230.269531 323.351562 230.269531 323.664062 L 230.269531 360.261719 C 230.269531 360.574219 230.1875 360.871094 230.03125 361.15625 C 229.871094 361.445312 229.648438 361.695312 229.355469 361.914062 C 229.0625 362.132812 228.726562 362.304688 228.34375 362.421875 C 227.964844 362.539062 227.566406 362.597656 227.152344 362.597656 C 226.742188 362.597656 226.34375 362.539062 225.960938 362.421875 C 225.582031 362.304688 225.242188 362.132812 224.953125 361.914062 C 224.660156 361.695312 224.433594 361.445312 224.277344 361.15625 C 224.117188 360.871094 224.039062 360.574219 224.039062 360.261719 L 224.039062 323.664062 C 224.039062 323.351562 224.117188 323.054688 224.277344 322.769531 C 224.433594 322.484375 224.660156 322.230469 224.953125 322.011719 C 225.242188 321.792969 225.582031 321.625 225.960938 321.503906 C 226.34375 321.386719 226.742188 321.328125 227.152344 321.328125 Z M 227.152344 321.328125 " fill-opacity="1" fill-rule="evenodd"/><path fill="#206d65" d="M 237.273438 331.449219 C 237.6875 331.449219 238.085938 331.488281 238.464844 331.570312 C 238.847656 331.648438 239.183594 331.761719 239.476562 331.90625 C 239.769531 332.050781 239.992188 332.222656 240.152344 332.410156 C 240.308594 332.601562 240.390625 332.800781 240.390625 333.007812 L 240.390625 361.042969 C 240.390625 361.25 240.308594 361.449219 240.152344 361.636719 C 239.992188 361.828125 239.769531 361.996094 239.476562 362.144531 C 239.183594 362.289062 238.847656 362.402344 238.464844 362.480469 C 238.085938 362.558594 237.6875 362.597656 237.273438 362.597656 C 236.863281 362.597656 236.464844 362.558594 236.082031 362.480469 C 235.703125 362.402344 235.363281 362.289062 235.074219 362.144531 C 234.78125 361.996094 234.554688 361.828125 234.398438 361.636719 C 234.238281 361.449219 234.160156 361.25 234.160156 361.042969 L 234.160156 333.007812 C 234.160156 332.800781 234.238281 332.601562 234.398438 332.410156 C 234.554688 332.222656 234.78125 332.050781 235.074219 331.90625 C 235.363281 331.761719 235.703125 331.648438 236.082031 331.570312 C 236.464844 331.488281 236.863281 331.449219 237.273438 331.449219 Z M 237.273438 331.449219 " fill-opacity="1" fill-rule="evenodd"/><path fill="#206d65" d="M 247.785156 312.761719 C 248.199219 312.761719 248.59375 312.828125 248.976562 312.96875 C 249.359375 313.105469 249.695312 313.304688 249.988281 313.558594 C 250.277344 313.816406 250.503906 314.109375 250.664062 314.441406 C 250.820312 314.777344 250.898438 315.125 250.898438 315.484375 L 250.898438 359.875 C 250.898438 360.234375 250.820312 360.582031 250.664062 360.917969 C 250.503906 361.25 250.277344 361.546875 249.988281 361.800781 C 249.695312 362.058594 249.359375 362.253906 248.976562 362.390625 C 248.59375 362.53125 248.199219 362.597656 247.785156 362.597656 C 247.371094 362.597656 246.976562 362.53125 246.59375 362.390625 C 246.210938 362.253906 245.875 362.058594 245.582031 361.800781 C 245.289062 361.546875 245.066406 361.25 244.90625 360.917969 C 244.75 360.582031 244.671875 360.234375 244.671875 359.875 L 244.671875 315.484375 C 244.671875 315.125 244.75 314.777344 244.90625 314.441406 C 245.066406 314.109375 245.289062 313.816406 245.582031 313.558594 C 245.875 313.304688 246.210938 313.105469 246.59375 312.96875 C 246.976562 312.828125 247.371094 312.761719 247.785156 312.761719 Z M 247.785156 312.761719 " fill-opacity="1" fill-rule="evenodd"/><path fill="#206d65" d="M 257.90625 337.679688 C 258.320312 337.679688 258.714844 337.710938 259.097656 337.769531 C 259.480469 337.828125 259.816406 337.914062 260.109375 338.023438 C 260.398438 338.132812 260.625 338.257812 260.785156 338.402344 C 260.941406 338.542969 261.019531 338.691406 261.019531 338.847656 L 261.019531 361.429688 C 261.019531 361.585938 260.941406 361.734375 260.785156 361.878906 C 260.625 362.023438 260.398438 362.148438 260.109375 362.257812 C 259.816406 362.367188 259.480469 362.453125 259.097656 362.511719 C 258.714844 362.570312 258.320312 362.597656 257.90625 362.597656 C 257.492188 362.597656 257.097656 362.570312 256.714844 362.511719 C 256.332031 362.453125 255.996094 362.367188 255.703125 362.257812 C 255.410156 362.148438 255.1875 362.023438 255.027344 361.878906 C 254.871094 361.734375 254.792969 361.585938 254.792969 361.429688 L 254.792969 338.847656 C 254.792969 338.691406 254.871094 338.542969 255.027344 338.402344 C 255.1875 338.257812 255.410156 338.132812 255.703125 338.023438 C 255.996094 337.914062 256.332031 337.828125 256.714844 337.769531 C 257.097656 337.710938 257.492188 337.679688 257.90625 337.679688 Z M 257.90625 337.679688 " fill-opacity="1" fill-rule="evenodd"/><path fill="#233036" d="M 192.507812 251.242188 C 288.660156 251.242188 336.539062 251.242188 336.539062 251.242188 C 335.371094 245.398438 329.53125 209.96875 322.914062 192.835938 C 319.410156 184.660156 307.34375 183.492188 303.839844 205.683594 C 302.671875 209.96875 299.949219 211.914062 296.054688 211.914062 C 285.15625 211.527344 286.324219 199.453125 276.980469 202.570312 C 268.804688 205.683594 269.195312 223.597656 257.90625 220.871094 C 248.175781 218.535156 248.953125 194.394531 238.832031 197.898438 C 227.152344 201.792969 227.542969 226.320312 220.535156 230.605469 C 218.589844 231.773438 216.253906 232.160156 213.527344 232.160156 C 199.515625 245.011719 192.507812 251.242188 192.507812 251.242188 Z M 192.507812 251.242188 " fill-opacity="1" fill-rule="evenodd"/><path fill="#206d65" d="M 268.417969 346.246094 C 268.828125 346.246094 269.226562 346.265625 269.609375 346.304688 C 269.988281 346.34375 270.328125 346.402344 270.617188 346.472656 C 270.910156 346.546875 271.136719 346.632812 271.292969 346.726562 C 271.453125 346.820312 271.53125 346.921875 271.53125 347.023438 L 271.53125 361.820312 C 271.53125 361.925781 271.453125 362.023438 271.292969 362.117188 C 271.136719 362.214844 270.910156 362.296875 270.617188 362.371094 C 270.328125 362.445312 269.988281 362.5 269.609375 362.539062 C 269.226562 362.578125 268.828125 362.597656 268.417969 362.597656 C 268.003906 362.597656 267.605469 362.578125 267.226562 362.539062 C 266.84375 362.5 266.507812 362.445312 266.214844 362.371094 C 265.921875 362.296875 265.699219 362.214844 265.539062 362.117188 C 265.382812 362.023438 265.300781 361.925781 265.300781 361.820312 L 265.300781 347.023438 C 265.300781 346.921875 265.382812 346.820312 265.539062 346.726562 C 265.699219 346.632812 265.921875 346.546875 266.214844 346.472656 C 266.507812 346.402344 266.84375 346.34375 267.226562 346.304688 C 267.605469 346.265625 268.003906 346.246094 268.417969 346.246094 Z M 268.417969 346.246094 " fill-opacity="1" fill-rule="evenodd"/><path fill="#206d65" d="M 278.539062 332.230469 C 278.949219 332.230469 279.347656 332.269531 279.730469 332.347656 C 280.109375 332.425781 280.449219 332.539062 280.738281 332.683594 C 281.03125 332.832031 281.257812 333 281.414062 333.191406 C 281.574219 333.382812 281.652344 333.578125 281.652344 333.785156 L 281.652344 361.042969 C 281.652344 361.25 281.574219 361.449219 281.414062 361.636719 C 281.257812 361.828125 281.03125 361.996094 280.738281 362.144531 C 280.449219 362.289062 280.109375 362.402344 279.730469 362.480469 C 279.347656 362.558594 278.949219 362.597656 278.539062 362.597656 C 278.125 362.597656 277.726562 362.558594 277.347656 362.480469 C 276.964844 362.402344 276.628906 362.289062 276.335938 362.144531 C 276.042969 361.996094 275.820312 361.828125 275.660156 361.636719 C 275.503906 361.449219 275.421875 361.25 275.421875 361.042969 L 275.421875 333.785156 C 275.421875 333.578125 275.503906 333.382812 275.660156 333.191406 C 275.820312 333 276.042969 332.832031 276.335938 332.683594 C 276.628906 332.539062 276.964844 332.425781 277.347656 332.347656 C 277.726562 332.269531 278.125 332.230469 278.539062 332.230469 Z M 278.539062 332.230469 " fill-opacity="1" fill-rule="evenodd"/><path fill="#206d65" d="M 178.882812 251.242188 C 283.988281 251.242188 336.539062 251.242188 336.539062 251.242188 C 336.539062 251.242188 335.761719 248.90625 334.203125 244.230469 C 325.640625 222.425781 317.464844 221.257812 310.070312 240.339844 C 297.613281 247.738281 280.09375 245.789062 257.90625 234.886719 C 246.617188 223.984375 238.054688 223.597656 232.214844 232.941406 C 224.429688 238.390625 218.199219 238.390625 213.527344 232.160156 C 211.582031 218.144531 207.300781 211.136719 201.070312 211.527344 C 192.117188 209.1875 184.722656 222.816406 178.882812 251.242188 Z M 178.882812 251.242188 " fill-opacity="1" fill-rule="evenodd"/><path fill="#278d82" d="M 178.882812 251.242188 C 283.988281 251.242188 336.539062 251.242188 336.539062 251.242188 C 328.363281 238.390625 319.410156 233.71875 309.679688 236.445312 C 303.453125 242.285156 297.222656 243.0625 291.382812 238.003906 C 286.324219 230.605469 282.429688 226.710938 279.707031 226.320312 C 275.421875 224.375 266.46875 227.878906 253.234375 236.054688 C 241.945312 234.886719 234.550781 237.222656 230.269531 242.675781 C 222.480469 250.460938 214.695312 248.90625 206.523438 237.222656 C 199.515625 231.773438 190.171875 236.445312 178.882812 251.242188 Z M 178.882812 251.242188 " fill-opacity="1" fill-rule="evenodd"/><path fill="#233036" d="M 191.339844 170.640625 L 194.84375 170.640625 L 194.84375 174.144531 L 191.339844 174.144531 Z M 191.339844 170.640625 " fill-opacity="1" fill-rule="evenodd"/><path fill="#233036" d="M 201.070312 171.03125 L 222.09375 171.03125 L 222.09375 172.589844 L 201.070312 172.589844 Z M 201.070312 171.03125 " fill-opacity="1" fill-rule="evenodd"/><path fill="#233036" d="M 238.441406 170.640625 L 241.945312 170.640625 L 241.945312 174.144531 L 238.441406 174.144531 Z M 238.441406 170.640625 " fill-opacity="1" fill-rule="evenodd"/><path fill="#233036" d="M 248.175781 171.03125 L 269.195312 171.03125 L 269.195312 172.589844 L 248.175781 172.589844 Z M 248.175781 171.03125 " fill-opacity="1" fill-rule="evenodd"/><path fill="#233036" d="M 285.933594 170.640625 L 289.4375 170.640625 L 289.4375 174.144531 L 285.933594 174.144531 Z M 285.933594 170.640625 " fill-opacity="1" fill-rule="evenodd"/><path fill="#233036" d="M 295.277344 171.03125 L 316.296875 171.03125 L 316.296875 172.589844 L 295.277344 172.589844 Z M 295.277344 171.03125 " fill-opacity="1" fill-rule="evenodd"/><g clip-path="url(#568ecc107d)"><path fill="#233036" d="M 138.789062 95.882812 L 582.949219 95.882812 L 582.949219 115.742188 L 138.789062 115.742188 Z M 138.789062 95.882812 " fill-opacity="1" fill-rule="evenodd"/></g><path fill="#fafafa" d="M 153.191406 105.617188 C 153.191406 106.03125 153.113281 106.429688 152.953125 106.808594 C 152.796875 107.191406 152.570312 107.527344 152.277344 107.820312 C 151.988281 108.113281 151.648438 108.335938 151.269531 108.496094 C 150.886719 108.652344 150.488281 108.734375 150.078125 108.734375 C 149.664062 108.734375 149.265625 108.652344 148.886719 108.496094 C 148.503906 108.335938 148.167969 108.113281 147.875 107.820312 C 147.582031 107.527344 147.359375 107.191406 147.199219 106.808594 C 147.042969 106.429688 146.960938 106.03125 146.960938 105.617188 C 146.960938 105.203125 147.042969 104.808594 147.199219 104.425781 C 147.359375 104.042969 147.582031 103.707031 147.875 103.414062 C 148.167969 103.125 148.503906 102.898438 148.886719 102.738281 C 149.265625 102.582031 149.664062 102.503906 150.078125 102.503906 C 150.488281 102.503906 150.886719 102.582031 151.269531 102.738281 C 151.648438 102.898438 151.988281 103.125 152.277344 103.414062 C 152.570312 103.707031 152.796875 104.042969 152.953125 104.425781 C 153.113281 104.808594 153.191406 105.203125 153.191406 105.617188 Z M 153.191406 105.617188 " fill-opacity="1" fill-rule="nonzero"/><path fill="#fafafa" d="M 162.144531 105.617188 C 162.144531 106.03125 162.066406 106.429688 161.90625 106.808594 C 161.75 107.191406 161.523438 107.527344 161.230469 107.820312 C 160.941406 108.113281 160.605469 108.335938 160.222656 108.496094 C 159.839844 108.652344 159.441406 108.734375 159.03125 108.734375 C 158.617188 108.734375 158.21875 108.652344 157.839844 108.496094 C 157.457031 108.335938 157.121094 108.113281 156.828125 107.820312 C 156.535156 107.527344 156.3125 107.191406 156.152344 106.808594 C 155.996094 106.429688 155.917969 106.03125 155.917969 105.617188 C 155.917969 105.203125 155.996094 104.808594 156.152344 104.425781 C 156.3125 104.042969 156.535156 103.707031 156.828125 103.414062 C 157.121094 103.125 157.457031 102.898438 157.839844 102.738281 C 158.21875 102.582031 158.617188 102.503906 159.03125 102.503906 C 159.441406 102.503906 159.839844 102.582031 160.222656 102.738281 C 160.605469 102.898438 160.941406 103.125 161.230469 103.414062 C 161.523438 103.707031 161.75 104.042969 161.90625 104.425781 C 162.066406 104.808594 162.144531 105.203125 162.144531 105.617188 Z M 162.144531 105.617188 " fill-opacity="1" fill-rule="nonzero"/><path fill="#fafafa" d="M 171.097656 105.617188 C 171.097656 106.03125 171.019531 106.429688 170.859375 106.808594 C 170.703125 107.191406 170.476562 107.527344 170.1875 107.820312 C 169.894531 108.113281 169.558594 108.335938 169.175781 108.496094 C 168.792969 108.652344 168.398438 108.734375 167.984375 108.734375 C 167.570312 108.734375 167.171875 108.652344 166.792969 108.496094 C 166.410156 108.335938 166.074219 108.113281 165.78125 107.820312 C 165.488281 107.527344 165.265625 107.191406 165.105469 106.808594 C 164.949219 106.429688 164.871094 106.03125 164.871094 105.617188 C 164.871094 105.203125 164.949219 104.808594 165.105469 104.425781 C 165.265625 104.042969 165.488281 103.707031 165.78125 103.414062 C 166.074219 103.125 166.410156 102.898438 166.792969 102.738281 C 167.171875 102.582031 167.570312 102.503906 167.984375 102.503906 C 168.398438 102.503906 168.792969 102.582031 169.175781 102.738281 C 169.558594 102.898438 169.894531 103.125 170.1875 103.414062 C 170.476562 103.707031 170.703125 104.042969 170.859375 104.425781 C 171.019531 104.808594 171.097656 105.203125 171.097656 105.617188 Z M 171.097656 105.617188 " fill-opacity="1" fill-rule="nonzero"/><path fill="#278d82" d="M 459.550781 259.417969 C 459.550781 265.257812 460.328125 275.382812 460.328125 275.382812 C 460.328125 275.382812 448.652344 274.601562 436.972656 274.214844 C 436.972656 274.214844 442.035156 269.152344 444.367188 261.363281 C 454.488281 260.195312 459.550781 259.417969 459.550781 259.417969 Z M 459.550781 259.417969 " fill-opacity="1" fill-rule="evenodd"/><path fill="#233036" d="M 80.398438 200.234375 C 94.019531 186.214844 100.640625 179.207031 100.640625 179.207031 C 104.140625 173.757812 103.363281 170.253906 98.691406 168.695312 C 95.1875 169.085938 92.464844 168.695312 90.90625 167.136719 C 86.625 164.800781 83.121094 165.582031 80.785156 169.863281 C 80.398438 171.808594 79.230469 172.589844 76.894531 171.808594 C 72.222656 171.808594 70.664062 175.703125 71.445312 183.492188 C 72.222656 186.214844 72.609375 187.773438 72.609375 187.773438 C 65.992188 190.5 64.824219 193.613281 69.496094 197.507812 C 72.222656 197.117188 73.777344 197.507812 73.777344 199.453125 C 74.558594 201.792969 76.894531 202.179688 80.398438 200.234375 Z M 80.398438 200.234375 " fill-opacity="1" fill-rule="evenodd"/><path fill="#206d65" d="M 101.417969 473.570312 C 90.519531 470.066406 85.066406 468.117188 85.066406 468.117188 C 85.066406 468.117188 84.679688 473.179688 84.289062 482.914062 C 84.289062 482.914062 94.410156 482.914062 115.042969 483.304688 C 113.484375 481.355469 109.203125 479.800781 103.363281 479.410156 C 103.363281 479.410156 102.976562 477.460938 101.417969 473.570312 Z M 101.417969 473.570312 " fill-opacity="1" fill-rule="evenodd"/><path fill="#475d6a" d="M 105.308594 472.789062 C 87.402344 473.179688 78.449219 473.179688 78.449219 473.179688 C 78.449219 473.179688 79.617188 450.597656 81.953125 405.039062 C 81.953125 405.039062 82.34375 378.5625 83.511719 325.609375 C 83.511719 325.609375 78.449219 342.351562 67.941406 375.449219 C 67.941406 375.449219 57.039062 409.714844 35.242188 478.628906 C 35.242188 478.628906 27.457031 476.292969 11.496094 472.402344 C 11.496094 472.402344 12.273438 470.453125 13.832031 466.949219 C 13.832031 466.949219 17.335938 454.488281 23.953125 429.570312 C 23.953125 429.570312 37.1875 384.792969 63.269531 294.851562 C 63.269531 294.851562 80.007812 294.460938 113.875 294.070312 C 113.875 294.070312 112.316406 329.894531 109.980469 401.925781 C 109.980469 401.925781 108.425781 425.289062 105.308594 472.789062 Z M 105.308594 472.789062 " fill-opacity="1" fill-rule="evenodd"/><g clip-path="url(#5ae70c71a5)"><path fill="#206d65" d="M 31.347656 475.90625 C 20.449219 471.621094 15.386719 469.675781 15.386719 469.675781 C 15 472.402344 14.21875 473.957031 11.882812 474.347656 C 11.882812 474.347656 8.382812 474.347656 0.59375 474.738281 C 0.59375 474.738281 8.769531 477.074219 24.730469 481.746094 C 29.011719 484.472656 30.957031 482.523438 31.347656 475.90625 Z M 31.347656 475.90625 " fill-opacity="1" fill-rule="evenodd"/></g><path fill="#233036" d="M 111.929688 242.285156 C 114.265625 274.992188 115.042969 291.34375 115.042969 291.34375 C 116.210938 294.460938 115.429688 296.40625 113.484375 296.40625 C 79.617188 296.796875 62.488281 297.1875 62.488281 297.1875 C 62.878906 264.089844 63.269531 247.738281 63.269531 247.738281 C 57.820312 252.410156 55.09375 254.746094 55.09375 254.746094 C 45.75 243.453125 41.078125 237.613281 41.078125 237.613281 C 53.535156 225.152344 59.375 219.3125 59.375 219.3125 C 63.65625 214.25 69.886719 211.523438 77.671875 211.136719 C 83.898438 213.082031 89.738281 213.082031 95.1875 210.746094 C 101.808594 211.523438 107.644531 213.863281 113.484375 216.976562 C 127.5 222.816406 134.894531 225.542969 134.894531 225.542969 C 129.445312 240.726562 126.71875 248.125 126.71875 248.125 C 116.988281 243.84375 112.316406 241.894531 111.929688 242.285156 Z M 111.929688 242.285156 " fill-opacity="1" fill-rule="evenodd"/><path fill="#ececec" d="M 78.449219 470.84375 L 106.867188 470.84375 L 106.867188 475.90625 L 78.449219 475.90625 Z M 78.449219 470.84375 " fill-opacity="1" fill-rule="evenodd"/><path fill="#ffbea2" d="M 139.566406 197.507812 C 141.125 205.296875 140.734375 216.199219 138.789062 230.214844 C 138.789062 230.214844 137.230469 229.824219 133.339844 229.4375 C 129.445312 239.949219 127.886719 245.011719 127.886719 245.011719 C 132.949219 246.570312 138.007812 247.738281 143.070312 248.515625 C 150.855469 248.125 154.359375 243.0625 153.191406 234.109375 C 151.246094 209.96875 150.078125 197.898438 150.078125 197.898438 C 149.6875 190.5 149.296875 185.828125 148.128906 184.660156 C 144.628906 179.988281 142.679688 177.652344 142.679688 177.652344 C 140.734375 181.933594 139.957031 183.878906 139.957031 183.878906 C 137.621094 187.773438 137.230469 192.058594 139.566406 197.507812 Z M 139.566406 197.507812 " fill-opacity="1" fill-rule="evenodd"/><path fill="#ececec" d="M 13.832031 466.949219 C 12.273438 470.453125 11.496094 472.402344 11.496094 472.402344 C 11.496094 472.402344 19.667969 474.347656 35.242188 478.628906 C 35.242188 478.628906 35.628906 477.851562 36.019531 476.292969 C 20.835938 469.285156 13.441406 466.171875 13.832031 466.949219 Z M 13.832031 466.949219 " fill-opacity="1" fill-rule="evenodd"/><path fill="#ffbea2" d="M 55.09375 251.628906 C 46.53125 261.753906 41.859375 266.816406 41.859375 266.816406 C 48.476562 274.214844 55.484375 283.558594 63.269531 294.851562 C 65.214844 303.804688 63.269531 310.425781 57.429688 314.707031 C 50.421875 313.539062 45.75 310.425781 43.414062 305.753906 C 48.867188 307.699219 52.367188 307.308594 55.09375 305.363281 C 55.871094 303.027344 54.703125 301.078125 51.203125 299.523438 C 49.644531 297.964844 25.898438 274.214844 25.121094 272.265625 C 20.058594 258.640625 37.964844 245.011719 46.53125 236.054688 C 52.367188 246.570312 55.09375 251.628906 55.09375 251.628906 Z M 55.09375 251.628906 " fill-opacity="1" fill-rule="evenodd"/><path fill="#ffbea2" d="M 101.808594 195.171875 C 102.195312 200.234375 99.859375 202.960938 94.410156 203.738281 C 94.019531 206.464844 94.019531 209.1875 94.410156 211.136719 C 88.960938 214.640625 83.511719 214.640625 77.671875 211.136719 C 77.28125 198.675781 76.894531 192.445312 76.894531 192.445312 C 72.222656 194.003906 70.664062 192.058594 71.054688 186.996094 C 73.777344 182.710938 75.335938 182.324219 76.113281 185.4375 C 78.449219 188.941406 80.007812 188.554688 80.785156 185.046875 C 80.398438 179.988281 80.398438 177.261719 80.398438 177.261719 C 80.785156 175.3125 82.34375 174.535156 85.066406 174.535156 C 90.519531 177.652344 95.578125 177.261719 100.640625 173.367188 C 101.027344 182.710938 101.417969 190.109375 101.808594 195.171875 Z M 101.808594 195.171875 " fill-opacity="1" fill-rule="evenodd"/><path fill="#475d6a" d="M 161.753906 164.800781 C 143.460938 164.800781 134.507812 165.191406 134.507812 165.191406 C 134.117188 173.757812 137.621094 181.933594 144.238281 187.382812 C 150.855469 192.835938 159.808594 194.78125 167.984375 192.835938 C 167.984375 192.835938 166.039062 183.492188 161.753906 164.800781 Z M 161.753906 164.800781 " fill-opacity="1" fill-rule="evenodd"/><path fill="#233036" d="M 167.984375 134.820312 C 159.808594 132.875 151.246094 134.820312 144.628906 139.882812 C 138.007812 145.332031 133.726562 153.121094 133.726562 161.296875 C 133.726562 161.296875 143.070312 161.296875 161.753906 161.296875 C 161.753906 161.296875 163.703125 152.339844 167.984375 134.820312 Z M 167.984375 134.820312 " fill-opacity="1" fill-rule="evenodd"/><path fill="#206d65" d="M 171.097656 135.988281 C 184.332031 138.714844 193.285156 150.394531 193.285156 163.632812 C 192.898438 176.484375 183.554688 187.773438 170.320312 190.109375 C 170.320312 190.109375 168.371094 181.15625 164.480469 162.855469 C 169.152344 144.945312 171.097656 135.988281 171.097656 135.988281 Z M 171.097656 135.988281 " fill-opacity="1" fill-rule="evenodd"/></svg>