<svg xmlns="http://www.w3.org/2000/svg" height="1200" width="1600" version="1.1" xmlns:xlink="http://www.w3.org/1999/xlink" xmlns:svgjs="http://svgjs.com/svgjs"><rect fill="#000000" fill-opacity="0" width="1600" height="1200"></rect><g><path d="M446.09 973.07H308.69C307.43 973.07 306.4 972.15 306.4 970.99 306.4 969.85 307.41 968.91 308.69 968.91H446.09C447.35 968.91 448.39 969.83 448.39 970.99 448.39 972.13 447.37 973.07 446.09 973.07Z" fill="#1f2320" opacity="1" stroke-width="4" stroke="none"></path></g><g><path d="M1376.95 973.01H1357.89V715.64C1357.89 687.28 1337.07 664.17 1311.52 664.17H988.65C963.11 664.17 942.29 687.28 942.29 715.64V973.01H923.22V715.64C923.22 676.75 952.58 645.11 988.65 645.11H1311.52C1347.59 645.11 1376.95 676.75 1376.95 715.64V973.01Z" fill="#ffe0e0" opacity="1" stroke-width="4" stroke="none"></path></g><g><path d="M1299.47 645.01H1258.09 1254.63L1250.54 613.93V604.96C1250.54 589.33 1263.24 576.64 1278.87 576.64 1294.5 576.64 1307.19 589.33 1307.19 604.96V613.93L1303.91 645.01H1299.47Z" fill="#3e7e4b" opacity="1" stroke-width="4" stroke="none"></path><path d="M1250.46 613.93H1307.11V644.3C1307.11 645.01 1306.57 645.54 1305.86 645.54H1251.79C1251.08 645.54 1250.54 645.01 1250.54 644.3V613.93H1250.46Z" fill="#74ce86" opacity="1" stroke-width="4" stroke="none"></path><path d="M1269.99 565.98H1287.84C1288.28 565.98 1288.64 566.34 1288.64 566.78V578.41H1269.28V566.78C1269.19 566.34 1269.55 565.98 1269.99 565.98Z" fill="#3e7e4b" opacity="1" stroke-width="4" stroke="none"></path><path d="M1278.87 565.98V555.15C1278.87 551.86 1276.21 549.11 1272.83 549.11H1262.98" stroke="#4f6e55" stroke-width="4" stroke-linecap="round" stroke-linejoin="round" opacity="1" fill="none"></path></g><g><path d="M1328.98 826.09H1397.97C1398.06 826.09 1398.06 826.18 1398.06 826.23 1397.02 827.91 1386.12 844.62 1363.41 844.62 1341.33 844.62 1330.39 828.82 1328.84 826.41 1328.71 826.27 1328.8 826.09 1328.98 826.09Z" fill="#30a5ff" opacity="1" stroke-width="4" stroke="none"></path><path d="M1328.98 826.09H1349.83C1349.92 826.09 1349.96 826.14 1350.01 826.23L1357.14 843.85C1357.18 843.99 1357.09 844.12 1356.91 844.12 1339.11 841.49 1330.12 828.5 1328.75 826.41 1328.71 826.27 1328.8 826.09 1328.98 826.09Z" fill="#0a151d" opacity="0.3" stroke-width="4" stroke="none"></path><path d="M1345.34 801.66C1348.29 795.98 1339.15 785.39 1324.93 777.99 1310.71 770.61 1296.78 769.21 1293.84 774.89 1290.89 780.57 1300.02 791.16 1314.25 798.55 1328.47 805.94 1342.39 807.33 1345.34 801.66Z" fill="#202a22" opacity="1" stroke-width="4" stroke="none"></path><path d="M1293.83 774.82C1290.88 780.49 1300.01 791.07 1314.27 798.48 1328.53 805.88 1342.42 807.29 1345.38 801.57L1293.83 774.82Z" fill="#000000" opacity="0.3" stroke-width="4" stroke="none"></path><path d="M1293.87 774.82C1308.82 778.63 1335.66 794.57 1344.88 802.11 1349.55 805.93 1353.87 809.7 1357.73 813.33" stroke="#000000" stroke-width="4" stroke-linecap="round" stroke-linejoin="round" opacity="1" fill="none"></path><path d="M1345.56 771.45C1345.56 771.45 1359.41 806.24 1364.41 853.7" stroke="#000000" stroke-width="4" stroke-linecap="round" stroke-linejoin="round" opacity="1" fill="none"></path><path d="M1347.28 748.79C1347.28 748.79 1352.55 770.09 1346.69 773.18 1340.83 776.27 1326.12 760.06 1326.12 760.06L1347.28 748.79Z" fill="#202a22" opacity="1" stroke-width="4" stroke="none"></path><path d="M1347.28 748.79L1326.12 760.1C1326.12 760.1 1332.61 767.28 1338.7 771.14 1338.97 764.51 1342.74 758.51 1348.6 755.38 1347.97 751.65 1347.28 748.79 1347.28 748.79Z" fill="#000000" opacity="0.3" stroke-width="4" stroke="none"></path><path d="M1339.34 759.43C1349.94 753.77 1355.63 743.74 1352.03 737.01 1348.45 730.28 1336.94 729.41 1326.34 735.07 1315.74 740.72 1310.06 750.76 1313.65 757.49 1317.24 764.22 1328.74 765.09 1339.34 759.43Z" fill="#ffe0e0" opacity="1" stroke-width="4" stroke="none"></path><path d="M1334.36 750.1C1336.82 748.78 1338.13 746.45 1337.29 744.88 1336.45 743.31 1333.78 743.09 1331.32 744.4 1328.87 745.71 1327.55 748.05 1328.4 749.62 1329.23 751.19 1331.9 751.4 1334.36 750.1Z" fill="#56bd6b" opacity="1" stroke-width="4" stroke="none"></path><path d="M1426.08 778.95C1427.4 768.73 1420.18 759.37 1409.96 758.06 1400.19 756.79 1391.11 763.37 1389.25 773.04 1389.16 773.54 1389.07 774.04 1389.02 774.54 1388.57 778.45 1386.16 781.81 1382.66 783.54 1373.4 788.08 1369.58 799.3 1374.17 808.56 1378.76 817.83 1389.93 821.64 1399.2 817.05 1404.83 814.28 1408.69 808.88 1409.46 802.7 1409.46 802.66 1409.46 802.66 1409.46 802.61 1409.91 798.66 1412.32 795.16 1415.86 793.35 1421.45 790.53 1425.31 785.13 1426.08 778.95Z" fill="#56bd6b" opacity="1" stroke-width="4" stroke="none"></path><path d="M1380.3 815.65C1382.57 817.23 1385.16 818.28 1387.93 818.73 1398.11 820.37 1407.69 813.42 1409.32 803.25 1409.37 803.06 1409.37 802.88 1409.41 802.66 1409.41 802.61 1409.41 802.61 1409.41 802.57 1409.87 798.61 1412.28 795.12 1415.82 793.3 1421.45 790.53 1425.26 785.13 1426.08 778.95 1418.5 782.72 1411.28 787.12 1404.46 792.16 1395.47 798.98 1387.39 806.83 1380.3 815.65Z" fill="#000000" opacity="0.3" stroke-width="4" stroke="none"></path><path d="M1419.81 762.46C1401.92 778.09 1386.43 803.93 1380.67 816.19 1369.4 840.17 1366.31 856.97 1366.31 856.97" stroke="#000000" stroke-width="4" stroke-linecap="round" stroke-linejoin="round" opacity="1" fill="none"></path><path d="M1385.12 853.66L1398.01 826.23C1398.01 826.18 1397.97 826.18 1397.97 826.18 1396.65 827.59 1385.71 838.58 1363.36 838.58 1341.02 838.58 1330.16 827.68 1328.84 826.32 1328.8 826.27 1328.75 826.36 1328.8 826.36L1341.61 853.66C1323.49 856.88 1311.36 874.19 1314.58 892.31 1314.67 892.67 1314.72 893.08 1314.81 893.44 1317.54 906.16 1320.26 918.88 1322.99 931.59 1325.89 945.22 1339.56 947.9 1339.56 947.9L1344.6 945.31 1355.37 949.58 1396.61 965.29C1396.61 965.29 1396.61 965.34 1396.61 965.29L1411.91 893.44C1415.77 875.41 1404.28 857.7 1386.25 853.89 1385.89 853.8 1385.48 853.7 1385.12 853.66Z" fill="#56bd6b" opacity="1" stroke-width="4" stroke="none"></path><path d="M1322.99 931.59L1331.71 972.47H1354.96 1371.76 1395.02L1403.74 931.59H1322.99Z" fill="#c5e6ff" opacity="1" stroke-width="4" stroke="none"></path><path d="M1385.12 853.66L1398.01 826.23C1398.01 826.18 1398.01 826.18 1397.97 826.18 1396.92 827.32 1388.34 835.95 1371.08 838.08L1363.77 853.61C1381.89 856.84 1394.02 874.14 1390.79 892.26 1390.7 892.63 1390.66 893.04 1390.57 893.4L1373.67 972.38C1373.67 972.38 1373.67 972.42 1373.72 972.42H1395.02C1395.02 972.42 1395.02 972.42 1395.06 972.42L1411.96 893.4C1415.82 875.37 1404.33 857.66 1386.3 853.84 1385.89 853.8 1385.48 853.7 1385.12 853.66Z" fill="#000000" opacity="0.3" stroke-width="4" stroke="none"></path><path d="M1341.61 853.66H1385.12" stroke="#000000" stroke-width="4" stroke-linecap="round" stroke-linejoin="round" opacity="1" fill="none"></path><path d="M1376.44 761.01C1379.53 761.01 1382.03 758.51 1382.03 755.42 1382.03 752.34 1379.53 749.84 1376.44 749.84 1373.36 749.84 1370.86 752.34 1370.86 755.42 1370.86 758.51 1373.36 761.01 1376.44 761.01Z" fill="#6abeff" opacity="1" stroke-width="4" stroke="none"></path><path d="M1354.73 715.91C1357.82 715.91 1360.32 713.41 1360.32 710.32 1360.32 707.24 1357.82 704.74 1354.73 704.74 1351.65 704.74 1349.15 707.24 1349.15 710.32 1349.15 713.41 1351.65 715.91 1354.73 715.91Z" fill="#56bd6b" opacity="1" stroke-width="4" stroke="none"></path><path d="M1383.98 741.48C1386.01 741.48 1387.66 739.83 1387.66 737.8 1387.66 735.77 1386.01 734.12 1383.98 734.12 1381.95 734.12 1380.3 735.77 1380.3 737.8 1380.3 739.83 1381.95 741.48 1383.98 741.48Z" fill="#ffe0e0" opacity="1" stroke-width="4" stroke="none"></path></g><g><path d="M647.87 207.02C649.41 208.56 644.98 547.16 649.41 546.8H927.15C927.96 546.8 928.68 546.07 928.68 545.26 928.68 545.26 928.05 211.18 928.68 207.02 928.68 206.21 927.96 205.49 927.15 205.49H649.41C648.6 205.49 647.87 206.21 647.87 207.02Z" fill="#ffe0e0" opacity="1" stroke-width="4" stroke="none"></path><path d="M788.73 316.46C808.68 316.46 824.85 300.29 824.85 280.34 824.85 260.4 808.68 244.22 788.73 244.22 768.79 244.22 752.61 260.4 752.61 280.34 752.61 300.29 768.79 316.46 788.73 316.46Z" fill="#3e7e4b" opacity="1" stroke-width="4" stroke="none"></path><path d="M783.13 277.27C787.67 277.27 791.35 273.6 791.35 269.06 791.35 264.51 787.67 260.84 783.13 260.84 778.59 260.84 774.92 264.51 774.92 269.06 774.92 273.6 778.59 277.27 783.13 277.27Z" fill="#618f6b" opacity="1" stroke-width="4" stroke="none"></path><path d="M810.49 327.84H766.16V457.23C766.16 464.27 768.87 470.95 773.65 476.1L776.09 478.72C780.33 483.23 782.68 489.1 782.68 495.33V506.89C782.68 510.05 785.21 512.58 788.37 512.58 791.53 512.58 794.06 510.05 794.06 506.89V495.33C794.06 489.19 796.41 483.23 800.65 478.72L803.09 476.1C807.87 471.04 810.58 464.27 810.58 457.23L810.49 327.84Z" fill="#3e7e4b" opacity="1" stroke-width="4" stroke="none"></path><path d="M774.92 459.3V417.5H801.73V459.3C801.73 466.71 795.77 472.67 788.37 472.67 780.88 472.76 774.92 466.71 774.92 459.3Z" fill="#284e2f" opacity="1" stroke-width="4" stroke="none"></path><path d="M748.64 315.47H828.01C835.41 315.47 841.37 321.43 841.37 328.92 841.37 336.32 835.41 342.37 828.01 342.37H748.64C741.24 342.37 735.28 336.41 735.28 328.92 735.19 321.43 741.24 315.47 748.64 315.47Z" fill="#284e2f" opacity="1" stroke-width="4" stroke="none"></path><path d="M785.75 362.87H790.81" stroke="#ffdada" stroke-width="4" stroke-linecap="round" stroke-linejoin="round" opacity="1" fill="none"></path><path d="M785.75 384.54H790.81" stroke="#ffe0e0" stroke-width="4" stroke-linecap="round" stroke-linejoin="round" opacity="1" fill="none"></path><path d="M785.75 406.21H790.81" stroke="#ffe0e0" stroke-width="4" stroke-linecap="round" stroke-linejoin="round" opacity="1" fill="none"></path><path d="M785.75 427.88H790.81" stroke="#ffe0e0" stroke-width="4" stroke-linecap="round" stroke-linejoin="round" opacity="1" fill="none"></path><path d="M785.75 449.55H790.81" stroke="#ffe0e0" stroke-width="4" stroke-linecap="round" stroke-linejoin="round" opacity="1" fill="none"></path><path d="M685.71 510.68H729.05" stroke="#3e7e4b" stroke-width="4" stroke-linecap="round" stroke-linejoin="round" opacity="1" fill="none"></path></g><g><path d="M606.01 949.63V880.68L592.52 861V825.28H476.63V860.27C476.63 860.7 476.48 861.21 476.19 861.58L463.36 880.31C463.21 880.6 463.07 880.9 463.07 881.19V950.43C463.07 950.87 462.78 951.24 462.34 951.31 453.88 952.69 447.4 960.06 447.4 968.95V972.59C447.4 972.81 447.54 972.96 447.76 972.96H562.93 621.1C621.32 972.96 621.54 972.74 621.54 972.52V968.95C621.54 959.69 614.17 952.04 607.18 951.16 606.59 951.02 606.01 950.43 606.01 949.63Z" fill="#ffe0e0" opacity="1" stroke-width="4" stroke="none"></path><path d="M606.01 950.94V880.53L592.52 860.85V825.13H558.34V860.19C558.34 860.63 558.19 861.07 557.97 861.43L545.29 880.46C545.22 880.53 545.22 880.6 545.22 880.75V951.24H555.28C559.94 954.37 563 962.75 563 968.8V972.96H621.24C621.46 972.96 621.68 972.74 621.68 972.52V968.8C621.68 959.84 613.88 951.16 606.08 951.09 606.08 951.02 606.01 950.94 606.01 950.94Z" fill="#ff2b2b" opacity="0.2" stroke-width="4" stroke="none"></path><path d="M476.99 861H592.16" stroke="#ff2b2b" stroke-width="4" stroke-linecap="round" stroke-linejoin="round" opacity="1" fill="none"></path><path d="M463.21 880.68H606.01" stroke="#ff2b2b" stroke-width="4" stroke-linecap="round" stroke-linejoin="round" opacity="1" fill="none"></path><path d="M411.83 529.48L398.71 495.95C394.84 486.11 385.51 480.06 375.6 479.77 375.45 479.7 375.31 479.7 375.23 479.7L266.19 479.77C265.61 479.77 265.17 480.28 265.31 480.79L277.12 563.16C277.2 563.74 277.71 564.18 278.36 564.18H305.19L365.98 582.19 386.17 564.18C386.82 564.25 387.41 564.25 388.06 564.25 391.27 564.25 394.4 563.67 397.39 562.5 410.51 557.4 416.93 542.61 411.83 529.48Z" fill="#56bd6b" opacity="1" stroke-width="4" stroke="none"></path><path d="M780.15 897.22L716.73 793.72C712.07 786.14 703.83 781.54 694.94 781.54H554.77C535.74 781.62 518.61 770.03 511.54 752.39L441.57 578.83C441.49 578.69 441.42 578.47 441.35 578.32 437.12 568.04 426.91 562.07 416.42 562.65L301.32 562.8C300.23 562.8 299.5 563.89 299.86 564.84L384.42 793.21H476.41C494.56 817.63 523.42 832.57 554.77 832.57H588.66L639.25 935.49C639.39 935.86 639.83 936.07 640.2 936.07H757.62C757.7 936.07 757.7 936.07 757.77 936.07 757.99 936.07 758.21 936.07 758.43 936.07 763.09 936.07 767.68 934.76 771.69 932.28 783.72 924.92 787.51 909.25 780.15 897.22Z" fill="#56bd6b" opacity="1" stroke-width="4" stroke="none"></path><path d="M278.73 564.33C268.23 564.33 258.75 557.91 254.96 548.14L241.84 514.61C236.74 501.49 243.15 486.7 256.28 481.52 269.4 476.42 284.19 482.83 289.37 495.95L302.49 529.48C307.59 542.61 301.18 557.4 288.06 562.58 285.07 563.74 281.93 564.33 278.73 564.33Z" fill="#8ccf99" opacity="1" stroke-width="4" stroke="none"></path><path d="M640.34 936.07C631.45 936.07 623.21 931.48 618.55 923.9L562.57 832.57H436.68C396.88 832.57 361.09 808.44 346.15 771.48L276.17 597.86C270.78 584.81 276.98 569.94 289.95 564.55 303.95 562.58 317.87 565.35 323.26 578.32 323.34 578.47 323.41 578.61 323.48 578.83L393.46 752.39C400.53 770.03 417.66 781.62 436.68 781.54H576.85C585.75 781.54 593.98 786.14 598.65 793.72L662.06 897.22C669.42 909.25 665.63 924.92 653.61 932.28 649.6 934.76 645.01 936.07 640.34 936.07Z" fill="#8ccf99" opacity="1" stroke-width="4" stroke="none"></path><path d="M289.95 564.55L397.39 562.58" stroke="#353535" stroke-width="4" stroke-linecap="round" stroke-linejoin="round" opacity="1" fill="none"></path><path d="M462.41 951.24L607.32 951.09" stroke="#ff2b2b" stroke-width="4" stroke-linecap="round" stroke-linejoin="round" opacity="1" fill="none"></path></g><g><path d="M252.87 975.09H172.26L163.1 888.01H262.04L252.87 975.09Z" fill="#56bd6b" opacity="1" stroke-width="4" stroke="none"></path><path d="M252.87 975.09H221.34L244.49 888.01H262.04L252.87 975.09Z" fill="#272727" opacity="0.3" stroke-width="4" stroke="none"></path><path d="M271.87 872.49H153.26V907.3H271.87V872.49Z" fill="#56bd6b" opacity="1" stroke-width="4" stroke="none"></path><path d="M279.07 847.28C297.24 841.51 308.52 825.96 304.26 812.56 300 799.16 281.82 792.98 263.66 798.76 245.48 804.53 234.21 820.08 238.46 833.47 242.72 846.88 260.91 853.05 279.07 847.28Z" fill="#30a5ff" opacity="1" stroke-width="4" stroke="none"></path><path d="M164.28 846.47C186.07 840.77 199.79 821.07 194.92 802.47 190.06 783.87 168.44 773.42 146.65 779.13 124.85 784.82 111.13 804.53 116 823.13 120.87 841.73 142.48 852.18 164.28 846.47Z" fill="#30a5ff" opacity="1" stroke-width="4" stroke="none"></path><path d="M260.3 752.09C267.64 727.66 257.43 702.99 237.48 697 217.54 691 195.42 705.94 188.08 730.38 180.74 754.81 190.95 779.47 210.89 785.47 230.83 791.47 252.95 776.52 260.3 752.09Z" fill="#30a5ff" opacity="1" stroke-width="4" stroke="none"></path><path d="M236.77 697.57C210.45 776.35 212.08 872.49 212.08 872.49" stroke="#000000" stroke-width="4" stroke-linecap="round" stroke-linejoin="round" opacity="1" fill="none"></path><path d="M303.89 812.9C236.1 822.07 213.24 847.72 213.24 847.72" stroke="#000000" stroke-width="4" stroke-linecap="round" stroke-linejoin="round" opacity="1" fill="none"></path><path d="M260.01 907.3H165.12" stroke="#272727" stroke-width="4" stroke-linecap="round" stroke-linejoin="round" opacity="1" fill="none"></path><path d="M116.04 823.51C168.31 789.18 213.24 807.79 213.24 807.79" stroke="#000000" stroke-width="4" stroke-linecap="round" stroke-linejoin="round" opacity="1" fill="none"></path></g><g><path d="M1175.11 885.75C1166.8 863.29 1146.37 834.82 1128.25 809.49 1125.38 805.43 1122.43 801.45 1119.65 797.48L1119.47 797.29 1203.31 777.05 1207.1 778.9C1210.8 784.07 1213.66 788.51 1216.62 793.22 1224.66 806.17 1231.87 819.57 1238.06 833.53 1241.11 840.46 1243.98 847.3 1246.75 854.6L1240.19 905.81 1175.11 885.75Z" fill="#f7bdb1" opacity="1" stroke-width="4" stroke="none"></path><path d="M1139.8 825.67C1135.92 820.22 1132.04 814.76 1128.25 809.4 1125.38 805.33 1124.09 803.58 1121.22 799.6L1119.56 797.2 1194.53 775.38 1194.71 775.75C1179 784.26 1164.85 795.44 1152.93 808.66 1144.24 818.37 1140.27 825.58 1140.17 825.67L1139.99 825.95 1139.8 825.67Z" fill="#945a4e" opacity="0.3" stroke-width="4" stroke="none"></path><path d="M1012.42 398.42C1009.56 399.35 1006.51 399.81 1003.46 399.72 995.14 399.72 988.11 396.85 984.69 392.05 979.06 384.37 978.96 375.41 984.14 359.14 983.58 358.4 979.61 353.32 980.35 350.08 980.81 348.23 983.58 346.84 988.48 346.2L988.95 344.63C991.53 336.86 993.94 330.02 996.8 324.38 1000.87 316.43 1012.7 318.47 1021.95 314.95 1028.05 312.55 1027.68 312.27 1034.15 312.37 1046.63 312.37 1051.53 310.05 1059.75 317.45 1072.88 329.28 1071.03 349.06 1068.72 361.17L1066.59 362.74C1065.48 369.86 1067.61 392.97 1064.74 407.21V407.39L1013.26 410.26 1011.41 404.71 1012.42 398.42Z" fill="#f7bdb1" opacity="1" stroke-width="4" stroke="none"></path><path d="M1012.42 398.42L1019.54 395.56C1019.82 395.47 1020 395.37 1020.28 395.37 1020.84 395.37 1021.39 395.65 1021.67 396.11 1021.95 396.58 1022.04 397.13 1021.76 397.68L1017.05 408.41 1011.41 404.71 1012.42 398.42Z" fill="#945a4e" opacity="0.3" stroke-width="4" stroke="none"></path><path d="M1006.51 890.84C1006.23 883.72 1005.4 877.8 1005.03 875.22 1003.27 862.83 1001.15 847.67 998.37 829.09L1016.12 677.49 1077.41 803.76C1078.98 810.79 1081.38 822.99 1082.31 829.37 1084.62 844.43 1085.82 859.59 1086.01 874.85 1086.01 880.02 1086.1 885.29 1085.91 890.65L1055.96 943.71 1006.51 890.84Z" fill="#f7bdb1" opacity="1" stroke-width="4" stroke="none"></path><path d="M1009.65 779.45L1015.66 686.46C1015.85 684.06 1019.08 683.41 1020.1 685.53L1077.32 803.58C1077.41 803.76 1077.5 803.95 1077.5 804.13 1077.87 805.8 1078.24 807.74 1078.61 809.86 1079.35 813.38 1080.09 817.35 1080.74 820.86 1080.92 821.69 1080.55 822.53 1079.9 823.08L1061.32 838.33C1060.31 839.17 1058.83 838.98 1058 838.06L1010.02 781.21C1009.74 780.65 1009.56 780.01 1009.65 779.45Z" fill="#945a4e" opacity="0.3" stroke-width="4" stroke="none"></path><path d="M966.58 958.04L966.11 957.12C967.87 954.62 969.81 952.49 972.12 950.64 973.32 949.72 974.71 948.52 976.37 947.22 982.66 942.23 991.26 935.39 997.08 929.29 1004.01 921.9 1007.25 908.58 1006.51 890.83V890.64H1023.7C1030.64 890.64 1037.01 894.43 1040.34 900.44L1054.85 926.98C1054.95 927.07 1055.04 927.07 1055.04 926.98L1058.83 906.27C1060.49 897.3 1068.35 890.74 1077.5 890.74H1085.82V890.92C1085.17 913.29 1082.86 935.3 1078.61 957.21 1078.61 957.21 1078.61 957.21 1078.61 957.3L1077.96 958.04H1077.87 966.58Z" fill="#56bd6b" opacity="1" stroke-width="4" stroke="none"></path><path d="M863.32 469.6C859.35 461.65 857.32 456.11 856.95 455.27 855.84 455 846.13 452.59 837.72 440.3 837.26 441.22 835.5 444 832.36 444 830.14 444 827.74 442.7 825.05 440.02 818.68 433.64 817.84 429.11 818.31 426.43 818.58 424.49 819.69 422.92 821.36 422 820.16 419.04 820.06 416.45 821.08 414.23 821.82 412.57 823.21 411.18 824.96 410.35 821.91 404.06 826.44 399.81 827.55 398.89 825.89 398.05 824.41 397.22 822.93 396.39 813.96 391.68 808.14 388.63 808.14 384.56 808.14 382.71 809.34 380.49 815.07 380.49 821.26 380.49 831.25 383.26 841.79 387.89 852.88 392.69 863.32 399.07 872.66 406.74 880.89 413.77 890.96 423.57 903.16 436.32L903.07 438.17 865.36 470.25 863.32 469.6Z" fill="#f7bdb1" opacity="1" stroke-width="4" stroke="none"></path><path d="M1101.35 585.24C1091.09 569.9 1080 561.95 1079.16 561.3L992.74 560.65 992.46 559.91 982.11 511.48C979.33 513.6 953.36 533.66 932.37 533.66 931.73 533.66 931.08 533.66 930.43 533.57 916.75 532.74 889.85 523.4 863.42 469.69L863.32 469.6 903.16 436.32 903.26 436.42C917.58 451.48 929.79 465.44 931.27 467.11 965.65 422 993.75 415.25 1007.43 415.25 1007.8 415.25 1008.17 415.25 1008.45 415.25H1009C1009.1 415.25 1009.19 415.25 1009.28 415.25L1011.41 404.71H1066.22C1066.22 404.71 1065.02 410.72 1064.74 412.01 1066.78 412.29 1083.79 415.25 1095.53 428.19 1100.7 433.74 1118.73 441.04 1125.85 459.34 1130.19 470.25 1123.63 488.83 1126.49 499 1128.8 507.22 1130.56 514.99 1131.58 521.74 1136.11 550.58 1119.84 575.44 1101.53 585.15L1101.35 585.24Z" fill="#56bd6b" opacity="1" stroke-width="4" stroke="none"></path><path d="M1079.16 561.3L1079.26 559.91 1088.41 507.41C1095.9 510.09 1097.28 519.52 1098.76 529.59 1099.96 537.45 1101.16 545.49 1105.14 551.87 1112.44 563.61 1121.04 567.31 1121.04 567.31 1115.68 574.98 1108.84 581.27 1101.63 585.06 1101.63 585.06 1079.35 561.39 1079.16 561.3Z" fill="#000000" opacity="0.3" stroke-width="4" stroke="none"></path><path d="M1129.08 499.18C1127.69 499.18 1126.59 499 1126.59 499 1126.59 499 1124.55 492.43 1124 490.86 1118.45 475.7 1116.69 469.51 1106.99 448.25 1099.78 451.76 1089.15 453.42 1081.11 453.33 1070.29 453.24 1059.57 451.21 1050.51 445.38 1042.84 440.58 1033.13 430.69 1030.64 410.35 1029.71 402.86 1029.9 395.28 1031 387.89L1031.1 387.79C1031.1 387.79 1055.87 376.61 1050.42 360.25 1049.03 356 1045.33 353.78 1039.6 353.78 1031.19 353.78 1020.93 358.49 1020.93 358.49 1020.84 358.4 1010.58 346.1 1018.25 333.63 1018.43 333.35 1018.16 332.98 1017.88 333.07 1015.48 333.63 1013.16 334 1010.67 334 998.93 334 996.8 324.47 996.8 324.47V324.38C1001.24 315.69 1006.79 310.52 1015.2 307.37 1021.3 304.97 1027.77 303.77 1034.24 303.86 1046.72 303.86 1058.64 308.02 1066.96 315.42 1079.44 326.69 1077.04 347.58 1074.27 362.1L1074.17 362.37C1078.79 361.73 1083.42 361.36 1088.04 361.36 1104.12 361.36 1132.78 365.42 1144.15 392.51 1149.97 406.56 1151.64 427.45 1138.69 444.27 1140.91 445.01 1157.27 450.93 1159.86 463.78 1161.71 472 1159.59 480.6 1154.22 487.07 1148.12 494.28 1138.05 499.18 1129.08 499.18Z" fill="#53283d" opacity="1" stroke-width="4" stroke="none"></path><path d="M998.37 829.09C997.17 820.96 995.97 812.91 994.77 805.15 992.18 787.59 989.78 771.32 988.58 762.63 976 671.39 987.1 580.99 992.46 560.1V559.91H1079.26 1079.35C1111.52 587.27 1122.8 620.46 1139.25 667.05 1147.38 689.97 1154.87 704.3 1168.64 727.69 1174.65 737.85 1181.68 746.36 1188.52 754.59 1192.22 759.02 1195.64 763.18 1198.78 767.43 1201.92 771.59 1204.69 775.29 1207.19 778.9L1058.74 814.67C1058.64 814.67 1058.64 814.67 1058.64 814.58L1021.48 707.53C1021.48 707.44 1021.3 707.44 1021.3 707.53L1021.76 823.45C1021.76 823.54 1021.76 823.54 1021.67 823.54L998.37 829.09Z" fill="#30a5ff" opacity="1" stroke-width="4" stroke="none"></path><path d="M1021.11 707.53L1009.74 559.91" stroke="#192732" stroke-width="4" stroke-linecap="round" stroke-linejoin="round" opacity="1" fill="none"></path><path d="M961.31 972.55V972.37C961.21 966.91 962.88 961.64 966.02 957.21L966.11 957.12H1078.7V957.3C1077.78 962.38 1076.48 967.47 1075.01 972.37L961.31 972.55Z" fill="#191919" opacity="1" stroke-width="4" stroke="none"></path><path d="M1162.08 972.46C1159.86 967.47 1159.22 961.83 1160.42 956.38L1160.97 955.82 1263.02 911.44 1263.76 911.81C1264.87 916.9 1265.8 922.17 1266.44 927.44V927.54L1162.08 972.46Z" fill="#191919" opacity="1" stroke-width="4" stroke="none"></path><path d="M1160.79 956.19C1160.6 956.28 1160.42 956.1 1160.51 955.91 1161.16 953.23 1162.08 950.55 1163.38 948.06 1163.93 946.95 1164.67 945.56 1165.41 944.08 1169.01 937.15 1174.56 926.7 1177.8 918.48 1181.03 910.06 1180.2 899.43 1175.21 885.85 1175.21 885.75 1175.21 885.66 1175.3 885.57L1191.75 878.27C1197.85 875.59 1204.97 876.42 1210.43 880.3L1232.89 896.38C1233.07 896.48 1233.26 896.38 1233.26 896.2L1230.11 877.71C1228.64 869.02 1233.26 860.43 1241.39 856.91L1246.85 854.51 1246.94 854.69C1253.96 873.18 1259.6 892.22 1263.85 911.54 1263.85 911.64 1263.85 911.73 1263.76 911.82L1160.79 956.19Z" fill="#56bd6b" opacity="1" stroke-width="4" stroke="none"></path><path d="M1004.66 913.95L1021.85 917.55" stroke="#101010" stroke-width="4" stroke-linecap="round" stroke-linejoin="round" opacity="1" fill="none"></path><path d="M999.76 925.87L1014.46 936.5" stroke="#101010" stroke-width="4" stroke-linecap="round" stroke-linejoin="round" opacity="1" fill="none"></path><path d="M1055.13 926.89L1050.69 957.12" stroke="#101010" stroke-width="4" stroke-linecap="round" stroke-linejoin="round" opacity="1" fill="none"></path><path d="M1233.17 896.11L1239.54 922.45" stroke="#101010" stroke-width="4" stroke-linecap="round" stroke-linejoin="round" opacity="1" fill="none"></path><path d="M1179.74 907.01L1193.79 908.31" stroke="#101010" stroke-width="4" stroke-linecap="round" stroke-linejoin="round" opacity="1" fill="none"></path><path d="M1177.8 918.57L1192.12 924.02" stroke="#101010" stroke-width="4" stroke-linecap="round" stroke-linejoin="round" opacity="1" fill="none"></path><path d="M1088.41 507.41L1079.26 559.91H992.46" stroke="#000000" stroke-width="4" stroke-linecap="round" stroke-linejoin="round" opacity="1" fill="none"></path><path d="M1100.43 536.71L1083.69 533.75" stroke="#000000" stroke-width="4" stroke-linecap="round" stroke-linejoin="round" opacity="1" fill="none"></path><path d="M931.27 467.11L922.02 479.4" stroke="#000000" stroke-width="4" stroke-linecap="round" stroke-linejoin="round" opacity="1" fill="none"></path><path d="M982.11 511.48L1001.52 493.27" stroke="#000000" stroke-width="4" stroke-linecap="round" stroke-linejoin="round" opacity="1" fill="none"></path><path d="M827.55 398.88C835.13 399.43 842.99 401.37 849.92 404.52" stroke="#945a4e" stroke-width="4" stroke-linecap="round" stroke-linejoin="round" opacity="1" fill="none"></path><path d="M824.96 410.35C833.93 410.9 845.3 414.69 845.3 414.69" stroke="#945a4e" stroke-width="4" stroke-linecap="round" stroke-linejoin="round" opacity="1" fill="none"></path><path d="M821.36 422C826.44 421.07 838 424.21 839.75 425.79" stroke="#945a4e" stroke-width="4" stroke-linecap="round" stroke-linejoin="round" opacity="1" fill="none"></path><path d="M1012.42 398.42C1017.05 396.48 1019.54 395.56 1019.54 395.56" stroke="#945a4e" stroke-width="4" stroke-linecap="round" stroke-linejoin="round" opacity="1" fill="none"></path><path d="M1032.95 368.47L1026.48 372.17" stroke="#945a4e" stroke-width="4" stroke-linecap="round" stroke-linejoin="round" opacity="1" fill="none"></path><path d="M1106.99 448.25C1116.23 444.55 1117.06 440.58 1117.06 440.58" stroke="#432634" stroke-width="4" stroke-linecap="round" stroke-linejoin="round" opacity="1" fill="none"></path><path d="M1138.69 444.27C1136.48 446.95 1133.61 449.45 1130.93 451.67" stroke="#432634" stroke-width="4" stroke-linecap="round" stroke-linejoin="round" opacity="1" fill="none"></path><path d="M1074.17 362.36L1070.85 376.78" stroke="#432634" stroke-width="4" stroke-linecap="round" stroke-linejoin="round" opacity="1" fill="none"></path><path d="M997.82 363.85C995.05 367.55 989.5 367.55 989.5 367.55" stroke="#945a4e" stroke-width="4" stroke-linecap="round" stroke-linejoin="round" opacity="1" fill="none"></path><path d="M998.28 351.84C999.56 351.84 1000.59 350.8 1000.59 349.53 1000.59 348.25 999.56 347.21 998.28 347.21 997.01 347.21 995.97 348.25 995.97 349.53 995.97 350.8 997.01 351.84 998.28 351.84Z" fill="#231f20" opacity="1" stroke-width="4" stroke="none"></path><path d="M982.11 511.48L994.03 500.29C994.77 499.74 997.27 499.46 998.19 499.46 999.48 499.46 1000.59 500.84 1001.42 501.86 1002.26 502.79 1002.53 504.08 1002.26 505.37 999.39 519.61 988.85 540.13 988.76 540.41L988.39 541.15 982.11 511.48Z" fill="#000000" opacity="0.3" stroke-width="4" stroke="none"></path></g><g><path d="M781.54 910.24C780.35 909.12 778.93 908.08 777.67 907.26H777.59L728.14 927.29 673.91 958.95C673.91 958.95 673.84 959.02 673.91 959.02 676.22 963.72 678.75 968.56 681.36 973.47 681.36 973.47 681.44 973.55 681.44 973.47L788.54 920.07C788.54 920.07 788.62 920 788.54 920 786.53 915.75 784.15 912.62 781.54 910.24Z" fill="#152e42" opacity="1" stroke-width="4" stroke="none"></path><path d="M647.24 881.41L721.2 843.2C721.28 843.2 721.28 843.2 721.28 843.28 721.95 845.59 722.77 848.79 723.51 852.29 725.3 860.41 727.16 870.02 728.05 871.88 727.98 872.77 723.66 918.95 723.51 920.89 723.51 920.96 723.51 920.96 723.44 920.96H663.93L656.1 917.46C656.1 917.46 656.1 917.46 656.03 917.39 652.6 908 649.62 898.4 647.09 889.31L647.24 881.41C647.17 881.41 647.17 881.41 647.24 881.41Z" fill="#faa378" opacity="1" stroke-width="4" stroke="none"></path><path d="M533.14 915.83L530.91 910.92C530.91 910.92 530.91 910.92 530.91 910.84 532.02 901.23 533.44 891.92 535.15 882.99L539.25 870.7 539.32 870.62 621.63 871.89C621.7 871.89 621.7 871.96 621.7 871.96L619.76 882.99C617.6 890.14 616.19 896.69 615.59 901.68L593.84 944.28C593.84 944.28 593.77 944.36 593.77 944.28L533.14 915.83Z" fill="#faa378" opacity="1" stroke-width="4" stroke="none"></path><path d="M472.58 698.86L478.24 672.64 478.32 672.57 572.61 677.63 578.27 680.61C579.24 680.68 654.54 686.94 683.14 716.14 710.55 741.83 713.31 807.08 723.59 852.22V852.29C721.5 853.33 649.92 887.97 647.24 889.31 647.17 889.31 647.17 889.31 647.17 889.23 645.16 881.64 643.44 874.64 641.95 868.08 633.61 831.44 632.72 809.31 632.79 781.91 632.79 781.83 632.79 781.83 632.72 781.83L540.06 782.13C496.12 782.28 463.34 741.76 472.58 698.86Z" fill="#3e7e4b" opacity="1" stroke-width="4" stroke="none"></path><path d="M632.8 781.83L648.89 741.24C648.89 741.16 648.96 741.16 649.04 741.24 675.03 762.17 669.89 807.23 641.96 867.93 641.96 868.01 641.81 868.01 641.81 867.93 633.54 831.36 632.65 809.09 632.8 781.83Z" fill="#000000" opacity="0.2" stroke-width="4" stroke="none"></path><path d="M434.45 714.28C440.11 689.55 449.13 673.76 449.65 672.87H449.72L502.08 676.22C502.08 676.22 610.83 688.36 644.27 727.99 671.46 760.24 633.25 838.74 619.84 882.84L619.76 882.91 535.23 882.91C535.15 882.91 535.15 882.84 535.15 882.84 542.45 844.78 554.67 811.33 569.19 782.51 569.19 782.43 569.19 782.43 569.12 782.43L514.07 782.43H500.22C450.54 782.51 429.31 753.61 433.26 721.28 433.48 718.9 433.93 716.59 434.45 714.28Z" fill="#3e7e4b" opacity="1" stroke-width="4" stroke="none"></path><path d="M583.04 756.51L569.12 782.35C569.12 782.35 535.52 782.35 520.55 782.35 517.43 782.35 515.12 782.35 514.07 782.35 544.09 782.35 572.17 753.3 582.97 756.43 583.04 756.43 583.12 756.51 583.04 756.51Z" fill="#000000" opacity="0.2" stroke-width="4" stroke="none"></path><path d="M600.4 699.97C618.42 707.2 634.51 716.44 644.27 727.98 663.41 750.62 650.15 796.21 636 836.58" stroke="#000000" stroke-width="4" stroke-linecap="round" stroke-linejoin="round" opacity="1" fill="none"></path><path d="M619.76 882.98H535.9" stroke="#000000" stroke-width="4" stroke-linecap="round" stroke-linejoin="round" opacity="1" fill="none"></path><path d="M723.29 852.37L647.92 889.02" stroke="#000000" stroke-width="4" stroke-linecap="round" stroke-linejoin="round" opacity="1" fill="none"></path><path d="M643.6 956.94C643.67 956.94 643.67 956.86 643.67 956.79 634.88 942.19 615.44 938.39 615.3 908.82 615.22 906.44 615.37 903.83 615.67 901.38 615.67 901.3 615.67 901.3 615.59 901.3H596.08C589.15 901.3 583.79 907.48 584.91 914.41L587.96 933.4C587.96 933.48 587.89 933.55 587.81 933.48 585.8 931.61 564.72 912.32 530.91 910.83 530.83 910.83 530.83 910.83 530.83 910.91 529.79 919.62 529.12 928.86 528.6 937.8 528.3 943.98 528.08 950.38 528 956.86 528 956.94 528 956.94 528.08 956.94 530.16 957.16 585.5 962.45 585.88 962.53 586.25 962.53 640.62 957.16 643.6 956.94Z" fill="#30a5ff" opacity="1" stroke-width="4" stroke="none"></path><path d="M643.67 956.94L528 957.01C527.93 957.01 527.93 957.01 527.93 957.09 527.85 962.38 527.93 967.96 528 973.47 528 973.55 528 973.55 528.08 973.55H647.84C647.92 973.55 647.92 973.55 647.92 973.47 647.77 966.92 646.8 962 643.67 956.94 643.75 956.94 643.75 956.94 643.67 956.94Z" fill="#152e42" opacity="1" stroke-width="4" stroke="none"></path><path d="M617.08 925.06L604.71 930.2" stroke="#152e42" stroke-width="4" stroke-linecap="round" stroke-linejoin="round" opacity="1" fill="none"></path><path d="M623.19 936.39L612.84 943.32" stroke="#152e42" stroke-width="4" stroke-linecap="round" stroke-linejoin="round" opacity="1" fill="none"></path><path d="M588.03 933.63L592.72 957.01" stroke="#152e42" stroke-width="4" stroke-linecap="round" stroke-linejoin="round" opacity="1" fill="none"></path><path d="M777.52 907.26C777.59 907.26 777.59 907.18 777.52 907.11 763.07 898.02 743.7 903.16 730.45 876.72 729.7 875.23 728.96 873.59 728.14 871.88 728.14 871.81 728.06 871.81 728.06 871.81L714.21 878.51C707.06 881.94 704.67 891.02 709.22 897.58L719.05 911.8C719.12 911.88 719.05 911.95 718.98 911.95 716.29 911.13 687.99 902.94 656.19 917.39L656.11 917.46C659.09 925.51 662.22 933.4 665.72 941.45 668.18 947.11 671.01 953.07 673.84 958.88 673.84 958.88 673.91 958.95 673.91 958.88 677.56 957.24 774.02 909.49 777.52 907.26Z" fill="#30a5ff" opacity="1" stroke-width="4" stroke="none"></path><path d="M740.87 891.85L732.08 901.46" stroke="#152e42" stroke-width="4" stroke-linecap="round" stroke-linejoin="round" opacity="1" fill="none"></path><path d="M750.85 898.03L745.86 908.53" stroke="#152e42" stroke-width="4" stroke-linecap="round" stroke-linejoin="round" opacity="1" fill="none"></path><path d="M719.27 911.96L733.49 929.46" stroke="#152e42" stroke-width="4" stroke-linecap="round" stroke-linejoin="round" opacity="1" fill="none"></path><path d="M569.18 782.43C569.18 782.43 579.69 762.77 583.04 756.51" stroke="#000000" stroke-width="4" stroke-linecap="round" stroke-linejoin="round" opacity="1" fill="none"></path><path d="M616.19 576.11C621.03 582.22 624.38 586.31 624.9 586.98 624.9 587.06 624.98 586.98 625.05 586.98 626.1 584.15 645.46 531.5 655.14 511.98 665.12 491.87 669.89 480.33 675.78 483.6 680.54 486.28 677.41 506.25 677.04 508.7 677.04 508.78 677.12 508.85 677.19 508.78 678.38 507.51 685.31 500.21 691.19 497.23 698.57 493.21 706.16 497.16 705.57 504.09 705.57 504.16 705.57 504.16 705.64 504.16 706.09 504.01 708.18 503.42 710.48 503.79 712.94 504.01 715.77 506.25 716.44 510.49 716.44 510.49 716.44 510.57 716.52 510.57 717.19 510.57 724.41 513.02 723.07 520.1 723 520.4 723.22 520.62 723.44 520.7 734.77 522.71 723.59 546.09 717.34 545.5 716.29 545.5 715.33 545.27 714.43 544.75 713.98 544.68 713.31 543.41 713.02 543.93 708.4 552.5 698.42 559.35 691.64 560.47 691.64 560.47 691.57 560.47 691.57 560.54 691.27 563.6 681.66 665.04 629.6 664.15 615.67 664.15 603.6 659.01 594.51 653.2 588.56 649.25 583.86 645.23 580.81 641.95V641.88C581.41 640.31 593.77 600.99 593.99 600.24L616.04 576.11C616.11 576.04 616.11 576.04 616.19 576.11Z" fill="#faa378" opacity="1" stroke-width="4" stroke="none"></path><path d="M567.7 502C559.28 509.82 543.72 506.1 542.38 505.8 542.3 505.8 542.3 505.8 542.3 505.87V513.92 515.63L542.23 553.99C542.23 554.06 542.15 554.06 542.15 554.06L487.41 545.57C487.41 545.57 487.33 545.57 487.33 545.5L485.47 519.13 485.4 493.51 489.79 462C489.79 443.98 485.92 425.73 505.36 417.39 527.11 407.93 550.5 413.22 559.14 424.46 564.05 431.02 571.35 435.26 571.95 443.98 572.32 450.31 572.17 457.46 572.54 462.3 573.51 473.7 579.17 491.65 567.7 502Z" fill="#faa378" opacity="1" stroke-width="4" stroke="none"></path><path d="M542.3 505.81V513.7C542.3 513.78 542.23 513.78 542.15 513.78L526.21 499.33C526.14 499.25 526.21 499.18 526.29 499.18 534.26 503.65 541.56 505.58 542.3 505.81 542.3 505.81 542.23 505.73 542.3 505.81Z" fill="#171717" opacity="0.2" stroke-width="4" stroke="none"></path><path d="M571.95 443.9C571.95 443.9 566.88 444.95 560.77 439.96 560.63 439.88 560.48 439.88 560.4 440.03 559.58 441.97 554.52 451.95 540.37 446.44 540.29 446.44 540.29 446.44 540.29 446.51 540.52 458.06 528.15 462.67 527.33 462.97H527.26C526.59 462 512.81 442.41 501.71 451.65 489.12 462.08 504.61 482.78 505.43 483.75V483.83C500.37 489.34 493.14 492.84 485.62 493.36 485.55 493.36 485.55 493.36 485.55 493.29L485.47 461.93C485.47 443.9 486.14 419.25 505.58 410.91 527.33 401.45 556.6 409.05 565.17 420.37 569.71 426.77 571.35 434.82 571.95 443.9Z" fill="#0c5f57" opacity="1" stroke-width="4" stroke="none"></path><path d="M516.68 470.79L510.13 464.24" stroke="#000000" stroke-width="4" stroke-linecap="round" opacity="1" fill="none"></path><path d="M526.36 499.18C526.36 499.18 537.46 504.76 542.3 505.81" stroke="#000000" stroke-width="4" stroke-linecap="round" opacity="1" fill="none"></path><path d="M557.2 486.28C554.07 486.88 551.69 485.17 550.94 482.71" stroke="#000000" stroke-width="4" stroke-linecap="round" opacity="1" fill="none"></path><path d="M558.54 476.54C559.36 476.24 559.96 475.64 560.33 474.9 560.7 473.7 559.96 471.62 559.43 470.28" stroke="#000000" stroke-width="4" stroke-linecap="round" opacity="1" fill="none"></path><path d="M566.29 461.94C563.16 462.01 563.16 466.63 566.29 466.7 569.41 466.63 569.41 462.01 566.29 461.94Z" fill="#000000" opacity="1" stroke-width="4" stroke="none"></path><path d="M546.7 462.9C543.57 462.97 543.57 467.59 546.7 467.66 549.83 467.59 549.83 462.97 546.7 462.9Z" fill="#000000" opacity="1" stroke-width="4" stroke="none"></path><path d="M402.65 591.6C419.03 562.78 439.82 540.51 450.69 532.61 461.12 524.87 472.74 518.91 485.4 515.56H485.47C486.14 516.67 498.73 537.83 519.66 537.83 541.26 537.83 542.23 516.97 542.3 515.56 542.3 515.48 542.38 515.48 542.38 515.48 572.17 519.35 595.26 550.19 616.11 575.89V575.96L600.32 605.38 580.81 641.66C580.81 641.73 580.74 641.73 580.66 641.66 577.91 638.82 575.52 635.99 573.36 632.87 573.29 632.79 573.21 632.87 573.21 632.94L578.43 680.91C578.43 680.98 578.43 680.98 578.35 680.98L445.62 680.98C445.55 680.98 445.55 680.98 445.55 680.91L447.86 614.32 402.65 591.6C402.65 591.68 402.65 591.68 402.65 591.6Z" fill="#30a5ff" opacity="1" stroke-width="4" stroke="none"></path><path d="M722.84 520.55C721.57 527.26 717.33 540.66 709.21 538.5 709.21 538.5 705.19 537.31 704.29 532.25" stroke="#000000" stroke-width="4" stroke-linecap="round" stroke-linejoin="round" opacity="1" fill="none"></path><path d="M716.51 510.5C715.09 518.02 709.73 531.5 704.29 532.17 698.86 532.84 697.74 524.5 697.74 524.5" stroke="#000000" stroke-width="4" stroke-linecap="round" stroke-linejoin="round" opacity="1" fill="none"></path><path d="M705.56 504.17C705.04 509.75 700.72 525.62 695.06 525.4 689.4 525.17 689.62 516.98 691.33 509.61" stroke="#000000" stroke-width="4" stroke-linecap="round" stroke-linejoin="round" opacity="1" fill="none"></path><path d="M713.31 543.72C711.97 540.96 713.31 538.28 713.31 538.28" stroke="#000000" stroke-width="4" stroke-linecap="round" stroke-linejoin="round" opacity="1" fill="none"></path><path d="M434.45 714.28C440.11 689.55 449.13 673.76 449.65 672.87H449.72L502.08 676.22C502.23 676.22 572.39 684.86 530.24 690.97L433.41 721.21C433.34 721.21 433.34 721.21 433.34 721.14 433.48 718.83 433.93 716.67 434.45 714.28Z" fill="#000000" opacity="0.2" stroke-width="4" stroke="none"></path><path d="M619.24 579.91C622.52 584.01 624.68 586.69 624.98 587.06V587.13L620.43 598.75C620.43 598.83 620.29 598.83 620.29 598.75L619.09 580.06C619.09 579.91 619.17 579.91 619.24 579.91Z" fill="#171717" opacity="0.2" stroke-width="4" stroke="none"></path><path d="M594.29 652.98C585.28 646.88 578.58 640.47 573.21 632.8 573.14 631.83 570.31 605.46 569.71 598.69 569.71 598.54 569.94 598.46 570.01 598.61 572.92 605.09 592.88 649.33 594.51 652.91 594.44 652.98 594.37 653.06 594.29 652.98Z" fill="#000000" opacity="0.2" stroke-width="4" stroke="none"></path><path d="M620.21 598.31L624.98 587.13" stroke="#000000" stroke-width="4" stroke-linecap="round" opacity="1" fill="none"></path><path d="M573.13 632.79L569.56 597.78" stroke="#000000" stroke-width="4" stroke-linecap="round" opacity="1" fill="none"></path><path d="M464.54 622.74C467.07 617.31 469.97 611.05 472.65 604.64 472.73 604.42 473.1 604.5 473.1 604.72L474.81 681.06 474.74 681.14H445.54L445.47 681.06 455.3 618.2 464.46 622.82C464.54 622.74 464.54 622.74 464.54 622.74Z" fill="#000000" opacity="0.2" stroke-width="4" stroke="none"></path><path d="M538.13 667.87C538.06 667.87 537.98 667.95 538.06 668.02 542.6 669.96 562.64 677.78 566.73 681.13 574.55 687.39 560.7 689.85 559.66 690.07 559.58 690.07 559.58 690.14 559.58 690.14 560.33 697.74 549.01 697.29 547.96 697.22 547.89 697.22 547.89 697.22 547.89 697.29 547.96 697.96 547.89 702.58 537.16 702.58 525.54 702.58 486.81 691.11 486.22 690.89 409.43 696.47 337.7 706.45 402.57 591.75 402.57 591.75 402.65 591.68 402.65 591.75 403.69 592.27 418.96 599.57 434.15 606.8 449.13 613.95 463.43 622.29 464.47 622.89 464.47 622.89 464.54 622.96 464.47 622.96 459.85 632.79 456.35 639.12 455.9 639.94 455.9 640.02 455.9 640.02 455.98 640.02 458.44 640.31 502.01 646.12 525.62 651.71 580.44 662.81 585.13 679.86 538.13 667.87Z" fill="#faa378" opacity="1" stroke-width="4" stroke="none"></path><path d="M455.98 639.95L473.85 642.48" stroke="#000000" stroke-width="4" stroke-linecap="round" opacity="1" fill="none"></path><path d="M473.03 603.67L464.54 622.74" stroke="#000000" stroke-width="4" stroke-linecap="round" opacity="1" fill="none"></path><path d="M519.51 687.39L547.89 697.3" stroke="#000000" stroke-width="4" stroke-linecap="round" opacity="1" fill="none"></path><path d="M524.35 676.97L559.58 690.15" stroke="#000000" stroke-width="4" stroke-linecap="round" opacity="1" fill="none"></path><path d="M529.04 664.74L538.06 668.02" stroke="#000000" stroke-width="4" stroke-linecap="round" opacity="1" fill="none"></path><path d="M677.11 508.78L675.77 513.92C675.77 513.92 684.26 524.35 685.82 536.93" stroke="#000000" stroke-width="4" stroke-linecap="round" stroke-linejoin="round" opacity="1" fill="none"></path><path d="M435.64 710.71H457.02C458.66 710.71 459.93 712.2 459.63 713.84L456.2 733.95C454.64 743.18 448.9 750.03 439.44 750.03H437.88" stroke="#000000" stroke-width="4" stroke-linecap="round" opacity="1" fill="none"></path></g></svg>