<svg xmlns="http://www.w3.org/2000/svg" height="1200" width="1600" version="1.1" xmlns:xlink="http://www.w3.org/1999/xlink" xmlns:svgjs="http://svgjs.com/svgjs"><rect fill="#000000" fill-opacity="0" width="1600" height="1200"></rect><g><path d="M461.21 168.76H908.51C915.77 168.76 922.73 171.65 927.86 176.78 933 181.91 935.88 188.87 935.88 196.13V548.39C935.88 555.65 933 562.61 927.86 567.75 922.73 572.88 915.77 575.76 908.51 575.76H461.21C453.95 575.76 446.99 572.88 441.86 567.75 436.72 562.61 433.84 555.65 433.84 548.39V196.13C433.84 188.87 436.72 181.91 441.86 176.78 446.99 171.65 453.95 168.76 461.21 168.76V168.76Z" fill="#ffffff" opacity="1" stroke-width="4" stroke="none"></path><path d="M542.54 243.58H478.82C470.56 243.58 463.87 250.27 463.87 258.52V418.87C463.87 427.12 470.56 433.81 478.82 433.81H542.54C550.8 433.81 557.49 427.12 557.49 418.87V258.52C557.49 250.27 550.8 243.58 542.54 243.58Z" fill="#57b46a" opacity="1" stroke-width="4" stroke="none"></path><path d="M492.52 280.96C490.26 280.96 488.08 280.06 486.48 278.45 484.88 276.85 483.98 274.68 483.98 272.41 483.98 270.14 484.88 267.97 486.48 266.37 488.08 264.76 490.26 263.86 492.52 263.86H529.08C531.35 263.86 533.52 264.76 535.12 266.37 536.73 267.97 537.63 270.14 537.63 272.41 537.63 274.68 536.73 276.85 535.12 278.45 533.52 280.06 531.35 280.96 529.08 280.96H492.52Z" fill="#ffffff" opacity="1" stroke-width="4" stroke="none"></path><path d="M494.41 282.91C492.35 282.91 490.33 282.29 488.62 281.15 486.9 280 485.56 278.37 484.77 276.46 483.98 274.56 483.78 272.46 484.18 270.43 484.58 268.41 485.58 266.55 487.03 265.09 488.49 263.63 490.35 262.64 492.38 262.24 494.4 261.83 496.5 262.04 498.41 262.83 500.31 263.62 501.94 264.96 503.09 266.67 504.24 268.39 504.85 270.41 504.85 272.47 504.86 273.83 504.61 275.18 504.1 276.44 503.59 277.69 502.83 278.84 501.87 279.8 500.89 280.79 499.73 281.57 498.45 282.11 497.17 282.64 495.8 282.91 494.41 282.91V282.91Z" fill="#ffffff" opacity="1" stroke-width="4" stroke="none"></path><path d="M492.52 347.06C491.4 347.06 490.29 346.84 489.25 346.41 488.22 345.98 487.27 345.35 486.48 344.55 485.69 343.76 485.06 342.82 484.63 341.78 484.2 340.75 483.98 339.63 483.98 338.51 483.98 337.39 484.2 336.28 484.63 335.24 485.06 334.2 485.69 333.26 486.48 332.47 487.27 331.67 488.22 331.05 489.25 330.62 490.29 330.19 491.4 329.97 492.52 329.97H529.08C530.2 329.97 531.31 330.19 532.35 330.62 533.39 331.05 534.33 331.67 535.12 332.47 535.92 333.26 536.54 334.2 536.97 335.24 537.4 336.28 537.63 337.39 537.63 338.51 537.63 339.63 537.4 340.75 536.97 341.78 536.54 342.82 535.92 343.76 535.12 344.55 534.33 345.35 533.39 345.98 532.35 346.41 531.31 346.84 530.2 347.06 529.08 347.06H492.52Z" fill="#ffffff" opacity="1" stroke-width="4" stroke="none"></path><path d="M527.19 348.95C524.42 348.94 521.77 347.84 519.81 345.89 517.86 343.93 516.76 341.28 516.76 338.51 516.74 337.15 516.99 335.8 517.51 334.55 518.02 333.29 518.78 332.14 519.74 331.18 520.94 329.96 522.43 329.05 524.08 328.53 525.72 328.02 527.46 327.92 529.15 328.25 530.84 328.57 532.43 329.31 533.76 330.39 535.1 331.48 536.15 332.88 536.81 334.46 537.48 336.05 537.74 337.78 537.58 339.49 537.42 341.2 536.83 342.85 535.88 344.28 534.93 345.72 533.64 346.89 532.12 347.71 530.6 348.52 528.91 348.95 527.19 348.95H527.19Z" fill="#30ff5a" opacity="1" stroke-width="4" stroke="none"></path><path d="M492.52 413.16C490.26 413.16 488.08 412.26 486.48 410.66 484.88 409.05 483.98 406.88 483.98 404.61 483.98 402.35 484.88 400.17 486.48 398.57 488.08 396.97 490.26 396.07 492.52 396.07H529.08C531.34 396.07 533.52 396.97 535.12 398.57 536.72 400.18 537.62 402.35 537.62 404.61 537.62 406.88 536.72 409.05 535.12 410.65 533.52 412.26 531.34 413.16 529.08 413.16H492.52Z" fill="#ffffff" opacity="1" stroke-width="4" stroke="none"></path><path d="M527.19 415.05C524.42 415.05 521.77 413.95 519.81 411.99 517.86 410.03 516.76 407.38 516.76 404.61 516.74 403.26 516.99 401.91 517.51 400.65 518.02 399.39 518.78 398.25 519.74 397.28 520.94 396.06 522.43 395.15 524.08 394.64 525.72 394.12 527.46 394.03 529.15 394.35 530.84 394.68 532.43 395.41 533.76 396.5 535.1 397.58 536.15 398.98 536.81 400.57 537.48 402.15 537.74 403.88 537.58 405.59 537.42 407.31 536.83 408.95 535.88 410.38 534.93 411.82 533.64 412.99 532.12 413.81 530.6 414.62 528.91 415.05 527.19 415.05H527.19Z" fill="#30ff5a" opacity="1" stroke-width="4" stroke="none"></path><path d="M492.52 314.04C490.26 314.04 488.08 313.14 486.48 311.53 484.88 309.93 483.98 307.76 483.98 305.49 483.98 303.22 484.88 301.05 486.48 299.45 488.08 297.85 490.26 296.94 492.52 296.94H529.08C531.35 296.94 533.52 297.85 535.12 299.45 536.73 301.05 537.63 303.22 537.63 305.49 537.63 307.76 536.73 309.93 535.12 311.53 533.52 313.14 531.35 314.04 529.08 314.04H492.52Z" fill="#ffffff" opacity="1" stroke-width="4" stroke="none"></path><path d="M494.41 315.87C500.18 315.87 504.85 311.19 504.85 305.43 504.85 299.67 500.18 294.99 494.41 294.99 488.65 294.99 483.98 299.67 483.98 305.43 483.98 311.19 488.65 315.87 494.41 315.87Z" fill="#ffffff" opacity="1" stroke-width="4" stroke="none"></path><path d="M492.52 380.14C490.26 380.14 488.08 379.24 486.48 377.64 484.88 376.03 483.98 373.86 483.98 371.59 483.98 369.33 484.88 367.15 486.48 365.55 488.08 363.95 490.26 363.05 492.52 363.05H529.08C531.35 363.05 533.52 363.95 535.12 365.55 536.73 367.15 537.63 369.33 537.63 371.59 537.63 373.86 536.73 376.03 535.12 377.64 533.52 379.24 531.35 380.14 529.08 380.14H492.52Z" fill="#ffffff" opacity="1" stroke-width="4" stroke="none"></path><path d="M494.41 382.03C500.18 382.03 504.85 377.36 504.85 371.59 504.85 365.83 500.18 361.16 494.41 361.16 488.65 361.16 483.98 365.83 483.98 371.59 483.98 377.36 488.65 382.03 494.41 382.03Z" fill="#ffffff" opacity="1" stroke-width="4" stroke="none"></path><path d="M890.9 243.58H598.29C590.03 243.58 583.34 250.27 583.34 258.52V418.87C583.34 427.12 590.03 433.81 598.29 433.81H890.9C899.16 433.81 905.85 427.12 905.85 418.87V258.52C905.85 250.27 899.16 243.58 890.9 243.58Z" fill="#57b46a" opacity="1" stroke-width="4" stroke="none"></path><path d="M611.2 401.63H877.99" stroke="#ffffff" stroke-width="4" stroke-linecap="round" stroke-linejoin="round" opacity="1" fill="none"></path><path d="M671.34 413.71C677.91 413.71 683.23 408.38 683.23 401.81 683.23 395.24 677.91 389.91 671.34 389.91 664.76 389.91 659.44 395.24 659.44 401.81 659.44 408.38 664.76 413.71 671.34 413.71Z" fill="#30ff5a" opacity="1" stroke-width="4" stroke="none"></path><path d="M617.05 298.56C615.5 298.56 614.01 297.94 612.91 296.84 611.81 295.74 611.19 294.25 611.19 292.7V269.73C611.17 268.56 611.51 267.4 612.16 266.43 612.71 265.63 613.44 264.97 614.3 264.52 615.15 264.07 616.11 263.83 617.07 263.83 618.24 263.83 619.39 264.18 620.35 264.84L637.53 276.29C638.34 276.83 639.01 277.56 639.47 278.42 639.93 279.28 640.17 280.24 640.17 281.21 640.17 282.19 639.93 283.15 639.47 284 639.01 284.86 638.34 285.59 637.53 286.13L620.35 297.59C619.36 298.21 618.22 298.55 617.05 298.56Z" fill="#ffffff" opacity="1" stroke-width="4" stroke="none"></path><path d="M433.86 218.14L433.84 196.13C433.85 188.88 436.73 181.92 441.86 176.79 447 171.66 453.95 168.77 461.21 168.76H908.51C915.76 168.77 922.72 171.66 927.86 176.79 932.99 181.92 935.88 188.88 935.88 196.13V218.14L433.86 218.14Z" fill="#57b46a" opacity="1" stroke-width="4" stroke="none"></path><path d="M621.87 193.88H747.92" stroke="#ffffff" stroke-width="4" stroke-linecap="round" stroke-linejoin="round" opacity="1" fill="none"></path><path d="M472.42 202.61C477.14 202.61 480.97 198.78 480.97 194.06 480.97 189.34 477.14 185.52 472.42 185.52 467.7 185.52 463.87 189.34 463.87 194.06 463.87 198.78 467.7 202.61 472.42 202.61Z" fill="#323232" opacity="1" stroke-width="4" stroke="none"></path><path d="M500.14 202.61C504.86 202.61 508.69 198.78 508.69 194.06 508.69 189.34 504.86 185.52 500.14 185.52 495.42 185.52 491.59 189.34 491.59 194.06 491.59 198.78 495.42 202.61 500.14 202.61Z" fill="#ffffff" opacity="1" stroke-width="4" stroke="none"></path><path d="M527.86 202.61C532.58 202.61 536.41 198.78 536.41 194.06 536.41 189.34 532.58 185.52 527.86 185.52 523.14 185.52 519.31 189.34 519.31 194.06 519.31 198.78 523.14 202.61 527.86 202.61Z" fill="#ffffff" opacity="1" stroke-width="4" stroke="none"></path><path d="M935.25 463.65H434.46" stroke="#57b46a" stroke-width="4" stroke-linecap="round" stroke-linejoin="round" opacity="1" fill="none"></path><path d="M729.64 467.91V575.14" stroke="#57b46a" stroke-width="4" stroke-linecap="round" stroke-linejoin="round" opacity="1" fill="none"></path><path d="M729.54 474.04C728.92 474.04 728.3 473.89 727.76 473.6 727.21 473.31 726.74 472.88 726.39 472.37L718.78 460.92C718.39 460.29 718.18 459.57 718.17 458.84 718.18 457.84 718.58 456.88 719.29 456.18 720 455.48 720.96 455.1 721.96 455.1H737.25C737.99 455.09 738.72 455.3 739.33 455.71 740.16 456.27 740.74 457.13 740.93 458.11 741.03 458.59 741.04 459.09 740.94 459.57 740.84 460.05 740.65 460.51 740.37 460.92L732.76 472.37C732.49 472.83 732.09 473.2 731.59 473.41 730.99 473.83 730.27 474.05 729.54 474.04L729.54 474.04Z" fill="#ffffff" opacity="1" stroke-width="4" stroke="none"></path><path d="M474.25 511.8C471.5 511.8 468.86 510.7 466.91 508.76 464.97 506.81 463.87 504.17 463.87 501.42 463.87 498.67 464.97 496.03 466.91 494.09 468.86 492.14 471.5 491.05 474.25 491.05H605.23C607.99 491.05 610.62 492.14 612.57 494.09 614.51 496.03 615.61 498.67 615.61 501.42 615.61 504.17 614.51 506.81 612.57 508.76 610.62 510.7 607.99 511.8 605.23 511.8H474.25Z" fill="#ffffff" opacity="1" stroke-width="4" stroke="none"></path><path d="M591.83 547.74C589.08 547.74 586.44 546.65 584.49 544.7 582.55 542.76 581.46 540.12 581.46 537.37 581.46 534.61 582.55 531.98 584.49 530.03 586.44 528.08 589.08 526.99 591.83 526.99H683.22C685.97 526.99 688.61 528.08 690.55 530.03 692.5 531.98 693.59 534.61 693.59 537.37 693.59 540.12 692.5 542.76 690.55 544.7 688.61 546.65 685.97 547.74 683.22 547.74H591.83Z" fill="#323232" opacity="1" stroke-width="4" stroke="none"></path><path d="M719.16 547.74C716.41 547.74 713.77 546.65 711.82 544.7 709.88 542.76 708.79 540.12 708.79 537.37 708.79 534.61 709.88 531.98 711.82 530.03 713.77 528.08 716.41 526.99 719.16 526.99H803.23C805.99 526.99 808.63 528.08 810.57 530.03 812.52 531.98 813.61 534.61 813.61 537.37 813.61 540.12 812.52 542.76 810.57 544.7 808.63 546.65 805.99 547.74 803.23 547.74H719.16Z" fill="#30ff5a" opacity="1" stroke-width="4" stroke="none"></path></g><g><path d="M701.04 587.21H626.64C626.64 587.21 618.01 631.17 643.88 654.48H718.28C692.41 631.17 701.04 587.21 701.04 587.21Z" fill="#ffffff" opacity="1" stroke-width="4" stroke="none"></path></g><g><path d="M635.86 850.83H658.58V967.48H635.86V850.83Z" fill="#57b46a" opacity="1" stroke-width="4" stroke="none"></path><path d="M658.58 882.85V872.03H635.86V888.13L658.58 882.85Z" fill="#50a461" opacity="0.2" stroke-width="4" stroke="none"></path><path d="M620.83 854.41L672.71 854.41V877.13H620.83V854.41Z" fill="#ffffff" opacity="1" stroke-width="4" stroke="none"></path><path d="M672.71 854.41L620.92 854.41V871.49L672.71 860.67V854.41Z" fill="#222222" opacity="0.2" stroke-width="4" stroke="none"></path><path d="M621.28 959.43H673.16V982.15H621.28V959.43Z" fill="#ffffff" opacity="1" stroke-width="4" stroke="none"></path><path d="M762.79 844.03L787.75 702.6C790.79 685.43 779.34 671.56 762.17 671.56H655.18C638.01 671.56 621.72 685.43 618.68 702.6L593.73 844.03C593.01 847.25 594.98 850.47 598.2 851.19 598.73 851.28 599.27 851.37 599.81 851.37H754.21C758.5 851.28 762.08 848.23 762.79 844.03Z" fill="#ffffff" opacity="1" stroke-width="4" stroke="none"></path><path d="M517.96 842.87V843.23C517.96 849.4 522.97 854.41 529.14 854.41L751.43 854.41C757.6 854.41 762.61 849.4 762.61 843.23V842.87C762.61 836.7 757.6 831.69 751.43 831.69H529.14C522.97 831.69 517.96 836.7 517.96 842.87Z" fill="#57b46a" opacity="1" stroke-width="4" stroke="none"></path><path d="M717.71 1014.89V994.76C717.71 987.78 712.07 982.15 705.1 982.15H589.34C582.36 982.15 576.73 987.78 576.73 994.76V1014.89" stroke="#222222" stroke-width="4" stroke-linecap="round" stroke-linejoin="round" opacity="1" fill="none"></path><path d="M647.22 982.15V998.52" stroke="#222222" stroke-width="4" stroke-linecap="round" stroke-linejoin="round" opacity="1" fill="none"></path><path d="M717.44 1036.71C706.62 1036.71 697.85 1027.95 697.85 1017.12 697.85 1006.31 706.62 997.53 717.44 997.53 728.26 997.53 737.03 1006.31 737.03 1017.12 737.03 1027.95 728.26 1036.71 717.44 1036.71Z" fill="#57b46a" opacity="1" stroke-width="4" stroke="none"></path><path d="M717.44 1022.58C714.43 1022.58 711.98 1020.14 711.98 1017.12 711.98 1014.11 714.43 1011.67 717.44 1011.67 720.45 1011.67 722.9 1014.11 722.9 1017.12 722.9 1020.14 720.45 1022.58 717.44 1022.58Z" fill="#ffffff" opacity="1" stroke-width="4" stroke="none"></path><path d="M574.73 1036.59C563.96 1035.52 556.09 1025.93 557.16 1015.16 558.22 1004.4 567.82 996.53 578.58 997.6 589.35 998.67 597.21 1008.26 596.15 1019.03 595.09 1029.79 585.49 1037.65 574.73 1036.59Z" fill="#57b46a" opacity="1" stroke-width="4" stroke="none"></path><path d="M576.64 1022.58C573.63 1022.58 571.18 1020.14 571.18 1017.12 571.18 1014.11 573.63 1011.67 576.64 1011.67 579.65 1011.67 582.1 1014.11 582.1 1017.12 582.1 1020.14 579.65 1022.58 576.64 1022.58Z" fill="#ffffff" opacity="1" stroke-width="4" stroke="none"></path><path d="M647.58 1036.71C636.76 1036.71 627.99 1027.95 627.99 1017.12 627.99 1006.31 636.76 997.53 647.58 997.53 658.4 997.53 667.17 1006.31 667.17 1017.12 667.17 1027.95 658.4 1036.71 647.58 1036.71Z" fill="#57b46a" opacity="1" stroke-width="4" stroke="none"></path><path d="M647.58 1022.58C644.56 1022.58 642.12 1020.14 642.12 1017.12 642.12 1014.11 644.56 1011.67 647.58 1011.67 650.59 1011.67 653.03 1014.11 653.03 1017.12 653.03 1020.14 650.59 1022.58 647.58 1022.58Z" fill="#ffffff" opacity="1" stroke-width="4" stroke="none"></path><path d="M658.58 959.43H635.86" stroke="#222222" stroke-width="4" stroke-linecap="round" stroke-linejoin="round" opacity="1" fill="none"></path><path d="M658.13 879.01H636.39" stroke="#222222" stroke-width="4" stroke-linecap="round" stroke-linejoin="round" opacity="1" fill="none"></path><path d="M672.71 855.39L621.81 855.39" stroke="#50a461" stroke-width="4" stroke-linecap="round" stroke-linejoin="round" opacity="1" fill="none"></path></g><g><path d="M1372.47 903.57C1383.77 903.57 1392.93 894.4 1392.93 883.1 1392.93 871.8 1383.77 862.63 1372.47 862.63 1361.16 862.63 1352 871.8 1352 883.1 1352 894.4 1361.16 903.57 1372.47 903.57Z" fill="#323232" opacity="1" stroke-width="4" stroke="none"></path></g><g><path d="M293.42 402.69C300.98 402.69 307.11 396.56 307.11 389 307.11 381.44 300.98 375.31 293.42 375.31 285.86 375.31 279.73 381.44 279.73 389 279.73 396.56 285.86 402.69 293.42 402.69Z" fill="#323232" opacity="1" stroke-width="4" stroke="none"></path></g><g><path d="M873.66 713.37H827.6L815.08 645.61C815.08 645.53 815.08 645.53 815.16 645.53H886.19C886.26 645.53 886.26 645.61 886.26 645.61L873.66 713.37Z" fill="#323232" opacity="1" stroke-width="4" stroke="none"></path><path d="M873.66 713.37H858.65L861.6 645.53H886.19C886.26 645.53 886.26 645.61 886.26 645.61L873.66 713.37Z" fill="#000000" opacity="0.3" stroke-width="4" stroke="none"></path><path d="M886.11 645.53C886.19 645.53 886.19 645.61 886.19 645.69 885.17 647.09 874.67 660.94 850.63 660.94 826.59 660.94 816.09 647.09 815.08 645.69 815.08 645.61 815.08 645.53 815.16 645.53H886.11Z" fill="#000000" opacity="1" stroke-width="4" stroke="none"></path><path d="M896.61 691.2C904.69 691.2 911.24 684.66 911.24 676.57 911.24 668.5 904.69 661.95 896.61 661.95 888.54 661.95 881.98 668.5 881.98 676.57 881.98 684.66 888.54 691.2 896.61 691.2Z" stroke="#000000" stroke-width="4" stroke-linecap="round" stroke-linejoin="round" opacity="1" fill="none"></path></g><g><path d="M1364.48 450.88C1377.01 450.88 1387.16 440.72 1387.16 428.2 1387.16 415.68 1377.01 405.52 1364.48 405.52 1351.96 405.52 1341.81 415.68 1341.81 428.2 1341.81 440.72 1351.96 450.88 1364.48 450.88Z" fill="#61baff" opacity="1" stroke-width="4" stroke="none"></path></g><g><path d="M236.87 844C247.4 844 255.94 835.46 255.94 824.93 255.94 814.39 247.4 805.85 236.87 805.85 226.34 805.85 217.8 814.39 217.8 824.93 217.8 835.46 226.34 844 236.87 844Z" fill="#61baff" opacity="1" stroke-width="4" stroke="none"></path></g><g><path d="M422.36 679.96C407.1 679.96 391.33 667.54 387.21 652.27L358.43 544.83C356.39 537.22 357.5 530.12 361.55 524.84 365.4 519.81 371.52 517.04 378.76 517.04H551.22C566.5 517.04 582.27 529.5 586.37 544.82L615.16 652.17C617.16 659.8 616.02 666.92 611.94 672.21 608.09 677.21 602.01 679.96 594.83 679.96H422.36Z" fill="#61baff" opacity="1" stroke-width="4" stroke="none"></path><path d="M516.01 679.96C515.95 679.6 515.91 679.23 515.9 678.86 515.88 678.5 515.86 678.14 515.81 677.8 514.7 666.71 507.49 657.68 499.73 657.68 498.27 657.7 496.84 658.02 495.51 658.64 494.19 659.25 493.02 660.15 492.07 661.25 488.65 665 486.98 671.18 487.59 677.79L487.84 679.93 468.54 679.96 464.24 635.39 531.09 635.36 535.48 679.96H516.01Z" fill="#000000" opacity="0.3" stroke-width="4" stroke="none"></path><path d="M442.84 714.23L463.89 635.38 530.83 635.36 509.69 714.23H442.84ZM491.25 657.68C483.52 657.68 474.81 666.71 471.82 677.8 470.03 684.47 470.67 690.69 473.55 694.45 474.36 695.54 475.41 696.42 476.62 697.02 477.84 697.62 479.18 697.92 480.54 697.9 488.31 697.9 497.06 688.88 500.05 677.79 501.8 671.1 501.12 664.87 498.23 661.13 497.42 660.04 496.37 659.16 495.15 658.56 493.94 657.97 492.6 657.66 491.25 657.68Z" fill="#ffffff" opacity="1" stroke-width="4" stroke="none"></path><path d="M457.23 558.1L461.43 573.87" stroke="#000000" stroke-width="4" stroke-linecap="round" stroke-linejoin="round" opacity="1" fill="none"></path><path d="M476.94 558.1L481.14 573.87" stroke="#000000" stroke-width="4" stroke-linecap="round" stroke-linejoin="round" opacity="1" fill="none"></path><path d="M496.64 558.1L500.84 573.87" stroke="#000000" stroke-width="4" stroke-linecap="round" stroke-linejoin="round" opacity="1" fill="none"></path><path d="M540.08 714.23C540.08 712.65 540.38 711.09 540.98 709.63 541.58 708.17 542.47 706.84 543.58 705.72 544.7 704.6 546.02 703.71 547.48 703.11 548.94 702.5 550.5 702.19 552.08 702.19H695.16C698.34 702.19 701.4 703.46 703.65 705.71 705.91 707.97 707.17 711.02 707.18 714.21V714.23H540.08Z" fill="#61baff" opacity="1" stroke-width="4" stroke="none"></path><path d="M650.61 714.23C650.6 712.65 650.91 711.09 651.51 709.63 652.11 708.17 652.99 706.84 654.1 705.72 655.22 704.6 656.54 703.71 658 703.11 659.46 702.5 661.02 702.19 662.6 702.19H695.16C698.34 702.19 701.4 703.46 703.65 705.71 705.91 707.97 707.17 711.02 707.18 714.21V714.23H650.61Z" fill="#ffffff" opacity="1" stroke-width="4" stroke="none"></path></g><g><path d="M894.27 713.52H399.51C376.04 713.52 357.06 732.5 357.06 755.97V1038.36C357.06 1045.46 362.85 1051.25 369.94 1051.25 370.04 1051.25 370.04 1051.25 370.14 1051.25 377.24 1050.95 382.83 1045.06 382.73 1037.96V762.47C382.73 749.68 393.12 739.29 405.9 739.29H887.78C900.56 739.29 910.95 749.68 910.95 762.47V1037.86C910.85 1044.96 916.44 1050.85 923.54 1051.15 930.63 1051.35 936.52 1045.66 936.72 1038.56 936.72 1038.46 936.72 1038.36 936.72 1038.26V755.97C936.72 732.5 917.74 713.52 894.27 713.52Z" fill="#57b46a" opacity="1" stroke-width="4" stroke="none"></path></g><g><path d="M989.49 611.2C992.97 611.2 996.32 612.58 998.77 615.04 1001.24 617.51 1002.62 620.85 1002.62 624.33V650.51C1002.66 652.24 1002.37 653.95 1001.75 655.56 1001.13 657.17 1000.19 658.65 999.01 659.89 997.81 661.14 996.39 662.15 994.82 662.85 993.24 663.54 991.54 663.93 989.81 663.97 988.09 664.01 986.37 663.71 984.76 663.09 983.15 662.47 981.68 661.54 980.44 660.35 979.18 659.16 978.18 657.74 977.48 656.16 976.78 654.58 976.4 652.88 976.36 651.16V624.33C976.36 620.85 977.74 617.51 980.2 615.04 982.67 612.58 986.01 611.2 989.49 611.2ZM989.49 607.97C985.16 607.98 980.99 609.7 977.93 612.77 974.86 615.83 973.14 619.99 973.14 624.33V624.33 650.51C973.14 654.85 974.86 659.01 977.93 662.08 980.99 665.14 985.16 666.87 989.49 666.87V666.87C993.83 666.87 997.98 665.14 1001.05 662.08 1004.11 659.01 1005.84 654.85 1005.85 650.51V624.33C1005.84 619.99 1004.11 615.83 1001.05 612.77 997.98 609.7 993.83 607.98 989.49 607.97V607.97Z" fill="#15421e" opacity="1" stroke-width="4" stroke="none"></path><path d="M964.35 636.98H1014.63C1016.92 636.98 1019.11 637.89 1020.72 639.51 1022.34 641.12 1023.25 643.31 1023.25 645.6V675.57C1023.24 680.93 1021.11 686.07 1017.32 689.87 1013.53 693.66 1008.38 695.79 1003.03 695.79H975.88C970.51 695.79 965.37 693.66 961.58 689.87 957.79 686.07 955.65 680.93 955.65 675.57V645.6C955.68 643.31 956.62 641.12 958.25 639.51 959.87 637.9 962.07 636.99 964.35 636.98Z" fill="#30ff5a" opacity="1" stroke-width="4" stroke="none"></path><path d="M989.49 657.36C990.42 657.36 991.32 657.64 992.09 658.15 992.85 658.66 993.46 659.39 993.81 660.25 994.16 661.1 994.25 662.04 994.08 662.95 993.89 663.85 993.45 664.69 992.79 665.34 992.14 665.99 991.3 666.44 990.4 666.62 989.49 666.8 988.56 666.71 987.7 666.35 986.85 666 986.12 665.4 985.61 664.63 985.09 663.86 984.82 662.96 984.82 662.04 984.83 660.8 985.33 659.62 986.2 658.75 987.07 657.87 988.26 657.38 989.49 657.36ZM989.49 654.14C987.93 654.14 986.41 654.6 985.1 655.47 983.8 656.34 982.8 657.57 982.19 659.01 981.6 660.46 981.44 662.04 981.75 663.58 982.05 665.11 982.8 666.51 983.91 667.62 985.01 668.72 986.42 669.47 987.95 669.78 989.48 670.08 991.07 669.93 992.51 669.33 993.95 668.73 995.19 667.72 996.06 666.42 996.92 665.12 997.39 663.6 997.39 662.04 997.38 659.94 996.55 657.94 995.07 656.46 993.59 654.98 991.59 654.14 989.49 654.14Z" fill="#15421e" opacity="1" stroke-width="4" stroke="none"></path><path d="M989.33 668.64V675.89" stroke="#15421e" stroke-width="4" stroke-linecap="round" stroke-linejoin="round" opacity="1" fill="none"></path></g><g><path d="M1162.6 1048.56C1167.05 1027.71 1169.46 1006.59 1170.08 985.3H1078.66C1078.75 993.41 1078.84 1000.89 1078.49 1007.57L1106.82 1069.59 1162.6 1048.56Z" fill="#e5bb98" opacity="1" stroke-width="4" stroke="none"></path><path d="M1246.53 1070.75C1247.69 1071.1 1306.76 1049.01 1306.76 1049.01 1309.08 1027.89 1310.51 1006.33 1308.46 985.3H1215.88C1217.22 993.5 1218.55 1001.16 1219.09 1008.02 1219.09 1008.02 1244.3 1070.12 1246.53 1070.75Z" fill="#e5bb98" opacity="1" stroke-width="4" stroke="none"></path><path d="M1306.14 962.13C1305.34 956.16 1304.54 950.55 1303.65 945.2 1293.93 885.77 1281.01 865.99 1278.52 816.89 1275.85 763.43 1290.1 690.37 1258.92 606.97H1207.33C1207.33 606.88 1207.24 606.7 1207.24 606.61H1123.48C1123.48 606.61 1068.24 743.83 1072.69 861.45 1073.76 890.4 1075.72 919.18 1077.06 945.2 1077.86 960.26 1078.49 974.43 1078.66 987.08H1170.08C1170.35 977.72 1170.26 967.83 1169.73 957.68 1169.55 953.22 1169.37 949.03 1169.1 945.2 1166.16 900.21 1162.69 890.94 1161.8 850.75 1161.44 832.31 1169.55 808.7 1179.53 782.32 1183.27 813.24 1187.28 842.29 1191.2 863.23 1196.46 891.12 1202.78 919.45 1208.13 945.2 1211.25 960.17 1214.1 974.34 1216.15 987.08H1308.55C1308.01 978.97 1307.3 970.6 1306.14 962.13Z" fill="#57b46a" opacity="1" stroke-width="4" stroke="none"></path><path d="M1169.19 811.28L1179.71 781.43C1174.72 746.24 1172.4 716.12 1170.44 699.99 1170.44 699.99 1156.09 688.77 1161.8 781.16 1162.87 810.3 1169.19 811.28 1169.19 811.28Z" fill="#020202" opacity="0.2" stroke-width="4" stroke="none"></path><path d="M1140.68 1048.56C1133.55 1048.56 1126.51 1050.61 1120.45 1054.35L1110.47 1060.59C1108.51 1061.75 1106.02 1061.21 1104.86 1059.25 1104.24 1058.27 1104.06 1057.02 1104.41 1055.87L1113.86 1024.67C1116 1017.63 1111.99 1010.15 1104.86 1008.01 1103.61 1007.65 1102.36 1007.48 1101.12 1007.48H1078.49C1077.95 1020.31 1076.53 1030.47 1073.67 1036.89 1063.43 1059.97 1039.82 1059.16 1031.8 1081.44L1033.04 1083.84 1152.89 1082.51 1153.69 1081.44C1157.25 1070.66 1160.19 1059.61 1162.6 1048.47H1140.68V1048.56Z" fill="#61baff" opacity="1" stroke-width="4" stroke="none"></path><path d="M1066.95 1048.03L1076.26 1056.58" stroke="#41a7f5" stroke-width="4" stroke-linecap="round" stroke-linejoin="round" opacity="1" fill="none"></path><path d="M1057.09 1056.18L1067.35 1065.49" stroke="#41a7f5" stroke-width="4" stroke-linecap="round" stroke-linejoin="round" opacity="1" fill="none"></path><path d="M1029.12 1096.59L1147.63 1097.48C1147.63 1097.48 1150.21 1091.77 1153.69 1081.44H1031.8C1030.1 1086.34 1029.21 1091.42 1029.12 1096.59Z" fill="#ffffff" opacity="1" stroke-width="4" stroke="none"></path><path d="M1276.83 682.79C1274.06 658.73 1268.81 633.34 1258.92 606.87H1219.27C1219.27 606.96 1249.12 647.15 1276.83 682.79Z" fill="#020202" opacity="0.2" stroke-width="4" stroke="none"></path><path d="M1306.76 1049.01H1282.35C1275.22 1049.01 1268.18 1051.05 1262.12 1054.8L1252.15 1061.03C1250.19 1062.19 1247.69 1061.66 1246.53 1059.7 1245.91 1058.72 1245.73 1057.47 1246.09 1056.31L1255.53 1025.12C1257.67 1018.08 1253.66 1010.59 1246.53 1008.46 1245.28 1008.1 1244.04 1007.92 1242.7 1007.92H1219.18C1220.43 1021.91 1220.07 1032.88 1217.04 1039.56 1206.79 1062.64 1187.64 1059.16 1179.62 1081.44V1081.62L1301.69 1081.97C1303.29 1073.87 1305.34 1062.19 1306.76 1049.01Z" fill="#61baff" opacity="1" stroke-width="4" stroke="none"></path><path d="M1179.62 1081.44C1177.92 1086.34 1177.03 1091.42 1176.94 1096.59L1298.12 1097.48C1298.12 1097.48 1299.73 1091.6 1301.78 1081.44H1179.62Z" fill="#ffffff" opacity="1" stroke-width="4" stroke="none"></path><path d="M1170.35 699C1173.02 725.91 1176.14 754.51 1179.53 782.4" stroke="#000000" stroke-width="4" stroke-linecap="round" stroke-linejoin="round" opacity="1" fill="none"></path><path d="M1212.67 1047.95L1222.39 1056.58" stroke="#41a7f5" stroke-width="4" stroke-linecap="round" stroke-linejoin="round" opacity="1" fill="none"></path><path d="M1203.96 1056.56L1213.48 1065.49" stroke="#41a7f5" stroke-width="4" stroke-linecap="round" stroke-linejoin="round" opacity="1" fill="none"></path><path d="M1175.43 469.03C1199.66 471.97 1230.49 454.06 1240.47 428.85 1233.08 426.08 1225.41 424.12 1217.66 423.06 1220.87 407.73 1226.57 373.34 1228.44 363.53 1231.12 349.28 1231.3 325.67 1215.7 312.75 1200.11 299.83 1180.51 293.68 1160.01 301.7 1140.68 309.27 1135.87 320.14 1127.94 343.75 1127.94 343.75 1119.03 344.65 1118.14 348.21 1117.16 352.04 1122.59 358.9 1122.59 358.9 1116.35 378.5 1116.35 388.31 1123.04 397.66 1130.08 407.55 1147.54 407.91 1154.67 406.13L1151.28 423.06 1126.96 424.39C1135.24 449.7 1154.22 466.54 1175.43 469.03Z" fill="#e5bb98" opacity="1" stroke-width="4" stroke="none"></path><path d="M1164.11 296C1147.36 278.72 1117.51 289.32 1125.26 311.69 1133.28 334.85 1166.25 333.96 1165.53 335.09L1163.49 349.11C1161.71 359.09 1152.17 365.77 1142.19 363.99 1141.75 363.9 1141.21 363.81 1140.77 363.72L1122.59 358.91C1116.35 378.51 1116.35 389.83 1123.04 399.18 1130.08 409.08 1147.54 409.43 1154.67 407.65L1158.05 406.76C1165.81 404.62 1171.6 398.2 1173.02 390.27L1176.94 366.04C1176.94 366.04 1197.44 343.76 1209.91 357.13 1222.21 370.32 1196.55 392.77 1197.09 393 1206.35 403.46 1220.87 407.65 1220.87 407.65 1224.35 390.72 1228.62 369.25 1229.96 362.03 1232.63 347.77 1237.53 319.71 1221.94 306.79 1207.42 294.76 1183.89 290.03 1164.11 296Z" fill="#171314" opacity="1" stroke-width="4" stroke="none"></path><path d="M1189.42 376.73L1196.55 369.6" stroke="#000000" stroke-width="4" stroke-linecap="round" stroke-linejoin="round" opacity="1" fill="none"></path><path d="M1142.64 347.14C1144.26 347.14 1145.58 345.83 1145.58 344.2 1145.58 342.58 1144.26 341.26 1142.64 341.26 1141.02 341.26 1139.7 342.58 1139.7 344.2 1139.7 345.83 1141.02 347.14 1142.64 347.14Z" fill="#171314" opacity="1" stroke-width="4" stroke="none"></path><path d="M1127.94 374.06C1130.88 374.68 1134 373.7 1135.96 371.38" stroke="#000000" stroke-width="4" stroke-linecap="round" stroke-linejoin="round" opacity="1" fill="none"></path><path d="M1123.48 606.61C1123.48 606.61 1119.74 615.88 1114.3 631.56H1154.67V606.61H1123.48Z" fill="#61baff" opacity="1" stroke-width="4" stroke="none"></path><path d="M1266.94 631.56C1264.71 623.45 1262.04 615.26 1258.92 606.97H1207.33C1207.33 606.88 1207.24 606.79 1207.24 606.61H1187.64V631.56H1266.94Z" fill="#61baff" opacity="1" stroke-width="4" stroke="none"></path><path d="M1154.4 606.61L1187.81 606.52 1187.9 631.55H1154.4V606.61Z" fill="#ffffff" opacity="1" stroke-width="4" stroke="none"></path><path d="M1317.9 515.99C1317.9 515.99 1292.78 467.61 1266.05 443.55 1258.38 436.69 1248.94 431.97 1240.47 428.85 1224.35 452.19 1200.91 465.91 1176.59 462.97 1155.38 460.39 1137.83 445.69 1126.96 424.3L1067.44 427.42 1054.87 428.13 1064.14 512.25C1067.88 512.6 1071.62 512.87 1075.28 513.14 1096.84 514.56 1114.48 514.47 1118.23 514.83L1108.25 608.21 1275.94 607.5 1250.1 559.38 1317.9 515.99Z" fill="#ffffff" opacity="1" stroke-width="4" stroke="none"></path><path d="M1095.77 514.12C1107.09 514.47 1115.64 514.65 1118.14 514.83L1119.74 494.96 1095.77 514.12Z" fill="#727272" opacity="0.2" stroke-width="4" stroke="none"></path><path d="M1249.47 607.41L1274.33 606.87 1236.37 533.9 1249.47 607.41Z" fill="#727272" opacity="0.2" stroke-width="4" stroke="none"></path><path d="M1118.14 514.84L1119.92 492.56" stroke="#5e5e5e" stroke-width="4" stroke-linecap="round" stroke-linejoin="round" opacity="1" fill="none"></path><path d="M1317.72 515.73C1317.72 515.73 1343.56 562.06 1333.76 591.47 1323.96 620.87 1277.63 652.06 1258.03 666.31 1258.03 666.31 1255.35 678.79 1246.44 697.5 1246.44 697.5 1252.68 735.81 1246.44 739.38 1240.83 742.58 1233.97 714.43 1234.14 718.03 1233.52 721.97 1233.08 758.09 1218.82 750.96 1218.82 750.96 1212.58 758.98 1206.35 751.85 1206.35 751.85 1200.11 755.41 1197.44 743.83 1195.12 733.94 1193.87 709.08 1196.55 689.48 1198.77 673.53 1209.29 645.02 1225.95 624.43 1241.1 605.72 1261.59 582.56 1261.59 582.56L1249.92 559.21 1317.72 515.73Z" fill="#e5bb98" opacity="1" stroke-width="4" stroke="none"></path><path d="M1261.59 582.56L1270.5 571.86" stroke="#000000" stroke-width="4" stroke-linecap="round" stroke-linejoin="round" opacity="1" fill="none"></path><path d="M1206.35 751.85C1206.35 751.85 1204.56 727.79 1206.35 704.63" stroke="#000000" stroke-width="4" stroke-linecap="round" stroke-linejoin="round" opacity="1" fill="none"></path><path d="M1218.82 750.96C1218.82 750.96 1218.82 728.68 1220.6 704.63" stroke="#000000" stroke-width="4" stroke-linecap="round" stroke-linejoin="round" opacity="1" fill="none"></path><path d="M1233.26 701.77L1234.3 718.08" stroke="#000000" stroke-width="4" stroke-linecap="round" stroke-linejoin="round" opacity="1" fill="none"></path><path d="M1034.38 429.29C1034.38 429.29 1025.92 385.01 1013.89 341.08 998.83 285.93 979.49 230.68 967.55 234.16 961.85 235.85 965.77 251.98 972.9 276.04 965.77 271.58 957.75 275.15 957.75 283.16 947.95 279.6 945.28 288.51 945.28 292.97 937.26 294.75 937.26 306.33 937.26 313.46 937.26 319.7 940.82 324.15 946.17 324.15 946.7 335.11 947.06 345.54 955.97 352.66 953.3 453.35 977.09 483.11 991.61 493.45 1007.83 504.76 1038.03 509.84 1065.03 512.25L1055.76 428.13 1034.38 429.29Z" fill="#e5bb98" opacity="1" stroke-width="4" stroke="none"></path><path d="M1034.38 429.3L1037.05 441.78" stroke="#000000" stroke-width="4" stroke-linecap="round" stroke-linejoin="round" opacity="1" fill="none"></path><path d="M945.28 292.98C947.06 303.67 949.56 313.47 956.86 314.36 963.99 315.25 964.88 304.56 964.88 304.56" stroke="#000000" stroke-width="4" stroke-linecap="round" stroke-linejoin="round" opacity="1" fill="none"></path><path d="M946.17 324.16C949.73 322.38 952.41 318.81 952.41 313.47" stroke="#000000" stroke-width="4" stroke-linecap="round" stroke-linejoin="round" opacity="1" fill="none"></path><path d="M1004.26 308.65C996.42 302.5 976.46 292.97 966.66 292.08 955.97 291.1 965.77 309.9 977.35 315.24 972.37 325.13 970.85 336.45 972.9 347.32" stroke="#000000" stroke-width="4" stroke-linecap="round" stroke-linejoin="round" opacity="1" fill="none"></path><path d="M957.75 283.17C957.75 286.74 958.64 292.08 961.32 294.76" stroke="#000000" stroke-width="4" stroke-linecap="round" stroke-linejoin="round" opacity="1" fill="none"></path><path d="M972.9 276.05C973.7 278.81 975.13 280.77 976.11 282.91" stroke="#000000" stroke-width="4" stroke-linecap="round" stroke-linejoin="round" opacity="1" fill="none"></path><path d="M1232.81 525.53L1249.74 558.86" stroke="#5e5e5e" stroke-width="4" stroke-linecap="round" stroke-linejoin="round" opacity="1" fill="none"></path></g><g><path d="M503 922.65C493.6 919.3 477.24 914.86 469.54 924.5 459.93 936.59 475.64 950.62 482.64 934.62 489.83 912.69 463.32 899.91 470.03 887.08 477 873.4 502.22 887.11 517.31 881.72 529.84 877.24 530.16 861.99 530.16 861.99" stroke="#ffffff" stroke-width="4" stroke-linecap="round" opacity="1" fill="none"></path></g><g><path d="M1131.88 184.94L1137.97 125.59" stroke="#ffffff" stroke-width="4" stroke-linecap="round" stroke-linejoin="round" opacity="1" fill="none"></path><path d="M1081.66 247.33L1043.62 165.16" stroke="#ffffff" stroke-width="4" stroke-linecap="round" stroke-linejoin="round" opacity="1" fill="none"></path><path d="M1027.95 269.24L988.38 243.37" stroke="#ffffff" stroke-width="4" stroke-linecap="round" stroke-linejoin="round" opacity="1" fill="none"></path></g></svg>